<?xml version="1.0" encoding="utf-8" standalone="no"?>
<!DOCTYPE svg PUBLIC "-//W3C//DTD SVG 1.1//EN"
  "http://www.w3.org/Graphics/SVG/1.1/DTD/svg11.dtd">
<svg xmlns:xlink="http://www.w3.org/1999/xlink" width="1296pt" height="648pt" viewBox="0 0 1296 648" xmlns="http://www.w3.org/2000/svg" version="1.1">
 <metadata>
  <rdf:RDF xmlns:dc="http://purl.org/dc/elements/1.1/" xmlns:cc="http://creativecommons.org/ns#" xmlns:rdf="http://www.w3.org/1999/02/22-rdf-syntax-ns#">
   <cc:Work>
    <dc:type rdf:resource="http://purl.org/dc/dcmitype/StillImage"/>
    <dc:date>2023-01-23T18:47:28.669961</dc:date>
    <dc:format>image/svg+xml</dc:format>
    <dc:creator>
     <cc:Agent>
      <dc:title>Matplotlib v3.6.3, https://matplotlib.org/</dc:title>
     </cc:Agent>
    </dc:creator>
   </cc:Work>
  </rdf:RDF>
 </metadata>
 <defs>
  <style type="text/css">*{stroke-linejoin: round; stroke-linecap: butt}</style>
 </defs>
 <g id="figure_1">
  <g id="patch_1">
   <path d="M 0 648 
L 1296 648 
L 1296 0 
L 0 0 
L 0 648 
z
" style="fill: none"/>
  </g>
  <g id="axes_1">
   <g id="patch_2">
    <path d="M 162 576.72 
L 1166.4 576.72 
L 1166.4 77.76 
L 162 77.76 
L 162 576.72 
z
" style="fill: none"/>
   </g>
   <g id="matplotlib.axis_1">
    <g id="xtick_1">
     <g id="line2d_1">
      <defs>
       <path id="m2356902eeb" d="M 0 0 
L 0 3.5 
" style="stroke: #000000; stroke-width: 0.8"/>
      </defs>
      <g>
       <use xlink:href="#m2356902eeb" x="206.923488" y="576.72" style="stroke: #000000; stroke-width: 0.8"/>
      </g>
     </g>
     <g id="text_1">
      <!-- 0 -->
      <g transform="translate(203.742238 591.318438) scale(0.1 -0.1)">
       <defs>
        <path id="DejaVuSans-30" d="M 2034 4250 
Q 1547 4250 1301 3770 
Q 1056 3291 1056 2328 
Q 1056 1369 1301 889 
Q 1547 409 2034 409 
Q 2525 409 2770 889 
Q 3016 1369 3016 2328 
Q 3016 3291 2770 3770 
Q 2525 4250 2034 4250 
z
M 2034 4750 
Q 2819 4750 3233 4129 
Q 3647 3509 3647 2328 
Q 3647 1150 3233 529 
Q 2819 -91 2034 -91 
Q 1250 -91 836 529 
Q 422 1150 422 2328 
Q 422 3509 836 4129 
Q 1250 4750 2034 4750 
z
" transform="scale(0.015625)"/>
       </defs>
       <use xlink:href="#DejaVuSans-30"/>
      </g>
     </g>
    </g>
    <g id="xtick_2">
     <g id="line2d_2">
      <g>
       <use xlink:href="#m2356902eeb" x="243.476367" y="576.72" style="stroke: #000000; stroke-width: 0.8"/>
      </g>
     </g>
     <g id="text_2">
      <!-- 50 -->
      <g transform="translate(237.113867 591.318438) scale(0.1 -0.1)">
       <defs>
        <path id="DejaVuSans-35" d="M 691 4666 
L 3169 4666 
L 3169 4134 
L 1269 4134 
L 1269 2991 
Q 1406 3038 1543 3061 
Q 1681 3084 1819 3084 
Q 2600 3084 3056 2656 
Q 3513 2228 3513 1497 
Q 3513 744 3044 326 
Q 2575 -91 1722 -91 
Q 1428 -91 1123 -41 
Q 819 9 494 109 
L 494 744 
Q 775 591 1075 516 
Q 1375 441 1709 441 
Q 2250 441 2565 725 
Q 2881 1009 2881 1497 
Q 2881 1984 2565 2268 
Q 2250 2553 1709 2553 
Q 1456 2553 1204 2497 
Q 953 2441 691 2322 
L 691 4666 
z
" transform="scale(0.015625)"/>
       </defs>
       <use xlink:href="#DejaVuSans-35"/>
       <use xlink:href="#DejaVuSans-30" x="63.623047"/>
      </g>
     </g>
    </g>
    <g id="xtick_3">
     <g id="line2d_3">
      <g>
       <use xlink:href="#m2356902eeb" x="280.029245" y="576.72" style="stroke: #000000; stroke-width: 0.8"/>
      </g>
     </g>
     <g id="text_3">
      <!-- 100 -->
      <g transform="translate(270.485495 591.318438) scale(0.1 -0.1)">
       <defs>
        <path id="DejaVuSans-31" d="M 794 531 
L 1825 531 
L 1825 4091 
L 703 3866 
L 703 4441 
L 1819 4666 
L 2450 4666 
L 2450 531 
L 3481 531 
L 3481 0 
L 794 0 
L 794 531 
z
" transform="scale(0.015625)"/>
       </defs>
       <use xlink:href="#DejaVuSans-31"/>
       <use xlink:href="#DejaVuSans-30" x="63.623047"/>
       <use xlink:href="#DejaVuSans-30" x="127.246094"/>
      </g>
     </g>
    </g>
    <g id="xtick_4">
     <g id="line2d_4">
      <g>
       <use xlink:href="#m2356902eeb" x="316.582124" y="576.72" style="stroke: #000000; stroke-width: 0.8"/>
      </g>
     </g>
     <g id="text_4">
      <!-- 150 -->
      <g transform="translate(307.038374 591.318438) scale(0.1 -0.1)">
       <use xlink:href="#DejaVuSans-31"/>
       <use xlink:href="#DejaVuSans-35" x="63.623047"/>
       <use xlink:href="#DejaVuSans-30" x="127.246094"/>
      </g>
     </g>
    </g>
    <g id="xtick_5">
     <g id="line2d_5">
      <g>
       <use xlink:href="#m2356902eeb" x="353.135003" y="576.72" style="stroke: #000000; stroke-width: 0.8"/>
      </g>
     </g>
     <g id="text_5">
      <!-- 200 -->
      <g transform="translate(343.591253 591.318438) scale(0.1 -0.1)">
       <defs>
        <path id="DejaVuSans-32" d="M 1228 531 
L 3431 531 
L 3431 0 
L 469 0 
L 469 531 
Q 828 903 1448 1529 
Q 2069 2156 2228 2338 
Q 2531 2678 2651 2914 
Q 2772 3150 2772 3378 
Q 2772 3750 2511 3984 
Q 2250 4219 1831 4219 
Q 1534 4219 1204 4116 
Q 875 4013 500 3803 
L 500 4441 
Q 881 4594 1212 4672 
Q 1544 4750 1819 4750 
Q 2544 4750 2975 4387 
Q 3406 4025 3406 3419 
Q 3406 3131 3298 2873 
Q 3191 2616 2906 2266 
Q 2828 2175 2409 1742 
Q 1991 1309 1228 531 
z
" transform="scale(0.015625)"/>
       </defs>
       <use xlink:href="#DejaVuSans-32"/>
       <use xlink:href="#DejaVuSans-30" x="63.623047"/>
       <use xlink:href="#DejaVuSans-30" x="127.246094"/>
      </g>
     </g>
    </g>
    <g id="xtick_6">
     <g id="line2d_6">
      <g>
       <use xlink:href="#m2356902eeb" x="389.687881" y="576.72" style="stroke: #000000; stroke-width: 0.8"/>
      </g>
     </g>
     <g id="text_6">
      <!-- 250 -->
      <g transform="translate(380.144131 591.318438) scale(0.1 -0.1)">
       <use xlink:href="#DejaVuSans-32"/>
       <use xlink:href="#DejaVuSans-35" x="63.623047"/>
       <use xlink:href="#DejaVuSans-30" x="127.246094"/>
      </g>
     </g>
    </g>
    <g id="xtick_7">
     <g id="line2d_7">
      <g>
       <use xlink:href="#m2356902eeb" x="426.24076" y="576.72" style="stroke: #000000; stroke-width: 0.8"/>
      </g>
     </g>
     <g id="text_7">
      <!-- 300 -->
      <g transform="translate(416.69701 591.318438) scale(0.1 -0.1)">
       <defs>
        <path id="DejaVuSans-33" d="M 2597 2516 
Q 3050 2419 3304 2112 
Q 3559 1806 3559 1356 
Q 3559 666 3084 287 
Q 2609 -91 1734 -91 
Q 1441 -91 1130 -33 
Q 819 25 488 141 
L 488 750 
Q 750 597 1062 519 
Q 1375 441 1716 441 
Q 2309 441 2620 675 
Q 2931 909 2931 1356 
Q 2931 1769 2642 2001 
Q 2353 2234 1838 2234 
L 1294 2234 
L 1294 2753 
L 1863 2753 
Q 2328 2753 2575 2939 
Q 2822 3125 2822 3475 
Q 2822 3834 2567 4026 
Q 2313 4219 1838 4219 
Q 1578 4219 1281 4162 
Q 984 4106 628 3988 
L 628 4550 
Q 988 4650 1302 4700 
Q 1616 4750 1894 4750 
Q 2613 4750 3031 4423 
Q 3450 4097 3450 3541 
Q 3450 3153 3228 2886 
Q 3006 2619 2597 2516 
z
" transform="scale(0.015625)"/>
       </defs>
       <use xlink:href="#DejaVuSans-33"/>
       <use xlink:href="#DejaVuSans-30" x="63.623047"/>
       <use xlink:href="#DejaVuSans-30" x="127.246094"/>
      </g>
     </g>
    </g>
    <g id="xtick_8">
     <g id="line2d_8">
      <g>
       <use xlink:href="#m2356902eeb" x="462.793639" y="576.72" style="stroke: #000000; stroke-width: 0.8"/>
      </g>
     </g>
     <g id="text_8">
      <!-- 350 -->
      <g transform="translate(453.249889 591.318438) scale(0.1 -0.1)">
       <use xlink:href="#DejaVuSans-33"/>
       <use xlink:href="#DejaVuSans-35" x="63.623047"/>
       <use xlink:href="#DejaVuSans-30" x="127.246094"/>
      </g>
     </g>
    </g>
    <g id="xtick_9">
     <g id="line2d_9">
      <g>
       <use xlink:href="#m2356902eeb" x="499.346517" y="576.72" style="stroke: #000000; stroke-width: 0.8"/>
      </g>
     </g>
     <g id="text_9">
      <!-- 400 -->
      <g transform="translate(489.802767 591.318438) scale(0.1 -0.1)">
       <defs>
        <path id="DejaVuSans-34" d="M 2419 4116 
L 825 1625 
L 2419 1625 
L 2419 4116 
z
M 2253 4666 
L 3047 4666 
L 3047 1625 
L 3713 1625 
L 3713 1100 
L 3047 1100 
L 3047 0 
L 2419 0 
L 2419 1100 
L 313 1100 
L 313 1709 
L 2253 4666 
z
" transform="scale(0.015625)"/>
       </defs>
       <use xlink:href="#DejaVuSans-34"/>
       <use xlink:href="#DejaVuSans-30" x="63.623047"/>
       <use xlink:href="#DejaVuSans-30" x="127.246094"/>
      </g>
     </g>
    </g>
    <g id="xtick_10">
     <g id="line2d_10">
      <g>
       <use xlink:href="#m2356902eeb" x="535.899396" y="576.72" style="stroke: #000000; stroke-width: 0.8"/>
      </g>
     </g>
     <g id="text_10">
      <!-- 450 -->
      <g transform="translate(526.355646 591.318438) scale(0.1 -0.1)">
       <use xlink:href="#DejaVuSans-34"/>
       <use xlink:href="#DejaVuSans-35" x="63.623047"/>
       <use xlink:href="#DejaVuSans-30" x="127.246094"/>
      </g>
     </g>
    </g>
    <g id="xtick_11">
     <g id="line2d_11">
      <g>
       <use xlink:href="#m2356902eeb" x="572.452275" y="576.72" style="stroke: #000000; stroke-width: 0.8"/>
      </g>
     </g>
     <g id="text_11">
      <!-- 500 -->
      <g transform="translate(562.908525 591.318438) scale(0.1 -0.1)">
       <use xlink:href="#DejaVuSans-35"/>
       <use xlink:href="#DejaVuSans-30" x="63.623047"/>
       <use xlink:href="#DejaVuSans-30" x="127.246094"/>
      </g>
     </g>
    </g>
    <g id="xtick_12">
     <g id="line2d_12">
      <g>
       <use xlink:href="#m2356902eeb" x="609.005153" y="576.72" style="stroke: #000000; stroke-width: 0.8"/>
      </g>
     </g>
     <g id="text_12">
      <!-- 550 -->
      <g transform="translate(599.461403 591.318438) scale(0.1 -0.1)">
       <use xlink:href="#DejaVuSans-35"/>
       <use xlink:href="#DejaVuSans-35" x="63.623047"/>
       <use xlink:href="#DejaVuSans-30" x="127.246094"/>
      </g>
     </g>
    </g>
    <g id="xtick_13">
     <g id="line2d_13">
      <g>
       <use xlink:href="#m2356902eeb" x="645.558032" y="576.72" style="stroke: #000000; stroke-width: 0.8"/>
      </g>
     </g>
     <g id="text_13">
      <!-- 600 -->
      <g transform="translate(636.014282 591.318438) scale(0.1 -0.1)">
       <defs>
        <path id="DejaVuSans-36" d="M 2113 2584 
Q 1688 2584 1439 2293 
Q 1191 2003 1191 1497 
Q 1191 994 1439 701 
Q 1688 409 2113 409 
Q 2538 409 2786 701 
Q 3034 994 3034 1497 
Q 3034 2003 2786 2293 
Q 2538 2584 2113 2584 
z
M 3366 4563 
L 3366 3988 
Q 3128 4100 2886 4159 
Q 2644 4219 2406 4219 
Q 1781 4219 1451 3797 
Q 1122 3375 1075 2522 
Q 1259 2794 1537 2939 
Q 1816 3084 2150 3084 
Q 2853 3084 3261 2657 
Q 3669 2231 3669 1497 
Q 3669 778 3244 343 
Q 2819 -91 2113 -91 
Q 1303 -91 875 529 
Q 447 1150 447 2328 
Q 447 3434 972 4092 
Q 1497 4750 2381 4750 
Q 2619 4750 2861 4703 
Q 3103 4656 3366 4563 
z
" transform="scale(0.015625)"/>
       </defs>
       <use xlink:href="#DejaVuSans-36"/>
       <use xlink:href="#DejaVuSans-30" x="63.623047"/>
       <use xlink:href="#DejaVuSans-30" x="127.246094"/>
      </g>
     </g>
    </g>
    <g id="xtick_14">
     <g id="line2d_14">
      <g>
       <use xlink:href="#m2356902eeb" x="682.110911" y="576.72" style="stroke: #000000; stroke-width: 0.8"/>
      </g>
     </g>
     <g id="text_14">
      <!-- 650 -->
      <g transform="translate(672.567161 591.318438) scale(0.1 -0.1)">
       <use xlink:href="#DejaVuSans-36"/>
       <use xlink:href="#DejaVuSans-35" x="63.623047"/>
       <use xlink:href="#DejaVuSans-30" x="127.246094"/>
      </g>
     </g>
    </g>
    <g id="xtick_15">
     <g id="line2d_15">
      <g>
       <use xlink:href="#m2356902eeb" x="718.663789" y="576.72" style="stroke: #000000; stroke-width: 0.8"/>
      </g>
     </g>
     <g id="text_15">
      <!-- 700 -->
      <g transform="translate(709.120039 591.318438) scale(0.1 -0.1)">
       <defs>
        <path id="DejaVuSans-37" d="M 525 4666 
L 3525 4666 
L 3525 4397 
L 1831 0 
L 1172 0 
L 2766 4134 
L 525 4134 
L 525 4666 
z
" transform="scale(0.015625)"/>
       </defs>
       <use xlink:href="#DejaVuSans-37"/>
       <use xlink:href="#DejaVuSans-30" x="63.623047"/>
       <use xlink:href="#DejaVuSans-30" x="127.246094"/>
      </g>
     </g>
    </g>
    <g id="xtick_16">
     <g id="line2d_16">
      <g>
       <use xlink:href="#m2356902eeb" x="755.216668" y="576.72" style="stroke: #000000; stroke-width: 0.8"/>
      </g>
     </g>
     <g id="text_16">
      <!-- 750 -->
      <g transform="translate(745.672918 591.318438) scale(0.1 -0.1)">
       <use xlink:href="#DejaVuSans-37"/>
       <use xlink:href="#DejaVuSans-35" x="63.623047"/>
       <use xlink:href="#DejaVuSans-30" x="127.246094"/>
      </g>
     </g>
    </g>
    <g id="xtick_17">
     <g id="line2d_17">
      <g>
       <use xlink:href="#m2356902eeb" x="791.769547" y="576.72" style="stroke: #000000; stroke-width: 0.8"/>
      </g>
     </g>
     <g id="text_17">
      <!-- 800 -->
      <g transform="translate(782.225797 591.318438) scale(0.1 -0.1)">
       <defs>
        <path id="DejaVuSans-38" d="M 2034 2216 
Q 1584 2216 1326 1975 
Q 1069 1734 1069 1313 
Q 1069 891 1326 650 
Q 1584 409 2034 409 
Q 2484 409 2743 651 
Q 3003 894 3003 1313 
Q 3003 1734 2745 1975 
Q 2488 2216 2034 2216 
z
M 1403 2484 
Q 997 2584 770 2862 
Q 544 3141 544 3541 
Q 544 4100 942 4425 
Q 1341 4750 2034 4750 
Q 2731 4750 3128 4425 
Q 3525 4100 3525 3541 
Q 3525 3141 3298 2862 
Q 3072 2584 2669 2484 
Q 3125 2378 3379 2068 
Q 3634 1759 3634 1313 
Q 3634 634 3220 271 
Q 2806 -91 2034 -91 
Q 1263 -91 848 271 
Q 434 634 434 1313 
Q 434 1759 690 2068 
Q 947 2378 1403 2484 
z
M 1172 3481 
Q 1172 3119 1398 2916 
Q 1625 2713 2034 2713 
Q 2441 2713 2670 2916 
Q 2900 3119 2900 3481 
Q 2900 3844 2670 4047 
Q 2441 4250 2034 4250 
Q 1625 4250 1398 4047 
Q 1172 3844 1172 3481 
z
" transform="scale(0.015625)"/>
       </defs>
       <use xlink:href="#DejaVuSans-38"/>
       <use xlink:href="#DejaVuSans-30" x="63.623047"/>
       <use xlink:href="#DejaVuSans-30" x="127.246094"/>
      </g>
     </g>
    </g>
    <g id="xtick_18">
     <g id="line2d_18">
      <g>
       <use xlink:href="#m2356902eeb" x="828.322425" y="576.72" style="stroke: #000000; stroke-width: 0.8"/>
      </g>
     </g>
     <g id="text_18">
      <!-- 850 -->
      <g transform="translate(818.778675 591.318438) scale(0.1 -0.1)">
       <use xlink:href="#DejaVuSans-38"/>
       <use xlink:href="#DejaVuSans-35" x="63.623047"/>
       <use xlink:href="#DejaVuSans-30" x="127.246094"/>
      </g>
     </g>
    </g>
    <g id="xtick_19">
     <g id="line2d_19">
      <g>
       <use xlink:href="#m2356902eeb" x="864.875304" y="576.72" style="stroke: #000000; stroke-width: 0.8"/>
      </g>
     </g>
     <g id="text_19">
      <!-- 900 -->
      <g transform="translate(855.331554 591.318438) scale(0.1 -0.1)">
       <defs>
        <path id="DejaVuSans-39" d="M 703 97 
L 703 672 
Q 941 559 1184 500 
Q 1428 441 1663 441 
Q 2288 441 2617 861 
Q 2947 1281 2994 2138 
Q 2813 1869 2534 1725 
Q 2256 1581 1919 1581 
Q 1219 1581 811 2004 
Q 403 2428 403 3163 
Q 403 3881 828 4315 
Q 1253 4750 1959 4750 
Q 2769 4750 3195 4129 
Q 3622 3509 3622 2328 
Q 3622 1225 3098 567 
Q 2575 -91 1691 -91 
Q 1453 -91 1209 -44 
Q 966 3 703 97 
z
M 1959 2075 
Q 2384 2075 2632 2365 
Q 2881 2656 2881 3163 
Q 2881 3666 2632 3958 
Q 2384 4250 1959 4250 
Q 1534 4250 1286 3958 
Q 1038 3666 1038 3163 
Q 1038 2656 1286 2365 
Q 1534 2075 1959 2075 
z
" transform="scale(0.015625)"/>
       </defs>
       <use xlink:href="#DejaVuSans-39"/>
       <use xlink:href="#DejaVuSans-30" x="63.623047"/>
       <use xlink:href="#DejaVuSans-30" x="127.246094"/>
      </g>
     </g>
    </g>
    <g id="xtick_20">
     <g id="line2d_20">
      <g>
       <use xlink:href="#m2356902eeb" x="901.428183" y="576.72" style="stroke: #000000; stroke-width: 0.8"/>
      </g>
     </g>
     <g id="text_20">
      <!-- 950 -->
      <g transform="translate(891.884433 591.318438) scale(0.1 -0.1)">
       <use xlink:href="#DejaVuSans-39"/>
       <use xlink:href="#DejaVuSans-35" x="63.623047"/>
       <use xlink:href="#DejaVuSans-30" x="127.246094"/>
      </g>
     </g>
    </g>
    <g id="xtick_21">
     <g id="line2d_21">
      <g>
       <use xlink:href="#m2356902eeb" x="937.981061" y="576.72" style="stroke: #000000; stroke-width: 0.8"/>
      </g>
     </g>
     <g id="text_21">
      <!-- 1000 -->
      <g transform="translate(925.256061 591.318438) scale(0.1 -0.1)">
       <use xlink:href="#DejaVuSans-31"/>
       <use xlink:href="#DejaVuSans-30" x="63.623047"/>
       <use xlink:href="#DejaVuSans-30" x="127.246094"/>
       <use xlink:href="#DejaVuSans-30" x="190.869141"/>
      </g>
     </g>
    </g>
    <g id="xtick_22">
     <g id="line2d_22">
      <g>
       <use xlink:href="#m2356902eeb" x="974.53394" y="576.72" style="stroke: #000000; stroke-width: 0.8"/>
      </g>
     </g>
     <g id="text_22">
      <!-- 1050 -->
      <g transform="translate(961.80894 591.318438) scale(0.1 -0.1)">
       <use xlink:href="#DejaVuSans-31"/>
       <use xlink:href="#DejaVuSans-30" x="63.623047"/>
       <use xlink:href="#DejaVuSans-35" x="127.246094"/>
       <use xlink:href="#DejaVuSans-30" x="190.869141"/>
      </g>
     </g>
    </g>
    <g id="xtick_23">
     <g id="line2d_23">
      <g>
       <use xlink:href="#m2356902eeb" x="1011.086819" y="576.72" style="stroke: #000000; stroke-width: 0.8"/>
      </g>
     </g>
     <g id="text_23">
      <!-- 1100 -->
      <g transform="translate(998.361819 591.318438) scale(0.1 -0.1)">
       <use xlink:href="#DejaVuSans-31"/>
       <use xlink:href="#DejaVuSans-31" x="63.623047"/>
       <use xlink:href="#DejaVuSans-30" x="127.246094"/>
       <use xlink:href="#DejaVuSans-30" x="190.869141"/>
      </g>
     </g>
    </g>
    <g id="xtick_24">
     <g id="line2d_24">
      <g>
       <use xlink:href="#m2356902eeb" x="1047.639697" y="576.72" style="stroke: #000000; stroke-width: 0.8"/>
      </g>
     </g>
     <g id="text_24">
      <!-- 1150 -->
      <g transform="translate(1034.914697 591.318438) scale(0.1 -0.1)">
       <use xlink:href="#DejaVuSans-31"/>
       <use xlink:href="#DejaVuSans-31" x="63.623047"/>
       <use xlink:href="#DejaVuSans-35" x="127.246094"/>
       <use xlink:href="#DejaVuSans-30" x="190.869141"/>
      </g>
     </g>
    </g>
    <g id="xtick_25">
     <g id="line2d_25">
      <g>
       <use xlink:href="#m2356902eeb" x="1084.192576" y="576.72" style="stroke: #000000; stroke-width: 0.8"/>
      </g>
     </g>
     <g id="text_25">
      <!-- 1200 -->
      <g transform="translate(1071.467576 591.318438) scale(0.1 -0.1)">
       <use xlink:href="#DejaVuSans-31"/>
       <use xlink:href="#DejaVuSans-32" x="63.623047"/>
       <use xlink:href="#DejaVuSans-30" x="127.246094"/>
       <use xlink:href="#DejaVuSans-30" x="190.869141"/>
      </g>
     </g>
    </g>
    <g id="text_26">
     <!-- $\#\ batch$ -->
     <g transform="translate(634.275 609.795781) scale(0.15 -0.15)">
      <defs>
       <path id="DejaVuSans-23" d="M 3272 2816 
L 2363 2816 
L 2100 1772 
L 3016 1772 
L 3272 2816 
z
M 2803 4594 
L 2478 3297 
L 3391 3297 
L 3719 4594 
L 4219 4594 
L 3897 3297 
L 4872 3297 
L 4872 2816 
L 3775 2816 
L 3519 1772 
L 4513 1772 
L 4513 1294 
L 3397 1294 
L 3072 0 
L 2572 0 
L 2894 1294 
L 1978 1294 
L 1656 0 
L 1153 0 
L 1478 1294 
L 494 1294 
L 494 1772 
L 1594 1772 
L 1856 2816 
L 850 2816 
L 850 3297 
L 1978 3297 
L 2297 4594 
L 2803 4594 
z
" transform="scale(0.015625)"/>
       <path id="DejaVuSans-Oblique-62" d="M 3169 2138 
Q 3169 2591 2961 2847 
Q 2753 3103 2388 3103 
Q 2122 3103 1889 2973 
Q 1656 2844 1484 2597 
Q 1303 2338 1198 1995 
Q 1094 1653 1094 1313 
Q 1094 881 1298 636 
Q 1503 391 1863 391 
Q 2134 391 2365 517 
Q 2597 644 2772 891 
Q 2950 1147 3059 1487 
Q 3169 1828 3169 2138 
z
M 1381 2969 
Q 1594 3256 1914 3420 
Q 2234 3584 2584 3584 
Q 3122 3584 3439 3221 
Q 3756 2859 3756 2241 
Q 3756 1734 3570 1259 
Q 3384 784 3041 416 
Q 2816 172 2522 40 
Q 2228 -91 1906 -91 
Q 1566 -91 1316 65 
Q 1066 222 909 531 
L 806 0 
L 231 0 
L 1178 4863 
L 1753 4863 
L 1381 2969 
z
" transform="scale(0.015625)"/>
       <path id="DejaVuSans-Oblique-61" d="M 3438 1997 
L 3047 0 
L 2472 0 
L 2578 531 
Q 2325 219 2001 64 
Q 1678 -91 1281 -91 
Q 834 -91 548 182 
Q 263 456 263 884 
Q 263 1497 752 1853 
Q 1241 2209 2100 2209 
L 2900 2209 
L 2931 2363 
Q 2938 2388 2941 2417 
Q 2944 2447 2944 2509 
Q 2944 2788 2717 2942 
Q 2491 3097 2081 3097 
Q 1800 3097 1504 3025 
Q 1209 2953 897 2809 
L 997 3341 
Q 1322 3463 1633 3523 
Q 1944 3584 2234 3584 
Q 2853 3584 3176 3315 
Q 3500 3047 3500 2534 
Q 3500 2431 3484 2292 
Q 3469 2153 3438 1997 
z
M 2816 1759 
L 2241 1759 
Q 1534 1759 1195 1570 
Q 856 1381 856 984 
Q 856 709 1029 553 
Q 1203 397 1509 397 
Q 1978 397 2328 733 
Q 2678 1069 2791 1631 
L 2816 1759 
z
" transform="scale(0.015625)"/>
       <path id="DejaVuSans-Oblique-74" d="M 2706 3500 
L 2619 3053 
L 1472 3053 
L 1100 1153 
Q 1081 1047 1072 975 
Q 1063 903 1063 863 
Q 1063 663 1183 572 
Q 1303 481 1569 481 
L 2150 481 
L 2053 0 
L 1503 0 
Q 991 0 739 200 
Q 488 400 488 806 
Q 488 878 497 964 
Q 506 1050 525 1153 
L 897 3053 
L 409 3053 
L 500 3500 
L 978 3500 
L 1172 4494 
L 1747 4494 
L 1556 3500 
L 2706 3500 
z
" transform="scale(0.015625)"/>
       <path id="DejaVuSans-Oblique-63" d="M 3431 3366 
L 3316 2797 
Q 3109 2947 2876 3022 
Q 2644 3097 2394 3097 
Q 2119 3097 1870 3000 
Q 1622 2903 1453 2725 
Q 1184 2453 1037 2087 
Q 891 1722 891 1331 
Q 891 859 1127 628 
Q 1363 397 1844 397 
Q 2081 397 2348 469 
Q 2616 541 2906 684 
L 2797 116 
Q 2547 13 2283 -39 
Q 2019 -91 1741 -91 
Q 1044 -91 669 257 
Q 294 606 294 1253 
Q 294 1797 489 2255 
Q 684 2713 1069 3078 
Q 1331 3328 1684 3456 
Q 2038 3584 2456 3584 
Q 2700 3584 2940 3529 
Q 3181 3475 3431 3366 
z
" transform="scale(0.015625)"/>
       <path id="DejaVuSans-Oblique-68" d="M 3566 2113 
L 3156 0 
L 2578 0 
L 2988 2091 
Q 3016 2238 3031 2350 
Q 3047 2463 3047 2528 
Q 3047 2791 2881 2937 
Q 2716 3084 2419 3084 
Q 1956 3084 1617 2771 
Q 1278 2459 1178 1941 
L 800 0 
L 225 0 
L 1172 4863 
L 1747 4863 
L 1375 2950 
Q 1594 3244 1934 3414 
Q 2275 3584 2650 3584 
Q 3113 3584 3367 3334 
Q 3622 3084 3622 2631 
Q 3622 2519 3608 2391 
Q 3594 2263 3566 2113 
z
" transform="scale(0.015625)"/>
      </defs>
      <use xlink:href="#DejaVuSans-23" transform="translate(0 0.015625)"/>
      <use xlink:href="#DejaVuSans-Oblique-62" transform="translate(116.259441 0.015625)"/>
      <use xlink:href="#DejaVuSans-Oblique-61" transform="translate(179.736003 0.015625)"/>
      <use xlink:href="#DejaVuSans-Oblique-74" transform="translate(241.0153 0.015625)"/>
      <use xlink:href="#DejaVuSans-Oblique-63" transform="translate(280.224285 0.015625)"/>
      <use xlink:href="#DejaVuSans-Oblique-68" transform="translate(335.204753 0.015625)"/>
     </g>
    </g>
   </g>
   <g id="matplotlib.axis_2">
    <g id="ytick_1">
     <g id="line2d_26">
      <path d="M 162 492.249177 
L 1166.4 492.249177 
" clip-path="url(#pe6854862df)" style="fill: none; stroke: #808080; stroke-width: 0.8; stroke-linecap: square"/>
     </g>
     <g id="line2d_27">
      <defs>
       <path id="m1350cdc443" d="M 0 0 
L -3.5 0 
" style="stroke: #000000; stroke-width: 0.8"/>
      </defs>
      <g>
       <use xlink:href="#m1350cdc443" x="162" y="492.249177" style="stroke: #000000; stroke-width: 0.8"/>
      </g>
     </g>
     <g id="text_27">
      <!-- 675 -->
      <g transform="translate(135.9125 496.048395) scale(0.1 -0.1)">
       <use xlink:href="#DejaVuSans-36"/>
       <use xlink:href="#DejaVuSans-37" x="63.623047"/>
       <use xlink:href="#DejaVuSans-35" x="127.246094"/>
      </g>
     </g>
    </g>
    <g id="ytick_2">
     <g id="line2d_28">
      <path d="M 162 401.421341 
L 1166.4 401.421341 
" clip-path="url(#pe6854862df)" style="fill: none; stroke: #808080; stroke-width: 0.8; stroke-linecap: square"/>
     </g>
     <g id="line2d_29">
      <g>
       <use xlink:href="#m1350cdc443" x="162" y="401.421341" style="stroke: #000000; stroke-width: 0.8"/>
      </g>
     </g>
     <g id="text_28">
      <!-- 680 -->
      <g transform="translate(135.9125 405.220559) scale(0.1 -0.1)">
       <use xlink:href="#DejaVuSans-36"/>
       <use xlink:href="#DejaVuSans-38" x="63.623047"/>
       <use xlink:href="#DejaVuSans-30" x="127.246094"/>
      </g>
     </g>
    </g>
    <g id="ytick_3">
     <g id="line2d_30">
      <path d="M 162 310.593505 
L 1166.4 310.593505 
" clip-path="url(#pe6854862df)" style="fill: none; stroke: #808080; stroke-width: 0.8; stroke-linecap: square"/>
     </g>
     <g id="line2d_31">
      <g>
       <use xlink:href="#m1350cdc443" x="162" y="310.593505" style="stroke: #000000; stroke-width: 0.8"/>
      </g>
     </g>
     <g id="text_29">
      <!-- 685 -->
      <g transform="translate(135.9125 314.392724) scale(0.1 -0.1)">
       <use xlink:href="#DejaVuSans-36"/>
       <use xlink:href="#DejaVuSans-38" x="63.623047"/>
       <use xlink:href="#DejaVuSans-35" x="127.246094"/>
      </g>
     </g>
    </g>
    <g id="ytick_4">
     <g id="line2d_32">
      <path d="M 162 219.765669 
L 1166.4 219.765669 
" clip-path="url(#pe6854862df)" style="fill: none; stroke: #808080; stroke-width: 0.8; stroke-linecap: square"/>
     </g>
     <g id="line2d_33">
      <g>
       <use xlink:href="#m1350cdc443" x="162" y="219.765669" style="stroke: #000000; stroke-width: 0.8"/>
      </g>
     </g>
     <g id="text_30">
      <!-- 690 -->
      <g transform="translate(135.9125 223.564888) scale(0.1 -0.1)">
       <use xlink:href="#DejaVuSans-36"/>
       <use xlink:href="#DejaVuSans-39" x="63.623047"/>
       <use xlink:href="#DejaVuSans-30" x="127.246094"/>
      </g>
     </g>
    </g>
    <g id="ytick_5">
     <g id="line2d_34">
      <path d="M 162 128.937833 
L 1166.4 128.937833 
" clip-path="url(#pe6854862df)" style="fill: none; stroke: #808080; stroke-width: 0.8; stroke-linecap: square"/>
     </g>
     <g id="line2d_35">
      <g>
       <use xlink:href="#m1350cdc443" x="162" y="128.937833" style="stroke: #000000; stroke-width: 0.8"/>
      </g>
     </g>
     <g id="text_31">
      <!-- 695 -->
      <g transform="translate(135.9125 132.737052) scale(0.1 -0.1)">
       <use xlink:href="#DejaVuSans-36"/>
       <use xlink:href="#DejaVuSans-39" x="63.623047"/>
       <use xlink:href="#DejaVuSans-35" x="127.246094"/>
      </g>
     </g>
    </g>
    <g id="text_32">
     <!-- $E(T_{r})^{simulato}$ -->
     <g transform="translate(45.4875 324.120469) scale(0.15 -0.15)">
      <defs>
       <path id="DejaVuSans-Oblique-45" d="M 1081 4666 
L 4031 4666 
L 3928 4134 
L 1606 4134 
L 1338 2753 
L 3566 2753 
L 3463 2222 
L 1234 2222 
L 909 531 
L 3284 531 
L 3181 0 
L 172 0 
L 1081 4666 
z
" transform="scale(0.015625)"/>
       <path id="DejaVuSans-28" d="M 1984 4856 
Q 1566 4138 1362 3434 
Q 1159 2731 1159 2009 
Q 1159 1288 1364 580 
Q 1569 -128 1984 -844 
L 1484 -844 
Q 1016 -109 783 600 
Q 550 1309 550 2009 
Q 550 2706 781 3412 
Q 1013 4119 1484 4856 
L 1984 4856 
z
" transform="scale(0.015625)"/>
       <path id="DejaVuSans-Oblique-54" d="M 378 4666 
L 4325 4666 
L 4225 4134 
L 2559 4134 
L 1759 0 
L 1125 0 
L 1925 4134 
L 275 4134 
L 378 4666 
z
" transform="scale(0.015625)"/>
       <path id="DejaVuSans-Oblique-72" d="M 2853 2969 
Q 2766 3016 2653 3041 
Q 2541 3066 2413 3066 
Q 1953 3066 1609 2717 
Q 1266 2369 1153 1784 
L 800 0 
L 225 0 
L 909 3500 
L 1484 3500 
L 1375 2956 
Q 1603 3259 1920 3421 
Q 2238 3584 2597 3584 
Q 2691 3584 2781 3573 
Q 2872 3563 2963 3538 
L 2853 2969 
z
" transform="scale(0.015625)"/>
       <path id="DejaVuSans-29" d="M 513 4856 
L 1013 4856 
Q 1481 4119 1714 3412 
Q 1947 2706 1947 2009 
Q 1947 1309 1714 600 
Q 1481 -109 1013 -844 
L 513 -844 
Q 928 -128 1133 580 
Q 1338 1288 1338 2009 
Q 1338 2731 1133 3434 
Q 928 4138 513 4856 
z
" transform="scale(0.015625)"/>
       <path id="DejaVuSans-Oblique-73" d="M 3200 3397 
L 3091 2853 
Q 2863 2978 2609 3040 
Q 2356 3103 2088 3103 
Q 1634 3103 1373 2948 
Q 1113 2794 1113 2528 
Q 1113 2219 1719 2053 
Q 1766 2041 1788 2034 
L 1972 1978 
Q 2547 1819 2739 1644 
Q 2931 1469 2931 1166 
Q 2931 609 2489 259 
Q 2047 -91 1331 -91 
Q 1053 -91 747 -37 
Q 441 16 72 128 
L 184 722 
Q 500 559 806 475 
Q 1113 391 1394 391 
Q 1816 391 2080 572 
Q 2344 753 2344 1031 
Q 2344 1331 1650 1516 
L 1591 1531 
L 1394 1581 
Q 956 1697 753 1886 
Q 550 2075 550 2369 
Q 550 2928 970 3256 
Q 1391 3584 2113 3584 
Q 2397 3584 2667 3537 
Q 2938 3491 3200 3397 
z
" transform="scale(0.015625)"/>
       <path id="DejaVuSans-Oblique-69" d="M 1172 4863 
L 1747 4863 
L 1606 4134 
L 1031 4134 
L 1172 4863 
z
M 909 3500 
L 1484 3500 
L 800 0 
L 225 0 
L 909 3500 
z
" transform="scale(0.015625)"/>
       <path id="DejaVuSans-Oblique-6d" d="M 5747 2113 
L 5338 0 
L 4763 0 
L 5166 2094 
Q 5191 2228 5203 2325 
Q 5216 2422 5216 2491 
Q 5216 2772 5059 2928 
Q 4903 3084 4622 3084 
Q 4203 3084 3875 2770 
Q 3547 2456 3450 1953 
L 3066 0 
L 2491 0 
L 2900 2094 
Q 2925 2209 2937 2307 
Q 2950 2406 2950 2484 
Q 2950 2769 2794 2926 
Q 2638 3084 2363 3084 
Q 1938 3084 1609 2770 
Q 1281 2456 1184 1953 
L 800 0 
L 225 0 
L 909 3500 
L 1484 3500 
L 1375 2956 
Q 1609 3263 1923 3423 
Q 2238 3584 2597 3584 
Q 2978 3584 3223 3384 
Q 3469 3184 3519 2828 
Q 3781 3197 4126 3390 
Q 4472 3584 4856 3584 
Q 5306 3584 5551 3325 
Q 5797 3066 5797 2591 
Q 5797 2488 5784 2364 
Q 5772 2241 5747 2113 
z
" transform="scale(0.015625)"/>
       <path id="DejaVuSans-Oblique-75" d="M 428 1388 
L 838 3500 
L 1416 3500 
L 1006 1409 
Q 975 1256 961 1147 
Q 947 1038 947 966 
Q 947 700 1109 554 
Q 1272 409 1569 409 
Q 2031 409 2368 721 
Q 2706 1034 2809 1563 
L 3194 3500 
L 3769 3500 
L 3091 0 
L 2516 0 
L 2631 550 
Q 2388 244 2052 76 
Q 1716 -91 1338 -91 
Q 878 -91 622 161 
Q 366 413 366 863 
Q 366 956 381 1097 
Q 397 1238 428 1388 
z
" transform="scale(0.015625)"/>
       <path id="DejaVuSans-Oblique-6c" d="M 1172 4863 
L 1747 4863 
L 800 0 
L 225 0 
L 1172 4863 
z
" transform="scale(0.015625)"/>
       <path id="DejaVuSans-Oblique-6f" d="M 1625 -91 
Q 1009 -91 651 289 
Q 294 669 294 1325 
Q 294 1706 417 2101 
Q 541 2497 738 2766 
Q 1047 3184 1428 3384 
Q 1809 3584 2291 3584 
Q 2888 3584 3255 3212 
Q 3622 2841 3622 2241 
Q 3622 1825 3500 1412 
Q 3378 1000 3181 728 
Q 2875 309 2494 109 
Q 2113 -91 1625 -91 
z
M 891 1344 
Q 891 869 1089 633 
Q 1288 397 1691 397 
Q 2269 397 2648 901 
Q 3028 1406 3028 2181 
Q 3028 2634 2825 2865 
Q 2622 3097 2228 3097 
Q 1903 3097 1650 2945 
Q 1397 2794 1197 2484 
Q 1050 2253 970 1956 
Q 891 1659 891 1344 
z
" transform="scale(0.015625)"/>
      </defs>
      <use xlink:href="#DejaVuSans-Oblique-45" transform="translate(0 0.529687)"/>
      <use xlink:href="#DejaVuSans-28" transform="translate(63.183594 0.529687)"/>
      <use xlink:href="#DejaVuSans-Oblique-54" transform="translate(102.197266 0.529687)"/>
      <use xlink:href="#DejaVuSans-Oblique-72" transform="translate(163.28125 -15.876563) scale(0.7)"/>
      <use xlink:href="#DejaVuSans-29" transform="translate(194.794922 0.529687)"/>
      <use xlink:href="#DejaVuSans-Oblique-73" transform="translate(234.765625 38.810937) scale(0.7)"/>
      <use xlink:href="#DejaVuSans-Oblique-69" transform="translate(271.235352 38.810937) scale(0.7)"/>
      <use xlink:href="#DejaVuSans-Oblique-6d" transform="translate(290.683594 38.810937) scale(0.7)"/>
      <use xlink:href="#DejaVuSans-Oblique-75" transform="translate(358.87207 38.810937) scale(0.7)"/>
      <use xlink:href="#DejaVuSans-Oblique-6c" transform="translate(403.237305 38.810937) scale(0.7)"/>
      <use xlink:href="#DejaVuSans-Oblique-61" transform="translate(422.685547 38.810937) scale(0.7)"/>
      <use xlink:href="#DejaVuSans-Oblique-74" transform="translate(465.581055 38.810937) scale(0.7)"/>
      <use xlink:href="#DejaVuSans-Oblique-6f" transform="translate(493.027344 38.810937) scale(0.7)"/>
     </g>
    </g>
   </g>
   <g id="line2d_36">
    <path d="M 207.654545 100.44 
L 208.385603 199.474939 
L 209.847718 352.432389 
L 210.578776 390.600094 
L 211.309833 413.360293 
L 212.040891 465.551777 
L 212.771948 442.850035 
L 213.503006 480.022866 
L 214.234064 474.095323 
L 214.965121 489.405834 
L 215.696179 483.163936 
L 216.427236 481.888225 
L 217.158294 479.1478 
L 217.889351 485.52654 
L 218.620409 511.460718 
L 219.351467 519.194484 
L 220.082524 512.542479 
L 220.813582 533.599192 
L 221.544639 532.117853 
L 222.275697 521.801741 
L 223.006754 532.022589 
L 223.737812 524.312567 
L 224.46887 507.69589 
L 225.199927 522.220529 
L 225.930985 486.733607 
L 227.3931 500.071757 
L 228.124158 478.27893 
L 229.586273 490.738679 
L 230.31733 495.945035 
L 231.048388 491.067464 
L 231.779445 455.535509 
L 232.510503 454.077226 
L 233.241561 455.98011 
L 233.972618 442.985645 
L 234.703676 455.162866 
L 235.434733 461.155539 
L 236.165791 457.099604 
L 236.896848 477.310485 
L 237.627906 475.251086 
L 238.358964 469.509633 
L 239.090021 466.508138 
L 239.821079 452.501412 
L 240.552136 458.394379 
L 241.283194 459.922102 
L 242.014251 467.601995 
L 242.745309 465.339522 
L 243.476367 456.971587 
L 244.207424 459.2186 
L 244.938482 457.338221 
L 245.669539 452.709649 
L 246.400597 450.327225 
L 247.131654 453.071473 
L 247.862712 452.663405 
L 248.59377 446.545382 
L 249.324827 450.774313 
L 250.055885 451.082043 
L 250.786942 446.948811 
L 251.518 447.06978 
L 252.249057 443.636693 
L 252.980115 449.80018 
L 253.711173 449.82592 
L 254.44223 457.271884 
L 255.173288 456.102165 
L 255.904345 457.174837 
L 257.36646 460.987838 
L 258.097518 466.630747 
L 258.828576 470.793195 
L 259.559633 475.859728 
L 260.290691 479.141425 
L 261.021748 478.415536 
L 261.752806 482.830038 
L 262.483863 478.038868 
L 263.214921 480.359469 
L 263.945979 471.638362 
L 264.677036 476.497992 
L 265.408094 477.376373 
L 266.139151 479.498237 
L 266.870209 482.589077 
L 267.601266 483.322524 
L 268.332324 481.652694 
L 269.063382 489.281248 
L 269.794439 492.66414 
L 270.525497 488.792316 
L 271.256554 492.523738 
L 271.987612 490.133966 
L 272.718669 491.48941 
L 273.449727 491.402744 
L 274.180785 488.567735 
L 274.911842 490.991759 
L 276.373957 499.908902 
L 277.105015 500.924572 
L 277.836072 499.992228 
L 278.56713 500.994314 
L 279.298188 493.038591 
L 280.029245 501.418648 
L 280.760303 501.613866 
L 281.49136 500.914406 
L 282.222418 502.507605 
L 282.953476 503.155976 
L 283.684533 506.548597 
L 284.415591 507.761431 
L 285.146648 506.352513 
L 285.877706 504.151119 
L 286.608763 505.882879 
L 287.339821 508.4514 
L 288.070879 506.928879 
L 288.801936 510.016047 
L 289.532994 511.18373 
L 290.264051 510.679063 
L 290.995109 506.040284 
L 291.726166 504.848954 
L 292.457224 500.878539 
L 293.188282 501.861226 
L 293.919339 501.123626 
L 295.381454 502.255618 
L 296.112512 501.492851 
L 296.843569 502.756292 
L 297.574627 501.305315 
L 298.305685 504.345092 
L 299.036742 505.757336 
L 299.7678 508.994681 
L 300.498857 508.323794 
L 301.229915 508.441755 
L 301.960972 512.489126 
L 302.69203 513.400597 
L 303.423088 517.181355 
L 304.154145 518.754092 
L 304.885203 521.938839 
L 305.61626 524.425021 
L 306.347318 524.106346 
L 307.078375 522.753588 
L 307.809433 521.822569 
L 308.540491 520.689486 
L 309.271548 521.57012 
L 310.002606 523.930695 
L 310.733663 525.289904 
L 311.464721 526.340942 
L 312.195778 524.710527 
L 312.926836 523.511129 
L 313.657894 525.646481 
L 314.388951 524.789001 
L 315.120009 526.099582 
L 315.851066 526.755505 
L 316.582124 526.173943 
L 317.313181 523.354115 
L 318.044239 521.698275 
L 318.775297 524.324768 
L 319.506354 523.305843 
L 321.699527 531.913173 
L 322.430584 532.093593 
L 323.161642 531.053728 
L 323.8927 532.392774 
L 325.354815 531.983306 
L 326.085872 530.069193 
L 326.81693 530.558933 
L 327.547987 531.694862 
L 328.279045 532.120915 
L 329.010103 533.973157 
L 330.472218 535.522536 
L 331.203275 535.505495 
L 331.934333 535.165351 
L 332.66539 535.993999 
L 333.396448 536.055126 
L 334.127506 537.740622 
L 334.858563 536.36175 
L 335.589621 536.185278 
L 337.051736 531.889104 
L 337.782794 531.810418 
L 338.513851 534.635542 
L 339.244909 533.880724 
L 339.975966 529.51988 
L 340.707024 528.111662 
L 341.438081 529.457186 
L 342.169139 528.367693 
L 342.900197 527.625533 
L 343.631254 528.590271 
L 345.093369 529.044128 
L 345.824427 531.364899 
L 346.555484 530.373523 
L 347.286542 530.284915 
L 348.0176 531.878733 
L 348.748657 530.791952 
L 349.479715 532.294087 
L 350.210772 530.909448 
L 350.94183 527.281042 
L 351.672887 525.888336 
L 352.403945 527.529412 
L 353.135003 524.027054 
L 353.86606 523.989359 
L 354.597118 524.164724 
L 355.328175 525.252923 
L 356.059233 525.357943 
L 356.79029 525.790674 
L 357.521348 526.601015 
L 358.252406 524.015056 
L 358.983463 525.606592 
L 360.445578 523.365892 
L 361.176636 524.02577 
L 361.907693 524.381157 
L 362.638751 524.42942 
L 363.369809 526.518466 
L 364.100866 523.070781 
L 364.831924 522.625999 
L 365.562981 521.613508 
L 366.294039 520.969423 
L 367.025096 521.581908 
L 367.756154 520.961676 
L 368.487212 522.162199 
L 369.218269 522.109158 
L 369.949327 522.823042 
L 370.680384 521.612712 
L 371.411442 522.997534 
L 372.873557 523.725147 
L 373.604615 524.53778 
L 374.335672 523.996351 
L 375.06673 525.349459 
L 375.797787 526.083588 
L 376.528845 530.055188 
L 377.259902 530.095135 
L 378.722018 531.347877 
L 380.91519 532.474315 
L 381.646248 533.498925 
L 382.377305 533.655611 
L 383.108363 536.273336 
L 383.839421 537.330915 
L 384.570478 537.464954 
L 386.032593 539.955485 
L 386.763651 541.70654 
L 387.494708 540.757935 
L 388.225766 540.182185 
L 388.956824 541.359327 
L 389.687881 540.284448 
L 390.418939 540.94563 
L 391.149996 540.995377 
L 391.881054 540.385421 
L 392.612112 538.532971 
L 393.343169 538.850098 
L 394.074227 538.686442 
L 394.805284 536.834409 
L 395.536342 538.227399 
L 396.267399 538.097298 
L 396.998457 536.856442 
L 397.729515 538.204507 
L 398.460572 537.122128 
L 399.19163 537.746381 
L 399.922687 537.326077 
L 400.653745 536.733468 
L 401.384802 538.36871 
L 402.11586 536.637403 
L 402.846918 537.76979 
L 403.577975 539.465868 
L 404.309033 540.700836 
L 405.04009 538.67601 
L 405.771148 538.356965 
L 406.502205 536.095749 
L 407.233263 534.818212 
L 407.964321 535.120923 
L 408.695378 535.028673 
L 409.426436 535.428205 
L 410.157493 536.587732 
L 410.888551 535.673067 
L 411.619608 534.415158 
L 412.350666 535.309636 
L 413.081724 535.544433 
L 413.812781 535.234741 
L 414.543839 536.963259 
L 415.274896 535.415534 
L 416.005954 537.039795 
L 417.468069 538.214723 
L 418.199127 538.527076 
L 418.930184 538.96651 
L 419.661242 537.806565 
L 420.392299 538.128137 
L 421.123357 538.721009 
L 421.854414 539.972174 
L 423.31653 539.56212 
L 424.047587 539.705685 
L 424.778645 539.411721 
L 425.509702 538.963029 
L 426.24076 539.83205 
L 426.971817 538.626339 
L 427.702875 537.922355 
L 428.433933 538.541092 
L 429.16499 538.196269 
L 429.896048 537.199243 
L 430.627105 538.903432 
L 431.358163 539.287157 
L 432.08922 539.414583 
L 432.820278 540.293324 
L 433.551336 542.989349 
L 434.282393 543.330335 
L 435.013451 542.888928 
L 435.744508 543.426493 
L 436.475566 542.123423 
L 437.206623 542.323586 
L 437.937681 543.252327 
L 438.668739 543.558008 
L 439.399796 544.316994 
L 440.130854 542.600796 
L 440.861911 543.04124 
L 441.592969 543.982564 
L 442.324026 543.347339 
L 443.055084 543.949005 
L 443.786142 544.895044 
L 444.517199 543.752591 
L 445.248257 543.700049 
L 445.979314 544.540093 
L 446.710372 545.898868 
L 448.172487 544.39191 
L 448.903545 544.347449 
L 449.634602 544.979905 
L 450.36566 545.364714 
L 451.096717 545.218018 
L 451.827775 546.488205 
L 452.558833 546.445865 
L 453.28989 547.058324 
L 454.020948 548.6805 
L 454.752005 549.839833 
L 455.483063 549.442714 
L 456.21412 549.284655 
L 456.945178 550.358989 
L 457.676236 553.085895 
L 458.407293 554.04 
L 459.138351 553.560696 
L 459.869408 552.863029 
L 460.600466 550.913357 
L 461.331523 550.930956 
L 462.062581 551.630059 
L 462.793639 550.95455 
L 463.524696 550.751571 
L 464.255754 549.019342 
L 465.717869 548.078931 
L 466.448926 549.484039 
L 467.179984 550.145154 
L 467.911042 550.044045 
L 468.642099 551.319065 
L 469.373157 551.593751 
L 470.104214 551.006618 
L 470.835272 549.66694 
L 471.566329 549.477558 
L 472.297387 550.014684 
L 473.028445 550.138334 
L 473.759502 549.247108 
L 475.221617 549.287134 
L 475.952675 547.819096 
L 476.683732 547.078414 
L 478.145848 543.245402 
L 479.607963 542.214153 
L 480.33902 540.898565 
L 481.801135 541.524941 
L 482.532193 542.40369 
L 483.263251 541.171133 
L 483.994308 540.749518 
L 484.725366 540.557207 
L 485.456423 542.084338 
L 486.187481 541.534487 
L 486.918538 540.562452 
L 487.649596 541.077947 
L 488.380654 540.47435 
L 489.111711 538.950111 
L 489.842769 538.148556 
L 490.573826 538.669592 
L 491.304884 539.518458 
L 492.035941 539.82275 
L 492.766999 537.813358 
L 493.498057 538.447617 
L 494.229114 538.541356 
L 494.960172 538.419872 
L 495.691229 537.759692 
L 496.422287 535.968809 
L 497.153344 535.111688 
L 497.884402 535.958738 
L 498.61546 536.999506 
L 500.077575 537.094646 
L 500.808632 537.33332 
L 501.53969 536.884467 
L 504.46392 539.928579 
L 505.926035 540.160163 
L 507.388151 538.441137 
L 508.119208 539.326939 
L 508.850266 539.080395 
L 510.312381 536.833269 
L 511.774496 535.407819 
L 512.505554 536.295064 
L 513.236611 536.475522 
L 513.967669 536.43898 
L 514.698726 536.252304 
L 515.429784 537.548432 
L 516.160841 536.225624 
L 517.622957 536.865117 
L 518.354014 536.834374 
L 519.085072 536.14858 
L 519.816129 536.73676 
L 520.547187 537.514737 
L 521.278244 538.01445 
L 522.009302 538.241989 
L 522.74036 538.326886 
L 523.471417 538.620037 
L 524.933532 538.148198 
L 525.66459 538.393914 
L 526.395647 538.777564 
L 527.126705 538.578053 
L 527.857763 538.673605 
L 528.58882 539.288818 
L 529.319878 538.209663 
L 530.050935 538.716231 
L 530.781993 536.191934 
L 531.51305 536.130368 
L 532.244108 534.172381 
L 532.975166 531.654638 
L 533.706223 531.902437 
L 534.437281 533.005603 
L 535.168338 532.835237 
L 535.899396 531.011874 
L 536.630453 530.924721 
L 537.361511 532.233217 
L 538.823626 533.312079 
L 539.554684 532.565571 
L 540.285741 533.267045 
L 541.016799 533.086736 
L 541.747856 533.534987 
L 542.478914 534.358973 
L 543.209972 534.353079 
L 543.941029 534.574589 
L 544.672087 534.296374 
L 545.403144 534.432006 
L 546.134202 533.801594 
L 546.865259 533.768154 
L 547.596317 534.174372 
L 548.327375 534.076429 
L 549.058432 534.725119 
L 549.78949 534.886312 
L 550.520547 535.765054 
L 551.251605 535.692452 
L 551.982662 535.832552 
L 552.71372 535.52432 
L 553.444778 536.447439 
L 554.175835 536.444698 
L 555.63795 536.024062 
L 556.369008 536.109177 
L 557.100066 536.652163 
L 557.831123 535.731787 
L 558.562181 534.531508 
L 559.293238 534.914001 
L 560.024296 534.978305 
L 560.755353 535.291008 
L 562.217469 535.283421 
L 562.948526 533.708811 
L 563.679584 533.09559 
L 564.410641 533.072054 
L 565.872756 535.164914 
L 566.603814 535.293619 
L 567.334872 534.665524 
L 568.065929 534.484334 
L 568.796987 535.139857 
L 569.528044 534.554036 
L 570.259102 534.509541 
L 570.990159 534.688108 
L 571.721217 533.846872 
L 573.183332 533.921031 
L 573.91439 533.464078 
L 575.376505 533.802789 
L 576.107562 533.429807 
L 576.83862 534.097066 
L 577.569678 535.076212 
L 578.300735 534.124518 
L 579.031793 535.161003 
L 580.493908 536.467836 
L 581.224965 536.552086 
L 581.956023 536.244985 
L 582.687081 536.662382 
L 583.418138 536.407655 
L 584.149196 536.742897 
L 584.880253 537.289179 
L 585.611311 536.797472 
L 586.342368 536.54827 
L 587.073426 537.650345 
L 587.804484 537.360314 
L 589.266599 535.464874 
L 589.997656 535.807058 
L 590.728714 535.842634 
L 591.459771 536.928288 
L 592.190829 537.442025 
L 592.921887 537.60287 
L 595.115059 537.761798 
L 595.846117 537.976675 
L 596.577174 537.306788 
L 597.308232 537.248241 
L 598.03929 536.466118 
L 598.770347 536.884162 
L 600.96352 540.277369 
L 601.694577 539.752575 
L 602.425635 540.375808 
L 603.156693 540.171202 
L 603.88775 540.083351 
L 604.618808 540.40546 
L 605.349865 540.487632 
L 606.080923 540.372756 
L 607.543038 539.516056 
L 609.005153 539.829044 
L 609.736211 540.214648 
L 611.198326 539.726796 
L 611.929384 539.333527 
L 612.660441 538.484275 
L 613.391499 538.946169 
L 614.122556 538.689752 
L 614.853614 538.30173 
L 615.584671 537.227686 
L 616.315729 537.041714 
L 617.046787 537.02749 
L 617.777844 537.4056 
L 618.508902 537.651473 
L 619.239959 538.110664 
L 619.971017 539.288164 
L 620.702074 540.223826 
L 622.16419 538.174394 
L 622.895247 538.323891 
L 623.626305 538.702315 
L 625.08842 537.73645 
L 625.819477 538.336226 
L 626.550535 537.313858 
L 627.281593 537.18822 
L 628.01265 537.594862 
L 629.474765 537.317027 
L 630.205823 537.663831 
L 630.93688 538.227491 
L 631.667938 537.92683 
L 632.398996 538.255576 
L 633.130053 537.633546 
L 635.323226 536.984821 
L 636.054283 537.491395 
L 636.785341 537.280395 
L 637.516399 537.608477 
L 638.247456 536.726105 
L 639.709571 537.258299 
L 640.440629 537.1061 
L 641.171686 537.58352 
L 641.902744 537.612776 
L 642.633802 538.100486 
L 643.364859 538.425241 
L 644.826974 538.51195 
L 645.558032 539.620564 
L 646.289089 539.855487 
L 647.020147 539.521664 
L 648.482262 540.346359 
L 649.21332 539.866982 
L 649.944377 539.743814 
L 650.675435 540.103098 
L 651.406492 539.733335 
L 652.868608 540.372388 
L 654.330723 541.734074 
L 655.06178 542.049085 
L 655.792838 542.219838 
L 656.523895 539.690194 
L 657.254953 539.958593 
L 657.986011 540.424652 
L 658.717068 540.337462 
L 659.448126 540.063868 
L 660.910241 538.830203 
L 661.641298 538.186841 
L 662.372356 538.490154 
L 663.103414 539.328852 
L 663.834471 539.378765 
L 664.565529 538.608601 
L 665.296586 538.094908 
L 666.027644 537.996347 
L 666.758702 538.08279 
L 667.489759 537.845513 
L 668.951874 538.559217 
L 670.413989 537.933909 
L 671.145047 538.234149 
L 671.876105 539.109181 
L 672.607162 538.760427 
L 674.069277 538.790572 
L 674.800335 538.331718 
L 675.531392 536.811441 
L 676.26245 537.374574 
L 676.993508 537.682558 
L 677.724565 536.489372 
L 678.455623 536.326971 
L 679.18668 536.623093 
L 679.917738 537.326539 
L 680.648795 537.117239 
L 681.379853 536.725326 
L 682.841968 537.027613 
L 683.573026 536.467735 
L 684.304083 536.738217 
L 686.497256 536.58431 
L 687.228314 536.888509 
L 687.959371 537.43214 
L 688.690429 536.618323 
L 689.421486 537.074256 
L 690.152544 537.391055 
L 690.883601 537.463422 
L 691.614659 537.237937 
L 692.345717 536.208532 
L 693.076774 536.766659 
L 693.807832 536.569562 
L 694.538889 536.827609 
L 695.269947 537.381691 
L 696.001004 536.415307 
L 696.732062 536.889853 
L 697.46312 537.192908 
L 698.925235 536.653368 
L 700.38735 537.316191 
L 701.118407 537.400616 
L 701.849465 537.866499 
L 702.580523 537.40999 
L 703.31158 537.829399 
L 704.773695 537.719499 
L 705.504753 537.285093 
L 706.23581 537.204955 
L 706.966868 535.701243 
L 707.697926 535.410894 
L 708.428983 534.558537 
L 709.160041 535.04498 
L 709.891098 535.273747 
L 710.622156 535.619249 
L 711.353213 535.354773 
L 712.815329 534.199567 
L 713.546386 534.620381 
L 714.277444 534.386676 
L 715.008501 535.260292 
L 715.739559 534.879896 
L 716.470616 535.736017 
L 717.201674 535.670608 
L 717.932732 536.335533 
L 718.663789 536.286823 
L 720.856962 538.72693 
L 722.319077 538.659324 
L 723.050135 538.805557 
L 724.51225 538.51628 
L 726.705423 539.878438 
L 728.167538 538.940084 
L 728.898595 538.488647 
L 729.629653 538.737055 
L 730.36071 538.344075 
L 731.091768 538.082868 
L 731.822826 537.557365 
L 732.553883 537.235417 
L 733.284941 537.923642 
L 734.015998 537.454396 
L 734.747056 537.613672 
L 735.478113 537.53132 
L 736.209171 537.988482 
L 736.940229 538.608711 
L 738.402344 538.35812 
L 739.133401 538.66416 
L 739.864459 538.835997 
L 740.595516 539.49876 
L 741.326574 539.466838 
L 742.057632 538.871128 
L 742.788689 537.606433 
L 743.519747 537.32641 
L 744.250804 537.445763 
L 744.981862 537.344682 
L 745.712919 536.843625 
L 746.443977 536.665245 
L 747.175035 536.607885 
L 747.906092 537.323932 
L 748.63715 536.394038 
L 749.368207 535.724659 
L 750.099265 536.119818 
L 751.56138 535.453723 
L 752.292438 534.88568 
L 753.754553 534.565049 
L 754.48561 534.095377 
L 755.216668 534.237465 
L 755.947725 535.02616 
L 756.678783 535.085233 
L 757.409841 534.391502 
L 758.140898 534.687977 
L 758.871956 534.598585 
L 759.603013 534.972803 
L 760.334071 534.78592 
L 761.065128 534.729155 
L 761.796186 535.199884 
L 762.527244 535.010457 
L 763.258301 535.621658 
L 764.720416 535.545392 
L 765.451474 535.898631 
L 766.182531 535.552884 
L 767.644647 535.638435 
L 768.375704 535.056848 
L 769.106762 535.175083 
L 769.837819 534.959213 
L 770.568877 534.493366 
L 771.299934 534.649187 
L 772.030992 535.281138 
L 772.76205 535.490242 
L 775.68628 534.609038 
L 776.417338 534.001844 
L 777.148395 533.977734 
L 777.879453 533.253406 
L 778.61051 533.110982 
L 779.341568 533.367804 
L 780.072625 533.89422 
L 780.803683 533.826682 
L 781.534741 534.150776 
L 782.996856 534.248987 
L 783.727913 533.869255 
L 784.458971 534.090351 
L 785.190028 533.711972 
L 785.921086 533.668661 
L 786.652144 533.765242 
L 787.383201 533.655827 
L 788.114259 533.224976 
L 788.845316 532.504905 
L 789.576374 531.962224 
L 791.038489 532.171803 
L 791.769547 531.323568 
L 793.231662 530.868862 
L 793.962719 531.254054 
L 794.693777 530.715392 
L 795.424834 530.826191 
L 796.155892 531.11367 
L 796.88695 531.175772 
L 797.618007 530.637183 
L 799.81118 530.585867 
L 802.004353 531.521841 
L 802.73541 531.508419 
L 803.466468 531.226929 
L 804.197525 531.485594 
L 804.928583 530.89363 
L 805.65964 531.007931 
L 807.121756 530.887169 
L 807.852813 530.956941 
L 808.583871 530.289926 
L 809.314928 530.851478 
L 810.045986 530.94046 
L 811.508101 531.737686 
L 812.239159 531.824497 
L 812.970216 531.785944 
L 813.701274 532.57073 
L 814.432331 532.49287 
L 815.163389 532.193377 
L 815.894446 532.894714 
L 816.625504 533.168558 
L 817.356562 533.016258 
L 818.818677 532.263307 
L 821.011849 533.329844 
L 821.742907 533.079828 
L 822.473965 532.681406 
L 823.205022 532.066341 
L 823.93608 532.155254 
L 824.667137 531.008426 
L 825.398195 531.15694 
L 826.129252 531.868009 
L 826.86031 531.740459 
L 827.591368 530.616525 
L 828.322425 530.757315 
L 829.053483 529.981932 
L 829.78454 530.330659 
L 830.515598 530.164172 
L 831.246656 530.237297 
L 831.977713 530.078112 
L 832.708771 530.33554 
L 833.439828 529.865548 
L 834.901943 529.459527 
L 835.633001 529.784408 
L 836.364059 529.069824 
L 837.826174 529.088283 
L 838.557231 529.785878 
L 839.288289 529.944038 
L 840.019346 529.298303 
L 840.750404 529.126867 
L 841.481462 528.761058 
L 842.943577 529.394177 
L 843.674634 529.236457 
L 845.136749 529.533967 
L 845.867807 529.445194 
L 846.598865 529.75423 
L 847.329922 529.271571 
L 848.06098 528.565528 
L 848.792037 528.718509 
L 849.523095 529.19522 
L 850.254152 529.136777 
L 850.98521 528.83892 
L 851.716268 529.612085 
L 852.447325 529.505016 
L 855.371555 529.779989 
L 856.102613 529.441265 
L 856.833671 529.680578 
L 857.564728 530.140564 
L 859.026843 529.69779 
L 859.757901 529.98113 
L 860.488958 529.501998 
L 861.220016 530.01651 
L 861.951074 529.880891 
L 862.682131 530.110276 
L 863.413189 529.836856 
L 864.144246 529.931671 
L 864.875304 530.151156 
L 865.606361 530.077014 
L 866.337419 529.835108 
L 867.068477 529.746629 
L 867.799534 529.172925 
L 868.530592 529.102009 
L 869.261649 529.288708 
L 869.992707 529.743083 
L 871.454822 529.6525 
L 872.18588 529.888883 
L 872.916937 529.977941 
L 873.647995 530.419158 
L 874.379052 530.489571 
L 875.841167 530.9028 
L 876.572225 530.213668 
L 877.303283 530.597905 
L 878.03434 530.144971 
L 878.765398 530.0587 
L 879.496455 530.324818 
L 880.95857 530.483915 
L 881.689628 530.435464 
L 882.420686 530.93136 
L 883.151743 531.226282 
L 883.882801 530.571615 
L 884.613858 530.563273 
L 885.344916 530.919309 
L 886.075974 531.619318 
L 887.538089 531.532877 
L 888.269146 531.917545 
L 889.000204 531.875309 
L 889.731261 531.491955 
L 890.462319 531.515564 
L 891.924434 530.942673 
L 894.117607 531.360561 
L 894.848664 531.431656 
L 895.579722 531.762195 
L 896.31078 531.633489 
L 897.772895 531.578019 
L 898.503952 531.26031 
L 899.23501 531.483522 
L 900.697125 530.775222 
L 901.428183 530.419701 
L 902.15924 530.852663 
L 902.890298 530.370054 
L 903.621355 530.288319 
L 904.352413 530.741981 
L 905.08347 531.001387 
L 905.814528 530.707245 
L 906.545586 531.081392 
L 907.276643 530.293797 
L 908.007701 530.526257 
L 908.738758 530.634505 
L 909.469816 529.990281 
L 910.200873 530.253793 
L 910.931931 529.889479 
L 911.662989 529.994705 
L 912.394046 530.329719 
L 913.125104 531.217386 
L 913.856161 531.609375 
L 914.587219 531.538126 
L 915.318276 531.631518 
L 916.049334 531.917627 
L 916.780392 531.92363 
L 917.511449 531.687222 
L 918.242507 532.327555 
L 918.973564 532.178373 
L 919.704622 532.202659 
L 920.435679 531.877497 
L 921.166737 532.013372 
L 922.628852 532.545961 
L 923.35991 532.494318 
L 924.090967 532.078089 
L 924.822025 532.192033 
L 927.015198 532.220574 
L 928.477313 531.504423 
L 929.20837 531.478556 
L 929.939428 531.13771 
L 931.401543 530.919485 
L 932.132601 531.127832 
L 932.863658 530.754003 
L 933.594716 530.217958 
L 934.325773 530.092837 
L 935.056831 530.734987 
L 935.787888 530.427727 
L 936.518946 529.938218 
L 937.250004 530.203851 
L 937.981061 530.062955 
L 939.443176 530.102437 
L 942.367407 530.731183 
L 943.098464 530.482696 
L 943.829522 530.111612 
L 944.560579 530.11376 
L 946.022695 530.544442 
L 946.753752 530.458145 
L 947.48481 530.806041 
L 948.215867 529.987411 
L 948.946925 530.224428 
L 949.677982 530.330743 
L 950.40904 530.118616 
L 951.140098 529.734594 
L 951.871155 528.622956 
L 952.602213 527.922234 
L 953.33327 527.827704 
L 954.064328 528.002501 
L 954.795385 527.454203 
L 955.526443 527.658342 
L 956.257501 527.561192 
L 956.988558 527.921617 
L 957.719616 528.016254 
L 958.450673 528.246218 
L 959.181731 528.802716 
L 959.912788 529.021889 
L 960.643846 528.255029 
L 962.105961 528.281435 
L 962.837019 528.786883 
L 963.568076 528.813223 
L 964.299134 529.357452 
L 965.030191 529.455712 
L 965.761249 529.165629 
L 967.223364 528.289662 
L 967.954422 528.672503 
L 969.416537 528.464383 
L 970.147594 529.082136 
L 970.878652 529.083628 
L 971.60971 529.457949 
L 972.340767 529.665805 
L 973.071825 529.444356 
L 973.802882 529.415336 
L 974.53394 529.568377 
L 975.264997 529.203619 
L 975.996055 529.620985 
L 976.727113 529.77859 
L 977.45817 530.190542 
L 978.189228 530.139642 
L 978.920285 529.89542 
L 979.651343 530.354878 
L 980.3824 530.276314 
L 981.113458 530.541828 
L 981.844516 530.406866 
L 982.575573 531.045579 
L 984.037688 530.255686 
L 984.768746 530.770109 
L 985.499803 530.508692 
L 986.230861 530.683264 
L 986.961919 531.245982 
L 987.692976 531.600928 
L 988.424034 531.731094 
L 989.155091 531.599331 
L 989.886149 531.598221 
L 990.617206 530.486237 
L 992.079322 530.054139 
L 992.810379 530.187591 
L 993.541437 529.632599 
L 994.272494 529.766199 
L 995.003552 529.477286 
L 995.73461 528.194941 
L 997.927782 527.594483 
L 998.65884 527.740162 
L 1000.852013 526.912975 
L 1001.58307 527.104924 
L 1002.314128 527.527424 
L 1003.045185 526.988553 
L 1003.776243 527.120491 
L 1005.238358 527.67853 
L 1005.969416 527.657356 
L 1006.700473 527.902694 
L 1008.162588 528.020627 
L 1008.893646 527.641237 
L 1009.624703 528.119319 
L 1010.355761 528.168507 
L 1011.086819 528.336851 
L 1011.817876 527.853103 
L 1012.548934 528.017657 
L 1013.279991 527.736684 
L 1014.011049 527.227899 
L 1014.742106 527.04879 
L 1015.473164 527.014629 
L 1016.935279 527.196839 
L 1017.666337 527.647313 
L 1019.128452 527.025603 
L 1019.859509 527.296287 
L 1020.590567 526.634294 
L 1022.052682 526.756529 
L 1022.78374 527.120423 
L 1024.245855 527.114816 
L 1024.976912 527.563643 
L 1025.70797 527.808425 
L 1026.439028 527.862278 
L 1027.170085 528.371942 
L 1027.901143 528.403949 
L 1029.363258 528.692533 
L 1030.825373 528.4692 
L 1031.556431 529.238923 
L 1034.480661 529.786077 
L 1035.211718 529.777259 
L 1035.942776 529.934199 
L 1037.404891 529.319061 
L 1038.135949 529.173616 
L 1038.867006 528.877872 
L 1039.598064 528.830021 
L 1040.329121 528.541067 
L 1041.060179 528.948513 
L 1042.522294 530.237852 
L 1043.253352 529.785816 
L 1043.984409 530.138131 
L 1044.715467 530.222624 
L 1045.446524 530.527493 
L 1046.90864 530.753177 
L 1047.639697 530.323042 
L 1048.370755 530.187262 
L 1049.101812 530.706348 
L 1049.83287 530.334834 
L 1050.563928 530.449038 
L 1052.026043 530.994674 
L 1052.7571 530.459904 
L 1053.488158 530.4732 
L 1054.219215 530.36974 
L 1054.950273 530.131157 
L 1055.681331 530.204214 
L 1056.412388 530.593287 
L 1057.143446 530.759256 
L 1057.874503 530.427556 
L 1059.336618 530.782099 
L 1060.067676 530.405096 
L 1061.529791 530.285619 
L 1063.722964 530.633374 
L 1064.454021 530.552288 
L 1065.185079 530.910841 
L 1069.571424 530.986048 
L 1070.302482 530.885466 
L 1071.03354 531.433211 
L 1071.764597 531.265733 
L 1072.495655 530.831793 
L 1073.226712 531.238118 
L 1073.95777 531.503463 
L 1074.688827 531.570584 
L 1075.419885 531.194149 
L 1078.344115 531.508001 
L 1079.075173 531.74925 
L 1079.80623 531.852436 
L 1080.537288 531.156075 
L 1081.268346 531.317482 
L 1082.730461 531.172688 
L 1084.192576 530.983015 
L 1085.654691 530.953013 
L 1086.385749 531.1321 
L 1087.847864 530.736513 
L 1088.578921 531.221663 
L 1089.309979 530.852619 
L 1091.503152 530.153711 
L 1092.234209 530.050312 
L 1092.965267 529.554291 
L 1093.696324 529.718226 
L 1094.427382 529.725822 
L 1095.889497 529.19319 
L 1096.620555 529.0795 
L 1097.351612 529.178512 
L 1098.813727 529.161256 
L 1099.544785 528.950259 
L 1100.275842 529.11921 
L 1101.0069 529.067418 
L 1101.737958 529.280602 
L 1102.469015 529.037053 
L 1104.662188 529.44227 
L 1106.124303 528.869113 
L 1106.855361 529.094469 
L 1107.586418 529.024494 
L 1108.317476 529.381534 
L 1109.048533 529.085609 
L 1110.510649 528.196225 
L 1111.241706 527.474589 
L 1111.972764 527.174583 
L 1112.703821 527.169631 
L 1114.896994 527.647602 
L 1115.628052 527.250733 
L 1116.359109 527.066904 
L 1117.090167 527.470311 
L 1117.821224 527.429938 
L 1119.283339 526.951328 
L 1120.014397 527.072803 
L 1120.745455 527.485289 
L 1120.745455 527.485289 
" clip-path="url(#pe6854862df)" style="fill: none; stroke: #008000; stroke-width: 1.5; stroke-linecap: square"/>
   </g>
   <g id="line2d_37">
    <path d="M 162 524.622888 
L 1166.4 524.622888 
" clip-path="url(#pe6854862df)" style="fill: none; stroke-dasharray: 1.5,2.475; stroke-dashoffset: 0; stroke: #0000ff; stroke-width: 1.5"/>
   </g>
   <g id="patch_3">
    <path d="M 162 576.72 
L 162 77.76 
" style="fill: none; stroke: #808080; stroke-width: 0.8; stroke-linejoin: miter; stroke-linecap: square"/>
   </g>
   <g id="patch_4">
    <path d="M 1166.4 576.72 
L 1166.4 77.76 
" style="fill: none; stroke: #808080; stroke-width: 0.8; stroke-linejoin: miter; stroke-linecap: square"/>
   </g>
   <g id="patch_5">
    <path d="M 162 576.72 
L 1166.4 576.72 
" style="fill: none; stroke: #808080; stroke-width: 0.8; stroke-linejoin: miter; stroke-linecap: square"/>
   </g>
   <g id="patch_6">
    <path d="M 162 77.76 
L 1166.4 77.76 
" style="fill: none; stroke: #808080; stroke-width: 0.8; stroke-linejoin: miter; stroke-linecap: square"/>
   </g>
   <g id="text_33">
    <!-- (Andamento di $E(T_{r})$ in funzione del numero di batch) -->
    <g transform="translate(397.1 71.76) scale(0.2 -0.2)">
     <defs>
      <path id="DejaVuSans-41" d="M 2188 4044 
L 1331 1722 
L 3047 1722 
L 2188 4044 
z
M 1831 4666 
L 2547 4666 
L 4325 0 
L 3669 0 
L 3244 1197 
L 1141 1197 
L 716 0 
L 50 0 
L 1831 4666 
z
" transform="scale(0.015625)"/>
      <path id="DejaVuSans-6e" d="M 3513 2113 
L 3513 0 
L 2938 0 
L 2938 2094 
Q 2938 2591 2744 2837 
Q 2550 3084 2163 3084 
Q 1697 3084 1428 2787 
Q 1159 2491 1159 1978 
L 1159 0 
L 581 0 
L 581 3500 
L 1159 3500 
L 1159 2956 
Q 1366 3272 1645 3428 
Q 1925 3584 2291 3584 
Q 2894 3584 3203 3211 
Q 3513 2838 3513 2113 
z
" transform="scale(0.015625)"/>
      <path id="DejaVuSans-64" d="M 2906 2969 
L 2906 4863 
L 3481 4863 
L 3481 0 
L 2906 0 
L 2906 525 
Q 2725 213 2448 61 
Q 2172 -91 1784 -91 
Q 1150 -91 751 415 
Q 353 922 353 1747 
Q 353 2572 751 3078 
Q 1150 3584 1784 3584 
Q 2172 3584 2448 3432 
Q 2725 3281 2906 2969 
z
M 947 1747 
Q 947 1113 1208 752 
Q 1469 391 1925 391 
Q 2381 391 2643 752 
Q 2906 1113 2906 1747 
Q 2906 2381 2643 2742 
Q 2381 3103 1925 3103 
Q 1469 3103 1208 2742 
Q 947 2381 947 1747 
z
" transform="scale(0.015625)"/>
      <path id="DejaVuSans-61" d="M 2194 1759 
Q 1497 1759 1228 1600 
Q 959 1441 959 1056 
Q 959 750 1161 570 
Q 1363 391 1709 391 
Q 2188 391 2477 730 
Q 2766 1069 2766 1631 
L 2766 1759 
L 2194 1759 
z
M 3341 1997 
L 3341 0 
L 2766 0 
L 2766 531 
Q 2569 213 2275 61 
Q 1981 -91 1556 -91 
Q 1019 -91 701 211 
Q 384 513 384 1019 
Q 384 1609 779 1909 
Q 1175 2209 1959 2209 
L 2766 2209 
L 2766 2266 
Q 2766 2663 2505 2880 
Q 2244 3097 1772 3097 
Q 1472 3097 1187 3025 
Q 903 2953 641 2809 
L 641 3341 
Q 956 3463 1253 3523 
Q 1550 3584 1831 3584 
Q 2591 3584 2966 3190 
Q 3341 2797 3341 1997 
z
" transform="scale(0.015625)"/>
      <path id="DejaVuSans-6d" d="M 3328 2828 
Q 3544 3216 3844 3400 
Q 4144 3584 4550 3584 
Q 5097 3584 5394 3201 
Q 5691 2819 5691 2113 
L 5691 0 
L 5113 0 
L 5113 2094 
Q 5113 2597 4934 2840 
Q 4756 3084 4391 3084 
Q 3944 3084 3684 2787 
Q 3425 2491 3425 1978 
L 3425 0 
L 2847 0 
L 2847 2094 
Q 2847 2600 2669 2842 
Q 2491 3084 2119 3084 
Q 1678 3084 1418 2786 
Q 1159 2488 1159 1978 
L 1159 0 
L 581 0 
L 581 3500 
L 1159 3500 
L 1159 2956 
Q 1356 3278 1631 3431 
Q 1906 3584 2284 3584 
Q 2666 3584 2933 3390 
Q 3200 3197 3328 2828 
z
" transform="scale(0.015625)"/>
      <path id="DejaVuSans-65" d="M 3597 1894 
L 3597 1613 
L 953 1613 
Q 991 1019 1311 708 
Q 1631 397 2203 397 
Q 2534 397 2845 478 
Q 3156 559 3463 722 
L 3463 178 
Q 3153 47 2828 -22 
Q 2503 -91 2169 -91 
Q 1331 -91 842 396 
Q 353 884 353 1716 
Q 353 2575 817 3079 
Q 1281 3584 2069 3584 
Q 2775 3584 3186 3129 
Q 3597 2675 3597 1894 
z
M 3022 2063 
Q 3016 2534 2758 2815 
Q 2500 3097 2075 3097 
Q 1594 3097 1305 2825 
Q 1016 2553 972 2059 
L 3022 2063 
z
" transform="scale(0.015625)"/>
      <path id="DejaVuSans-74" d="M 1172 4494 
L 1172 3500 
L 2356 3500 
L 2356 3053 
L 1172 3053 
L 1172 1153 
Q 1172 725 1289 603 
Q 1406 481 1766 481 
L 2356 481 
L 2356 0 
L 1766 0 
Q 1100 0 847 248 
Q 594 497 594 1153 
L 594 3053 
L 172 3053 
L 172 3500 
L 594 3500 
L 594 4494 
L 1172 4494 
z
" transform="scale(0.015625)"/>
      <path id="DejaVuSans-6f" d="M 1959 3097 
Q 1497 3097 1228 2736 
Q 959 2375 959 1747 
Q 959 1119 1226 758 
Q 1494 397 1959 397 
Q 2419 397 2687 759 
Q 2956 1122 2956 1747 
Q 2956 2369 2687 2733 
Q 2419 3097 1959 3097 
z
M 1959 3584 
Q 2709 3584 3137 3096 
Q 3566 2609 3566 1747 
Q 3566 888 3137 398 
Q 2709 -91 1959 -91 
Q 1206 -91 779 398 
Q 353 888 353 1747 
Q 353 2609 779 3096 
Q 1206 3584 1959 3584 
z
" transform="scale(0.015625)"/>
      <path id="DejaVuSans-20" transform="scale(0.015625)"/>
      <path id="DejaVuSans-69" d="M 603 3500 
L 1178 3500 
L 1178 0 
L 603 0 
L 603 3500 
z
M 603 4863 
L 1178 4863 
L 1178 4134 
L 603 4134 
L 603 4863 
z
" transform="scale(0.015625)"/>
      <path id="DejaVuSans-66" d="M 2375 4863 
L 2375 4384 
L 1825 4384 
Q 1516 4384 1395 4259 
Q 1275 4134 1275 3809 
L 1275 3500 
L 2222 3500 
L 2222 3053 
L 1275 3053 
L 1275 0 
L 697 0 
L 697 3053 
L 147 3053 
L 147 3500 
L 697 3500 
L 697 3744 
Q 697 4328 969 4595 
Q 1241 4863 1831 4863 
L 2375 4863 
z
" transform="scale(0.015625)"/>
      <path id="DejaVuSans-75" d="M 544 1381 
L 544 3500 
L 1119 3500 
L 1119 1403 
Q 1119 906 1312 657 
Q 1506 409 1894 409 
Q 2359 409 2629 706 
Q 2900 1003 2900 1516 
L 2900 3500 
L 3475 3500 
L 3475 0 
L 2900 0 
L 2900 538 
Q 2691 219 2414 64 
Q 2138 -91 1772 -91 
Q 1169 -91 856 284 
Q 544 659 544 1381 
z
M 1991 3584 
L 1991 3584 
z
" transform="scale(0.015625)"/>
      <path id="DejaVuSans-7a" d="M 353 3500 
L 3084 3500 
L 3084 2975 
L 922 459 
L 3084 459 
L 3084 0 
L 275 0 
L 275 525 
L 2438 3041 
L 353 3041 
L 353 3500 
z
" transform="scale(0.015625)"/>
      <path id="DejaVuSans-6c" d="M 603 4863 
L 1178 4863 
L 1178 0 
L 603 0 
L 603 4863 
z
" transform="scale(0.015625)"/>
      <path id="DejaVuSans-72" d="M 2631 2963 
Q 2534 3019 2420 3045 
Q 2306 3072 2169 3072 
Q 1681 3072 1420 2755 
Q 1159 2438 1159 1844 
L 1159 0 
L 581 0 
L 581 3500 
L 1159 3500 
L 1159 2956 
Q 1341 3275 1631 3429 
Q 1922 3584 2338 3584 
Q 2397 3584 2469 3576 
Q 2541 3569 2628 3553 
L 2631 2963 
z
" transform="scale(0.015625)"/>
      <path id="DejaVuSans-62" d="M 3116 1747 
Q 3116 2381 2855 2742 
Q 2594 3103 2138 3103 
Q 1681 3103 1420 2742 
Q 1159 2381 1159 1747 
Q 1159 1113 1420 752 
Q 1681 391 2138 391 
Q 2594 391 2855 752 
Q 3116 1113 3116 1747 
z
M 1159 2969 
Q 1341 3281 1617 3432 
Q 1894 3584 2278 3584 
Q 2916 3584 3314 3078 
Q 3713 2572 3713 1747 
Q 3713 922 3314 415 
Q 2916 -91 2278 -91 
Q 1894 -91 1617 61 
Q 1341 213 1159 525 
L 1159 0 
L 581 0 
L 581 4863 
L 1159 4863 
L 1159 2969 
z
" transform="scale(0.015625)"/>
      <path id="DejaVuSans-63" d="M 3122 3366 
L 3122 2828 
Q 2878 2963 2633 3030 
Q 2388 3097 2138 3097 
Q 1578 3097 1268 2742 
Q 959 2388 959 1747 
Q 959 1106 1268 751 
Q 1578 397 2138 397 
Q 2388 397 2633 464 
Q 2878 531 3122 666 
L 3122 134 
Q 2881 22 2623 -34 
Q 2366 -91 2075 -91 
Q 1284 -91 818 406 
Q 353 903 353 1747 
Q 353 2603 823 3093 
Q 1294 3584 2113 3584 
Q 2378 3584 2631 3529 
Q 2884 3475 3122 3366 
z
" transform="scale(0.015625)"/>
      <path id="DejaVuSans-68" d="M 3513 2113 
L 3513 0 
L 2938 0 
L 2938 2094 
Q 2938 2591 2744 2837 
Q 2550 3084 2163 3084 
Q 1697 3084 1428 2787 
Q 1159 2491 1159 1978 
L 1159 0 
L 581 0 
L 581 4863 
L 1159 4863 
L 1159 2956 
Q 1366 3272 1645 3428 
Q 1925 3584 2291 3584 
Q 2894 3584 3203 3211 
Q 3513 2838 3513 2113 
z
" transform="scale(0.015625)"/>
     </defs>
     <use xlink:href="#DejaVuSans-28" transform="translate(0 0.015625)"/>
     <use xlink:href="#DejaVuSans-41" transform="translate(39.013672 0.015625)"/>
     <use xlink:href="#DejaVuSans-6e" transform="translate(107.421875 0.015625)"/>
     <use xlink:href="#DejaVuSans-64" transform="translate(170.800781 0.015625)"/>
     <use xlink:href="#DejaVuSans-61" transform="translate(234.277344 0.015625)"/>
     <use xlink:href="#DejaVuSans-6d" transform="translate(295.556641 0.015625)"/>
     <use xlink:href="#DejaVuSans-65" transform="translate(392.96875 0.015625)"/>
     <use xlink:href="#DejaVuSans-6e" transform="translate(454.492188 0.015625)"/>
     <use xlink:href="#DejaVuSans-74" transform="translate(517.871094 0.015625)"/>
     <use xlink:href="#DejaVuSans-6f" transform="translate(557.080078 0.015625)"/>
     <use xlink:href="#DejaVuSans-20" transform="translate(618.261719 0.015625)"/>
     <use xlink:href="#DejaVuSans-64" transform="translate(650.048828 0.015625)"/>
     <use xlink:href="#DejaVuSans-69" transform="translate(713.525391 0.015625)"/>
     <use xlink:href="#DejaVuSans-20" transform="translate(741.308594 0.015625)"/>
     <use xlink:href="#DejaVuSans-Oblique-45" transform="translate(773.095703 0.015625)"/>
     <use xlink:href="#DejaVuSans-28" transform="translate(836.279297 0.015625)"/>
     <use xlink:href="#DejaVuSans-Oblique-54" transform="translate(875.292969 0.015625)"/>
     <use xlink:href="#DejaVuSans-Oblique-72" transform="translate(936.376953 -16.390625) scale(0.7)"/>
     <use xlink:href="#DejaVuSans-29" transform="translate(967.890625 0.015625)"/>
     <use xlink:href="#DejaVuSans-20" transform="translate(1006.904297 0.015625)"/>
     <use xlink:href="#DejaVuSans-69" transform="translate(1038.691406 0.015625)"/>
     <use xlink:href="#DejaVuSans-6e" transform="translate(1066.474609 0.015625)"/>
     <use xlink:href="#DejaVuSans-20" transform="translate(1129.853516 0.015625)"/>
     <use xlink:href="#DejaVuSans-66" transform="translate(1161.640625 0.015625)"/>
     <use xlink:href="#DejaVuSans-75" transform="translate(1196.845703 0.015625)"/>
     <use xlink:href="#DejaVuSans-6e" transform="translate(1260.224609 0.015625)"/>
     <use xlink:href="#DejaVuSans-7a" transform="translate(1323.603516 0.015625)"/>
     <use xlink:href="#DejaVuSans-69" transform="translate(1376.09375 0.015625)"/>
     <use xlink:href="#DejaVuSans-6f" transform="translate(1403.876953 0.015625)"/>
     <use xlink:href="#DejaVuSans-6e" transform="translate(1465.058594 0.015625)"/>
     <use xlink:href="#DejaVuSans-65" transform="translate(1528.4375 0.015625)"/>
     <use xlink:href="#DejaVuSans-20" transform="translate(1589.960938 0.015625)"/>
     <use xlink:href="#DejaVuSans-64" transform="translate(1621.748047 0.015625)"/>
     <use xlink:href="#DejaVuSans-65" transform="translate(1685.224609 0.015625)"/>
     <use xlink:href="#DejaVuSans-6c" transform="translate(1746.748047 0.015625)"/>
     <use xlink:href="#DejaVuSans-20" transform="translate(1774.53125 0.015625)"/>
     <use xlink:href="#DejaVuSans-6e" transform="translate(1806.318359 0.015625)"/>
     <use xlink:href="#DejaVuSans-75" transform="translate(1869.697266 0.015625)"/>
     <use xlink:href="#DejaVuSans-6d" transform="translate(1933.076172 0.015625)"/>
     <use xlink:href="#DejaVuSans-65" transform="translate(2030.488281 0.015625)"/>
     <use xlink:href="#DejaVuSans-72" transform="translate(2092.011719 0.015625)"/>
     <use xlink:href="#DejaVuSans-6f" transform="translate(2133.125 0.015625)"/>
     <use xlink:href="#DejaVuSans-20" transform="translate(2194.306641 0.015625)"/>
     <use xlink:href="#DejaVuSans-64" transform="translate(2226.09375 0.015625)"/>
     <use xlink:href="#DejaVuSans-69" transform="translate(2289.570312 0.015625)"/>
     <use xlink:href="#DejaVuSans-20" transform="translate(2317.353516 0.015625)"/>
     <use xlink:href="#DejaVuSans-62" transform="translate(2349.140625 0.015625)"/>
     <use xlink:href="#DejaVuSans-61" transform="translate(2412.617188 0.015625)"/>
     <use xlink:href="#DejaVuSans-74" transform="translate(2473.896484 0.015625)"/>
     <use xlink:href="#DejaVuSans-63" transform="translate(2513.105469 0.015625)"/>
     <use xlink:href="#DejaVuSans-68" transform="translate(2568.085938 0.015625)"/>
     <use xlink:href="#DejaVuSans-29" transform="translate(2631.464844 0.015625)"/>
    </g>
   </g>
   <g id="legend_1">
    <g id="patch_7">
     <path d="M 902.9 118.39 
L 1154.5 118.39 
Q 1157.9 118.39 1157.9 114.99 
L 1157.9 89.66 
Q 1157.9 86.26 1154.5 86.26 
L 902.9 86.26 
Q 899.5 86.26 899.5 89.66 
L 899.5 114.99 
Q 899.5 118.39 902.9 118.39 
z
" style="fill: #ffffff; opacity: 0.8; stroke: #cccccc; stroke-linejoin: miter"/>
    </g>
    <g id="line2d_38">
     <path d="M 906.3 102.104531 
L 923.3 102.104531 
L 940.3 102.104531 
" style="fill: none; stroke-dasharray: 1.5,2.475; stroke-dashoffset: 0; stroke: #0000ff; stroke-width: 1.5"/>
    </g>
    <g id="text_34">
     <!-- $E(T_{r})^{teorico} = 673.2178\ s$ -->
     <g transform="translate(953.9 108.054531) scale(0.17 -0.17)">
      <defs>
       <path id="DejaVuSans-Oblique-65" d="M 3078 2063 
Q 3088 2113 3092 2166 
Q 3097 2219 3097 2272 
Q 3097 2653 2873 2875 
Q 2650 3097 2266 3097 
Q 1838 3097 1509 2826 
Q 1181 2556 1013 2059 
L 3078 2063 
z
M 3578 1613 
L 903 1613 
Q 884 1494 878 1425 
Q 872 1356 872 1306 
Q 872 872 1139 634 
Q 1406 397 1894 397 
Q 2269 397 2603 481 
Q 2938 566 3225 728 
L 3116 159 
Q 2806 34 2476 -28 
Q 2147 -91 1806 -91 
Q 1078 -91 686 257 
Q 294 606 294 1247 
Q 294 1794 489 2264 
Q 684 2734 1063 3103 
Q 1306 3334 1642 3459 
Q 1978 3584 2356 3584 
Q 2950 3584 3301 3228 
Q 3653 2872 3653 2272 
Q 3653 2128 3634 1964 
Q 3616 1800 3578 1613 
z
" transform="scale(0.015625)"/>
       <path id="DejaVuSans-3d" d="M 678 2906 
L 4684 2906 
L 4684 2381 
L 678 2381 
L 678 2906 
z
M 678 1631 
L 4684 1631 
L 4684 1100 
L 678 1100 
L 678 1631 
z
" transform="scale(0.015625)"/>
       <path id="DejaVuSans-2e" d="M 684 794 
L 1344 794 
L 1344 0 
L 684 0 
L 684 794 
z
" transform="scale(0.015625)"/>
      </defs>
      <use xlink:href="#DejaVuSans-Oblique-45" transform="translate(0 0.529687)"/>
      <use xlink:href="#DejaVuSans-28" transform="translate(63.183594 0.529687)"/>
      <use xlink:href="#DejaVuSans-Oblique-54" transform="translate(102.197266 0.529687)"/>
      <use xlink:href="#DejaVuSans-Oblique-72" transform="translate(163.28125 -15.876563) scale(0.7)"/>
      <use xlink:href="#DejaVuSans-29" transform="translate(194.794922 0.529687)"/>
      <use xlink:href="#DejaVuSans-Oblique-74" transform="translate(234.765625 38.810937) scale(0.7)"/>
      <use xlink:href="#DejaVuSans-Oblique-65" transform="translate(262.211914 38.810937) scale(0.7)"/>
      <use xlink:href="#DejaVuSans-Oblique-6f" transform="translate(305.27832 38.810937) scale(0.7)"/>
      <use xlink:href="#DejaVuSans-Oblique-72" transform="translate(348.105469 38.810937) scale(0.7)"/>
      <use xlink:href="#DejaVuSans-Oblique-69" transform="translate(376.884766 38.810937) scale(0.7)"/>
      <use xlink:href="#DejaVuSans-Oblique-63" transform="translate(396.333008 38.810937) scale(0.7)"/>
      <use xlink:href="#DejaVuSans-Oblique-6f" transform="translate(434.819336 38.810937) scale(0.7)"/>
      <use xlink:href="#DejaVuSans-3d" transform="translate(499.863281 0.529687)"/>
      <use xlink:href="#DejaVuSans-36" transform="translate(603.134766 0.529687)"/>
      <use xlink:href="#DejaVuSans-37" transform="translate(666.757812 0.529687)"/>
      <use xlink:href="#DejaVuSans-33" transform="translate(730.380859 0.529687)"/>
      <use xlink:href="#DejaVuSans-2e" transform="translate(794.003906 0.529687)"/>
      <use xlink:href="#DejaVuSans-32" transform="translate(820.291016 0.529687)"/>
      <use xlink:href="#DejaVuSans-31" transform="translate(883.914062 0.529687)"/>
      <use xlink:href="#DejaVuSans-37" transform="translate(947.537109 0.529687)"/>
      <use xlink:href="#DejaVuSans-38" transform="translate(1011.160156 0.529687)"/>
      <use xlink:href="#DejaVuSans-Oblique-73" transform="translate(1107.253582 0.529687)"/>
     </g>
    </g>
   </g>
  </g>
  <g id="text_35">
   <!-- Tempo Globale di Risposta -->
   <g transform="translate(449.784375 35.755313) scale(0.3 -0.3)">
    <defs>
     <path id="DejaVuSans-54" d="M -19 4666 
L 3928 4666 
L 3928 4134 
L 2272 4134 
L 2272 0 
L 1638 0 
L 1638 4134 
L -19 4134 
L -19 4666 
z
" transform="scale(0.015625)"/>
     <path id="DejaVuSans-70" d="M 1159 525 
L 1159 -1331 
L 581 -1331 
L 581 3500 
L 1159 3500 
L 1159 2969 
Q 1341 3281 1617 3432 
Q 1894 3584 2278 3584 
Q 2916 3584 3314 3078 
Q 3713 2572 3713 1747 
Q 3713 922 3314 415 
Q 2916 -91 2278 -91 
Q 1894 -91 1617 61 
Q 1341 213 1159 525 
z
M 3116 1747 
Q 3116 2381 2855 2742 
Q 2594 3103 2138 3103 
Q 1681 3103 1420 2742 
Q 1159 2381 1159 1747 
Q 1159 1113 1420 752 
Q 1681 391 2138 391 
Q 2594 391 2855 752 
Q 3116 1113 3116 1747 
z
" transform="scale(0.015625)"/>
     <path id="DejaVuSans-47" d="M 3809 666 
L 3809 1919 
L 2778 1919 
L 2778 2438 
L 4434 2438 
L 4434 434 
Q 4069 175 3628 42 
Q 3188 -91 2688 -91 
Q 1594 -91 976 548 
Q 359 1188 359 2328 
Q 359 3472 976 4111 
Q 1594 4750 2688 4750 
Q 3144 4750 3555 4637 
Q 3966 4525 4313 4306 
L 4313 3634 
Q 3963 3931 3569 4081 
Q 3175 4231 2741 4231 
Q 1884 4231 1454 3753 
Q 1025 3275 1025 2328 
Q 1025 1384 1454 906 
Q 1884 428 2741 428 
Q 3075 428 3337 486 
Q 3600 544 3809 666 
z
" transform="scale(0.015625)"/>
     <path id="DejaVuSans-52" d="M 2841 2188 
Q 3044 2119 3236 1894 
Q 3428 1669 3622 1275 
L 4263 0 
L 3584 0 
L 2988 1197 
Q 2756 1666 2539 1819 
Q 2322 1972 1947 1972 
L 1259 1972 
L 1259 0 
L 628 0 
L 628 4666 
L 2053 4666 
Q 2853 4666 3247 4331 
Q 3641 3997 3641 3322 
Q 3641 2881 3436 2590 
Q 3231 2300 2841 2188 
z
M 1259 4147 
L 1259 2491 
L 2053 2491 
Q 2509 2491 2742 2702 
Q 2975 2913 2975 3322 
Q 2975 3731 2742 3939 
Q 2509 4147 2053 4147 
L 1259 4147 
z
" transform="scale(0.015625)"/>
     <path id="DejaVuSans-73" d="M 2834 3397 
L 2834 2853 
Q 2591 2978 2328 3040 
Q 2066 3103 1784 3103 
Q 1356 3103 1142 2972 
Q 928 2841 928 2578 
Q 928 2378 1081 2264 
Q 1234 2150 1697 2047 
L 1894 2003 
Q 2506 1872 2764 1633 
Q 3022 1394 3022 966 
Q 3022 478 2636 193 
Q 2250 -91 1575 -91 
Q 1294 -91 989 -36 
Q 684 19 347 128 
L 347 722 
Q 666 556 975 473 
Q 1284 391 1588 391 
Q 1994 391 2212 530 
Q 2431 669 2431 922 
Q 2431 1156 2273 1281 
Q 2116 1406 1581 1522 
L 1381 1569 
Q 847 1681 609 1914 
Q 372 2147 372 2553 
Q 372 3047 722 3315 
Q 1072 3584 1716 3584 
Q 2034 3584 2315 3537 
Q 2597 3491 2834 3397 
z
" transform="scale(0.015625)"/>
    </defs>
    <use xlink:href="#DejaVuSans-54"/>
    <use xlink:href="#DejaVuSans-65" x="44.083984"/>
    <use xlink:href="#DejaVuSans-6d" x="105.607422"/>
    <use xlink:href="#DejaVuSans-70" x="203.019531"/>
    <use xlink:href="#DejaVuSans-6f" x="266.496094"/>
    <use xlink:href="#DejaVuSans-20" x="327.677734"/>
    <use xlink:href="#DejaVuSans-47" x="359.464844"/>
    <use xlink:href="#DejaVuSans-6c" x="436.955078"/>
    <use xlink:href="#DejaVuSans-6f" x="464.738281"/>
    <use xlink:href="#DejaVuSans-62" x="525.919922"/>
    <use xlink:href="#DejaVuSans-61" x="589.396484"/>
    <use xlink:href="#DejaVuSans-6c" x="650.675781"/>
    <use xlink:href="#DejaVuSans-65" x="678.458984"/>
    <use xlink:href="#DejaVuSans-20" x="739.982422"/>
    <use xlink:href="#DejaVuSans-64" x="771.769531"/>
    <use xlink:href="#DejaVuSans-69" x="835.246094"/>
    <use xlink:href="#DejaVuSans-20" x="863.029297"/>
    <use xlink:href="#DejaVuSans-52" x="894.816406"/>
    <use xlink:href="#DejaVuSans-69" x="964.298828"/>
    <use xlink:href="#DejaVuSans-73" x="992.082031"/>
    <use xlink:href="#DejaVuSans-70" x="1044.181641"/>
    <use xlink:href="#DejaVuSans-6f" x="1107.658203"/>
    <use xlink:href="#DejaVuSans-73" x="1168.839844"/>
    <use xlink:href="#DejaVuSans-74" x="1220.939453"/>
    <use xlink:href="#DejaVuSans-61" x="1260.148438"/>
   </g>
  </g>
 </g>
 <defs>
  <clipPath id="pe6854862df">
   <rect x="162" y="77.76" width="1004.4" height="498.96"/>
  </clipPath>
 </defs>
</svg>
