<?xml version="1.0" encoding="utf-8" standalone="no"?>
<!DOCTYPE svg PUBLIC "-//W3C//DTD SVG 1.1//EN"
  "http://www.w3.org/Graphics/SVG/1.1/DTD/svg11.dtd">
<svg xmlns:xlink="http://www.w3.org/1999/xlink" width="1296pt" height="648pt" viewBox="0 0 1296 648" xmlns="http://www.w3.org/2000/svg" version="1.1">
 <metadata>
  <rdf:RDF xmlns:dc="http://purl.org/dc/elements/1.1/" xmlns:cc="http://creativecommons.org/ns#" xmlns:rdf="http://www.w3.org/1999/02/22-rdf-syntax-ns#">
   <cc:Work>
    <dc:type rdf:resource="http://purl.org/dc/dcmitype/StillImage"/>
    <dc:date>2023-01-24T19:29:11.389100</dc:date>
    <dc:format>image/svg+xml</dc:format>
    <dc:creator>
     <cc:Agent>
      <dc:title>Matplotlib v3.6.3, https://matplotlib.org/</dc:title>
     </cc:Agent>
    </dc:creator>
   </cc:Work>
  </rdf:RDF>
 </metadata>
 <defs>
  <style type="text/css">*{stroke-linejoin: round; stroke-linecap: butt}</style>
 </defs>
 <g id="figure_1">
  <g id="patch_1">
   <path d="M 0 648 
L 1296 648 
L 1296 0 
L 0 0 
L 0 648 
z
" style="fill: none"/>
  </g>
  <g id="axes_1">
   <g id="patch_2">
    <path d="M 162 576.72 
L 1166.4 576.72 
L 1166.4 77.76 
L 162 77.76 
L 162 576.72 
z
" style="fill: none"/>
   </g>
   <g id="matplotlib.axis_1">
    <g id="xtick_1">
     <g id="line2d_1">
      <defs>
       <path id="mae9c2a9cba" d="M 0 0 
L 0 3.5 
" style="stroke: #000000; stroke-width: 0.8"/>
      </defs>
      <g>
       <use xlink:href="#mae9c2a9cba" x="206.923488" y="576.72" style="stroke: #000000; stroke-width: 0.8"/>
      </g>
     </g>
     <g id="text_1">
      <!-- 0 -->
      <g transform="translate(203.742238 591.318438) scale(0.1 -0.1)">
       <defs>
        <path id="DejaVuSans-30" d="M 2034 4250 
Q 1547 4250 1301 3770 
Q 1056 3291 1056 2328 
Q 1056 1369 1301 889 
Q 1547 409 2034 409 
Q 2525 409 2770 889 
Q 3016 1369 3016 2328 
Q 3016 3291 2770 3770 
Q 2525 4250 2034 4250 
z
M 2034 4750 
Q 2819 4750 3233 4129 
Q 3647 3509 3647 2328 
Q 3647 1150 3233 529 
Q 2819 -91 2034 -91 
Q 1250 -91 836 529 
Q 422 1150 422 2328 
Q 422 3509 836 4129 
Q 1250 4750 2034 4750 
z
" transform="scale(0.015625)"/>
       </defs>
       <use xlink:href="#DejaVuSans-30"/>
      </g>
     </g>
    </g>
    <g id="xtick_2">
     <g id="line2d_2">
      <g>
       <use xlink:href="#mae9c2a9cba" x="243.476367" y="576.72" style="stroke: #000000; stroke-width: 0.8"/>
      </g>
     </g>
     <g id="text_2">
      <!-- 50 -->
      <g transform="translate(237.113867 591.318438) scale(0.1 -0.1)">
       <defs>
        <path id="DejaVuSans-35" d="M 691 4666 
L 3169 4666 
L 3169 4134 
L 1269 4134 
L 1269 2991 
Q 1406 3038 1543 3061 
Q 1681 3084 1819 3084 
Q 2600 3084 3056 2656 
Q 3513 2228 3513 1497 
Q 3513 744 3044 326 
Q 2575 -91 1722 -91 
Q 1428 -91 1123 -41 
Q 819 9 494 109 
L 494 744 
Q 775 591 1075 516 
Q 1375 441 1709 441 
Q 2250 441 2565 725 
Q 2881 1009 2881 1497 
Q 2881 1984 2565 2268 
Q 2250 2553 1709 2553 
Q 1456 2553 1204 2497 
Q 953 2441 691 2322 
L 691 4666 
z
" transform="scale(0.015625)"/>
       </defs>
       <use xlink:href="#DejaVuSans-35"/>
       <use xlink:href="#DejaVuSans-30" x="63.623047"/>
      </g>
     </g>
    </g>
    <g id="xtick_3">
     <g id="line2d_3">
      <g>
       <use xlink:href="#mae9c2a9cba" x="280.029245" y="576.72" style="stroke: #000000; stroke-width: 0.8"/>
      </g>
     </g>
     <g id="text_3">
      <!-- 100 -->
      <g transform="translate(270.485495 591.318438) scale(0.1 -0.1)">
       <defs>
        <path id="DejaVuSans-31" d="M 794 531 
L 1825 531 
L 1825 4091 
L 703 3866 
L 703 4441 
L 1819 4666 
L 2450 4666 
L 2450 531 
L 3481 531 
L 3481 0 
L 794 0 
L 794 531 
z
" transform="scale(0.015625)"/>
       </defs>
       <use xlink:href="#DejaVuSans-31"/>
       <use xlink:href="#DejaVuSans-30" x="63.623047"/>
       <use xlink:href="#DejaVuSans-30" x="127.246094"/>
      </g>
     </g>
    </g>
    <g id="xtick_4">
     <g id="line2d_4">
      <g>
       <use xlink:href="#mae9c2a9cba" x="316.582124" y="576.72" style="stroke: #000000; stroke-width: 0.8"/>
      </g>
     </g>
     <g id="text_4">
      <!-- 150 -->
      <g transform="translate(307.038374 591.318438) scale(0.1 -0.1)">
       <use xlink:href="#DejaVuSans-31"/>
       <use xlink:href="#DejaVuSans-35" x="63.623047"/>
       <use xlink:href="#DejaVuSans-30" x="127.246094"/>
      </g>
     </g>
    </g>
    <g id="xtick_5">
     <g id="line2d_5">
      <g>
       <use xlink:href="#mae9c2a9cba" x="353.135003" y="576.72" style="stroke: #000000; stroke-width: 0.8"/>
      </g>
     </g>
     <g id="text_5">
      <!-- 200 -->
      <g transform="translate(343.591253 591.318438) scale(0.1 -0.1)">
       <defs>
        <path id="DejaVuSans-32" d="M 1228 531 
L 3431 531 
L 3431 0 
L 469 0 
L 469 531 
Q 828 903 1448 1529 
Q 2069 2156 2228 2338 
Q 2531 2678 2651 2914 
Q 2772 3150 2772 3378 
Q 2772 3750 2511 3984 
Q 2250 4219 1831 4219 
Q 1534 4219 1204 4116 
Q 875 4013 500 3803 
L 500 4441 
Q 881 4594 1212 4672 
Q 1544 4750 1819 4750 
Q 2544 4750 2975 4387 
Q 3406 4025 3406 3419 
Q 3406 3131 3298 2873 
Q 3191 2616 2906 2266 
Q 2828 2175 2409 1742 
Q 1991 1309 1228 531 
z
" transform="scale(0.015625)"/>
       </defs>
       <use xlink:href="#DejaVuSans-32"/>
       <use xlink:href="#DejaVuSans-30" x="63.623047"/>
       <use xlink:href="#DejaVuSans-30" x="127.246094"/>
      </g>
     </g>
    </g>
    <g id="xtick_6">
     <g id="line2d_6">
      <g>
       <use xlink:href="#mae9c2a9cba" x="389.687881" y="576.72" style="stroke: #000000; stroke-width: 0.8"/>
      </g>
     </g>
     <g id="text_6">
      <!-- 250 -->
      <g transform="translate(380.144131 591.318438) scale(0.1 -0.1)">
       <use xlink:href="#DejaVuSans-32"/>
       <use xlink:href="#DejaVuSans-35" x="63.623047"/>
       <use xlink:href="#DejaVuSans-30" x="127.246094"/>
      </g>
     </g>
    </g>
    <g id="xtick_7">
     <g id="line2d_7">
      <g>
       <use xlink:href="#mae9c2a9cba" x="426.24076" y="576.72" style="stroke: #000000; stroke-width: 0.8"/>
      </g>
     </g>
     <g id="text_7">
      <!-- 300 -->
      <g transform="translate(416.69701 591.318438) scale(0.1 -0.1)">
       <defs>
        <path id="DejaVuSans-33" d="M 2597 2516 
Q 3050 2419 3304 2112 
Q 3559 1806 3559 1356 
Q 3559 666 3084 287 
Q 2609 -91 1734 -91 
Q 1441 -91 1130 -33 
Q 819 25 488 141 
L 488 750 
Q 750 597 1062 519 
Q 1375 441 1716 441 
Q 2309 441 2620 675 
Q 2931 909 2931 1356 
Q 2931 1769 2642 2001 
Q 2353 2234 1838 2234 
L 1294 2234 
L 1294 2753 
L 1863 2753 
Q 2328 2753 2575 2939 
Q 2822 3125 2822 3475 
Q 2822 3834 2567 4026 
Q 2313 4219 1838 4219 
Q 1578 4219 1281 4162 
Q 984 4106 628 3988 
L 628 4550 
Q 988 4650 1302 4700 
Q 1616 4750 1894 4750 
Q 2613 4750 3031 4423 
Q 3450 4097 3450 3541 
Q 3450 3153 3228 2886 
Q 3006 2619 2597 2516 
z
" transform="scale(0.015625)"/>
       </defs>
       <use xlink:href="#DejaVuSans-33"/>
       <use xlink:href="#DejaVuSans-30" x="63.623047"/>
       <use xlink:href="#DejaVuSans-30" x="127.246094"/>
      </g>
     </g>
    </g>
    <g id="xtick_8">
     <g id="line2d_8">
      <g>
       <use xlink:href="#mae9c2a9cba" x="462.793639" y="576.72" style="stroke: #000000; stroke-width: 0.8"/>
      </g>
     </g>
     <g id="text_8">
      <!-- 350 -->
      <g transform="translate(453.249889 591.318438) scale(0.1 -0.1)">
       <use xlink:href="#DejaVuSans-33"/>
       <use xlink:href="#DejaVuSans-35" x="63.623047"/>
       <use xlink:href="#DejaVuSans-30" x="127.246094"/>
      </g>
     </g>
    </g>
    <g id="xtick_9">
     <g id="line2d_9">
      <g>
       <use xlink:href="#mae9c2a9cba" x="499.346517" y="576.72" style="stroke: #000000; stroke-width: 0.8"/>
      </g>
     </g>
     <g id="text_9">
      <!-- 400 -->
      <g transform="translate(489.802767 591.318438) scale(0.1 -0.1)">
       <defs>
        <path id="DejaVuSans-34" d="M 2419 4116 
L 825 1625 
L 2419 1625 
L 2419 4116 
z
M 2253 4666 
L 3047 4666 
L 3047 1625 
L 3713 1625 
L 3713 1100 
L 3047 1100 
L 3047 0 
L 2419 0 
L 2419 1100 
L 313 1100 
L 313 1709 
L 2253 4666 
z
" transform="scale(0.015625)"/>
       </defs>
       <use xlink:href="#DejaVuSans-34"/>
       <use xlink:href="#DejaVuSans-30" x="63.623047"/>
       <use xlink:href="#DejaVuSans-30" x="127.246094"/>
      </g>
     </g>
    </g>
    <g id="xtick_10">
     <g id="line2d_10">
      <g>
       <use xlink:href="#mae9c2a9cba" x="535.899396" y="576.72" style="stroke: #000000; stroke-width: 0.8"/>
      </g>
     </g>
     <g id="text_10">
      <!-- 450 -->
      <g transform="translate(526.355646 591.318438) scale(0.1 -0.1)">
       <use xlink:href="#DejaVuSans-34"/>
       <use xlink:href="#DejaVuSans-35" x="63.623047"/>
       <use xlink:href="#DejaVuSans-30" x="127.246094"/>
      </g>
     </g>
    </g>
    <g id="xtick_11">
     <g id="line2d_11">
      <g>
       <use xlink:href="#mae9c2a9cba" x="572.452275" y="576.72" style="stroke: #000000; stroke-width: 0.8"/>
      </g>
     </g>
     <g id="text_11">
      <!-- 500 -->
      <g transform="translate(562.908525 591.318438) scale(0.1 -0.1)">
       <use xlink:href="#DejaVuSans-35"/>
       <use xlink:href="#DejaVuSans-30" x="63.623047"/>
       <use xlink:href="#DejaVuSans-30" x="127.246094"/>
      </g>
     </g>
    </g>
    <g id="xtick_12">
     <g id="line2d_12">
      <g>
       <use xlink:href="#mae9c2a9cba" x="609.005153" y="576.72" style="stroke: #000000; stroke-width: 0.8"/>
      </g>
     </g>
     <g id="text_12">
      <!-- 550 -->
      <g transform="translate(599.461403 591.318438) scale(0.1 -0.1)">
       <use xlink:href="#DejaVuSans-35"/>
       <use xlink:href="#DejaVuSans-35" x="63.623047"/>
       <use xlink:href="#DejaVuSans-30" x="127.246094"/>
      </g>
     </g>
    </g>
    <g id="xtick_13">
     <g id="line2d_13">
      <g>
       <use xlink:href="#mae9c2a9cba" x="645.558032" y="576.72" style="stroke: #000000; stroke-width: 0.8"/>
      </g>
     </g>
     <g id="text_13">
      <!-- 600 -->
      <g transform="translate(636.014282 591.318438) scale(0.1 -0.1)">
       <defs>
        <path id="DejaVuSans-36" d="M 2113 2584 
Q 1688 2584 1439 2293 
Q 1191 2003 1191 1497 
Q 1191 994 1439 701 
Q 1688 409 2113 409 
Q 2538 409 2786 701 
Q 3034 994 3034 1497 
Q 3034 2003 2786 2293 
Q 2538 2584 2113 2584 
z
M 3366 4563 
L 3366 3988 
Q 3128 4100 2886 4159 
Q 2644 4219 2406 4219 
Q 1781 4219 1451 3797 
Q 1122 3375 1075 2522 
Q 1259 2794 1537 2939 
Q 1816 3084 2150 3084 
Q 2853 3084 3261 2657 
Q 3669 2231 3669 1497 
Q 3669 778 3244 343 
Q 2819 -91 2113 -91 
Q 1303 -91 875 529 
Q 447 1150 447 2328 
Q 447 3434 972 4092 
Q 1497 4750 2381 4750 
Q 2619 4750 2861 4703 
Q 3103 4656 3366 4563 
z
" transform="scale(0.015625)"/>
       </defs>
       <use xlink:href="#DejaVuSans-36"/>
       <use xlink:href="#DejaVuSans-30" x="63.623047"/>
       <use xlink:href="#DejaVuSans-30" x="127.246094"/>
      </g>
     </g>
    </g>
    <g id="xtick_14">
     <g id="line2d_14">
      <g>
       <use xlink:href="#mae9c2a9cba" x="682.110911" y="576.72" style="stroke: #000000; stroke-width: 0.8"/>
      </g>
     </g>
     <g id="text_14">
      <!-- 650 -->
      <g transform="translate(672.567161 591.318438) scale(0.1 -0.1)">
       <use xlink:href="#DejaVuSans-36"/>
       <use xlink:href="#DejaVuSans-35" x="63.623047"/>
       <use xlink:href="#DejaVuSans-30" x="127.246094"/>
      </g>
     </g>
    </g>
    <g id="xtick_15">
     <g id="line2d_15">
      <g>
       <use xlink:href="#mae9c2a9cba" x="718.663789" y="576.72" style="stroke: #000000; stroke-width: 0.8"/>
      </g>
     </g>
     <g id="text_15">
      <!-- 700 -->
      <g transform="translate(709.120039 591.318438) scale(0.1 -0.1)">
       <defs>
        <path id="DejaVuSans-37" d="M 525 4666 
L 3525 4666 
L 3525 4397 
L 1831 0 
L 1172 0 
L 2766 4134 
L 525 4134 
L 525 4666 
z
" transform="scale(0.015625)"/>
       </defs>
       <use xlink:href="#DejaVuSans-37"/>
       <use xlink:href="#DejaVuSans-30" x="63.623047"/>
       <use xlink:href="#DejaVuSans-30" x="127.246094"/>
      </g>
     </g>
    </g>
    <g id="xtick_16">
     <g id="line2d_16">
      <g>
       <use xlink:href="#mae9c2a9cba" x="755.216668" y="576.72" style="stroke: #000000; stroke-width: 0.8"/>
      </g>
     </g>
     <g id="text_16">
      <!-- 750 -->
      <g transform="translate(745.672918 591.318438) scale(0.1 -0.1)">
       <use xlink:href="#DejaVuSans-37"/>
       <use xlink:href="#DejaVuSans-35" x="63.623047"/>
       <use xlink:href="#DejaVuSans-30" x="127.246094"/>
      </g>
     </g>
    </g>
    <g id="xtick_17">
     <g id="line2d_17">
      <g>
       <use xlink:href="#mae9c2a9cba" x="791.769547" y="576.72" style="stroke: #000000; stroke-width: 0.8"/>
      </g>
     </g>
     <g id="text_17">
      <!-- 800 -->
      <g transform="translate(782.225797 591.318438) scale(0.1 -0.1)">
       <defs>
        <path id="DejaVuSans-38" d="M 2034 2216 
Q 1584 2216 1326 1975 
Q 1069 1734 1069 1313 
Q 1069 891 1326 650 
Q 1584 409 2034 409 
Q 2484 409 2743 651 
Q 3003 894 3003 1313 
Q 3003 1734 2745 1975 
Q 2488 2216 2034 2216 
z
M 1403 2484 
Q 997 2584 770 2862 
Q 544 3141 544 3541 
Q 544 4100 942 4425 
Q 1341 4750 2034 4750 
Q 2731 4750 3128 4425 
Q 3525 4100 3525 3541 
Q 3525 3141 3298 2862 
Q 3072 2584 2669 2484 
Q 3125 2378 3379 2068 
Q 3634 1759 3634 1313 
Q 3634 634 3220 271 
Q 2806 -91 2034 -91 
Q 1263 -91 848 271 
Q 434 634 434 1313 
Q 434 1759 690 2068 
Q 947 2378 1403 2484 
z
M 1172 3481 
Q 1172 3119 1398 2916 
Q 1625 2713 2034 2713 
Q 2441 2713 2670 2916 
Q 2900 3119 2900 3481 
Q 2900 3844 2670 4047 
Q 2441 4250 2034 4250 
Q 1625 4250 1398 4047 
Q 1172 3844 1172 3481 
z
" transform="scale(0.015625)"/>
       </defs>
       <use xlink:href="#DejaVuSans-38"/>
       <use xlink:href="#DejaVuSans-30" x="63.623047"/>
       <use xlink:href="#DejaVuSans-30" x="127.246094"/>
      </g>
     </g>
    </g>
    <g id="xtick_18">
     <g id="line2d_18">
      <g>
       <use xlink:href="#mae9c2a9cba" x="828.322425" y="576.72" style="stroke: #000000; stroke-width: 0.8"/>
      </g>
     </g>
     <g id="text_18">
      <!-- 850 -->
      <g transform="translate(818.778675 591.318438) scale(0.1 -0.1)">
       <use xlink:href="#DejaVuSans-38"/>
       <use xlink:href="#DejaVuSans-35" x="63.623047"/>
       <use xlink:href="#DejaVuSans-30" x="127.246094"/>
      </g>
     </g>
    </g>
    <g id="xtick_19">
     <g id="line2d_19">
      <g>
       <use xlink:href="#mae9c2a9cba" x="864.875304" y="576.72" style="stroke: #000000; stroke-width: 0.8"/>
      </g>
     </g>
     <g id="text_19">
      <!-- 900 -->
      <g transform="translate(855.331554 591.318438) scale(0.1 -0.1)">
       <defs>
        <path id="DejaVuSans-39" d="M 703 97 
L 703 672 
Q 941 559 1184 500 
Q 1428 441 1663 441 
Q 2288 441 2617 861 
Q 2947 1281 2994 2138 
Q 2813 1869 2534 1725 
Q 2256 1581 1919 1581 
Q 1219 1581 811 2004 
Q 403 2428 403 3163 
Q 403 3881 828 4315 
Q 1253 4750 1959 4750 
Q 2769 4750 3195 4129 
Q 3622 3509 3622 2328 
Q 3622 1225 3098 567 
Q 2575 -91 1691 -91 
Q 1453 -91 1209 -44 
Q 966 3 703 97 
z
M 1959 2075 
Q 2384 2075 2632 2365 
Q 2881 2656 2881 3163 
Q 2881 3666 2632 3958 
Q 2384 4250 1959 4250 
Q 1534 4250 1286 3958 
Q 1038 3666 1038 3163 
Q 1038 2656 1286 2365 
Q 1534 2075 1959 2075 
z
" transform="scale(0.015625)"/>
       </defs>
       <use xlink:href="#DejaVuSans-39"/>
       <use xlink:href="#DejaVuSans-30" x="63.623047"/>
       <use xlink:href="#DejaVuSans-30" x="127.246094"/>
      </g>
     </g>
    </g>
    <g id="xtick_20">
     <g id="line2d_20">
      <g>
       <use xlink:href="#mae9c2a9cba" x="901.428183" y="576.72" style="stroke: #000000; stroke-width: 0.8"/>
      </g>
     </g>
     <g id="text_20">
      <!-- 950 -->
      <g transform="translate(891.884433 591.318438) scale(0.1 -0.1)">
       <use xlink:href="#DejaVuSans-39"/>
       <use xlink:href="#DejaVuSans-35" x="63.623047"/>
       <use xlink:href="#DejaVuSans-30" x="127.246094"/>
      </g>
     </g>
    </g>
    <g id="xtick_21">
     <g id="line2d_21">
      <g>
       <use xlink:href="#mae9c2a9cba" x="937.981061" y="576.72" style="stroke: #000000; stroke-width: 0.8"/>
      </g>
     </g>
     <g id="text_21">
      <!-- 1000 -->
      <g transform="translate(925.256061 591.318438) scale(0.1 -0.1)">
       <use xlink:href="#DejaVuSans-31"/>
       <use xlink:href="#DejaVuSans-30" x="63.623047"/>
       <use xlink:href="#DejaVuSans-30" x="127.246094"/>
       <use xlink:href="#DejaVuSans-30" x="190.869141"/>
      </g>
     </g>
    </g>
    <g id="xtick_22">
     <g id="line2d_22">
      <g>
       <use xlink:href="#mae9c2a9cba" x="974.53394" y="576.72" style="stroke: #000000; stroke-width: 0.8"/>
      </g>
     </g>
     <g id="text_22">
      <!-- 1050 -->
      <g transform="translate(961.80894 591.318438) scale(0.1 -0.1)">
       <use xlink:href="#DejaVuSans-31"/>
       <use xlink:href="#DejaVuSans-30" x="63.623047"/>
       <use xlink:href="#DejaVuSans-35" x="127.246094"/>
       <use xlink:href="#DejaVuSans-30" x="190.869141"/>
      </g>
     </g>
    </g>
    <g id="xtick_23">
     <g id="line2d_23">
      <g>
       <use xlink:href="#mae9c2a9cba" x="1011.086819" y="576.72" style="stroke: #000000; stroke-width: 0.8"/>
      </g>
     </g>
     <g id="text_23">
      <!-- 1100 -->
      <g transform="translate(998.361819 591.318438) scale(0.1 -0.1)">
       <use xlink:href="#DejaVuSans-31"/>
       <use xlink:href="#DejaVuSans-31" x="63.623047"/>
       <use xlink:href="#DejaVuSans-30" x="127.246094"/>
       <use xlink:href="#DejaVuSans-30" x="190.869141"/>
      </g>
     </g>
    </g>
    <g id="xtick_24">
     <g id="line2d_24">
      <g>
       <use xlink:href="#mae9c2a9cba" x="1047.639697" y="576.72" style="stroke: #000000; stroke-width: 0.8"/>
      </g>
     </g>
     <g id="text_24">
      <!-- 1150 -->
      <g transform="translate(1034.914697 591.318438) scale(0.1 -0.1)">
       <use xlink:href="#DejaVuSans-31"/>
       <use xlink:href="#DejaVuSans-31" x="63.623047"/>
       <use xlink:href="#DejaVuSans-35" x="127.246094"/>
       <use xlink:href="#DejaVuSans-30" x="190.869141"/>
      </g>
     </g>
    </g>
    <g id="xtick_25">
     <g id="line2d_25">
      <g>
       <use xlink:href="#mae9c2a9cba" x="1084.192576" y="576.72" style="stroke: #000000; stroke-width: 0.8"/>
      </g>
     </g>
     <g id="text_25">
      <!-- 1200 -->
      <g transform="translate(1071.467576 591.318438) scale(0.1 -0.1)">
       <use xlink:href="#DejaVuSans-31"/>
       <use xlink:href="#DejaVuSans-32" x="63.623047"/>
       <use xlink:href="#DejaVuSans-30" x="127.246094"/>
       <use xlink:href="#DejaVuSans-30" x="190.869141"/>
      </g>
     </g>
    </g>
    <g id="text_26">
     <!-- $\#\ batch$ -->
     <g transform="translate(634.275 609.795781) scale(0.15 -0.15)">
      <defs>
       <path id="DejaVuSans-23" d="M 3272 2816 
L 2363 2816 
L 2100 1772 
L 3016 1772 
L 3272 2816 
z
M 2803 4594 
L 2478 3297 
L 3391 3297 
L 3719 4594 
L 4219 4594 
L 3897 3297 
L 4872 3297 
L 4872 2816 
L 3775 2816 
L 3519 1772 
L 4513 1772 
L 4513 1294 
L 3397 1294 
L 3072 0 
L 2572 0 
L 2894 1294 
L 1978 1294 
L 1656 0 
L 1153 0 
L 1478 1294 
L 494 1294 
L 494 1772 
L 1594 1772 
L 1856 2816 
L 850 2816 
L 850 3297 
L 1978 3297 
L 2297 4594 
L 2803 4594 
z
" transform="scale(0.015625)"/>
       <path id="DejaVuSans-Oblique-62" d="M 3169 2138 
Q 3169 2591 2961 2847 
Q 2753 3103 2388 3103 
Q 2122 3103 1889 2973 
Q 1656 2844 1484 2597 
Q 1303 2338 1198 1995 
Q 1094 1653 1094 1313 
Q 1094 881 1298 636 
Q 1503 391 1863 391 
Q 2134 391 2365 517 
Q 2597 644 2772 891 
Q 2950 1147 3059 1487 
Q 3169 1828 3169 2138 
z
M 1381 2969 
Q 1594 3256 1914 3420 
Q 2234 3584 2584 3584 
Q 3122 3584 3439 3221 
Q 3756 2859 3756 2241 
Q 3756 1734 3570 1259 
Q 3384 784 3041 416 
Q 2816 172 2522 40 
Q 2228 -91 1906 -91 
Q 1566 -91 1316 65 
Q 1066 222 909 531 
L 806 0 
L 231 0 
L 1178 4863 
L 1753 4863 
L 1381 2969 
z
" transform="scale(0.015625)"/>
       <path id="DejaVuSans-Oblique-61" d="M 3438 1997 
L 3047 0 
L 2472 0 
L 2578 531 
Q 2325 219 2001 64 
Q 1678 -91 1281 -91 
Q 834 -91 548 182 
Q 263 456 263 884 
Q 263 1497 752 1853 
Q 1241 2209 2100 2209 
L 2900 2209 
L 2931 2363 
Q 2938 2388 2941 2417 
Q 2944 2447 2944 2509 
Q 2944 2788 2717 2942 
Q 2491 3097 2081 3097 
Q 1800 3097 1504 3025 
Q 1209 2953 897 2809 
L 997 3341 
Q 1322 3463 1633 3523 
Q 1944 3584 2234 3584 
Q 2853 3584 3176 3315 
Q 3500 3047 3500 2534 
Q 3500 2431 3484 2292 
Q 3469 2153 3438 1997 
z
M 2816 1759 
L 2241 1759 
Q 1534 1759 1195 1570 
Q 856 1381 856 984 
Q 856 709 1029 553 
Q 1203 397 1509 397 
Q 1978 397 2328 733 
Q 2678 1069 2791 1631 
L 2816 1759 
z
" transform="scale(0.015625)"/>
       <path id="DejaVuSans-Oblique-74" d="M 2706 3500 
L 2619 3053 
L 1472 3053 
L 1100 1153 
Q 1081 1047 1072 975 
Q 1063 903 1063 863 
Q 1063 663 1183 572 
Q 1303 481 1569 481 
L 2150 481 
L 2053 0 
L 1503 0 
Q 991 0 739 200 
Q 488 400 488 806 
Q 488 878 497 964 
Q 506 1050 525 1153 
L 897 3053 
L 409 3053 
L 500 3500 
L 978 3500 
L 1172 4494 
L 1747 4494 
L 1556 3500 
L 2706 3500 
z
" transform="scale(0.015625)"/>
       <path id="DejaVuSans-Oblique-63" d="M 3431 3366 
L 3316 2797 
Q 3109 2947 2876 3022 
Q 2644 3097 2394 3097 
Q 2119 3097 1870 3000 
Q 1622 2903 1453 2725 
Q 1184 2453 1037 2087 
Q 891 1722 891 1331 
Q 891 859 1127 628 
Q 1363 397 1844 397 
Q 2081 397 2348 469 
Q 2616 541 2906 684 
L 2797 116 
Q 2547 13 2283 -39 
Q 2019 -91 1741 -91 
Q 1044 -91 669 257 
Q 294 606 294 1253 
Q 294 1797 489 2255 
Q 684 2713 1069 3078 
Q 1331 3328 1684 3456 
Q 2038 3584 2456 3584 
Q 2700 3584 2940 3529 
Q 3181 3475 3431 3366 
z
" transform="scale(0.015625)"/>
       <path id="DejaVuSans-Oblique-68" d="M 3566 2113 
L 3156 0 
L 2578 0 
L 2988 2091 
Q 3016 2238 3031 2350 
Q 3047 2463 3047 2528 
Q 3047 2791 2881 2937 
Q 2716 3084 2419 3084 
Q 1956 3084 1617 2771 
Q 1278 2459 1178 1941 
L 800 0 
L 225 0 
L 1172 4863 
L 1747 4863 
L 1375 2950 
Q 1594 3244 1934 3414 
Q 2275 3584 2650 3584 
Q 3113 3584 3367 3334 
Q 3622 3084 3622 2631 
Q 3622 2519 3608 2391 
Q 3594 2263 3566 2113 
z
" transform="scale(0.015625)"/>
      </defs>
      <use xlink:href="#DejaVuSans-23" transform="translate(0 0.015625)"/>
      <use xlink:href="#DejaVuSans-Oblique-62" transform="translate(116.259441 0.015625)"/>
      <use xlink:href="#DejaVuSans-Oblique-61" transform="translate(179.736003 0.015625)"/>
      <use xlink:href="#DejaVuSans-Oblique-74" transform="translate(241.0153 0.015625)"/>
      <use xlink:href="#DejaVuSans-Oblique-63" transform="translate(280.224285 0.015625)"/>
      <use xlink:href="#DejaVuSans-Oblique-68" transform="translate(335.204753 0.015625)"/>
     </g>
    </g>
   </g>
   <g id="matplotlib.axis_2">
    <g id="ytick_1">
     <g id="line2d_26">
      <path d="M 162 494.154611 
L 1166.4 494.154611 
" clip-path="url(#pca2cdd956f)" style="fill: none; stroke: #808080; stroke-width: 0.8; stroke-linecap: square"/>
     </g>
     <g id="line2d_27">
      <defs>
       <path id="m24eec534c4" d="M 0 0 
L -3.5 0 
" style="stroke: #000000; stroke-width: 0.8"/>
      </defs>
      <g>
       <use xlink:href="#m24eec534c4" x="162" y="494.154611" style="stroke: #000000; stroke-width: 0.8"/>
      </g>
     </g>
     <g id="text_27">
      <!-- 690 -->
      <g transform="translate(135.9125 497.953829) scale(0.1 -0.1)">
       <use xlink:href="#DejaVuSans-36"/>
       <use xlink:href="#DejaVuSans-39" x="63.623047"/>
       <use xlink:href="#DejaVuSans-30" x="127.246094"/>
      </g>
     </g>
    </g>
    <g id="ytick_2">
     <g id="line2d_28">
      <path d="M 162 403.21486 
L 1166.4 403.21486 
" clip-path="url(#pca2cdd956f)" style="fill: none; stroke: #808080; stroke-width: 0.8; stroke-linecap: square"/>
     </g>
     <g id="line2d_29">
      <g>
       <use xlink:href="#m24eec534c4" x="162" y="403.21486" style="stroke: #000000; stroke-width: 0.8"/>
      </g>
     </g>
     <g id="text_28">
      <!-- 695 -->
      <g transform="translate(135.9125 407.014079) scale(0.1 -0.1)">
       <use xlink:href="#DejaVuSans-36"/>
       <use xlink:href="#DejaVuSans-39" x="63.623047"/>
       <use xlink:href="#DejaVuSans-35" x="127.246094"/>
      </g>
     </g>
    </g>
    <g id="ytick_3">
     <g id="line2d_30">
      <path d="M 162 312.275109 
L 1166.4 312.275109 
" clip-path="url(#pca2cdd956f)" style="fill: none; stroke: #808080; stroke-width: 0.8; stroke-linecap: square"/>
     </g>
     <g id="line2d_31">
      <g>
       <use xlink:href="#m24eec534c4" x="162" y="312.275109" style="stroke: #000000; stroke-width: 0.8"/>
      </g>
     </g>
     <g id="text_29">
      <!-- 700 -->
      <g transform="translate(135.9125 316.074328) scale(0.1 -0.1)">
       <use xlink:href="#DejaVuSans-37"/>
       <use xlink:href="#DejaVuSans-30" x="63.623047"/>
       <use xlink:href="#DejaVuSans-30" x="127.246094"/>
      </g>
     </g>
    </g>
    <g id="ytick_4">
     <g id="line2d_32">
      <path d="M 162 221.335359 
L 1166.4 221.335359 
" clip-path="url(#pca2cdd956f)" style="fill: none; stroke: #808080; stroke-width: 0.8; stroke-linecap: square"/>
     </g>
     <g id="line2d_33">
      <g>
       <use xlink:href="#m24eec534c4" x="162" y="221.335359" style="stroke: #000000; stroke-width: 0.8"/>
      </g>
     </g>
     <g id="text_30">
      <!-- 705 -->
      <g transform="translate(135.9125 225.134578) scale(0.1 -0.1)">
       <use xlink:href="#DejaVuSans-37"/>
       <use xlink:href="#DejaVuSans-30" x="63.623047"/>
       <use xlink:href="#DejaVuSans-35" x="127.246094"/>
      </g>
     </g>
    </g>
    <g id="ytick_5">
     <g id="line2d_34">
      <path d="M 162 130.395608 
L 1166.4 130.395608 
" clip-path="url(#pca2cdd956f)" style="fill: none; stroke: #808080; stroke-width: 0.8; stroke-linecap: square"/>
     </g>
     <g id="line2d_35">
      <g>
       <use xlink:href="#m24eec534c4" x="162" y="130.395608" style="stroke: #000000; stroke-width: 0.8"/>
      </g>
     </g>
     <g id="text_31">
      <!-- 710 -->
      <g transform="translate(135.9125 134.194827) scale(0.1 -0.1)">
       <use xlink:href="#DejaVuSans-37"/>
       <use xlink:href="#DejaVuSans-31" x="63.623047"/>
       <use xlink:href="#DejaVuSans-30" x="127.246094"/>
      </g>
     </g>
    </g>
    <g id="text_32">
     <!-- $E(T_{r})^{simulato}$ -->
     <g transform="translate(45.4875 324.120469) scale(0.15 -0.15)">
      <defs>
       <path id="DejaVuSans-Oblique-45" d="M 1081 4666 
L 4031 4666 
L 3928 4134 
L 1606 4134 
L 1338 2753 
L 3566 2753 
L 3463 2222 
L 1234 2222 
L 909 531 
L 3284 531 
L 3181 0 
L 172 0 
L 1081 4666 
z
" transform="scale(0.015625)"/>
       <path id="DejaVuSans-28" d="M 1984 4856 
Q 1566 4138 1362 3434 
Q 1159 2731 1159 2009 
Q 1159 1288 1364 580 
Q 1569 -128 1984 -844 
L 1484 -844 
Q 1016 -109 783 600 
Q 550 1309 550 2009 
Q 550 2706 781 3412 
Q 1013 4119 1484 4856 
L 1984 4856 
z
" transform="scale(0.015625)"/>
       <path id="DejaVuSans-Oblique-54" d="M 378 4666 
L 4325 4666 
L 4225 4134 
L 2559 4134 
L 1759 0 
L 1125 0 
L 1925 4134 
L 275 4134 
L 378 4666 
z
" transform="scale(0.015625)"/>
       <path id="DejaVuSans-Oblique-72" d="M 2853 2969 
Q 2766 3016 2653 3041 
Q 2541 3066 2413 3066 
Q 1953 3066 1609 2717 
Q 1266 2369 1153 1784 
L 800 0 
L 225 0 
L 909 3500 
L 1484 3500 
L 1375 2956 
Q 1603 3259 1920 3421 
Q 2238 3584 2597 3584 
Q 2691 3584 2781 3573 
Q 2872 3563 2963 3538 
L 2853 2969 
z
" transform="scale(0.015625)"/>
       <path id="DejaVuSans-29" d="M 513 4856 
L 1013 4856 
Q 1481 4119 1714 3412 
Q 1947 2706 1947 2009 
Q 1947 1309 1714 600 
Q 1481 -109 1013 -844 
L 513 -844 
Q 928 -128 1133 580 
Q 1338 1288 1338 2009 
Q 1338 2731 1133 3434 
Q 928 4138 513 4856 
z
" transform="scale(0.015625)"/>
       <path id="DejaVuSans-Oblique-73" d="M 3200 3397 
L 3091 2853 
Q 2863 2978 2609 3040 
Q 2356 3103 2088 3103 
Q 1634 3103 1373 2948 
Q 1113 2794 1113 2528 
Q 1113 2219 1719 2053 
Q 1766 2041 1788 2034 
L 1972 1978 
Q 2547 1819 2739 1644 
Q 2931 1469 2931 1166 
Q 2931 609 2489 259 
Q 2047 -91 1331 -91 
Q 1053 -91 747 -37 
Q 441 16 72 128 
L 184 722 
Q 500 559 806 475 
Q 1113 391 1394 391 
Q 1816 391 2080 572 
Q 2344 753 2344 1031 
Q 2344 1331 1650 1516 
L 1591 1531 
L 1394 1581 
Q 956 1697 753 1886 
Q 550 2075 550 2369 
Q 550 2928 970 3256 
Q 1391 3584 2113 3584 
Q 2397 3584 2667 3537 
Q 2938 3491 3200 3397 
z
" transform="scale(0.015625)"/>
       <path id="DejaVuSans-Oblique-69" d="M 1172 4863 
L 1747 4863 
L 1606 4134 
L 1031 4134 
L 1172 4863 
z
M 909 3500 
L 1484 3500 
L 800 0 
L 225 0 
L 909 3500 
z
" transform="scale(0.015625)"/>
       <path id="DejaVuSans-Oblique-6d" d="M 5747 2113 
L 5338 0 
L 4763 0 
L 5166 2094 
Q 5191 2228 5203 2325 
Q 5216 2422 5216 2491 
Q 5216 2772 5059 2928 
Q 4903 3084 4622 3084 
Q 4203 3084 3875 2770 
Q 3547 2456 3450 1953 
L 3066 0 
L 2491 0 
L 2900 2094 
Q 2925 2209 2937 2307 
Q 2950 2406 2950 2484 
Q 2950 2769 2794 2926 
Q 2638 3084 2363 3084 
Q 1938 3084 1609 2770 
Q 1281 2456 1184 1953 
L 800 0 
L 225 0 
L 909 3500 
L 1484 3500 
L 1375 2956 
Q 1609 3263 1923 3423 
Q 2238 3584 2597 3584 
Q 2978 3584 3223 3384 
Q 3469 3184 3519 2828 
Q 3781 3197 4126 3390 
Q 4472 3584 4856 3584 
Q 5306 3584 5551 3325 
Q 5797 3066 5797 2591 
Q 5797 2488 5784 2364 
Q 5772 2241 5747 2113 
z
" transform="scale(0.015625)"/>
       <path id="DejaVuSans-Oblique-75" d="M 428 1388 
L 838 3500 
L 1416 3500 
L 1006 1409 
Q 975 1256 961 1147 
Q 947 1038 947 966 
Q 947 700 1109 554 
Q 1272 409 1569 409 
Q 2031 409 2368 721 
Q 2706 1034 2809 1563 
L 3194 3500 
L 3769 3500 
L 3091 0 
L 2516 0 
L 2631 550 
Q 2388 244 2052 76 
Q 1716 -91 1338 -91 
Q 878 -91 622 161 
Q 366 413 366 863 
Q 366 956 381 1097 
Q 397 1238 428 1388 
z
" transform="scale(0.015625)"/>
       <path id="DejaVuSans-Oblique-6c" d="M 1172 4863 
L 1747 4863 
L 800 0 
L 225 0 
L 1172 4863 
z
" transform="scale(0.015625)"/>
       <path id="DejaVuSans-Oblique-6f" d="M 1625 -91 
Q 1009 -91 651 289 
Q 294 669 294 1325 
Q 294 1706 417 2101 
Q 541 2497 738 2766 
Q 1047 3184 1428 3384 
Q 1809 3584 2291 3584 
Q 2888 3584 3255 3212 
Q 3622 2841 3622 2241 
Q 3622 1825 3500 1412 
Q 3378 1000 3181 728 
Q 2875 309 2494 109 
Q 2113 -91 1625 -91 
z
M 891 1344 
Q 891 869 1089 633 
Q 1288 397 1691 397 
Q 2269 397 2648 901 
Q 3028 1406 3028 2181 
Q 3028 2634 2825 2865 
Q 2622 3097 2228 3097 
Q 1903 3097 1650 2945 
Q 1397 2794 1197 2484 
Q 1050 2253 970 1956 
Q 891 1659 891 1344 
z
" transform="scale(0.015625)"/>
      </defs>
      <use xlink:href="#DejaVuSans-Oblique-45" transform="translate(0 0.529687)"/>
      <use xlink:href="#DejaVuSans-28" transform="translate(63.183594 0.529687)"/>
      <use xlink:href="#DejaVuSans-Oblique-54" transform="translate(102.197266 0.529687)"/>
      <use xlink:href="#DejaVuSans-Oblique-72" transform="translate(163.28125 -15.876563) scale(0.7)"/>
      <use xlink:href="#DejaVuSans-29" transform="translate(194.794922 0.529687)"/>
      <use xlink:href="#DejaVuSans-Oblique-73" transform="translate(234.765625 38.810937) scale(0.7)"/>
      <use xlink:href="#DejaVuSans-Oblique-69" transform="translate(271.235352 38.810937) scale(0.7)"/>
      <use xlink:href="#DejaVuSans-Oblique-6d" transform="translate(290.683594 38.810937) scale(0.7)"/>
      <use xlink:href="#DejaVuSans-Oblique-75" transform="translate(358.87207 38.810937) scale(0.7)"/>
      <use xlink:href="#DejaVuSans-Oblique-6c" transform="translate(403.237305 38.810937) scale(0.7)"/>
      <use xlink:href="#DejaVuSans-Oblique-61" transform="translate(422.685547 38.810937) scale(0.7)"/>
      <use xlink:href="#DejaVuSans-Oblique-74" transform="translate(465.581055 38.810937) scale(0.7)"/>
      <use xlink:href="#DejaVuSans-Oblique-6f" transform="translate(493.027344 38.810937) scale(0.7)"/>
     </g>
    </g>
   </g>
   <g id="line2d_36">
    <path d="M 207.654545 100.44 
L 208.385603 194.441055 
L 209.847718 350.540519 
L 210.578776 389.246198 
L 211.309833 411.320802 
L 212.040891 464.366599 
L 212.771948 440.860868 
L 213.503006 478.7064 
L 214.234064 472.504404 
L 214.965121 488.394447 
L 215.696179 482.181519 
L 216.427236 480.777477 
L 217.158294 478.054651 
L 217.889351 484.606309 
L 218.620409 510.938056 
L 219.351467 519.031729 
L 220.082524 512.161412 
L 220.813582 534.069953 
L 221.544639 532.927467 
L 222.275697 522.625293 
L 223.006754 533.067669 
L 223.737812 524.945725 
L 224.46887 508.287917 
L 225.199927 523.127786 
L 225.930985 487.548341 
L 227.3931 501.157099 
L 228.124158 478.921117 
L 229.586273 491.201831 
L 230.31733 496.327664 
L 231.048388 491.140265 
L 231.779445 455.369471 
L 232.510503 453.920323 
L 233.241561 455.574917 
L 233.972618 442.331007 
L 234.703676 454.689267 
L 235.434733 460.794905 
L 236.165791 456.745337 
L 236.896848 477.341866 
L 237.627906 475.226756 
L 238.358964 469.368118 
L 239.090021 466.237487 
L 239.821079 452.071692 
L 240.552136 457.996177 
L 241.283194 459.596325 
L 242.014251 467.406909 
L 242.745309 465.256005 
L 243.476367 456.932461 
L 244.207424 459.108172 
L 244.938482 457.213161 
L 245.669539 452.445388 
L 246.400597 450.069112 
L 247.131654 452.770858 
L 247.862712 452.309741 
L 248.59377 446.060751 
L 249.324827 450.229737 
L 250.055885 450.428917 
L 250.786942 446.165737 
L 251.518 446.204114 
L 252.249057 442.528349 
L 252.980115 448.693016 
L 253.711173 448.669431 
L 254.44223 456.204525 
L 255.173288 455.039657 
L 255.904345 456.096494 
L 256.635403 458.192505 
L 257.36646 459.926636 
L 258.097518 465.703018 
L 258.828576 469.963255 
L 259.559633 475.099188 
L 260.290691 478.355739 
L 261.021748 477.680018 
L 261.752806 482.143834 
L 262.483863 477.322301 
L 263.214921 479.690668 
L 263.945979 470.907248 
L 264.677036 475.848371 
L 265.408094 476.701794 
L 266.139151 478.812815 
L 266.870209 481.989894 
L 267.601266 482.66379 
L 268.332324 480.964888 
L 269.063382 488.767496 
L 269.794439 492.168296 
L 270.525497 488.145174 
L 271.256554 491.901667 
L 271.987612 489.425662 
L 272.718669 490.79291 
L 273.449727 490.646593 
L 274.180785 487.687662 
L 274.911842 490.197969 
L 276.373957 499.244098 
L 277.105015 500.246134 
L 277.836072 499.260395 
L 278.56713 500.286337 
L 279.298188 492.297212 
L 280.029245 500.831588 
L 280.760303 501.003319 
L 281.49136 500.241514 
L 282.222418 501.831605 
L 282.953476 502.483893 
L 283.684533 505.943443 
L 284.415591 507.196904 
L 285.146648 505.775172 
L 285.877706 503.532855 
L 286.608763 505.277242 
L 287.339821 507.868566 
L 288.070879 506.319434 
L 288.801936 509.447955 
L 289.532994 510.678764 
L 290.264051 510.141943 
L 290.995109 505.403027 
L 291.726166 504.169858 
L 292.457224 500.117148 
L 293.188282 501.106019 
L 293.919339 500.368157 
L 295.381454 501.540349 
L 296.112512 500.747804 
L 296.843569 501.994324 
L 297.574627 500.525679 
L 298.305685 503.592798 
L 299.036742 505.039496 
L 299.7678 508.337005 
L 300.498857 507.655838 
L 301.229915 507.815176 
L 301.960972 511.930705 
L 302.69203 512.842036 
L 303.423088 516.708154 
L 304.154145 518.327859 
L 304.885203 521.586843 
L 305.61626 524.135099 
L 306.347318 523.842729 
L 307.078375 522.467093 
L 307.809433 521.523123 
L 308.540491 520.372292 
L 309.271548 521.255413 
L 310.002606 523.63311 
L 310.733663 525.021699 
L 311.464721 526.111732 
L 312.195778 524.41453 
L 312.926836 523.197645 
L 313.657894 525.363744 
L 314.388951 524.477729 
L 315.120009 525.802995 
L 315.851066 526.471675 
L 316.582124 525.957209 
L 317.313181 523.124177 
L 318.044239 521.448684 
L 318.775297 524.142104 
L 319.506354 523.113983 
L 321.699527 531.859032 
L 322.430584 532.017014 
L 323.161642 530.951404 
L 323.8927 532.343414 
L 325.354815 531.892116 
L 326.085872 529.98891 
L 326.81693 530.477441 
L 327.547987 531.6103 
L 328.279045 532.022269 
L 329.010103 533.882804 
L 330.472218 535.4556 
L 331.203275 535.416404 
L 331.934333 535.033582 
L 332.66539 535.88791 
L 333.396448 535.946739 
L 334.127506 537.683643 
L 334.858563 536.281914 
L 335.589621 536.094194 
L 337.051736 531.666924 
L 337.782794 531.5721 
L 338.513851 534.435968 
L 339.244909 533.651047 
L 339.975966 529.289404 
L 340.707024 527.871409 
L 341.438081 529.264585 
L 342.169139 528.174554 
L 342.900197 527.408573 
L 343.631254 528.400792 
L 345.093369 528.877713 
L 345.824427 531.238571 
L 346.555484 530.22737 
L 347.286542 530.147264 
L 348.0176 531.762072 
L 348.748657 530.636875 
L 349.479715 532.166195 
L 350.210772 530.768771 
L 350.94183 527.096247 
L 351.672887 525.67217 
L 352.403945 527.378144 
L 353.135003 523.813543 
L 353.86606 523.74837 
L 354.597118 523.913932 
L 355.328175 525.009961 
L 356.059233 525.114167 
L 356.79029 525.547548 
L 357.521348 526.363957 
L 358.252406 523.809082 
L 358.983463 525.424466 
L 359.714521 524.137231 
L 360.445578 523.139044 
L 361.176636 523.813565 
L 361.907693 524.135558 
L 362.638751 524.201881 
L 363.369809 526.318956 
L 364.100866 522.852418 
L 364.831924 522.422195 
L 365.562981 521.388277 
L 366.294039 520.691748 
L 367.025096 521.306625 
L 367.756154 520.666957 
L 368.487212 521.888254 
L 369.218269 521.814233 
L 369.949327 522.54377 
L 370.680384 521.292999 
L 371.411442 522.711385 
L 372.873557 523.441573 
L 373.604615 524.266553 
L 374.335672 523.699528 
L 375.06673 525.059591 
L 375.797787 525.826353 
L 376.528845 529.873945 
L 377.259902 529.908418 
L 378.722018 531.16074 
L 380.91519 532.235939 
L 381.646248 533.275185 
L 382.377305 533.419946 
L 383.108363 536.073929 
L 383.839421 537.157421 
L 384.570478 537.271683 
L 386.032593 539.820875 
L 386.763651 541.593163 
L 387.494708 540.641385 
L 388.225766 540.034931 
L 388.956824 541.241624 
L 389.687881 540.156786 
L 390.418939 540.821363 
L 391.149996 540.863309 
L 391.881054 540.204748 
L 392.612112 538.314665 
L 393.343169 538.633375 
L 394.074227 538.466424 
L 394.805284 536.589916 
L 395.536342 538.012132 
L 396.267399 537.851954 
L 396.998457 536.567157 
L 397.729515 537.937619 
L 398.460572 536.818141 
L 399.19163 537.482802 
L 399.922687 537.039764 
L 400.653745 536.440125 
L 401.384802 538.108027 
L 402.11586 536.336299 
L 402.846918 537.493857 
L 403.577975 539.21984 
L 404.309033 540.475612 
L 405.04009 538.43505 
L 405.771148 538.09809 
L 406.502205 535.79643 
L 407.233263 534.483387 
L 407.964321 534.797473 
L 408.695378 534.695321 
L 409.426436 535.093314 
L 410.157493 536.274641 
L 410.888551 535.325983 
L 411.619608 534.044545 
L 412.350666 534.974163 
L 413.081724 535.206164 
L 413.812781 534.913782 
L 414.543839 536.687308 
L 415.274896 535.096298 
L 416.005954 536.739221 
L 417.468069 537.908663 
L 418.199127 538.198398 
L 418.930184 538.635012 
L 419.661242 537.466424 
L 420.392299 537.797733 
L 421.123357 538.396094 
L 421.854414 539.658104 
L 423.31653 539.251093 
L 424.047587 539.398368 
L 424.778645 539.092488 
L 425.509702 538.638748 
L 426.24076 539.53982 
L 426.971817 538.296426 
L 427.702875 537.599397 
L 428.433933 538.223651 
L 429.16499 537.858238 
L 429.896048 536.859844 
L 430.627105 538.59712 
L 431.358163 539.003924 
L 432.08922 539.156291 
L 432.820278 540.045697 
L 433.551336 542.806296 
L 434.282393 543.147189 
L 435.013451 542.689428 
L 435.744508 543.239324 
L 436.475566 541.922337 
L 437.206623 542.113937 
L 437.937681 543.050236 
L 438.668739 543.351256 
L 439.399796 544.121216 
L 440.130854 542.368369 
L 440.861911 542.814941 
L 441.592969 543.78791 
L 442.324026 543.129844 
L 443.055084 543.731499 
L 443.786142 544.684778 
L 444.517199 543.499418 
L 445.248257 543.442179 
L 445.979314 544.31362 
L 446.710372 545.690165 
L 448.172487 544.152831 
L 448.903545 544.117788 
L 449.634602 544.760579 
L 450.36566 545.155215 
L 451.096717 544.998995 
L 451.827775 546.297057 
L 452.558833 546.25249 
L 453.28989 546.870217 
L 454.020948 548.519666 
L 454.752005 549.71633 
L 455.483063 549.331682 
L 456.21412 549.169206 
L 456.945178 550.262936 
L 457.676236 553.059591 
L 458.407293 554.04 
L 459.138351 553.556978 
L 459.869408 552.840446 
L 460.600466 550.857121 
L 461.331523 550.882922 
L 462.062581 551.591153 
L 462.793639 550.928629 
L 463.524696 550.719508 
L 464.255754 548.960086 
L 465.717869 548.019338 
L 466.448926 549.447664 
L 467.179984 550.123496 
L 467.911042 550.020367 
L 468.642099 551.307602 
L 469.373157 551.584551 
L 470.104214 551.020376 
L 470.835272 549.65806 
L 471.566329 549.453265 
L 472.297387 550.006789 
L 473.028445 550.127532 
L 473.759502 549.234893 
L 475.221617 549.273426 
L 475.952675 547.775416 
L 476.683732 547.026317 
L 478.145848 543.218605 
L 479.607963 542.182033 
L 480.33902 540.894281 
L 481.801135 541.57178 
L 482.532193 542.463107 
L 483.263251 541.208052 
L 483.994308 540.774916 
L 484.725366 540.586588 
L 485.456423 542.143079 
L 486.187481 541.560802 
L 486.918538 540.574776 
L 487.649596 541.102925 
L 488.380654 540.466392 
L 489.111711 538.916929 
L 489.842769 538.096774 
L 490.573826 538.634219 
L 491.304884 539.49765 
L 492.035941 539.829128 
L 492.766999 537.787086 
L 493.498057 538.438413 
L 494.229114 538.525257 
L 494.960172 538.393676 
L 495.691229 537.733158 
L 496.422287 535.915251 
L 497.153344 535.045404 
L 498.61546 536.978721 
L 500.077575 537.069674 
L 500.808632 537.315643 
L 501.53969 536.865706 
L 504.46392 539.963786 
L 505.926035 540.206881 
L 507.388151 538.436568 
L 508.119208 539.339966 
L 508.850266 539.109182 
L 510.312381 536.80181 
L 511.774496 535.340648 
L 512.505554 536.244261 
L 513.236611 536.419178 
L 513.967669 536.382829 
L 514.698726 536.202755 
L 515.429784 537.52218 
L 516.160841 536.170884 
L 517.622957 536.793639 
L 518.354014 536.750339 
L 519.085072 536.05114 
L 519.816129 536.642278 
L 520.547187 537.442646 
L 521.278244 537.955588 
L 522.009302 538.184699 
L 522.74036 538.277462 
L 523.471417 538.568994 
L 524.933532 538.081798 
L 525.66459 538.331939 
L 526.395647 538.728619 
L 527.126705 538.514885 
L 527.857763 538.609794 
L 528.58882 539.244236 
L 529.319878 538.126519 
L 530.050935 538.633714 
L 530.781993 536.102227 
L 531.51305 536.037992 
L 532.244108 534.088708 
L 532.975166 531.547282 
L 533.706223 531.790295 
L 534.437281 532.911057 
L 535.168338 532.740789 
L 535.899396 530.916581 
L 536.630453 530.82226 
L 537.361511 532.151444 
L 538.823626 533.241087 
L 539.554684 532.465238 
L 540.285741 533.184682 
L 541.016799 532.998252 
L 541.747856 533.440827 
L 542.478914 534.282361 
L 543.209972 534.274137 
L 543.941029 534.514794 
L 544.672087 534.238824 
L 545.403144 534.374854 
L 546.134202 533.740813 
L 546.865259 533.719766 
L 547.596317 534.123864 
L 548.327375 534.024361 
L 549.058432 534.673596 
L 549.78949 534.843061 
L 550.520547 535.74593 
L 551.251605 535.669308 
L 551.982662 535.809903 
L 552.71372 535.496993 
L 553.444778 536.44028 
L 554.175835 536.422683 
L 555.63795 535.988161 
L 556.369008 536.073809 
L 557.100066 536.633274 
L 557.831123 535.694195 
L 558.562181 534.465389 
L 559.293238 534.844164 
L 560.024296 534.903483 
L 560.755353 535.227538 
L 562.217469 535.219582 
L 562.948526 533.632185 
L 563.679584 533.002757 
L 564.410641 532.969169 
L 565.872756 535.102121 
L 566.603814 535.225044 
L 567.334872 534.593479 
L 568.065929 534.410613 
L 568.796987 535.074051 
L 569.528044 534.481554 
L 570.259102 534.430096 
L 570.990159 534.609391 
L 571.721217 533.755515 
L 573.183332 533.826821 
L 573.91439 533.365891 
L 575.376505 533.700949 
L 576.107562 533.327975 
L 576.83862 534.001617 
L 577.569678 534.99244 
L 578.300735 534.017087 
L 579.031793 535.081106 
L 580.493908 536.419644 
L 581.224965 536.50863 
L 581.956023 536.19428 
L 582.687081 536.618782 
L 583.418138 536.360764 
L 584.149196 536.705642 
L 584.880253 537.263595 
L 585.611311 536.762268 
L 586.342368 536.515606 
L 587.073426 537.635158 
L 587.804484 537.347245 
L 589.266599 535.429852 
L 589.997656 535.7709 
L 590.728714 535.804409 
L 591.459771 536.901395 
L 592.190829 537.43258 
L 592.921887 537.60423 
L 595.115059 537.760301 
L 595.846117 537.973679 
L 596.577174 537.28233 
L 597.308232 537.216223 
L 598.03929 536.440607 
L 598.770347 536.863153 
L 600.96352 540.31632 
L 601.694577 539.777531 
L 602.425635 540.409318 
L 603.88775 540.13096 
L 604.618808 540.459786 
L 605.349865 540.541949 
L 606.080923 540.415674 
L 607.543038 539.559831 
L 609.005153 539.870336 
L 609.736211 540.278906 
L 611.198326 539.767628 
L 611.929384 539.371061 
L 612.660441 538.496295 
L 613.391499 538.964162 
L 614.122556 538.716126 
L 614.853614 538.308699 
L 615.584671 537.226223 
L 616.315729 537.036178 
L 617.046787 537.01779 
L 617.777844 537.411737 
L 618.508902 537.668062 
L 619.239959 538.132432 
L 619.971017 539.33102 
L 620.702074 540.284963 
L 622.16419 538.207361 
L 622.895247 538.360238 
L 623.626305 538.747747 
L 625.08842 537.764287 
L 625.819477 538.381741 
L 626.550535 537.350276 
L 627.281593 537.217237 
L 628.01265 537.630688 
L 629.474765 537.353761 
L 630.205823 537.710998 
L 630.93688 538.287245 
L 631.667938 537.986573 
L 632.398996 538.324716 
L 633.130053 537.676809 
L 635.323226 537.00998 
L 636.054283 537.524556 
L 636.785341 537.302987 
L 637.516399 537.639352 
L 638.247456 536.73582 
L 639.709571 537.268239 
L 640.440629 537.109477 
L 641.171686 537.592616 
L 641.902744 537.618597 
L 642.633802 538.110285 
L 643.364859 538.449911 
L 644.826974 538.524712 
L 645.558032 539.650553 
L 646.289089 539.888266 
L 647.020147 539.547397 
L 648.482262 540.380772 
L 649.21332 539.895567 
L 649.944377 539.776847 
L 650.675435 540.142812 
L 651.406492 539.761841 
L 652.868608 540.401234 
L 654.330723 541.789309 
L 655.06178 542.122336 
L 655.792838 542.300879 
L 656.523895 539.773189 
L 657.254953 540.045533 
L 657.986011 540.516216 
L 658.717068 540.42449 
L 659.448126 540.141204 
L 660.910241 538.893586 
L 661.641298 538.238759 
L 662.372356 538.539743 
L 663.103414 539.392747 
L 663.834471 539.437481 
L 664.565529 538.660539 
L 665.296586 538.137613 
L 666.027644 538.041247 
L 666.758702 538.120523 
L 667.489759 537.891803 
L 668.951874 538.616248 
L 670.413989 537.99121 
L 671.145047 538.303783 
L 671.876105 539.198385 
L 672.607162 538.826948 
L 674.069277 538.865469 
L 674.800335 538.404344 
L 675.531392 536.86483 
L 676.26245 537.439963 
L 676.993508 537.750871 
L 677.724565 536.544192 
L 678.455623 536.382963 
L 679.18668 536.693073 
L 679.917738 537.406559 
L 680.648795 537.205465 
L 681.379853 536.828657 
L 682.841968 537.130615 
L 683.573026 536.569533 
L 684.304083 536.839639 
L 686.497256 536.650757 
L 687.228314 536.966205 
L 687.959371 537.522466 
L 688.690429 536.698867 
L 689.421486 537.158775 
L 690.152544 537.476521 
L 690.883601 537.54917 
L 691.614659 537.320881 
L 692.345717 536.292648 
L 693.076774 536.86063 
L 693.807832 536.656081 
L 694.538889 536.922445 
L 695.269947 537.484961 
L 696.001004 536.52355 
L 696.732062 537.006417 
L 697.46312 537.316207 
L 698.925235 536.75637 
L 700.38735 537.424732 
L 701.118407 537.511558 
L 701.849465 537.982656 
L 702.580523 537.529754 
L 703.31158 537.954948 
L 704.773695 537.839399 
L 705.504753 537.398709 
L 706.23581 537.311819 
L 706.966868 535.805786 
L 707.697926 535.505148 
L 708.428983 534.652242 
L 709.160041 535.140791 
L 709.891098 535.369951 
L 710.622156 535.718911 
L 711.353213 535.453192 
L 712.815329 534.276836 
L 713.546386 534.703144 
L 714.277444 534.465052 
L 715.008501 535.34758 
L 715.739559 534.949089 
L 716.470616 535.823932 
L 717.201674 535.757682 
L 717.932732 536.431726 
L 718.663789 536.390018 
L 720.856962 538.874678 
L 722.319077 538.801458 
L 723.050135 538.948838 
L 724.51225 538.642478 
L 726.705423 540.024589 
L 728.167538 539.063051 
L 728.898595 538.596462 
L 729.629653 538.849898 
L 730.36071 538.443246 
L 731.091768 538.169887 
L 731.822826 537.638664 
L 732.553883 537.30753 
L 733.284941 538.008439 
L 734.015998 537.521234 
L 734.747056 537.682005 
L 735.478113 537.588883 
L 736.209171 538.058649 
L 736.940229 538.696273 
L 738.402344 538.440904 
L 739.133401 538.749139 
L 739.864459 538.912139 
L 740.595516 539.582792 
L 741.326574 539.551709 
L 742.057632 538.954273 
L 742.788689 537.667946 
L 743.519747 537.38249 
L 744.250804 537.517708 
L 744.981862 537.415892 
L 745.712919 536.916449 
L 746.443977 536.727227 
L 747.175035 536.663764 
L 747.906092 537.391223 
L 748.63715 536.458463 
L 749.368207 535.776609 
L 750.099265 536.168557 
L 751.56138 535.486183 
L 752.292438 534.901199 
L 753.754553 534.569957 
L 754.48561 534.090924 
L 755.216668 534.237691 
L 755.947725 535.03763 
L 756.678783 535.100393 
L 757.409841 534.396781 
L 758.140898 534.700394 
L 758.871956 534.605731 
L 759.603013 534.989788 
L 760.334071 534.797327 
L 761.065128 534.739836 
L 761.796186 535.219831 
L 762.527244 535.021455 
L 763.258301 535.644906 
L 764.720416 535.555241 
L 765.451474 535.910849 
L 766.182531 535.55285 
L 767.644647 535.637764 
L 768.375704 535.047801 
L 769.106762 535.167436 
L 769.837819 534.947217 
L 770.568877 534.467262 
L 771.299934 534.624691 
L 772.030992 535.262769 
L 772.76205 535.480066 
L 775.68628 534.578333 
L 776.417338 533.961596 
L 777.148395 533.937111 
L 777.879453 533.197489 
L 778.61051 533.050937 
L 779.341568 533.311233 
L 780.072625 533.847508 
L 780.803683 533.773514 
L 781.534741 534.106404 
L 782.996856 534.203944 
L 783.727913 533.826397 
L 784.458971 534.049773 
L 785.190028 533.656708 
L 785.921086 533.60837 
L 786.652144 533.698731 
L 787.383201 533.588811 
L 788.114259 533.140904 
L 788.845316 532.409013 
L 789.576374 531.858274 
L 791.038489 532.069685 
L 791.769547 531.201556 
L 793.231662 530.748483 
L 793.962719 531.140643 
L 794.693777 530.600871 
L 795.424834 530.708008 
L 796.155892 531.00804 
L 796.88695 531.06635 
L 797.618007 530.512382 
L 799.81118 530.447106 
L 802.004353 531.40978 
L 802.73541 531.392054 
L 803.466468 531.108576 
L 804.197525 531.373251 
L 804.928583 530.760701 
L 805.65964 530.883347 
L 807.121756 530.758669 
L 807.852813 530.831465 
L 808.583871 530.142681 
L 809.314928 530.714116 
L 810.045986 530.803559 
L 811.508101 531.612522 
L 812.239159 531.692788 
L 812.970216 531.654581 
L 813.701274 532.452791 
L 814.432331 532.36933 
L 815.163389 532.070809 
L 815.894446 532.78434 
L 816.625504 533.062184 
L 817.356562 532.90334 
L 818.818677 532.138544 
L 821.011849 533.232318 
L 821.742907 532.978619 
L 822.473965 532.569858 
L 823.205022 531.943418 
L 823.93608 532.030216 
L 824.667137 530.879913 
L 825.398195 531.027256 
L 826.129252 531.749918 
L 826.86031 531.619311 
L 827.591368 530.485983 
L 828.322425 530.639905 
L 829.053483 529.85096 
L 829.78454 530.207984 
L 830.515598 530.02887 
L 831.246656 530.103036 
L 831.977713 529.945032 
L 832.708771 530.207365 
L 833.439828 529.735151 
L 834.901943 529.325833 
L 835.633001 529.657189 
L 836.364059 528.932717 
L 837.826174 528.941667 
L 838.557231 529.655599 
L 839.288289 529.810741 
L 840.019346 529.154735 
L 840.750404 528.9811 
L 841.481462 528.607728 
L 842.943577 529.245928 
L 843.674634 529.090505 
L 845.136749 529.396536 
L 845.867807 529.303663 
L 846.598865 529.615707 
L 847.329922 529.132198 
L 848.06098 528.421424 
L 848.792037 528.575284 
L 849.523095 529.055999 
L 850.254152 528.997857 
L 850.98521 528.688734 
L 851.716268 529.474971 
L 852.447325 529.371828 
L 855.371555 529.645133 
L 856.102613 529.300535 
L 856.833671 529.544477 
L 857.564728 530.017256 
L 859.026843 529.572627 
L 859.757901 529.853439 
L 860.488958 529.360953 
L 861.220016 529.880259 
L 861.951074 529.735949 
L 862.682131 529.967252 
L 863.413189 529.690606 
L 864.144246 529.787803 
L 864.875304 530.008229 
L 865.606361 529.938329 
L 866.337419 529.686088 
L 867.068477 529.593612 
L 867.799534 529.004525 
L 868.530592 528.943371 
L 869.261649 529.133193 
L 869.992707 529.592267 
L 871.454822 529.491029 
L 872.18588 529.725332 
L 872.916937 529.820963 
L 873.647995 530.269821 
L 874.379052 530.342585 
L 875.841167 530.767439 
L 876.572225 530.078938 
L 877.303283 530.470411 
L 878.03434 530.012941 
L 878.765398 529.931626 
L 879.496455 530.202194 
L 880.95857 530.353657 
L 881.689628 530.310045 
L 882.420686 530.816665 
L 883.151743 531.110802 
L 883.882801 530.445224 
L 884.613858 530.431782 
L 885.344916 530.791999 
L 886.075974 531.507466 
L 887.538089 531.42348 
L 888.269146 531.812768 
L 889.000204 531.769034 
L 889.731261 531.375272 
L 890.462319 531.403691 
L 891.924434 530.815269 
L 894.117607 531.231331 
L 894.848664 531.297658 
L 895.579722 531.635331 
L 896.31078 531.501867 
L 897.772895 531.439124 
L 898.503952 531.11481 
L 899.23501 531.341786 
L 900.697125 530.62585 
L 901.428183 530.275551 
L 902.15924 530.718106 
L 902.890298 530.222268 
L 903.621355 530.139566 
L 904.352413 530.597433 
L 905.08347 530.864645 
L 905.814528 530.561019 
L 906.545586 530.94819 
L 907.276643 530.14596 
L 908.007701 530.381487 
L 908.738758 530.488239 
L 909.469816 529.828696 
L 910.200873 530.096667 
L 910.931931 529.72599 
L 911.662989 529.834332 
L 912.394046 530.175931 
L 913.125104 531.083533 
L 913.856161 531.479681 
L 914.587219 531.409249 
L 915.318276 531.512954 
L 916.049334 531.804789 
L 916.780392 531.811826 
L 917.511449 531.569289 
L 918.242507 532.218355 
L 918.973564 532.074422 
L 919.704622 532.098735 
L 920.435679 531.771662 
L 921.166737 531.906395 
L 922.628852 532.453132 
L 923.35991 532.394452 
L 924.090967 531.970114 
L 924.822025 532.085267 
L 927.015198 532.122347 
L 928.477313 531.390179 
L 929.20837 531.358399 
L 929.939428 531.01022 
L 931.401543 530.789512 
L 932.132601 530.998417 
L 932.863658 530.619079 
L 933.594716 530.079892 
L 934.325773 529.957959 
L 935.056831 530.60608 
L 935.787888 530.294086 
L 936.518946 529.794253 
L 937.250004 530.062608 
L 937.981061 529.918551 
L 940.174234 530.134941 
L 941.636349 530.575416 
L 942.367407 530.599677 
L 943.098464 530.341599 
L 943.829522 529.958953 
L 944.560579 529.957983 
L 946.022695 530.398073 
L 946.753752 530.311038 
L 947.48481 530.667365 
L 948.215867 529.844029 
L 948.946925 530.082974 
L 949.677982 530.191328 
L 950.40904 529.973263 
L 951.140098 529.581189 
L 951.871155 528.473423 
L 952.602213 527.752253 
L 953.33327 527.665031 
L 954.064328 527.845275 
L 954.795385 527.295602 
L 955.526443 527.50355 
L 956.257501 527.406339 
L 956.988558 527.771912 
L 957.719616 527.866103 
L 958.450673 528.105793 
L 959.181731 528.670808 
L 959.912788 528.89317 
L 960.643846 528.116957 
L 962.105961 528.140705 
L 962.837019 528.655888 
L 963.568076 528.674088 
L 964.299134 529.233285 
L 965.030191 529.340726 
L 965.761249 529.049276 
L 967.223364 528.162469 
L 967.954422 528.553908 
L 969.416537 528.337192 
L 970.147594 528.969576 
L 970.878652 528.972317 
L 971.60971 529.356537 
L 972.340767 529.56721 
L 973.071825 529.344324 
L 973.802882 529.311696 
L 974.53394 529.464008 
L 975.264997 529.086503 
L 975.996055 529.510732 
L 976.727113 529.673175 
L 977.45817 530.094593 
L 978.189228 530.046681 
L 978.920285 529.798709 
L 979.651343 530.265548 
L 980.3824 530.180289 
L 981.113458 530.447823 
L 981.844516 530.306462 
L 982.575573 530.95598 
L 984.037688 530.153126 
L 984.768746 530.675292 
L 985.499803 530.414471 
L 986.230861 530.587869 
L 986.961919 531.161364 
L 987.692976 531.520566 
L 988.424034 531.648659 
L 989.155091 531.515171 
L 989.886149 531.512728 
L 990.617206 530.385092 
L 992.079322 529.946382 
L 992.810379 530.087328 
L 993.541437 529.522124 
L 994.272494 529.66117 
L 995.003552 529.365865 
L 995.73461 528.077401 
L 997.927782 527.457784 
L 998.65884 527.607937 
L 1000.120955 526.889449 
L 1000.852013 526.764934 
L 1001.58307 526.959817 
L 1002.314128 527.387191 
L 1003.045185 526.834888 
L 1003.776243 526.965324 
L 1005.238358 527.542055 
L 1005.969416 527.514246 
L 1006.700473 527.76046 
L 1008.162588 527.876445 
L 1008.893646 527.486141 
L 1009.624703 527.973965 
L 1010.355761 528.027453 
L 1011.086819 528.201405 
L 1011.817876 527.715436 
L 1012.548934 527.8767 
L 1013.279991 527.588747 
L 1014.011049 527.072033 
L 1014.742106 526.885515 
L 1015.473164 526.847391 
L 1016.935279 527.030554 
L 1017.666337 527.486094 
L 1019.128452 526.851388 
L 1019.859509 527.123712 
L 1020.590567 526.463988 
L 1022.052682 526.576728 
L 1022.78374 526.946268 
L 1024.245855 526.9355 
L 1024.976912 527.391922 
L 1025.70797 527.641578 
L 1026.439028 527.700491 
L 1027.170085 528.219961 
L 1027.901143 528.248819 
L 1029.363258 528.546726 
L 1030.825373 528.317534 
L 1031.556431 529.105587 
L 1034.480661 529.662161 
L 1035.211718 529.65515 
L 1035.942776 529.81557 
L 1037.404891 529.185719 
L 1038.135949 529.033992 
L 1038.867006 528.738229 
L 1039.598064 528.68487 
L 1040.329121 528.389157 
L 1041.060179 528.803021 
L 1042.522294 530.116784 
L 1043.253352 529.650933 
L 1043.984409 530.008615 
L 1044.715467 530.096372 
L 1045.446524 530.405731 
L 1046.90864 530.631169 
L 1047.639697 530.198901 
L 1048.370755 530.057959 
L 1049.101812 530.59004 
L 1049.83287 530.211714 
L 1050.563928 530.328501 
L 1052.026043 530.882325 
L 1052.7571 530.345503 
L 1053.488158 530.357561 
L 1054.219215 530.249321 
L 1054.950273 530.005285 
L 1055.681331 530.078521 
L 1056.412388 530.477683 
L 1057.143446 530.645699 
L 1057.874503 530.300564 
L 1059.336618 530.654686 
L 1060.067676 530.278786 
L 1061.529791 530.163479 
L 1063.722964 530.523741 
L 1064.454021 530.445472 
L 1065.185079 530.810606 
L 1069.571424 530.886896 
L 1070.302482 530.781011 
L 1071.03354 531.337905 
L 1071.764597 531.165312 
L 1072.495655 530.733222 
L 1073.226712 531.147236 
L 1073.95777 531.421777 
L 1074.688827 531.489746 
L 1075.419885 531.106944 
L 1078.344115 531.42488 
L 1079.075173 531.672362 
L 1079.80623 531.775691 
L 1080.537288 531.067598 
L 1081.268346 531.23111 
L 1082.730461 531.076398 
L 1084.192576 530.88123 
L 1085.654691 530.845478 
L 1086.385749 531.030607 
L 1087.847864 530.621255 
L 1088.578921 531.115809 
L 1089.309979 530.732901 
L 1091.503152 530.024233 
L 1092.234209 529.925608 
L 1092.965267 529.42128 
L 1093.696324 529.588679 
L 1094.427382 529.598323 
L 1095.889497 529.064772 
L 1096.620555 528.950021 
L 1097.351612 529.050674 
L 1098.813727 529.028126 
L 1099.544785 528.815568 
L 1100.275842 528.984312 
L 1101.0069 528.930813 
L 1101.737958 529.150068 
L 1102.469015 528.909794 
L 1104.662188 529.320618 
L 1106.124303 528.740805 
L 1106.855361 528.969056 
L 1107.586418 528.896834 
L 1108.317476 529.260984 
L 1109.048533 528.955308 
L 1110.510649 528.058404 
L 1111.241706 527.323005 
L 1111.972764 527.015471 
L 1112.703821 527.01319 
L 1114.896994 527.504195 
L 1115.628052 527.101671 
L 1116.359109 526.915514 
L 1117.090167 527.326956 
L 1117.821224 527.286631 
L 1119.283339 526.795647 
L 1120.014397 526.919604 
L 1120.745455 527.338274 
L 1120.745455 527.338274 
" clip-path="url(#pca2cdd956f)" style="fill: none; stroke: #008000; stroke-width: 1.5; stroke-linecap: square"/>
   </g>
   <g id="line2d_37">
    <path d="M 162 524.415285 
L 1166.4 524.415285 
" clip-path="url(#pca2cdd956f)" style="fill: none; stroke-dasharray: 1.5,2.475; stroke-dashoffset: 0; stroke: #0000ff; stroke-width: 1.5"/>
   </g>
   <g id="patch_3">
    <path d="M 162 576.72 
L 162 77.76 
" style="fill: none; stroke: #808080; stroke-width: 0.8; stroke-linejoin: miter; stroke-linecap: square"/>
   </g>
   <g id="patch_4">
    <path d="M 1166.4 576.72 
L 1166.4 77.76 
" style="fill: none; stroke: #808080; stroke-width: 0.8; stroke-linejoin: miter; stroke-linecap: square"/>
   </g>
   <g id="patch_5">
    <path d="M 162 576.72 
L 1166.4 576.72 
" style="fill: none; stroke: #808080; stroke-width: 0.8; stroke-linejoin: miter; stroke-linecap: square"/>
   </g>
   <g id="patch_6">
    <path d="M 162 77.76 
L 1166.4 77.76 
" style="fill: none; stroke: #808080; stroke-width: 0.8; stroke-linejoin: miter; stroke-linecap: square"/>
   </g>
   <g id="text_33">
    <!-- (Andamento di $E(T_{r})$ in funzione del numero di batch) -->
    <g transform="translate(397.1 71.76) scale(0.2 -0.2)">
     <defs>
      <path id="DejaVuSans-41" d="M 2188 4044 
L 1331 1722 
L 3047 1722 
L 2188 4044 
z
M 1831 4666 
L 2547 4666 
L 4325 0 
L 3669 0 
L 3244 1197 
L 1141 1197 
L 716 0 
L 50 0 
L 1831 4666 
z
" transform="scale(0.015625)"/>
      <path id="DejaVuSans-6e" d="M 3513 2113 
L 3513 0 
L 2938 0 
L 2938 2094 
Q 2938 2591 2744 2837 
Q 2550 3084 2163 3084 
Q 1697 3084 1428 2787 
Q 1159 2491 1159 1978 
L 1159 0 
L 581 0 
L 581 3500 
L 1159 3500 
L 1159 2956 
Q 1366 3272 1645 3428 
Q 1925 3584 2291 3584 
Q 2894 3584 3203 3211 
Q 3513 2838 3513 2113 
z
" transform="scale(0.015625)"/>
      <path id="DejaVuSans-64" d="M 2906 2969 
L 2906 4863 
L 3481 4863 
L 3481 0 
L 2906 0 
L 2906 525 
Q 2725 213 2448 61 
Q 2172 -91 1784 -91 
Q 1150 -91 751 415 
Q 353 922 353 1747 
Q 353 2572 751 3078 
Q 1150 3584 1784 3584 
Q 2172 3584 2448 3432 
Q 2725 3281 2906 2969 
z
M 947 1747 
Q 947 1113 1208 752 
Q 1469 391 1925 391 
Q 2381 391 2643 752 
Q 2906 1113 2906 1747 
Q 2906 2381 2643 2742 
Q 2381 3103 1925 3103 
Q 1469 3103 1208 2742 
Q 947 2381 947 1747 
z
" transform="scale(0.015625)"/>
      <path id="DejaVuSans-61" d="M 2194 1759 
Q 1497 1759 1228 1600 
Q 959 1441 959 1056 
Q 959 750 1161 570 
Q 1363 391 1709 391 
Q 2188 391 2477 730 
Q 2766 1069 2766 1631 
L 2766 1759 
L 2194 1759 
z
M 3341 1997 
L 3341 0 
L 2766 0 
L 2766 531 
Q 2569 213 2275 61 
Q 1981 -91 1556 -91 
Q 1019 -91 701 211 
Q 384 513 384 1019 
Q 384 1609 779 1909 
Q 1175 2209 1959 2209 
L 2766 2209 
L 2766 2266 
Q 2766 2663 2505 2880 
Q 2244 3097 1772 3097 
Q 1472 3097 1187 3025 
Q 903 2953 641 2809 
L 641 3341 
Q 956 3463 1253 3523 
Q 1550 3584 1831 3584 
Q 2591 3584 2966 3190 
Q 3341 2797 3341 1997 
z
" transform="scale(0.015625)"/>
      <path id="DejaVuSans-6d" d="M 3328 2828 
Q 3544 3216 3844 3400 
Q 4144 3584 4550 3584 
Q 5097 3584 5394 3201 
Q 5691 2819 5691 2113 
L 5691 0 
L 5113 0 
L 5113 2094 
Q 5113 2597 4934 2840 
Q 4756 3084 4391 3084 
Q 3944 3084 3684 2787 
Q 3425 2491 3425 1978 
L 3425 0 
L 2847 0 
L 2847 2094 
Q 2847 2600 2669 2842 
Q 2491 3084 2119 3084 
Q 1678 3084 1418 2786 
Q 1159 2488 1159 1978 
L 1159 0 
L 581 0 
L 581 3500 
L 1159 3500 
L 1159 2956 
Q 1356 3278 1631 3431 
Q 1906 3584 2284 3584 
Q 2666 3584 2933 3390 
Q 3200 3197 3328 2828 
z
" transform="scale(0.015625)"/>
      <path id="DejaVuSans-65" d="M 3597 1894 
L 3597 1613 
L 953 1613 
Q 991 1019 1311 708 
Q 1631 397 2203 397 
Q 2534 397 2845 478 
Q 3156 559 3463 722 
L 3463 178 
Q 3153 47 2828 -22 
Q 2503 -91 2169 -91 
Q 1331 -91 842 396 
Q 353 884 353 1716 
Q 353 2575 817 3079 
Q 1281 3584 2069 3584 
Q 2775 3584 3186 3129 
Q 3597 2675 3597 1894 
z
M 3022 2063 
Q 3016 2534 2758 2815 
Q 2500 3097 2075 3097 
Q 1594 3097 1305 2825 
Q 1016 2553 972 2059 
L 3022 2063 
z
" transform="scale(0.015625)"/>
      <path id="DejaVuSans-74" d="M 1172 4494 
L 1172 3500 
L 2356 3500 
L 2356 3053 
L 1172 3053 
L 1172 1153 
Q 1172 725 1289 603 
Q 1406 481 1766 481 
L 2356 481 
L 2356 0 
L 1766 0 
Q 1100 0 847 248 
Q 594 497 594 1153 
L 594 3053 
L 172 3053 
L 172 3500 
L 594 3500 
L 594 4494 
L 1172 4494 
z
" transform="scale(0.015625)"/>
      <path id="DejaVuSans-6f" d="M 1959 3097 
Q 1497 3097 1228 2736 
Q 959 2375 959 1747 
Q 959 1119 1226 758 
Q 1494 397 1959 397 
Q 2419 397 2687 759 
Q 2956 1122 2956 1747 
Q 2956 2369 2687 2733 
Q 2419 3097 1959 3097 
z
M 1959 3584 
Q 2709 3584 3137 3096 
Q 3566 2609 3566 1747 
Q 3566 888 3137 398 
Q 2709 -91 1959 -91 
Q 1206 -91 779 398 
Q 353 888 353 1747 
Q 353 2609 779 3096 
Q 1206 3584 1959 3584 
z
" transform="scale(0.015625)"/>
      <path id="DejaVuSans-20" transform="scale(0.015625)"/>
      <path id="DejaVuSans-69" d="M 603 3500 
L 1178 3500 
L 1178 0 
L 603 0 
L 603 3500 
z
M 603 4863 
L 1178 4863 
L 1178 4134 
L 603 4134 
L 603 4863 
z
" transform="scale(0.015625)"/>
      <path id="DejaVuSans-66" d="M 2375 4863 
L 2375 4384 
L 1825 4384 
Q 1516 4384 1395 4259 
Q 1275 4134 1275 3809 
L 1275 3500 
L 2222 3500 
L 2222 3053 
L 1275 3053 
L 1275 0 
L 697 0 
L 697 3053 
L 147 3053 
L 147 3500 
L 697 3500 
L 697 3744 
Q 697 4328 969 4595 
Q 1241 4863 1831 4863 
L 2375 4863 
z
" transform="scale(0.015625)"/>
      <path id="DejaVuSans-75" d="M 544 1381 
L 544 3500 
L 1119 3500 
L 1119 1403 
Q 1119 906 1312 657 
Q 1506 409 1894 409 
Q 2359 409 2629 706 
Q 2900 1003 2900 1516 
L 2900 3500 
L 3475 3500 
L 3475 0 
L 2900 0 
L 2900 538 
Q 2691 219 2414 64 
Q 2138 -91 1772 -91 
Q 1169 -91 856 284 
Q 544 659 544 1381 
z
M 1991 3584 
L 1991 3584 
z
" transform="scale(0.015625)"/>
      <path id="DejaVuSans-7a" d="M 353 3500 
L 3084 3500 
L 3084 2975 
L 922 459 
L 3084 459 
L 3084 0 
L 275 0 
L 275 525 
L 2438 3041 
L 353 3041 
L 353 3500 
z
" transform="scale(0.015625)"/>
      <path id="DejaVuSans-6c" d="M 603 4863 
L 1178 4863 
L 1178 0 
L 603 0 
L 603 4863 
z
" transform="scale(0.015625)"/>
      <path id="DejaVuSans-72" d="M 2631 2963 
Q 2534 3019 2420 3045 
Q 2306 3072 2169 3072 
Q 1681 3072 1420 2755 
Q 1159 2438 1159 1844 
L 1159 0 
L 581 0 
L 581 3500 
L 1159 3500 
L 1159 2956 
Q 1341 3275 1631 3429 
Q 1922 3584 2338 3584 
Q 2397 3584 2469 3576 
Q 2541 3569 2628 3553 
L 2631 2963 
z
" transform="scale(0.015625)"/>
      <path id="DejaVuSans-62" d="M 3116 1747 
Q 3116 2381 2855 2742 
Q 2594 3103 2138 3103 
Q 1681 3103 1420 2742 
Q 1159 2381 1159 1747 
Q 1159 1113 1420 752 
Q 1681 391 2138 391 
Q 2594 391 2855 752 
Q 3116 1113 3116 1747 
z
M 1159 2969 
Q 1341 3281 1617 3432 
Q 1894 3584 2278 3584 
Q 2916 3584 3314 3078 
Q 3713 2572 3713 1747 
Q 3713 922 3314 415 
Q 2916 -91 2278 -91 
Q 1894 -91 1617 61 
Q 1341 213 1159 525 
L 1159 0 
L 581 0 
L 581 4863 
L 1159 4863 
L 1159 2969 
z
" transform="scale(0.015625)"/>
      <path id="DejaVuSans-63" d="M 3122 3366 
L 3122 2828 
Q 2878 2963 2633 3030 
Q 2388 3097 2138 3097 
Q 1578 3097 1268 2742 
Q 959 2388 959 1747 
Q 959 1106 1268 751 
Q 1578 397 2138 397 
Q 2388 397 2633 464 
Q 2878 531 3122 666 
L 3122 134 
Q 2881 22 2623 -34 
Q 2366 -91 2075 -91 
Q 1284 -91 818 406 
Q 353 903 353 1747 
Q 353 2603 823 3093 
Q 1294 3584 2113 3584 
Q 2378 3584 2631 3529 
Q 2884 3475 3122 3366 
z
" transform="scale(0.015625)"/>
      <path id="DejaVuSans-68" d="M 3513 2113 
L 3513 0 
L 2938 0 
L 2938 2094 
Q 2938 2591 2744 2837 
Q 2550 3084 2163 3084 
Q 1697 3084 1428 2787 
Q 1159 2491 1159 1978 
L 1159 0 
L 581 0 
L 581 4863 
L 1159 4863 
L 1159 2956 
Q 1366 3272 1645 3428 
Q 1925 3584 2291 3584 
Q 2894 3584 3203 3211 
Q 3513 2838 3513 2113 
z
" transform="scale(0.015625)"/>
     </defs>
     <use xlink:href="#DejaVuSans-28" transform="translate(0 0.015625)"/>
     <use xlink:href="#DejaVuSans-41" transform="translate(39.013672 0.015625)"/>
     <use xlink:href="#DejaVuSans-6e" transform="translate(107.421875 0.015625)"/>
     <use xlink:href="#DejaVuSans-64" transform="translate(170.800781 0.015625)"/>
     <use xlink:href="#DejaVuSans-61" transform="translate(234.277344 0.015625)"/>
     <use xlink:href="#DejaVuSans-6d" transform="translate(295.556641 0.015625)"/>
     <use xlink:href="#DejaVuSans-65" transform="translate(392.96875 0.015625)"/>
     <use xlink:href="#DejaVuSans-6e" transform="translate(454.492188 0.015625)"/>
     <use xlink:href="#DejaVuSans-74" transform="translate(517.871094 0.015625)"/>
     <use xlink:href="#DejaVuSans-6f" transform="translate(557.080078 0.015625)"/>
     <use xlink:href="#DejaVuSans-20" transform="translate(618.261719 0.015625)"/>
     <use xlink:href="#DejaVuSans-64" transform="translate(650.048828 0.015625)"/>
     <use xlink:href="#DejaVuSans-69" transform="translate(713.525391 0.015625)"/>
     <use xlink:href="#DejaVuSans-20" transform="translate(741.308594 0.015625)"/>
     <use xlink:href="#DejaVuSans-Oblique-45" transform="translate(773.095703 0.015625)"/>
     <use xlink:href="#DejaVuSans-28" transform="translate(836.279297 0.015625)"/>
     <use xlink:href="#DejaVuSans-Oblique-54" transform="translate(875.292969 0.015625)"/>
     <use xlink:href="#DejaVuSans-Oblique-72" transform="translate(936.376953 -16.390625) scale(0.7)"/>
     <use xlink:href="#DejaVuSans-29" transform="translate(967.890625 0.015625)"/>
     <use xlink:href="#DejaVuSans-20" transform="translate(1006.904297 0.015625)"/>
     <use xlink:href="#DejaVuSans-69" transform="translate(1038.691406 0.015625)"/>
     <use xlink:href="#DejaVuSans-6e" transform="translate(1066.474609 0.015625)"/>
     <use xlink:href="#DejaVuSans-20" transform="translate(1129.853516 0.015625)"/>
     <use xlink:href="#DejaVuSans-66" transform="translate(1161.640625 0.015625)"/>
     <use xlink:href="#DejaVuSans-75" transform="translate(1196.845703 0.015625)"/>
     <use xlink:href="#DejaVuSans-6e" transform="translate(1260.224609 0.015625)"/>
     <use xlink:href="#DejaVuSans-7a" transform="translate(1323.603516 0.015625)"/>
     <use xlink:href="#DejaVuSans-69" transform="translate(1376.09375 0.015625)"/>
     <use xlink:href="#DejaVuSans-6f" transform="translate(1403.876953 0.015625)"/>
     <use xlink:href="#DejaVuSans-6e" transform="translate(1465.058594 0.015625)"/>
     <use xlink:href="#DejaVuSans-65" transform="translate(1528.4375 0.015625)"/>
     <use xlink:href="#DejaVuSans-20" transform="translate(1589.960938 0.015625)"/>
     <use xlink:href="#DejaVuSans-64" transform="translate(1621.748047 0.015625)"/>
     <use xlink:href="#DejaVuSans-65" transform="translate(1685.224609 0.015625)"/>
     <use xlink:href="#DejaVuSans-6c" transform="translate(1746.748047 0.015625)"/>
     <use xlink:href="#DejaVuSans-20" transform="translate(1774.53125 0.015625)"/>
     <use xlink:href="#DejaVuSans-6e" transform="translate(1806.318359 0.015625)"/>
     <use xlink:href="#DejaVuSans-75" transform="translate(1869.697266 0.015625)"/>
     <use xlink:href="#DejaVuSans-6d" transform="translate(1933.076172 0.015625)"/>
     <use xlink:href="#DejaVuSans-65" transform="translate(2030.488281 0.015625)"/>
     <use xlink:href="#DejaVuSans-72" transform="translate(2092.011719 0.015625)"/>
     <use xlink:href="#DejaVuSans-6f" transform="translate(2133.125 0.015625)"/>
     <use xlink:href="#DejaVuSans-20" transform="translate(2194.306641 0.015625)"/>
     <use xlink:href="#DejaVuSans-64" transform="translate(2226.09375 0.015625)"/>
     <use xlink:href="#DejaVuSans-69" transform="translate(2289.570312 0.015625)"/>
     <use xlink:href="#DejaVuSans-20" transform="translate(2317.353516 0.015625)"/>
     <use xlink:href="#DejaVuSans-62" transform="translate(2349.140625 0.015625)"/>
     <use xlink:href="#DejaVuSans-61" transform="translate(2412.617188 0.015625)"/>
     <use xlink:href="#DejaVuSans-74" transform="translate(2473.896484 0.015625)"/>
     <use xlink:href="#DejaVuSans-63" transform="translate(2513.105469 0.015625)"/>
     <use xlink:href="#DejaVuSans-68" transform="translate(2568.085938 0.015625)"/>
     <use xlink:href="#DejaVuSans-29" transform="translate(2631.464844 0.015625)"/>
    </g>
   </g>
   <g id="legend_1">
    <g id="patch_7">
     <path d="M 880.29 118.39 
L 1154.5 118.39 
Q 1157.9 118.39 1157.9 114.99 
L 1157.9 89.66 
Q 1157.9 86.26 1154.5 86.26 
L 880.29 86.26 
Q 876.89 86.26 876.89 89.66 
L 876.89 114.99 
Q 876.89 118.39 880.29 118.39 
z
" style="fill: #ffffff; opacity: 0.8; stroke: #cccccc; stroke-linejoin: miter"/>
    </g>
    <g id="line2d_38">
     <path d="M 883.69 102.104531 
L 900.69 102.104531 
L 917.69 102.104531 
" style="fill: none; stroke-dasharray: 1.5,2.475; stroke-dashoffset: 0; stroke: #0000ff; stroke-width: 1.5"/>
    </g>
    <g id="text_34">
     <!-- $E(T_{r})^{teorico} = 688.336224\ s$ -->
     <g transform="translate(931.29 108.054531) scale(0.17 -0.17)">
      <defs>
       <path id="DejaVuSans-Oblique-65" d="M 3078 2063 
Q 3088 2113 3092 2166 
Q 3097 2219 3097 2272 
Q 3097 2653 2873 2875 
Q 2650 3097 2266 3097 
Q 1838 3097 1509 2826 
Q 1181 2556 1013 2059 
L 3078 2063 
z
M 3578 1613 
L 903 1613 
Q 884 1494 878 1425 
Q 872 1356 872 1306 
Q 872 872 1139 634 
Q 1406 397 1894 397 
Q 2269 397 2603 481 
Q 2938 566 3225 728 
L 3116 159 
Q 2806 34 2476 -28 
Q 2147 -91 1806 -91 
Q 1078 -91 686 257 
Q 294 606 294 1247 
Q 294 1794 489 2264 
Q 684 2734 1063 3103 
Q 1306 3334 1642 3459 
Q 1978 3584 2356 3584 
Q 2950 3584 3301 3228 
Q 3653 2872 3653 2272 
Q 3653 2128 3634 1964 
Q 3616 1800 3578 1613 
z
" transform="scale(0.015625)"/>
       <path id="DejaVuSans-3d" d="M 678 2906 
L 4684 2906 
L 4684 2381 
L 678 2381 
L 678 2906 
z
M 678 1631 
L 4684 1631 
L 4684 1100 
L 678 1100 
L 678 1631 
z
" transform="scale(0.015625)"/>
       <path id="DejaVuSans-2e" d="M 684 794 
L 1344 794 
L 1344 0 
L 684 0 
L 684 794 
z
" transform="scale(0.015625)"/>
      </defs>
      <use xlink:href="#DejaVuSans-Oblique-45" transform="translate(0 0.529687)"/>
      <use xlink:href="#DejaVuSans-28" transform="translate(63.183594 0.529687)"/>
      <use xlink:href="#DejaVuSans-Oblique-54" transform="translate(102.197266 0.529687)"/>
      <use xlink:href="#DejaVuSans-Oblique-72" transform="translate(163.28125 -15.876563) scale(0.7)"/>
      <use xlink:href="#DejaVuSans-29" transform="translate(194.794922 0.529687)"/>
      <use xlink:href="#DejaVuSans-Oblique-74" transform="translate(234.765625 38.810937) scale(0.7)"/>
      <use xlink:href="#DejaVuSans-Oblique-65" transform="translate(262.211914 38.810937) scale(0.7)"/>
      <use xlink:href="#DejaVuSans-Oblique-6f" transform="translate(305.27832 38.810937) scale(0.7)"/>
      <use xlink:href="#DejaVuSans-Oblique-72" transform="translate(348.105469 38.810937) scale(0.7)"/>
      <use xlink:href="#DejaVuSans-Oblique-69" transform="translate(376.884766 38.810937) scale(0.7)"/>
      <use xlink:href="#DejaVuSans-Oblique-63" transform="translate(396.333008 38.810937) scale(0.7)"/>
      <use xlink:href="#DejaVuSans-Oblique-6f" transform="translate(434.819336 38.810937) scale(0.7)"/>
      <use xlink:href="#DejaVuSans-3d" transform="translate(499.863281 0.529687)"/>
      <use xlink:href="#DejaVuSans-36" transform="translate(603.134766 0.529687)"/>
      <use xlink:href="#DejaVuSans-38" transform="translate(666.757812 0.529687)"/>
      <use xlink:href="#DejaVuSans-38" transform="translate(730.380859 0.529687)"/>
      <use xlink:href="#DejaVuSans-2e" transform="translate(794.003906 0.529687)"/>
      <use xlink:href="#DejaVuSans-33" transform="translate(825.791016 0.529687)"/>
      <use xlink:href="#DejaVuSans-33" transform="translate(889.414062 0.529687)"/>
      <use xlink:href="#DejaVuSans-36" transform="translate(953.037109 0.529687)"/>
      <use xlink:href="#DejaVuSans-32" transform="translate(1016.660156 0.529687)"/>
      <use xlink:href="#DejaVuSans-32" transform="translate(1080.283203 0.529687)"/>
      <use xlink:href="#DejaVuSans-34" transform="translate(1143.90625 0.529687)"/>
      <use xlink:href="#DejaVuSans-Oblique-73" transform="translate(1239.999675 0.529687)"/>
     </g>
    </g>
   </g>
  </g>
  <g id="text_35">
   <!-- Tempo Globale di Risposta -->
   <g transform="translate(449.784375 35.755313) scale(0.3 -0.3)">
    <defs>
     <path id="DejaVuSans-54" d="M -19 4666 
L 3928 4666 
L 3928 4134 
L 2272 4134 
L 2272 0 
L 1638 0 
L 1638 4134 
L -19 4134 
L -19 4666 
z
" transform="scale(0.015625)"/>
     <path id="DejaVuSans-70" d="M 1159 525 
L 1159 -1331 
L 581 -1331 
L 581 3500 
L 1159 3500 
L 1159 2969 
Q 1341 3281 1617 3432 
Q 1894 3584 2278 3584 
Q 2916 3584 3314 3078 
Q 3713 2572 3713 1747 
Q 3713 922 3314 415 
Q 2916 -91 2278 -91 
Q 1894 -91 1617 61 
Q 1341 213 1159 525 
z
M 3116 1747 
Q 3116 2381 2855 2742 
Q 2594 3103 2138 3103 
Q 1681 3103 1420 2742 
Q 1159 2381 1159 1747 
Q 1159 1113 1420 752 
Q 1681 391 2138 391 
Q 2594 391 2855 752 
Q 3116 1113 3116 1747 
z
" transform="scale(0.015625)"/>
     <path id="DejaVuSans-47" d="M 3809 666 
L 3809 1919 
L 2778 1919 
L 2778 2438 
L 4434 2438 
L 4434 434 
Q 4069 175 3628 42 
Q 3188 -91 2688 -91 
Q 1594 -91 976 548 
Q 359 1188 359 2328 
Q 359 3472 976 4111 
Q 1594 4750 2688 4750 
Q 3144 4750 3555 4637 
Q 3966 4525 4313 4306 
L 4313 3634 
Q 3963 3931 3569 4081 
Q 3175 4231 2741 4231 
Q 1884 4231 1454 3753 
Q 1025 3275 1025 2328 
Q 1025 1384 1454 906 
Q 1884 428 2741 428 
Q 3075 428 3337 486 
Q 3600 544 3809 666 
z
" transform="scale(0.015625)"/>
     <path id="DejaVuSans-52" d="M 2841 2188 
Q 3044 2119 3236 1894 
Q 3428 1669 3622 1275 
L 4263 0 
L 3584 0 
L 2988 1197 
Q 2756 1666 2539 1819 
Q 2322 1972 1947 1972 
L 1259 1972 
L 1259 0 
L 628 0 
L 628 4666 
L 2053 4666 
Q 2853 4666 3247 4331 
Q 3641 3997 3641 3322 
Q 3641 2881 3436 2590 
Q 3231 2300 2841 2188 
z
M 1259 4147 
L 1259 2491 
L 2053 2491 
Q 2509 2491 2742 2702 
Q 2975 2913 2975 3322 
Q 2975 3731 2742 3939 
Q 2509 4147 2053 4147 
L 1259 4147 
z
" transform="scale(0.015625)"/>
     <path id="DejaVuSans-73" d="M 2834 3397 
L 2834 2853 
Q 2591 2978 2328 3040 
Q 2066 3103 1784 3103 
Q 1356 3103 1142 2972 
Q 928 2841 928 2578 
Q 928 2378 1081 2264 
Q 1234 2150 1697 2047 
L 1894 2003 
Q 2506 1872 2764 1633 
Q 3022 1394 3022 966 
Q 3022 478 2636 193 
Q 2250 -91 1575 -91 
Q 1294 -91 989 -36 
Q 684 19 347 128 
L 347 722 
Q 666 556 975 473 
Q 1284 391 1588 391 
Q 1994 391 2212 530 
Q 2431 669 2431 922 
Q 2431 1156 2273 1281 
Q 2116 1406 1581 1522 
L 1381 1569 
Q 847 1681 609 1914 
Q 372 2147 372 2553 
Q 372 3047 722 3315 
Q 1072 3584 1716 3584 
Q 2034 3584 2315 3537 
Q 2597 3491 2834 3397 
z
" transform="scale(0.015625)"/>
    </defs>
    <use xlink:href="#DejaVuSans-54"/>
    <use xlink:href="#DejaVuSans-65" x="44.083984"/>
    <use xlink:href="#DejaVuSans-6d" x="105.607422"/>
    <use xlink:href="#DejaVuSans-70" x="203.019531"/>
    <use xlink:href="#DejaVuSans-6f" x="266.496094"/>
    <use xlink:href="#DejaVuSans-20" x="327.677734"/>
    <use xlink:href="#DejaVuSans-47" x="359.464844"/>
    <use xlink:href="#DejaVuSans-6c" x="436.955078"/>
    <use xlink:href="#DejaVuSans-6f" x="464.738281"/>
    <use xlink:href="#DejaVuSans-62" x="525.919922"/>
    <use xlink:href="#DejaVuSans-61" x="589.396484"/>
    <use xlink:href="#DejaVuSans-6c" x="650.675781"/>
    <use xlink:href="#DejaVuSans-65" x="678.458984"/>
    <use xlink:href="#DejaVuSans-20" x="739.982422"/>
    <use xlink:href="#DejaVuSans-64" x="771.769531"/>
    <use xlink:href="#DejaVuSans-69" x="835.246094"/>
    <use xlink:href="#DejaVuSans-20" x="863.029297"/>
    <use xlink:href="#DejaVuSans-52" x="894.816406"/>
    <use xlink:href="#DejaVuSans-69" x="964.298828"/>
    <use xlink:href="#DejaVuSans-73" x="992.082031"/>
    <use xlink:href="#DejaVuSans-70" x="1044.181641"/>
    <use xlink:href="#DejaVuSans-6f" x="1107.658203"/>
    <use xlink:href="#DejaVuSans-73" x="1168.839844"/>
    <use xlink:href="#DejaVuSans-74" x="1220.939453"/>
    <use xlink:href="#DejaVuSans-61" x="1260.148438"/>
   </g>
  </g>
 </g>
 <defs>
  <clipPath id="pca2cdd956f">
   <rect x="162" y="77.76" width="1004.4" height="498.96"/>
  </clipPath>
 </defs>
</svg>
