<?xml version="1.0" encoding="utf-8" standalone="no"?>
<!DOCTYPE svg PUBLIC "-//W3C//DTD SVG 1.1//EN"
  "http://www.w3.org/Graphics/SVG/1.1/DTD/svg11.dtd">
<svg xmlns:xlink="http://www.w3.org/1999/xlink" width="1296pt" height="648pt" viewBox="0 0 1296 648" xmlns="http://www.w3.org/2000/svg" version="1.1">
 <metadata>
  <rdf:RDF xmlns:dc="http://purl.org/dc/elements/1.1/" xmlns:cc="http://creativecommons.org/ns#" xmlns:rdf="http://www.w3.org/1999/02/22-rdf-syntax-ns#">
   <cc:Work>
    <dc:type rdf:resource="http://purl.org/dc/dcmitype/StillImage"/>
    <dc:date>2023-01-23T18:42:50.069682</dc:date>
    <dc:format>image/svg+xml</dc:format>
    <dc:creator>
     <cc:Agent>
      <dc:title>Matplotlib v3.6.3, https://matplotlib.org/</dc:title>
     </cc:Agent>
    </dc:creator>
   </cc:Work>
  </rdf:RDF>
 </metadata>
 <defs>
  <style type="text/css">*{stroke-linejoin: round; stroke-linecap: butt}</style>
 </defs>
 <g id="figure_1">
  <g id="patch_1">
   <path d="M 0 648 
L 1296 648 
L 1296 0 
L 0 0 
L 0 648 
z
" style="fill: none"/>
  </g>
  <g id="axes_1">
   <g id="patch_2">
    <path d="M 162 576.72 
L 1166.4 576.72 
L 1166.4 77.76 
L 162 77.76 
L 162 576.72 
z
" style="fill: none"/>
   </g>
   <g id="matplotlib.axis_1">
    <g id="xtick_1">
     <g id="line2d_1">
      <defs>
       <path id="m8cccb5928e" d="M 0 0 
L 0 3.5 
" style="stroke: #000000; stroke-width: 0.8"/>
      </defs>
      <g>
       <use xlink:href="#m8cccb5928e" x="206.923488" y="576.72" style="stroke: #000000; stroke-width: 0.8"/>
      </g>
     </g>
     <g id="text_1">
      <!-- 0 -->
      <g transform="translate(203.742238 591.318438) scale(0.1 -0.1)">
       <defs>
        <path id="DejaVuSans-30" d="M 2034 4250 
Q 1547 4250 1301 3770 
Q 1056 3291 1056 2328 
Q 1056 1369 1301 889 
Q 1547 409 2034 409 
Q 2525 409 2770 889 
Q 3016 1369 3016 2328 
Q 3016 3291 2770 3770 
Q 2525 4250 2034 4250 
z
M 2034 4750 
Q 2819 4750 3233 4129 
Q 3647 3509 3647 2328 
Q 3647 1150 3233 529 
Q 2819 -91 2034 -91 
Q 1250 -91 836 529 
Q 422 1150 422 2328 
Q 422 3509 836 4129 
Q 1250 4750 2034 4750 
z
" transform="scale(0.015625)"/>
       </defs>
       <use xlink:href="#DejaVuSans-30"/>
      </g>
     </g>
    </g>
    <g id="xtick_2">
     <g id="line2d_2">
      <g>
       <use xlink:href="#m8cccb5928e" x="243.476367" y="576.72" style="stroke: #000000; stroke-width: 0.8"/>
      </g>
     </g>
     <g id="text_2">
      <!-- 50 -->
      <g transform="translate(237.113867 591.318438) scale(0.1 -0.1)">
       <defs>
        <path id="DejaVuSans-35" d="M 691 4666 
L 3169 4666 
L 3169 4134 
L 1269 4134 
L 1269 2991 
Q 1406 3038 1543 3061 
Q 1681 3084 1819 3084 
Q 2600 3084 3056 2656 
Q 3513 2228 3513 1497 
Q 3513 744 3044 326 
Q 2575 -91 1722 -91 
Q 1428 -91 1123 -41 
Q 819 9 494 109 
L 494 744 
Q 775 591 1075 516 
Q 1375 441 1709 441 
Q 2250 441 2565 725 
Q 2881 1009 2881 1497 
Q 2881 1984 2565 2268 
Q 2250 2553 1709 2553 
Q 1456 2553 1204 2497 
Q 953 2441 691 2322 
L 691 4666 
z
" transform="scale(0.015625)"/>
       </defs>
       <use xlink:href="#DejaVuSans-35"/>
       <use xlink:href="#DejaVuSans-30" x="63.623047"/>
      </g>
     </g>
    </g>
    <g id="xtick_3">
     <g id="line2d_3">
      <g>
       <use xlink:href="#m8cccb5928e" x="280.029245" y="576.72" style="stroke: #000000; stroke-width: 0.8"/>
      </g>
     </g>
     <g id="text_3">
      <!-- 100 -->
      <g transform="translate(270.485495 591.318438) scale(0.1 -0.1)">
       <defs>
        <path id="DejaVuSans-31" d="M 794 531 
L 1825 531 
L 1825 4091 
L 703 3866 
L 703 4441 
L 1819 4666 
L 2450 4666 
L 2450 531 
L 3481 531 
L 3481 0 
L 794 0 
L 794 531 
z
" transform="scale(0.015625)"/>
       </defs>
       <use xlink:href="#DejaVuSans-31"/>
       <use xlink:href="#DejaVuSans-30" x="63.623047"/>
       <use xlink:href="#DejaVuSans-30" x="127.246094"/>
      </g>
     </g>
    </g>
    <g id="xtick_4">
     <g id="line2d_4">
      <g>
       <use xlink:href="#m8cccb5928e" x="316.582124" y="576.72" style="stroke: #000000; stroke-width: 0.8"/>
      </g>
     </g>
     <g id="text_4">
      <!-- 150 -->
      <g transform="translate(307.038374 591.318438) scale(0.1 -0.1)">
       <use xlink:href="#DejaVuSans-31"/>
       <use xlink:href="#DejaVuSans-35" x="63.623047"/>
       <use xlink:href="#DejaVuSans-30" x="127.246094"/>
      </g>
     </g>
    </g>
    <g id="xtick_5">
     <g id="line2d_5">
      <g>
       <use xlink:href="#m8cccb5928e" x="353.135003" y="576.72" style="stroke: #000000; stroke-width: 0.8"/>
      </g>
     </g>
     <g id="text_5">
      <!-- 200 -->
      <g transform="translate(343.591253 591.318438) scale(0.1 -0.1)">
       <defs>
        <path id="DejaVuSans-32" d="M 1228 531 
L 3431 531 
L 3431 0 
L 469 0 
L 469 531 
Q 828 903 1448 1529 
Q 2069 2156 2228 2338 
Q 2531 2678 2651 2914 
Q 2772 3150 2772 3378 
Q 2772 3750 2511 3984 
Q 2250 4219 1831 4219 
Q 1534 4219 1204 4116 
Q 875 4013 500 3803 
L 500 4441 
Q 881 4594 1212 4672 
Q 1544 4750 1819 4750 
Q 2544 4750 2975 4387 
Q 3406 4025 3406 3419 
Q 3406 3131 3298 2873 
Q 3191 2616 2906 2266 
Q 2828 2175 2409 1742 
Q 1991 1309 1228 531 
z
" transform="scale(0.015625)"/>
       </defs>
       <use xlink:href="#DejaVuSans-32"/>
       <use xlink:href="#DejaVuSans-30" x="63.623047"/>
       <use xlink:href="#DejaVuSans-30" x="127.246094"/>
      </g>
     </g>
    </g>
    <g id="xtick_6">
     <g id="line2d_6">
      <g>
       <use xlink:href="#m8cccb5928e" x="389.687881" y="576.72" style="stroke: #000000; stroke-width: 0.8"/>
      </g>
     </g>
     <g id="text_6">
      <!-- 250 -->
      <g transform="translate(380.144131 591.318438) scale(0.1 -0.1)">
       <use xlink:href="#DejaVuSans-32"/>
       <use xlink:href="#DejaVuSans-35" x="63.623047"/>
       <use xlink:href="#DejaVuSans-30" x="127.246094"/>
      </g>
     </g>
    </g>
    <g id="xtick_7">
     <g id="line2d_7">
      <g>
       <use xlink:href="#m8cccb5928e" x="426.24076" y="576.72" style="stroke: #000000; stroke-width: 0.8"/>
      </g>
     </g>
     <g id="text_7">
      <!-- 300 -->
      <g transform="translate(416.69701 591.318438) scale(0.1 -0.1)">
       <defs>
        <path id="DejaVuSans-33" d="M 2597 2516 
Q 3050 2419 3304 2112 
Q 3559 1806 3559 1356 
Q 3559 666 3084 287 
Q 2609 -91 1734 -91 
Q 1441 -91 1130 -33 
Q 819 25 488 141 
L 488 750 
Q 750 597 1062 519 
Q 1375 441 1716 441 
Q 2309 441 2620 675 
Q 2931 909 2931 1356 
Q 2931 1769 2642 2001 
Q 2353 2234 1838 2234 
L 1294 2234 
L 1294 2753 
L 1863 2753 
Q 2328 2753 2575 2939 
Q 2822 3125 2822 3475 
Q 2822 3834 2567 4026 
Q 2313 4219 1838 4219 
Q 1578 4219 1281 4162 
Q 984 4106 628 3988 
L 628 4550 
Q 988 4650 1302 4700 
Q 1616 4750 1894 4750 
Q 2613 4750 3031 4423 
Q 3450 4097 3450 3541 
Q 3450 3153 3228 2886 
Q 3006 2619 2597 2516 
z
" transform="scale(0.015625)"/>
       </defs>
       <use xlink:href="#DejaVuSans-33"/>
       <use xlink:href="#DejaVuSans-30" x="63.623047"/>
       <use xlink:href="#DejaVuSans-30" x="127.246094"/>
      </g>
     </g>
    </g>
    <g id="xtick_8">
     <g id="line2d_8">
      <g>
       <use xlink:href="#m8cccb5928e" x="462.793639" y="576.72" style="stroke: #000000; stroke-width: 0.8"/>
      </g>
     </g>
     <g id="text_8">
      <!-- 350 -->
      <g transform="translate(453.249889 591.318438) scale(0.1 -0.1)">
       <use xlink:href="#DejaVuSans-33"/>
       <use xlink:href="#DejaVuSans-35" x="63.623047"/>
       <use xlink:href="#DejaVuSans-30" x="127.246094"/>
      </g>
     </g>
    </g>
    <g id="xtick_9">
     <g id="line2d_9">
      <g>
       <use xlink:href="#m8cccb5928e" x="499.346517" y="576.72" style="stroke: #000000; stroke-width: 0.8"/>
      </g>
     </g>
     <g id="text_9">
      <!-- 400 -->
      <g transform="translate(489.802767 591.318438) scale(0.1 -0.1)">
       <defs>
        <path id="DejaVuSans-34" d="M 2419 4116 
L 825 1625 
L 2419 1625 
L 2419 4116 
z
M 2253 4666 
L 3047 4666 
L 3047 1625 
L 3713 1625 
L 3713 1100 
L 3047 1100 
L 3047 0 
L 2419 0 
L 2419 1100 
L 313 1100 
L 313 1709 
L 2253 4666 
z
" transform="scale(0.015625)"/>
       </defs>
       <use xlink:href="#DejaVuSans-34"/>
       <use xlink:href="#DejaVuSans-30" x="63.623047"/>
       <use xlink:href="#DejaVuSans-30" x="127.246094"/>
      </g>
     </g>
    </g>
    <g id="xtick_10">
     <g id="line2d_10">
      <g>
       <use xlink:href="#m8cccb5928e" x="535.899396" y="576.72" style="stroke: #000000; stroke-width: 0.8"/>
      </g>
     </g>
     <g id="text_10">
      <!-- 450 -->
      <g transform="translate(526.355646 591.318438) scale(0.1 -0.1)">
       <use xlink:href="#DejaVuSans-34"/>
       <use xlink:href="#DejaVuSans-35" x="63.623047"/>
       <use xlink:href="#DejaVuSans-30" x="127.246094"/>
      </g>
     </g>
    </g>
    <g id="xtick_11">
     <g id="line2d_11">
      <g>
       <use xlink:href="#m8cccb5928e" x="572.452275" y="576.72" style="stroke: #000000; stroke-width: 0.8"/>
      </g>
     </g>
     <g id="text_11">
      <!-- 500 -->
      <g transform="translate(562.908525 591.318438) scale(0.1 -0.1)">
       <use xlink:href="#DejaVuSans-35"/>
       <use xlink:href="#DejaVuSans-30" x="63.623047"/>
       <use xlink:href="#DejaVuSans-30" x="127.246094"/>
      </g>
     </g>
    </g>
    <g id="xtick_12">
     <g id="line2d_12">
      <g>
       <use xlink:href="#m8cccb5928e" x="609.005153" y="576.72" style="stroke: #000000; stroke-width: 0.8"/>
      </g>
     </g>
     <g id="text_12">
      <!-- 550 -->
      <g transform="translate(599.461403 591.318438) scale(0.1 -0.1)">
       <use xlink:href="#DejaVuSans-35"/>
       <use xlink:href="#DejaVuSans-35" x="63.623047"/>
       <use xlink:href="#DejaVuSans-30" x="127.246094"/>
      </g>
     </g>
    </g>
    <g id="xtick_13">
     <g id="line2d_13">
      <g>
       <use xlink:href="#m8cccb5928e" x="645.558032" y="576.72" style="stroke: #000000; stroke-width: 0.8"/>
      </g>
     </g>
     <g id="text_13">
      <!-- 600 -->
      <g transform="translate(636.014282 591.318438) scale(0.1 -0.1)">
       <defs>
        <path id="DejaVuSans-36" d="M 2113 2584 
Q 1688 2584 1439 2293 
Q 1191 2003 1191 1497 
Q 1191 994 1439 701 
Q 1688 409 2113 409 
Q 2538 409 2786 701 
Q 3034 994 3034 1497 
Q 3034 2003 2786 2293 
Q 2538 2584 2113 2584 
z
M 3366 4563 
L 3366 3988 
Q 3128 4100 2886 4159 
Q 2644 4219 2406 4219 
Q 1781 4219 1451 3797 
Q 1122 3375 1075 2522 
Q 1259 2794 1537 2939 
Q 1816 3084 2150 3084 
Q 2853 3084 3261 2657 
Q 3669 2231 3669 1497 
Q 3669 778 3244 343 
Q 2819 -91 2113 -91 
Q 1303 -91 875 529 
Q 447 1150 447 2328 
Q 447 3434 972 4092 
Q 1497 4750 2381 4750 
Q 2619 4750 2861 4703 
Q 3103 4656 3366 4563 
z
" transform="scale(0.015625)"/>
       </defs>
       <use xlink:href="#DejaVuSans-36"/>
       <use xlink:href="#DejaVuSans-30" x="63.623047"/>
       <use xlink:href="#DejaVuSans-30" x="127.246094"/>
      </g>
     </g>
    </g>
    <g id="xtick_14">
     <g id="line2d_14">
      <g>
       <use xlink:href="#m8cccb5928e" x="682.110911" y="576.72" style="stroke: #000000; stroke-width: 0.8"/>
      </g>
     </g>
     <g id="text_14">
      <!-- 650 -->
      <g transform="translate(672.567161 591.318438) scale(0.1 -0.1)">
       <use xlink:href="#DejaVuSans-36"/>
       <use xlink:href="#DejaVuSans-35" x="63.623047"/>
       <use xlink:href="#DejaVuSans-30" x="127.246094"/>
      </g>
     </g>
    </g>
    <g id="xtick_15">
     <g id="line2d_15">
      <g>
       <use xlink:href="#m8cccb5928e" x="718.663789" y="576.72" style="stroke: #000000; stroke-width: 0.8"/>
      </g>
     </g>
     <g id="text_15">
      <!-- 700 -->
      <g transform="translate(709.120039 591.318438) scale(0.1 -0.1)">
       <defs>
        <path id="DejaVuSans-37" d="M 525 4666 
L 3525 4666 
L 3525 4397 
L 1831 0 
L 1172 0 
L 2766 4134 
L 525 4134 
L 525 4666 
z
" transform="scale(0.015625)"/>
       </defs>
       <use xlink:href="#DejaVuSans-37"/>
       <use xlink:href="#DejaVuSans-30" x="63.623047"/>
       <use xlink:href="#DejaVuSans-30" x="127.246094"/>
      </g>
     </g>
    </g>
    <g id="xtick_16">
     <g id="line2d_16">
      <g>
       <use xlink:href="#m8cccb5928e" x="755.216668" y="576.72" style="stroke: #000000; stroke-width: 0.8"/>
      </g>
     </g>
     <g id="text_16">
      <!-- 750 -->
      <g transform="translate(745.672918 591.318438) scale(0.1 -0.1)">
       <use xlink:href="#DejaVuSans-37"/>
       <use xlink:href="#DejaVuSans-35" x="63.623047"/>
       <use xlink:href="#DejaVuSans-30" x="127.246094"/>
      </g>
     </g>
    </g>
    <g id="xtick_17">
     <g id="line2d_17">
      <g>
       <use xlink:href="#m8cccb5928e" x="791.769547" y="576.72" style="stroke: #000000; stroke-width: 0.8"/>
      </g>
     </g>
     <g id="text_17">
      <!-- 800 -->
      <g transform="translate(782.225797 591.318438) scale(0.1 -0.1)">
       <defs>
        <path id="DejaVuSans-38" d="M 2034 2216 
Q 1584 2216 1326 1975 
Q 1069 1734 1069 1313 
Q 1069 891 1326 650 
Q 1584 409 2034 409 
Q 2484 409 2743 651 
Q 3003 894 3003 1313 
Q 3003 1734 2745 1975 
Q 2488 2216 2034 2216 
z
M 1403 2484 
Q 997 2584 770 2862 
Q 544 3141 544 3541 
Q 544 4100 942 4425 
Q 1341 4750 2034 4750 
Q 2731 4750 3128 4425 
Q 3525 4100 3525 3541 
Q 3525 3141 3298 2862 
Q 3072 2584 2669 2484 
Q 3125 2378 3379 2068 
Q 3634 1759 3634 1313 
Q 3634 634 3220 271 
Q 2806 -91 2034 -91 
Q 1263 -91 848 271 
Q 434 634 434 1313 
Q 434 1759 690 2068 
Q 947 2378 1403 2484 
z
M 1172 3481 
Q 1172 3119 1398 2916 
Q 1625 2713 2034 2713 
Q 2441 2713 2670 2916 
Q 2900 3119 2900 3481 
Q 2900 3844 2670 4047 
Q 2441 4250 2034 4250 
Q 1625 4250 1398 4047 
Q 1172 3844 1172 3481 
z
" transform="scale(0.015625)"/>
       </defs>
       <use xlink:href="#DejaVuSans-38"/>
       <use xlink:href="#DejaVuSans-30" x="63.623047"/>
       <use xlink:href="#DejaVuSans-30" x="127.246094"/>
      </g>
     </g>
    </g>
    <g id="xtick_18">
     <g id="line2d_18">
      <g>
       <use xlink:href="#m8cccb5928e" x="828.322425" y="576.72" style="stroke: #000000; stroke-width: 0.8"/>
      </g>
     </g>
     <g id="text_18">
      <!-- 850 -->
      <g transform="translate(818.778675 591.318438) scale(0.1 -0.1)">
       <use xlink:href="#DejaVuSans-38"/>
       <use xlink:href="#DejaVuSans-35" x="63.623047"/>
       <use xlink:href="#DejaVuSans-30" x="127.246094"/>
      </g>
     </g>
    </g>
    <g id="xtick_19">
     <g id="line2d_19">
      <g>
       <use xlink:href="#m8cccb5928e" x="864.875304" y="576.72" style="stroke: #000000; stroke-width: 0.8"/>
      </g>
     </g>
     <g id="text_19">
      <!-- 900 -->
      <g transform="translate(855.331554 591.318438) scale(0.1 -0.1)">
       <defs>
        <path id="DejaVuSans-39" d="M 703 97 
L 703 672 
Q 941 559 1184 500 
Q 1428 441 1663 441 
Q 2288 441 2617 861 
Q 2947 1281 2994 2138 
Q 2813 1869 2534 1725 
Q 2256 1581 1919 1581 
Q 1219 1581 811 2004 
Q 403 2428 403 3163 
Q 403 3881 828 4315 
Q 1253 4750 1959 4750 
Q 2769 4750 3195 4129 
Q 3622 3509 3622 2328 
Q 3622 1225 3098 567 
Q 2575 -91 1691 -91 
Q 1453 -91 1209 -44 
Q 966 3 703 97 
z
M 1959 2075 
Q 2384 2075 2632 2365 
Q 2881 2656 2881 3163 
Q 2881 3666 2632 3958 
Q 2384 4250 1959 4250 
Q 1534 4250 1286 3958 
Q 1038 3666 1038 3163 
Q 1038 2656 1286 2365 
Q 1534 2075 1959 2075 
z
" transform="scale(0.015625)"/>
       </defs>
       <use xlink:href="#DejaVuSans-39"/>
       <use xlink:href="#DejaVuSans-30" x="63.623047"/>
       <use xlink:href="#DejaVuSans-30" x="127.246094"/>
      </g>
     </g>
    </g>
    <g id="xtick_20">
     <g id="line2d_20">
      <g>
       <use xlink:href="#m8cccb5928e" x="901.428183" y="576.72" style="stroke: #000000; stroke-width: 0.8"/>
      </g>
     </g>
     <g id="text_20">
      <!-- 950 -->
      <g transform="translate(891.884433 591.318438) scale(0.1 -0.1)">
       <use xlink:href="#DejaVuSans-39"/>
       <use xlink:href="#DejaVuSans-35" x="63.623047"/>
       <use xlink:href="#DejaVuSans-30" x="127.246094"/>
      </g>
     </g>
    </g>
    <g id="xtick_21">
     <g id="line2d_21">
      <g>
       <use xlink:href="#m8cccb5928e" x="937.981061" y="576.72" style="stroke: #000000; stroke-width: 0.8"/>
      </g>
     </g>
     <g id="text_21">
      <!-- 1000 -->
      <g transform="translate(925.256061 591.318438) scale(0.1 -0.1)">
       <use xlink:href="#DejaVuSans-31"/>
       <use xlink:href="#DejaVuSans-30" x="63.623047"/>
       <use xlink:href="#DejaVuSans-30" x="127.246094"/>
       <use xlink:href="#DejaVuSans-30" x="190.869141"/>
      </g>
     </g>
    </g>
    <g id="xtick_22">
     <g id="line2d_22">
      <g>
       <use xlink:href="#m8cccb5928e" x="974.53394" y="576.72" style="stroke: #000000; stroke-width: 0.8"/>
      </g>
     </g>
     <g id="text_22">
      <!-- 1050 -->
      <g transform="translate(961.80894 591.318438) scale(0.1 -0.1)">
       <use xlink:href="#DejaVuSans-31"/>
       <use xlink:href="#DejaVuSans-30" x="63.623047"/>
       <use xlink:href="#DejaVuSans-35" x="127.246094"/>
       <use xlink:href="#DejaVuSans-30" x="190.869141"/>
      </g>
     </g>
    </g>
    <g id="xtick_23">
     <g id="line2d_23">
      <g>
       <use xlink:href="#m8cccb5928e" x="1011.086819" y="576.72" style="stroke: #000000; stroke-width: 0.8"/>
      </g>
     </g>
     <g id="text_23">
      <!-- 1100 -->
      <g transform="translate(998.361819 591.318438) scale(0.1 -0.1)">
       <use xlink:href="#DejaVuSans-31"/>
       <use xlink:href="#DejaVuSans-31" x="63.623047"/>
       <use xlink:href="#DejaVuSans-30" x="127.246094"/>
       <use xlink:href="#DejaVuSans-30" x="190.869141"/>
      </g>
     </g>
    </g>
    <g id="xtick_24">
     <g id="line2d_24">
      <g>
       <use xlink:href="#m8cccb5928e" x="1047.639697" y="576.72" style="stroke: #000000; stroke-width: 0.8"/>
      </g>
     </g>
     <g id="text_24">
      <!-- 1150 -->
      <g transform="translate(1034.914697 591.318438) scale(0.1 -0.1)">
       <use xlink:href="#DejaVuSans-31"/>
       <use xlink:href="#DejaVuSans-31" x="63.623047"/>
       <use xlink:href="#DejaVuSans-35" x="127.246094"/>
       <use xlink:href="#DejaVuSans-30" x="190.869141"/>
      </g>
     </g>
    </g>
    <g id="xtick_25">
     <g id="line2d_25">
      <g>
       <use xlink:href="#m8cccb5928e" x="1084.192576" y="576.72" style="stroke: #000000; stroke-width: 0.8"/>
      </g>
     </g>
     <g id="text_25">
      <!-- 1200 -->
      <g transform="translate(1071.467576 591.318438) scale(0.1 -0.1)">
       <use xlink:href="#DejaVuSans-31"/>
       <use xlink:href="#DejaVuSans-32" x="63.623047"/>
       <use xlink:href="#DejaVuSans-30" x="127.246094"/>
       <use xlink:href="#DejaVuSans-30" x="190.869141"/>
      </g>
     </g>
    </g>
    <g id="text_26">
     <!-- $\#\ batch$ -->
     <g transform="translate(634.275 609.795781) scale(0.15 -0.15)">
      <defs>
       <path id="DejaVuSans-23" d="M 3272 2816 
L 2363 2816 
L 2100 1772 
L 3016 1772 
L 3272 2816 
z
M 2803 4594 
L 2478 3297 
L 3391 3297 
L 3719 4594 
L 4219 4594 
L 3897 3297 
L 4872 3297 
L 4872 2816 
L 3775 2816 
L 3519 1772 
L 4513 1772 
L 4513 1294 
L 3397 1294 
L 3072 0 
L 2572 0 
L 2894 1294 
L 1978 1294 
L 1656 0 
L 1153 0 
L 1478 1294 
L 494 1294 
L 494 1772 
L 1594 1772 
L 1856 2816 
L 850 2816 
L 850 3297 
L 1978 3297 
L 2297 4594 
L 2803 4594 
z
" transform="scale(0.015625)"/>
       <path id="DejaVuSans-Oblique-62" d="M 3169 2138 
Q 3169 2591 2961 2847 
Q 2753 3103 2388 3103 
Q 2122 3103 1889 2973 
Q 1656 2844 1484 2597 
Q 1303 2338 1198 1995 
Q 1094 1653 1094 1313 
Q 1094 881 1298 636 
Q 1503 391 1863 391 
Q 2134 391 2365 517 
Q 2597 644 2772 891 
Q 2950 1147 3059 1487 
Q 3169 1828 3169 2138 
z
M 1381 2969 
Q 1594 3256 1914 3420 
Q 2234 3584 2584 3584 
Q 3122 3584 3439 3221 
Q 3756 2859 3756 2241 
Q 3756 1734 3570 1259 
Q 3384 784 3041 416 
Q 2816 172 2522 40 
Q 2228 -91 1906 -91 
Q 1566 -91 1316 65 
Q 1066 222 909 531 
L 806 0 
L 231 0 
L 1178 4863 
L 1753 4863 
L 1381 2969 
z
" transform="scale(0.015625)"/>
       <path id="DejaVuSans-Oblique-61" d="M 3438 1997 
L 3047 0 
L 2472 0 
L 2578 531 
Q 2325 219 2001 64 
Q 1678 -91 1281 -91 
Q 834 -91 548 182 
Q 263 456 263 884 
Q 263 1497 752 1853 
Q 1241 2209 2100 2209 
L 2900 2209 
L 2931 2363 
Q 2938 2388 2941 2417 
Q 2944 2447 2944 2509 
Q 2944 2788 2717 2942 
Q 2491 3097 2081 3097 
Q 1800 3097 1504 3025 
Q 1209 2953 897 2809 
L 997 3341 
Q 1322 3463 1633 3523 
Q 1944 3584 2234 3584 
Q 2853 3584 3176 3315 
Q 3500 3047 3500 2534 
Q 3500 2431 3484 2292 
Q 3469 2153 3438 1997 
z
M 2816 1759 
L 2241 1759 
Q 1534 1759 1195 1570 
Q 856 1381 856 984 
Q 856 709 1029 553 
Q 1203 397 1509 397 
Q 1978 397 2328 733 
Q 2678 1069 2791 1631 
L 2816 1759 
z
" transform="scale(0.015625)"/>
       <path id="DejaVuSans-Oblique-74" d="M 2706 3500 
L 2619 3053 
L 1472 3053 
L 1100 1153 
Q 1081 1047 1072 975 
Q 1063 903 1063 863 
Q 1063 663 1183 572 
Q 1303 481 1569 481 
L 2150 481 
L 2053 0 
L 1503 0 
Q 991 0 739 200 
Q 488 400 488 806 
Q 488 878 497 964 
Q 506 1050 525 1153 
L 897 3053 
L 409 3053 
L 500 3500 
L 978 3500 
L 1172 4494 
L 1747 4494 
L 1556 3500 
L 2706 3500 
z
" transform="scale(0.015625)"/>
       <path id="DejaVuSans-Oblique-63" d="M 3431 3366 
L 3316 2797 
Q 3109 2947 2876 3022 
Q 2644 3097 2394 3097 
Q 2119 3097 1870 3000 
Q 1622 2903 1453 2725 
Q 1184 2453 1037 2087 
Q 891 1722 891 1331 
Q 891 859 1127 628 
Q 1363 397 1844 397 
Q 2081 397 2348 469 
Q 2616 541 2906 684 
L 2797 116 
Q 2547 13 2283 -39 
Q 2019 -91 1741 -91 
Q 1044 -91 669 257 
Q 294 606 294 1253 
Q 294 1797 489 2255 
Q 684 2713 1069 3078 
Q 1331 3328 1684 3456 
Q 2038 3584 2456 3584 
Q 2700 3584 2940 3529 
Q 3181 3475 3431 3366 
z
" transform="scale(0.015625)"/>
       <path id="DejaVuSans-Oblique-68" d="M 3566 2113 
L 3156 0 
L 2578 0 
L 2988 2091 
Q 3016 2238 3031 2350 
Q 3047 2463 3047 2528 
Q 3047 2791 2881 2937 
Q 2716 3084 2419 3084 
Q 1956 3084 1617 2771 
Q 1278 2459 1178 1941 
L 800 0 
L 225 0 
L 1172 4863 
L 1747 4863 
L 1375 2950 
Q 1594 3244 1934 3414 
Q 2275 3584 2650 3584 
Q 3113 3584 3367 3334 
Q 3622 3084 3622 2631 
Q 3622 2519 3608 2391 
Q 3594 2263 3566 2113 
z
" transform="scale(0.015625)"/>
      </defs>
      <use xlink:href="#DejaVuSans-23" transform="translate(0 0.015625)"/>
      <use xlink:href="#DejaVuSans-Oblique-62" transform="translate(116.259441 0.015625)"/>
      <use xlink:href="#DejaVuSans-Oblique-61" transform="translate(179.736003 0.015625)"/>
      <use xlink:href="#DejaVuSans-Oblique-74" transform="translate(241.0153 0.015625)"/>
      <use xlink:href="#DejaVuSans-Oblique-63" transform="translate(280.224285 0.015625)"/>
      <use xlink:href="#DejaVuSans-Oblique-68" transform="translate(335.204753 0.015625)"/>
     </g>
    </g>
   </g>
   <g id="matplotlib.axis_2">
    <g id="ytick_1">
     <g id="line2d_26">
      <path d="M 162 511.645846 
L 1166.4 511.645846 
" clip-path="url(#p65436dd47e)" style="fill: none; stroke: #808080; stroke-width: 0.8; stroke-linecap: square"/>
     </g>
     <g id="line2d_27">
      <defs>
       <path id="m8d7bf337ae" d="M 0 0 
L -3.5 0 
" style="stroke: #000000; stroke-width: 0.8"/>
      </defs>
      <g>
       <use xlink:href="#m8d7bf337ae" x="162" y="511.645846" style="stroke: #000000; stroke-width: 0.8"/>
      </g>
     </g>
     <g id="text_27">
      <!-- 0.018 -->
      <g transform="translate(126.371875 515.445065) scale(0.1 -0.1)">
       <defs>
        <path id="DejaVuSans-2e" d="M 684 794 
L 1344 794 
L 1344 0 
L 684 0 
L 684 794 
z
" transform="scale(0.015625)"/>
       </defs>
       <use xlink:href="#DejaVuSans-30"/>
       <use xlink:href="#DejaVuSans-2e" x="63.623047"/>
       <use xlink:href="#DejaVuSans-30" x="95.410156"/>
       <use xlink:href="#DejaVuSans-31" x="159.033203"/>
       <use xlink:href="#DejaVuSans-38" x="222.65625"/>
      </g>
     </g>
    </g>
    <g id="ytick_2">
     <g id="line2d_28">
      <path d="M 162 436.876615 
L 1166.4 436.876615 
" clip-path="url(#p65436dd47e)" style="fill: none; stroke: #808080; stroke-width: 0.8; stroke-linecap: square"/>
     </g>
     <g id="line2d_29">
      <g>
       <use xlink:href="#m8d7bf337ae" x="162" y="436.876615" style="stroke: #000000; stroke-width: 0.8"/>
      </g>
     </g>
     <g id="text_28">
      <!-- 0.020 -->
      <g transform="translate(126.371875 440.675834) scale(0.1 -0.1)">
       <use xlink:href="#DejaVuSans-30"/>
       <use xlink:href="#DejaVuSans-2e" x="63.623047"/>
       <use xlink:href="#DejaVuSans-30" x="95.410156"/>
       <use xlink:href="#DejaVuSans-32" x="159.033203"/>
       <use xlink:href="#DejaVuSans-30" x="222.65625"/>
      </g>
     </g>
    </g>
    <g id="ytick_3">
     <g id="line2d_30">
      <path d="M 162 362.107385 
L 1166.4 362.107385 
" clip-path="url(#p65436dd47e)" style="fill: none; stroke: #808080; stroke-width: 0.8; stroke-linecap: square"/>
     </g>
     <g id="line2d_31">
      <g>
       <use xlink:href="#m8d7bf337ae" x="162" y="362.107385" style="stroke: #000000; stroke-width: 0.8"/>
      </g>
     </g>
     <g id="text_29">
      <!-- 0.022 -->
      <g transform="translate(126.371875 365.906603) scale(0.1 -0.1)">
       <use xlink:href="#DejaVuSans-30"/>
       <use xlink:href="#DejaVuSans-2e" x="63.623047"/>
       <use xlink:href="#DejaVuSans-30" x="95.410156"/>
       <use xlink:href="#DejaVuSans-32" x="159.033203"/>
       <use xlink:href="#DejaVuSans-32" x="222.65625"/>
      </g>
     </g>
    </g>
    <g id="ytick_4">
     <g id="line2d_32">
      <path d="M 162 287.338154 
L 1166.4 287.338154 
" clip-path="url(#p65436dd47e)" style="fill: none; stroke: #808080; stroke-width: 0.8; stroke-linecap: square"/>
     </g>
     <g id="line2d_33">
      <g>
       <use xlink:href="#m8d7bf337ae" x="162" y="287.338154" style="stroke: #000000; stroke-width: 0.8"/>
      </g>
     </g>
     <g id="text_30">
      <!-- 0.024 -->
      <g transform="translate(126.371875 291.137373) scale(0.1 -0.1)">
       <use xlink:href="#DejaVuSans-30"/>
       <use xlink:href="#DejaVuSans-2e" x="63.623047"/>
       <use xlink:href="#DejaVuSans-30" x="95.410156"/>
       <use xlink:href="#DejaVuSans-32" x="159.033203"/>
       <use xlink:href="#DejaVuSans-34" x="222.65625"/>
      </g>
     </g>
    </g>
    <g id="ytick_5">
     <g id="line2d_34">
      <path d="M 162 212.568923 
L 1166.4 212.568923 
" clip-path="url(#p65436dd47e)" style="fill: none; stroke: #808080; stroke-width: 0.8; stroke-linecap: square"/>
     </g>
     <g id="line2d_35">
      <g>
       <use xlink:href="#m8d7bf337ae" x="162" y="212.568923" style="stroke: #000000; stroke-width: 0.8"/>
      </g>
     </g>
     <g id="text_31">
      <!-- 0.026 -->
      <g transform="translate(126.371875 216.368142) scale(0.1 -0.1)">
       <use xlink:href="#DejaVuSans-30"/>
       <use xlink:href="#DejaVuSans-2e" x="63.623047"/>
       <use xlink:href="#DejaVuSans-30" x="95.410156"/>
       <use xlink:href="#DejaVuSans-32" x="159.033203"/>
       <use xlink:href="#DejaVuSans-36" x="222.65625"/>
      </g>
     </g>
    </g>
    <g id="ytick_6">
     <g id="line2d_36">
      <path d="M 162 137.799692 
L 1166.4 137.799692 
" clip-path="url(#p65436dd47e)" style="fill: none; stroke: #808080; stroke-width: 0.8; stroke-linecap: square"/>
     </g>
     <g id="line2d_37">
      <g>
       <use xlink:href="#m8d7bf337ae" x="162" y="137.799692" style="stroke: #000000; stroke-width: 0.8"/>
      </g>
     </g>
     <g id="text_32">
      <!-- 0.028 -->
      <g transform="translate(126.371875 141.598911) scale(0.1 -0.1)">
       <use xlink:href="#DejaVuSans-30"/>
       <use xlink:href="#DejaVuSans-2e" x="63.623047"/>
       <use xlink:href="#DejaVuSans-30" x="95.410156"/>
       <use xlink:href="#DejaVuSans-32" x="159.033203"/>
       <use xlink:href="#DejaVuSans-38" x="222.65625"/>
      </g>
     </g>
    </g>
    <g id="text_33">
     <!-- $p_{loss}^{simulato}$ -->
     <g transform="translate(48.471875 322.89) scale(0.15 -0.15)">
      <defs>
       <path id="DejaVuSans-Oblique-70" d="M 3175 2156 
Q 3175 2616 2975 2859 
Q 2775 3103 2400 3103 
Q 2144 3103 1911 2972 
Q 1678 2841 1497 2591 
Q 1319 2344 1212 1994 
Q 1106 1644 1106 1300 
Q 1106 863 1306 627 
Q 1506 391 1875 391 
Q 2147 391 2380 519 
Q 2613 647 2778 891 
Q 2956 1147 3065 1494 
Q 3175 1841 3175 2156 
z
M 1394 2969 
Q 1625 3272 1939 3428 
Q 2253 3584 2638 3584 
Q 3175 3584 3472 3232 
Q 3769 2881 3769 2247 
Q 3769 1728 3584 1258 
Q 3400 788 3053 416 
Q 2822 169 2531 39 
Q 2241 -91 1919 -91 
Q 1547 -91 1294 64 
Q 1041 219 916 525 
L 556 -1331 
L -19 -1331 
L 922 3500 
L 1497 3500 
L 1394 2969 
z
" transform="scale(0.015625)"/>
       <path id="DejaVuSans-Oblique-73" d="M 3200 3397 
L 3091 2853 
Q 2863 2978 2609 3040 
Q 2356 3103 2088 3103 
Q 1634 3103 1373 2948 
Q 1113 2794 1113 2528 
Q 1113 2219 1719 2053 
Q 1766 2041 1788 2034 
L 1972 1978 
Q 2547 1819 2739 1644 
Q 2931 1469 2931 1166 
Q 2931 609 2489 259 
Q 2047 -91 1331 -91 
Q 1053 -91 747 -37 
Q 441 16 72 128 
L 184 722 
Q 500 559 806 475 
Q 1113 391 1394 391 
Q 1816 391 2080 572 
Q 2344 753 2344 1031 
Q 2344 1331 1650 1516 
L 1591 1531 
L 1394 1581 
Q 956 1697 753 1886 
Q 550 2075 550 2369 
Q 550 2928 970 3256 
Q 1391 3584 2113 3584 
Q 2397 3584 2667 3537 
Q 2938 3491 3200 3397 
z
" transform="scale(0.015625)"/>
       <path id="DejaVuSans-Oblique-69" d="M 1172 4863 
L 1747 4863 
L 1606 4134 
L 1031 4134 
L 1172 4863 
z
M 909 3500 
L 1484 3500 
L 800 0 
L 225 0 
L 909 3500 
z
" transform="scale(0.015625)"/>
       <path id="DejaVuSans-Oblique-6d" d="M 5747 2113 
L 5338 0 
L 4763 0 
L 5166 2094 
Q 5191 2228 5203 2325 
Q 5216 2422 5216 2491 
Q 5216 2772 5059 2928 
Q 4903 3084 4622 3084 
Q 4203 3084 3875 2770 
Q 3547 2456 3450 1953 
L 3066 0 
L 2491 0 
L 2900 2094 
Q 2925 2209 2937 2307 
Q 2950 2406 2950 2484 
Q 2950 2769 2794 2926 
Q 2638 3084 2363 3084 
Q 1938 3084 1609 2770 
Q 1281 2456 1184 1953 
L 800 0 
L 225 0 
L 909 3500 
L 1484 3500 
L 1375 2956 
Q 1609 3263 1923 3423 
Q 2238 3584 2597 3584 
Q 2978 3584 3223 3384 
Q 3469 3184 3519 2828 
Q 3781 3197 4126 3390 
Q 4472 3584 4856 3584 
Q 5306 3584 5551 3325 
Q 5797 3066 5797 2591 
Q 5797 2488 5784 2364 
Q 5772 2241 5747 2113 
z
" transform="scale(0.015625)"/>
       <path id="DejaVuSans-Oblique-75" d="M 428 1388 
L 838 3500 
L 1416 3500 
L 1006 1409 
Q 975 1256 961 1147 
Q 947 1038 947 966 
Q 947 700 1109 554 
Q 1272 409 1569 409 
Q 2031 409 2368 721 
Q 2706 1034 2809 1563 
L 3194 3500 
L 3769 3500 
L 3091 0 
L 2516 0 
L 2631 550 
Q 2388 244 2052 76 
Q 1716 -91 1338 -91 
Q 878 -91 622 161 
Q 366 413 366 863 
Q 366 956 381 1097 
Q 397 1238 428 1388 
z
" transform="scale(0.015625)"/>
       <path id="DejaVuSans-Oblique-6c" d="M 1172 4863 
L 1747 4863 
L 800 0 
L 225 0 
L 1172 4863 
z
" transform="scale(0.015625)"/>
       <path id="DejaVuSans-Oblique-6f" d="M 1625 -91 
Q 1009 -91 651 289 
Q 294 669 294 1325 
Q 294 1706 417 2101 
Q 541 2497 738 2766 
Q 1047 3184 1428 3384 
Q 1809 3584 2291 3584 
Q 2888 3584 3255 3212 
Q 3622 2841 3622 2241 
Q 3622 1825 3500 1412 
Q 3378 1000 3181 728 
Q 2875 309 2494 109 
Q 2113 -91 1625 -91 
z
M 891 1344 
Q 891 869 1089 633 
Q 1288 397 1691 397 
Q 2269 397 2648 901 
Q 3028 1406 3028 2181 
Q 3028 2634 2825 2865 
Q 2622 3097 2228 3097 
Q 1903 3097 1650 2945 
Q 1397 2794 1197 2484 
Q 1050 2253 970 1956 
Q 891 1659 891 1344 
z
" transform="scale(0.015625)"/>
      </defs>
      <use xlink:href="#DejaVuSans-Oblique-70" transform="translate(0 0.470313)"/>
      <use xlink:href="#DejaVuSans-Oblique-73" transform="translate(68.126458 39.810938) scale(0.7)"/>
      <use xlink:href="#DejaVuSans-Oblique-69" transform="translate(104.596185 39.810938) scale(0.7)"/>
      <use xlink:href="#DejaVuSans-Oblique-6d" transform="translate(124.044427 39.810938) scale(0.7)"/>
      <use xlink:href="#DejaVuSans-Oblique-75" transform="translate(192.232904 39.810938) scale(0.7)"/>
      <use xlink:href="#DejaVuSans-Oblique-6c" transform="translate(236.598138 39.810938) scale(0.7)"/>
      <use xlink:href="#DejaVuSans-Oblique-61" transform="translate(256.04638 39.810938) scale(0.7)"/>
      <use xlink:href="#DejaVuSans-Oblique-74" transform="translate(298.941888 39.810938) scale(0.7)"/>
      <use xlink:href="#DejaVuSans-Oblique-6f" transform="translate(326.388177 39.810938) scale(0.7)"/>
      <use xlink:href="#DejaVuSans-Oblique-6c" transform="translate(63.476562 -26.873437) scale(0.7)"/>
      <use xlink:href="#DejaVuSans-Oblique-6f" transform="translate(82.924805 -26.873437) scale(0.7)"/>
      <use xlink:href="#DejaVuSans-Oblique-73" transform="translate(125.751953 -26.873437) scale(0.7)"/>
      <use xlink:href="#DejaVuSans-Oblique-73" transform="translate(162.22168 -26.873437) scale(0.7)"/>
     </g>
    </g>
   </g>
   <g id="line2d_38">
    <path d="M 207.654545 119.929846 
L 208.385603 147.557077 
L 209.116661 100.44 
L 209.847718 119.630769 
L 210.578776 207.514523 
L 211.309833 262.932231 
L 212.040891 274.547275 
L 212.771948 134.453769 
L 213.503006 200.655692 
L 214.965121 257.624182 
L 215.696179 247.551577 
L 216.427236 266.161207 
L 217.158294 318.423462 
L 217.889351 321.662215 
L 218.620409 362.534971 
L 219.351467 385.030751 
L 220.082524 358.973308 
L 220.813582 363.482745 
L 221.544639 359.608223 
L 222.275697 361.224396 
L 223.006754 366.80765 
L 223.737812 362.13014 
L 224.46887 352.00575 
L 225.199927 338.013748 
L 225.930985 310.809941 
L 226.662042 308.004923 
L 228.855215 284.143015 
L 229.586273 298.015682 
L 230.31733 302.494111 
L 231.779445 261.993584 
L 232.510503 251.592053 
L 233.241561 252.346154 
L 233.972618 251.427705 
L 234.703676 256.208575 
L 235.434733 262.367148 
L 236.165791 254.817277 
L 236.896848 274.797895 
L 237.627906 286.114253 
L 238.358964 287.398143 
L 239.090021 273.751395 
L 239.821079 266.271508 
L 240.552136 263.233204 
L 241.283194 272.332606 
L 242.014251 277.071404 
L 242.745309 287.88519 
L 243.476367 282.511052 
L 244.207424 288.813747 
L 244.938482 284.210068 
L 245.669539 262.723559 
L 246.400597 262.968923 
L 247.131654 261.134937 
L 247.862712 245.929352 
L 248.59377 238.105239 
L 250.055885 248.524686 
L 250.786942 243.191908 
L 251.518 242.72176 
L 252.249057 238.074275 
L 252.980115 236.202527 
L 254.44223 251.927446 
L 255.173288 242.397315 
L 255.904345 248.573098 
L 256.635403 246.023756 
L 257.36646 250.851853 
L 258.097518 250.885484 
L 258.828576 252.159231 
L 259.559633 254.544577 
L 260.290691 263.887758 
L 261.021748 258.995563 
L 261.752806 257.910978 
L 262.483863 244.686243 
L 263.214921 249.182056 
L 263.945979 230.447396 
L 265.408094 238.945171 
L 266.139151 243.526154 
L 266.870209 251.525516 
L 267.601266 254.63112 
L 268.332324 256.204335 
L 269.063382 264.721781 
L 269.794439 267.108295 
L 270.525497 260.448302 
L 271.256554 268.193832 
L 271.987612 268.59922 
L 272.718669 269.420954 
L 273.449727 272.531792 
L 274.180785 267.976987 
L 274.911842 266.819628 
L 275.6429 274.580455 
L 276.373957 278.843976 
L 277.105015 273.941611 
L 277.836072 274.00996 
L 278.56713 274.718176 
L 279.298188 264.678545 
L 280.029245 270.916214 
L 280.760303 263.957963 
L 281.49136 258.794633 
L 282.222418 264.721913 
L 282.953476 264.502984 
L 283.684533 266.695081 
L 284.415591 270.713639 
L 285.146648 263.687668 
L 285.877706 254.984192 
L 286.608763 255.791712 
L 287.339821 257.383221 
L 288.070879 255.988628 
L 288.801936 261.460657 
L 289.532994 267.800888 
L 290.264051 267.165547 
L 290.995109 258.505513 
L 291.726166 253.95756 
L 292.457224 244.311018 
L 293.188282 243.862698 
L 293.919339 238.495625 
L 294.650397 239.610462 
L 295.381454 245.68953 
L 296.112512 245.015398 
L 296.843569 246.823565 
L 297.574627 242.000263 
L 298.305685 242.868406 
L 299.036742 247.055341 
L 300.498857 241.509581 
L 301.229915 240.589417 
L 301.960972 246.849178 
L 302.69203 246.048701 
L 303.423088 249.872255 
L 304.154145 255.059209 
L 304.885203 254.606249 
L 305.61626 251.879538 
L 306.347318 252.502839 
L 307.078375 249.083323 
L 307.809433 250.195997 
L 308.540491 251.652521 
L 309.271548 252.053486 
L 310.002606 258.401931 
L 311.464721 263.178019 
L 312.195778 257.662817 
L 312.926836 257.90125 
L 313.657894 258.353042 
L 314.388951 262.217218 
L 315.120009 264.176616 
L 315.851066 266.961531 
L 316.582124 268.196982 
L 317.313181 267.496331 
L 318.044239 262.957728 
L 318.775297 266.689873 
L 319.506354 267.755898 
L 320.237412 272.34427 
L 320.968469 275.567512 
L 321.699527 277.911516 
L 322.430584 277.213075 
L 323.8927 280.857297 
L 324.623757 283.807978 
L 325.354815 285.288923 
L 326.085872 281.17405 
L 326.81693 285.201532 
L 327.547987 287.316856 
L 328.279045 283.319533 
L 329.010103 284.720783 
L 329.74116 286.486096 
L 330.472218 289.500489 
L 331.203275 286.555056 
L 331.934333 287.969101 
L 332.66539 290.997499 
L 333.396448 285.207447 
L 334.127506 286.940244 
L 334.858563 287.497092 
L 335.589621 290.089959 
L 336.320678 287.453687 
L 337.051736 283.5789 
L 337.782794 284.412129 
L 338.513851 285.595408 
L 339.244909 284.243493 
L 339.975966 281.98291 
L 340.707024 281.826068 
L 341.438081 284.454865 
L 342.169139 284.344556 
L 342.900197 286.367762 
L 343.631254 290.571423 
L 344.362312 291.117182 
L 345.093369 289.622967 
L 345.824427 290.912123 
L 346.555484 289.808279 
L 347.286542 289.913214 
L 348.0176 290.456379 
L 348.748657 283.735356 
L 349.479715 283.242525 
L 350.210772 281.964878 
L 350.94183 278.120854 
L 351.672887 275.367336 
L 352.403945 275.655931 
L 353.135003 273.517996 
L 353.86606 274.047644 
L 354.597118 270.273928 
L 355.328175 271.120229 
L 356.059233 268.602597 
L 356.79029 268.942735 
L 357.521348 268.729689 
L 358.252406 269.760341 
L 358.983463 267.994132 
L 359.714521 268.536912 
L 360.445578 267.528402 
L 361.176636 268.701303 
L 361.907693 268.922528 
L 363.369809 271.431175 
L 364.100866 267.356512 
L 364.831924 269.958635 
L 365.562981 269.969468 
L 366.294039 272.193783 
L 367.025096 273.113222 
L 367.756154 273.595399 
L 368.487212 275.365604 
L 369.218269 276.103235 
L 369.949327 276.138528 
L 370.680384 271.174815 
L 371.411442 273.064542 
L 372.142499 273.208423 
L 372.873557 272.403906 
L 373.604615 272.866864 
L 374.335672 271.73375 
L 375.06673 274.813983 
L 375.797787 274.431237 
L 376.528845 276.60184 
L 377.259902 277.559109 
L 377.99096 275.063858 
L 378.722018 277.050544 
L 379.453075 278.255752 
L 380.184133 280.035377 
L 380.91519 279.74782 
L 381.646248 281.116353 
L 382.377305 280.670763 
L 383.108363 284.421378 
L 383.839421 284.234922 
L 384.570478 285.358923 
L 385.301536 286.688213 
L 386.032593 287.756404 
L 386.763651 290.11343 
L 387.494708 288.666897 
L 388.225766 286.188728 
L 388.956824 287.57132 
L 389.687881 284.158966 
L 390.418939 285.363174 
L 391.149996 286.164841 
L 391.881054 286.391126 
L 392.612112 283.877575 
L 393.343169 285.585329 
L 394.074227 284.636239 
L 394.805284 284.466375 
L 395.536342 283.146295 
L 396.267399 282.707947 
L 396.998457 280.979462 
L 397.729515 281.976971 
L 398.460572 280.048154 
L 399.19163 280.41276 
L 399.922687 279.953135 
L 400.653745 282.289397 
L 401.384802 283.631736 
L 402.11586 281.914444 
L 402.846918 281.269292 
L 403.577975 282.674805 
L 404.309033 283.4874 
L 405.04009 281.354408 
L 405.771148 282.326829 
L 407.233263 272.170779 
L 407.964321 273.993885 
L 408.695378 274.548416 
L 409.426436 270.480661 
L 410.157493 272.703556 
L 410.888551 270.295861 
L 411.619608 267.03991 
L 412.350666 268.327345 
L 413.081724 268.197628 
L 413.812781 269.109917 
L 414.543839 271.286069 
L 415.274896 269.280598 
L 416.737011 267.768545 
L 417.468069 270.232226 
L 418.199127 271.701683 
L 418.930184 270.691042 
L 419.661242 267.890317 
L 420.392299 268.662234 
L 421.123357 269.184287 
L 422.585472 270.87587 
L 423.31653 269.952161 
L 424.047587 271.03758 
L 424.778645 269.470817 
L 425.509702 269.098087 
L 426.24076 270.051134 
L 426.971817 268.475442 
L 428.433933 272.370612 
L 429.16499 273.500435 
L 429.896048 273.274674 
L 430.627105 275.209045 
L 431.358163 273.758527 
L 432.08922 274.650204 
L 432.820278 275.214529 
L 433.551336 277.845838 
L 434.282393 278.81362 
L 435.013451 278.437979 
L 435.744508 279.64397 
L 436.475566 278.22107 
L 437.206623 279.261534 
L 437.937681 280.81655 
L 438.668739 282.038383 
L 439.399796 282.18566 
L 440.130854 277.627529 
L 441.592969 279.668834 
L 442.324026 277.973656 
L 443.055084 279.518635 
L 443.786142 280.512692 
L 444.517199 279.836614 
L 445.248257 280.804562 
L 445.979314 282.343249 
L 446.710372 283.199061 
L 447.44143 281.890681 
L 448.172487 280.306108 
L 448.903545 280.053914 
L 449.634602 280.434724 
L 450.36566 281.273089 
L 451.096717 278.281563 
L 451.827775 279.593289 
L 452.558833 278.864085 
L 454.020948 280.92802 
L 454.752005 281.807767 
L 455.483063 282.314541 
L 456.21412 282.494928 
L 456.945178 284.155105 
L 457.676236 286.780218 
L 458.407293 288.083347 
L 459.138351 286.796131 
L 459.869408 287.782231 
L 460.600466 284.338981 
L 461.331523 284.784828 
L 462.062581 285.428111 
L 462.793639 284.142731 
L 463.524696 285.128095 
L 464.255754 281.716124 
L 464.986811 281.345072 
L 465.717869 280.379969 
L 466.448926 282.034488 
L 467.179984 283.119783 
L 467.911042 282.896087 
L 468.642099 284.736999 
L 469.373157 284.421946 
L 470.104214 283.488162 
L 470.835272 281.330519 
L 471.566329 280.760114 
L 472.297387 281.09688 
L 473.028445 282.181953 
L 473.759502 282.201917 
L 475.221617 278.842984 
L 475.952675 274.846816 
L 476.683732 272.929373 
L 477.41479 273.594458 
L 478.145848 269.933852 
L 478.876905 270.577284 
L 479.607963 269.900185 
L 480.33902 270.032875 
L 481.070078 271.82942 
L 482.532193 274.029826 
L 483.263251 271.635725 
L 484.725366 270.630772 
L 485.456423 271.696961 
L 486.187481 270.722062 
L 486.918538 269.152247 
L 487.649596 270.428138 
L 488.380654 270.610044 
L 489.111711 266.576036 
L 491.304884 268.521679 
L 492.035941 268.380703 
L 492.766999 266.439102 
L 493.498057 266.676478 
L 494.229114 267.276409 
L 494.960172 266.692263 
L 495.691229 267.093296 
L 496.422287 265.195605 
L 497.153344 264.954845 
L 497.884402 266.23266 
L 498.61546 266.755815 
L 499.346517 266.339963 
L 500.808632 268.023234 
L 501.53969 268.331741 
L 502.270748 267.994947 
L 503.001805 268.966431 
L 504.46392 271.712487 
L 505.926035 273.67851 
L 506.657093 271.603881 
L 507.388151 270.337159 
L 508.119208 271.919359 
L 508.850266 271.473589 
L 510.312381 268.748451 
L 511.043438 269.0684 
L 511.774496 267.141945 
L 512.505554 267.491305 
L 513.236611 266.286154 
L 513.967669 266.567351 
L 514.698726 266.064976 
L 515.429784 267.125834 
L 516.160841 264.946714 
L 516.891899 266.105191 
L 517.622957 265.936385 
L 518.354014 266.422866 
L 519.085072 264.802673 
L 521.278244 267.26844 
L 522.74036 266.843596 
L 523.471417 267.545547 
L 524.202475 268.003675 
L 524.933532 268.297782 
L 525.66459 269.630708 
L 526.395647 269.898787 
L 527.126705 269.066124 
L 527.857763 269.452639 
L 528.58882 270.222712 
L 529.319878 266.630468 
L 530.050935 266.904924 
L 530.781993 264.0964 
L 531.51305 263.156454 
L 532.244108 264.362325 
L 532.975166 261.636901 
L 533.706223 261.908837 
L 534.437281 262.596298 
L 535.168338 262.10895 
L 535.899396 261.110935 
L 536.630453 261.816149 
L 537.361511 263.734649 
L 539.554684 262.997976 
L 540.285741 263.072751 
L 541.016799 263.282258 
L 541.747856 264.275519 
L 542.478914 264.644226 
L 543.209972 264.539471 
L 543.941029 264.631339 
L 544.672087 264.960387 
L 545.403144 265.808168 
L 546.134202 264.563833 
L 546.865259 263.693631 
L 547.596317 264.381673 
L 549.058432 263.812447 
L 549.78949 264.232867 
L 550.520547 265.10083 
L 551.251605 264.268671 
L 551.982662 262.906753 
L 552.71372 263.005986 
L 553.444778 263.846576 
L 554.175835 263.555242 
L 554.906893 262.924822 
L 555.63795 261.929312 
L 556.369008 261.498893 
L 557.100066 263.188473 
L 557.831123 261.422749 
L 558.562181 259.967874 
L 559.293238 260.158297 
L 560.024296 261.412658 
L 560.755353 262.347697 
L 562.217469 261.583231 
L 562.948526 258.617941 
L 563.679584 257.458806 
L 564.410641 257.317008 
L 565.872756 260.373948 
L 566.603814 259.261168 
L 567.334872 258.494975 
L 568.065929 257.965349 
L 568.796987 258.574053 
L 569.528044 257.664492 
L 570.259102 257.708702 
L 570.990159 257.111641 
L 571.721217 255.792581 
L 572.452275 255.926105 
L 573.183332 256.966997 
L 573.91439 254.528388 
L 574.645447 253.068353 
L 576.107562 255.168655 
L 576.83862 255.16389 
L 577.569678 255.52451 
L 578.300735 252.971537 
L 579.031793 253.316905 
L 580.493908 255.255131 
L 581.224965 254.644651 
L 581.956023 254.368931 
L 582.687081 254.681674 
L 583.418138 254.120943 
L 584.149196 253.923553 
L 584.880253 254.560307 
L 585.611311 254.59717 
L 586.342368 255.337211 
L 587.073426 255.868575 
L 587.804484 255.264091 
L 588.535541 254.00583 
L 589.266599 253.062037 
L 589.997656 253.915452 
L 590.728714 253.691288 
L 591.459771 254.960732 
L 592.190829 255.153831 
L 592.921887 254.030515 
L 593.652944 254.827814 
L 594.384002 253.976053 
L 595.115059 254.073239 
L 595.846117 254.797165 
L 597.308232 253.389703 
L 598.03929 253.531002 
L 598.770347 253.430726 
L 599.501405 253.572258 
L 600.232462 253.956472 
L 600.96352 255.160473 
L 601.694577 254.065085 
L 603.156693 255.162485 
L 603.88775 255.285011 
L 604.618808 255.88704 
L 605.349865 255.739854 
L 606.080923 255.330076 
L 606.81198 254.661471 
L 607.543038 254.930741 
L 608.274096 254.654194 
L 609.736211 255.928224 
L 610.467268 255.609655 
L 611.198326 255.519452 
L 611.929384 255.249197 
L 612.660441 254.826067 
L 613.391499 254.9854 
L 614.853614 255.628027 
L 616.315729 252.056423 
L 617.046787 251.000041 
L 617.777844 250.759636 
L 619.239959 251.332792 
L 620.702074 253.567693 
L 621.433132 253.043604 
L 622.16419 251.325185 
L 622.895247 251.189596 
L 623.626305 251.725897 
L 624.357362 250.468215 
L 625.08842 250.153206 
L 625.819477 250.406264 
L 626.550535 249.526221 
L 627.281593 250.201577 
L 628.01265 251.469757 
L 628.743708 251.068274 
L 629.474765 251.013373 
L 630.205823 252.300763 
L 630.93688 252.063771 
L 631.667938 252.340363 
L 632.398996 252.460299 
L 633.130053 252.12377 
L 633.861111 252.116853 
L 634.592168 250.790123 
L 635.323226 250.98219 
L 636.054283 251.751248 
L 636.785341 251.986995 
L 637.516399 253.001368 
L 638.247456 251.420029 
L 638.978514 250.406708 
L 639.709571 251.322939 
L 640.440629 250.784763 
L 641.171686 251.788909 
L 641.902744 252.175818 
L 643.364859 253.634451 
L 644.095917 253.877673 
L 644.826974 254.585049 
L 645.558032 255.669833 
L 646.289089 256.286094 
L 647.020147 255.715613 
L 647.751205 257.007265 
L 648.482262 257.729786 
L 649.21332 256.713913 
L 649.944377 256.668765 
L 650.675435 256.904675 
L 651.406492 256.36543 
L 652.868608 255.915894 
L 653.599665 256.768735 
L 654.330723 257.176344 
L 655.06178 257.895604 
L 655.792838 257.740437 
L 656.523895 256.857595 
L 657.986011 257.7748 
L 659.448126 257.71915 
L 660.179183 257.68522 
L 660.910241 256.732013 
L 661.641298 256.426005 
L 663.103414 256.992271 
L 663.834471 256.304557 
L 664.565529 255.042027 
L 665.296586 254.551011 
L 666.027644 254.809133 
L 666.758702 254.092473 
L 667.489759 254.057182 
L 668.220817 253.767658 
L 668.951874 254.032011 
L 669.682932 253.862327 
L 670.413989 254.24758 
L 671.876105 255.680556 
L 672.607162 255.903855 
L 673.33822 256.644506 
L 674.069277 256.446117 
L 674.800335 255.92538 
L 675.531392 253.945119 
L 676.26245 254.981478 
L 676.993508 255.452449 
L 677.724565 254.25782 
L 678.455623 254.653741 
L 679.18668 254.671118 
L 681.379853 257.445093 
L 682.110911 258.016825 
L 682.841968 258.887945 
L 683.573026 258.829288 
L 684.304083 259.11941 
L 685.035141 258.420468 
L 685.766198 258.705648 
L 686.497256 258.51604 
L 687.228314 258.865473 
L 687.959371 260.075736 
L 688.690429 257.679503 
L 689.421486 258.04068 
L 690.152544 258.164071 
L 690.883601 258.914382 
L 691.614659 258.693024 
L 692.345717 258.741569 
L 693.076774 259.061386 
L 693.807832 258.464264 
L 694.538889 258.820474 
L 695.269947 259.814346 
L 696.001004 258.877676 
L 697.46312 260.362062 
L 698.194177 259.71593 
L 698.925235 258.389241 
L 699.656292 258.441455 
L 700.38735 258.769551 
L 701.118407 258.586232 
L 701.849465 259.954006 
L 702.580523 259.422157 
L 703.31158 259.34005 
L 704.773695 260.40811 
L 706.23581 260.04826 
L 706.966868 258.820251 
L 707.697926 259.158504 
L 708.428983 258.507367 
L 709.160041 259.557521 
L 709.891098 259.818513 
L 710.622156 260.614828 
L 711.353213 260.499738 
L 712.084271 259.703944 
L 712.815329 258.376206 
L 713.546386 258.821676 
L 714.277444 257.45551 
L 715.008501 258.789486 
L 715.739559 258.439416 
L 716.470616 258.88047 
L 717.201674 259.039982 
L 717.932732 258.732986 
L 718.663789 259.112502 
L 719.394847 260.063277 
L 720.125904 260.712905 
L 720.856962 261.57574 
L 723.050135 262.547812 
L 723.781192 262.197872 
L 724.51225 262.423578 
L 725.243307 263.484027 
L 725.974365 263.498353 
L 726.705423 263.902627 
L 727.43648 263.345947 
L 728.898595 260.505739 
L 729.629653 260.512 
L 730.36071 259.684764 
L 731.091768 259.196298 
L 731.822826 258.532266 
L 732.553883 257.388605 
L 733.284941 258.010338 
L 734.015998 257.631229 
L 734.747056 258.010752 
L 736.209171 259.947933 
L 736.940229 260.601399 
L 737.671286 259.760718 
L 738.402344 259.756793 
L 739.133401 260.182339 
L 739.864459 260.250051 
L 740.595516 260.825241 
L 741.326574 261.855961 
L 742.057632 261.758344 
L 742.788689 259.829656 
L 743.519747 258.740757 
L 745.712919 259.412303 
L 747.175035 257.93867 
L 747.906092 258.087723 
L 749.368207 257.472078 
L 750.099265 257.967381 
L 750.830322 257.915256 
L 751.56138 256.089834 
L 752.292438 255.573408 
L 753.023495 255.274866 
L 753.754553 255.406594 
L 754.48561 255.180596 
L 755.216668 255.153788 
L 755.947725 255.861502 
L 756.678783 255.812284 
L 757.409841 254.753515 
L 758.140898 255.106566 
L 758.871956 255.120241 
L 759.603013 255.518555 
L 761.065128 255.57652 
L 761.796186 256.057574 
L 762.527244 256.302823 
L 763.258301 257.400839 
L 763.989359 258.239627 
L 764.720416 258.024696 
L 766.913589 258.281767 
L 767.644647 258.03232 
L 768.375704 257.469988 
L 769.106762 257.919038 
L 769.837819 257.492753 
L 770.568877 256.46331 
L 771.299934 256.976422 
L 772.030992 257.73718 
L 772.76205 258.268766 
L 774.224165 257.698561 
L 774.955222 257.923823 
L 776.417338 256.898199 
L 777.148395 257.07478 
L 777.879453 255.322898 
L 778.61051 255.715215 
L 779.341568 255.863029 
L 780.803683 256.750157 
L 781.534741 257.032739 
L 782.265798 257.642419 
L 782.996856 256.818122 
L 783.727913 256.198285 
L 784.458971 256.297944 
L 785.190028 256.263882 
L 785.921086 256.118271 
L 786.652144 255.478636 
L 787.383201 256.010929 
L 788.114259 255.145533 
L 788.845316 253.713041 
L 789.576374 253.05618 
L 791.038489 253.16155 
L 791.769547 252.086097 
L 792.500604 252.513801 
L 793.231662 252.235771 
L 793.962719 252.802311 
L 794.693777 253.087011 
L 795.424834 253.065192 
L 796.155892 253.785276 
L 796.88695 254.7075 
L 797.618007 254.073342 
L 798.349065 253.792925 
L 799.080122 254.522862 
L 799.81118 255.438567 
L 800.542237 255.586967 
L 801.273295 255.606433 
L 802.004353 256.378778 
L 802.73541 256.91226 
L 803.466468 256.586696 
L 804.197525 257.290624 
L 804.928583 255.832155 
L 805.65964 255.997887 
L 807.852813 254.790844 
L 808.583871 253.893096 
L 809.314928 254.55112 
L 810.045986 254.630422 
L 810.777043 255.52973 
L 811.508101 255.910576 
L 812.239159 255.791137 
L 812.970216 256.304504 
L 813.701274 257.218991 
L 814.432331 257.511709 
L 815.163389 258.242499 
L 815.894446 259.287395 
L 816.625504 259.839887 
L 817.356562 259.484645 
L 818.087619 258.885957 
L 818.818677 258.434844 
L 819.549734 258.80941 
L 820.280792 259.397543 
L 821.742907 259.873486 
L 822.473965 259.13679 
L 823.205022 257.944533 
L 823.93608 257.50213 
L 824.667137 256.355731 
L 825.398195 256.123723 
L 826.129252 256.932677 
L 826.86031 256.430732 
L 827.591368 255.455374 
L 828.322425 255.871127 
L 829.053483 255.219322 
L 829.78454 256.025906 
L 830.515598 256.477395 
L 831.246656 256.035805 
L 831.977713 256.474028 
L 832.708771 257.268738 
L 833.439828 257.070313 
L 834.170886 257.264758 
L 834.901943 256.558473 
L 835.633001 257.333262 
L 836.364059 256.192905 
L 837.095116 255.982784 
L 837.826174 254.955063 
L 838.557231 255.639808 
L 839.288289 255.940393 
L 840.019346 256.018307 
L 841.481462 255.726619 
L 842.212519 255.926172 
L 842.943577 256.475607 
L 843.674634 256.295789 
L 844.405692 256.357326 
L 845.136749 255.959486 
L 845.867807 256.150744 
L 846.598865 256.739209 
L 847.329922 256.529902 
L 848.06098 254.873899 
L 848.792037 255.339052 
L 849.523095 256.030644 
L 850.254152 256.081429 
L 850.98521 255.359286 
L 852.447325 255.624315 
L 853.178383 255.496907 
L 853.90944 255.627467 
L 854.640498 256.043307 
L 855.371555 255.961166 
L 856.833671 254.85332 
L 857.564728 255.706821 
L 859.026843 255.525984 
L 859.757901 255.716295 
L 861.220016 255.64473 
L 862.682131 254.763651 
L 863.413189 254.654217 
L 864.144246 254.871591 
L 864.875304 254.742258 
L 865.606361 254.895901 
L 866.337419 254.292185 
L 867.068477 254.276616 
L 867.799534 253.619423 
L 868.530592 254.024702 
L 869.261649 254.22405 
L 869.992707 254.984263 
L 872.18588 254.901536 
L 872.916937 254.530589 
L 874.379052 254.519867 
L 875.11011 254.827323 
L 875.841167 254.801036 
L 876.572225 254.456997 
L 877.303283 255.083425 
L 878.03434 254.842249 
L 878.765398 254.757685 
L 879.496455 255.100547 
L 880.227513 255.310214 
L 880.95857 254.784182 
L 881.689628 255.287266 
L 882.420686 256.031047 
L 883.151743 256.468485 
L 883.882801 256.032576 
L 884.613858 256.353406 
L 885.344916 256.537984 
L 886.807031 258.188887 
L 887.538089 257.93405 
L 888.269146 258.390267 
L 889.000204 258.573076 
L 889.731261 258.303676 
L 890.462319 258.854955 
L 891.193377 258.339754 
L 891.924434 258.29326 
L 892.655492 258.491539 
L 893.386549 259.275884 
L 894.117607 258.911091 
L 894.848664 258.809839 
L 895.579722 259.006529 
L 896.31078 258.376336 
L 897.041837 258.94739 
L 898.503952 258.774885 
L 899.23501 259.079372 
L 901.428183 257.694318 
L 902.15924 258.15842 
L 902.890298 258.11387 
L 903.621355 257.848636 
L 904.352413 258.38855 
L 905.08347 258.652332 
L 905.814528 257.744907 
L 906.545586 258.202218 
L 907.276643 257.623121 
L 908.007701 257.734216 
L 908.738758 257.578598 
L 909.469816 256.619282 
L 910.200873 257.273773 
L 910.931931 257.060886 
L 911.662989 256.335255 
L 912.394046 257.160401 
L 913.856161 258.226905 
L 914.587219 257.585098 
L 915.318276 257.911755 
L 916.049334 257.896767 
L 916.780392 258.055489 
L 917.511449 257.053038 
L 918.242507 257.814643 
L 918.973564 258.281019 
L 919.704622 257.914161 
L 920.435679 257.972807 
L 921.166737 257.814869 
L 921.897795 257.922769 
L 922.628852 258.255252 
L 924.090967 256.19696 
L 924.822025 255.918593 
L 925.553082 255.38952 
L 926.28414 255.73725 
L 927.015198 255.278778 
L 927.746255 255.021543 
L 928.477313 255.09648 
L 929.939428 254.766553 
L 931.401543 255.048937 
L 932.132601 255.513935 
L 932.863658 254.972752 
L 933.594716 254.866343 
L 935.056831 255.685771 
L 935.787888 255.70057 
L 936.518946 254.582301 
L 937.250004 255.137314 
L 937.981061 255.272509 
L 938.712119 255.638988 
L 940.905292 256.03997 
L 942.367407 256.430665 
L 943.098464 255.97803 
L 943.829522 255.124261 
L 944.560579 255.083049 
L 945.291637 254.760238 
L 946.022695 255.073752 
L 946.753752 254.910103 
L 947.48481 255.281344 
L 948.215867 254.720114 
L 948.946925 255.562373 
L 949.677982 255.427551 
L 950.40904 254.800342 
L 951.871155 254.189006 
L 952.602213 253.018894 
L 953.33327 253.473368 
L 954.064328 253.791717 
L 954.795385 253.46031 
L 955.526443 253.791522 
L 956.257501 253.721689 
L 956.988558 254.067267 
L 957.719616 253.914488 
L 958.450673 254.086975 
L 959.181731 254.663927 
L 959.912788 254.950627 
L 960.643846 254.757842 
L 961.374904 254.793252 
L 962.105961 254.574212 
L 962.837019 255.237207 
L 963.568076 255.630943 
L 964.299134 255.832269 
L 965.030191 256.31224 
L 965.761249 256.107341 
L 966.492307 255.394961 
L 967.223364 254.524922 
L 967.954422 254.621875 
L 968.685479 254.434347 
L 969.416537 253.82161 
L 970.147594 254.141332 
L 970.878652 254.996169 
L 971.60971 254.945743 
L 972.340767 255.265724 
L 973.071825 255.09378 
L 973.802882 255.213614 
L 974.53394 254.999393 
L 975.264997 254.331096 
L 976.727113 255.276426 
L 978.189228 255.368603 
L 978.920285 254.856694 
L 979.651343 255.404583 
L 980.3824 255.576107 
L 981.113458 256.15476 
L 981.844516 256.456557 
L 982.575573 257.33131 
L 983.306631 256.952945 
L 984.768746 257.209386 
L 985.499803 257.031271 
L 986.230861 257.125493 
L 986.961919 257.639178 
L 987.692976 257.850233 
L 988.424034 258.311326 
L 989.155091 257.803364 
L 989.886149 258.213549 
L 990.617206 256.185889 
L 992.079322 256.113402 
L 992.810379 256.657209 
L 993.541437 255.729531 
L 995.003552 255.370389 
L 995.73461 254.666044 
L 996.465667 254.7144 
L 997.927782 253.585029 
L 998.65884 253.553404 
L 1000.852013 252.669018 
L 1001.58307 252.847871 
L 1002.314128 252.899295 
L 1003.045185 252.524392 
L 1003.776243 252.750937 
L 1005.238358 252.804047 
L 1005.969416 252.945402 
L 1006.700473 253.355607 
L 1008.162588 253.337972 
L 1008.893646 253.531147 
L 1010.355761 254.616002 
L 1011.086819 254.965898 
L 1011.817876 254.389065 
L 1012.548934 254.661015 
L 1013.279991 254.366957 
L 1014.011049 254.260761 
L 1014.742106 253.699951 
L 1016.204222 253.907561 
L 1017.666337 254.548172 
L 1018.397394 253.423774 
L 1019.128452 253.140249 
L 1019.859509 253.65912 
L 1021.321625 253.664918 
L 1022.052682 253.920566 
L 1022.78374 254.503474 
L 1023.514797 254.797373 
L 1024.245855 254.945555 
L 1024.976912 255.545462 
L 1025.70797 255.623917 
L 1026.439028 255.583775 
L 1027.170085 256.065856 
L 1027.901143 256.314283 
L 1029.363258 256.461585 
L 1030.094315 256.340066 
L 1030.825373 256.695773 
L 1031.556431 257.518355 
L 1032.287488 257.941727 
L 1033.018546 257.800404 
L 1033.749603 258.030433 
L 1034.480661 257.97452 
L 1035.211718 257.805694 
L 1035.942776 258.29044 
L 1037.404891 256.361512 
L 1038.135949 256.408287 
L 1038.867006 256.027816 
L 1039.598064 256.316046 
L 1040.329121 255.575004 
L 1041.060179 255.414051 
L 1041.791237 255.98189 
L 1042.522294 256.69667 
L 1043.253352 256.444606 
L 1043.984409 257.060076 
L 1044.715467 257.409486 
L 1046.90864 258.039938 
L 1047.639697 257.036883 
L 1048.370755 256.259131 
L 1049.101812 256.412088 
L 1049.83287 255.819519 
L 1051.294985 256.543427 
L 1052.026043 256.7089 
L 1052.7571 256.607935 
L 1053.488158 256.861266 
L 1054.219215 256.739636 
L 1054.950273 256.36081 
L 1055.681331 256.531138 
L 1056.412388 257.202679 
L 1057.143446 257.223159 
L 1057.874503 256.696419 
L 1058.605561 256.782569 
L 1059.336618 257.252259 
L 1060.067676 256.96176 
L 1060.798734 257.139514 
L 1061.529791 256.886194 
L 1062.260849 257.473438 
L 1062.991906 257.325204 
L 1063.722964 257.624657 
L 1066.647194 257.651463 
L 1067.378252 257.965154 
L 1068.109309 258.432801 
L 1069.571424 258.612417 
L 1070.302482 258.271441 
L 1071.03354 258.879321 
L 1072.495655 259.414056 
L 1074.688827 259.791865 
L 1075.419885 258.596654 
L 1076.150943 258.616645 
L 1077.613058 259.075667 
L 1078.344115 258.84747 
L 1079.80623 259.487336 
L 1080.537288 258.562418 
L 1081.999403 258.372885 
L 1082.730461 258.598247 
L 1084.192576 258.75531 
L 1084.923633 258.591875 
L 1085.654691 257.816406 
L 1086.385749 258.32157 
L 1087.116806 258.119593 
L 1087.847864 257.66932 
L 1088.578921 257.989526 
L 1089.309979 257.297091 
L 1090.041036 257.070356 
L 1090.772094 256.27896 
L 1091.503152 256.589926 
L 1092.234209 256.291697 
L 1092.965267 255.590966 
L 1093.696324 255.983988 
L 1095.158439 255.409415 
L 1096.620555 255.636491 
L 1097.351612 255.584159 
L 1098.08267 254.851352 
L 1098.813727 254.941841 
L 1099.544785 254.606438 
L 1100.275842 254.836055 
L 1101.0069 254.688607 
L 1101.737958 255.247463 
L 1102.469015 255.001316 
L 1103.200073 254.480096 
L 1103.93113 254.627529 
L 1104.662188 254.91318 
L 1105.393246 254.091002 
L 1106.124303 253.965181 
L 1106.855361 254.721155 
L 1107.586418 254.400153 
L 1108.317476 254.686467 
L 1109.779591 254.385901 
L 1110.510649 253.841569 
L 1111.241706 252.212391 
L 1111.972764 251.388679 
L 1112.703821 252.018201 
L 1113.434879 252.417637 
L 1114.165936 252.450054 
L 1115.628052 252.143922 
L 1116.359109 251.86346 
L 1117.090167 252.582803 
L 1117.821224 252.745113 
L 1118.552282 252.639655 
L 1119.283339 251.776847 
L 1120.014397 251.880477 
L 1120.745455 251.858987 
L 1120.745455 251.858987 
" clip-path="url(#p65436dd47e)" style="fill: none; stroke: #008000; stroke-width: 1.5; stroke-linecap: square"/>
   </g>
   <g id="line2d_39">
    <path d="M 162 554.04 
L 1166.4 554.04 
" clip-path="url(#p65436dd47e)" style="fill: none; stroke-dasharray: 1.5,2.475; stroke-dashoffset: 0; stroke: #0000ff; stroke-width: 1.5"/>
   </g>
   <g id="patch_3">
    <path d="M 162 576.72 
L 162 77.76 
" style="fill: none; stroke: #808080; stroke-width: 0.8; stroke-linejoin: miter; stroke-linecap: square"/>
   </g>
   <g id="patch_4">
    <path d="M 1166.4 576.72 
L 1166.4 77.76 
" style="fill: none; stroke: #808080; stroke-width: 0.8; stroke-linejoin: miter; stroke-linecap: square"/>
   </g>
   <g id="patch_5">
    <path d="M 162 576.72 
L 1166.4 576.72 
" style="fill: none; stroke: #808080; stroke-width: 0.8; stroke-linejoin: miter; stroke-linecap: square"/>
   </g>
   <g id="patch_6">
    <path d="M 162 77.76 
L 1166.4 77.76 
" style="fill: none; stroke: #808080; stroke-width: 0.8; stroke-linejoin: miter; stroke-linecap: square"/>
   </g>
   <g id="text_34">
    <!-- (Andamento di $p_{loss}$ in funzione del numero di batch) -->
    <g transform="translate(400.3 71.76) scale(0.2 -0.2)">
     <defs>
      <path id="DejaVuSans-28" d="M 1984 4856 
Q 1566 4138 1362 3434 
Q 1159 2731 1159 2009 
Q 1159 1288 1364 580 
Q 1569 -128 1984 -844 
L 1484 -844 
Q 1016 -109 783 600 
Q 550 1309 550 2009 
Q 550 2706 781 3412 
Q 1013 4119 1484 4856 
L 1984 4856 
z
" transform="scale(0.015625)"/>
      <path id="DejaVuSans-41" d="M 2188 4044 
L 1331 1722 
L 3047 1722 
L 2188 4044 
z
M 1831 4666 
L 2547 4666 
L 4325 0 
L 3669 0 
L 3244 1197 
L 1141 1197 
L 716 0 
L 50 0 
L 1831 4666 
z
" transform="scale(0.015625)"/>
      <path id="DejaVuSans-6e" d="M 3513 2113 
L 3513 0 
L 2938 0 
L 2938 2094 
Q 2938 2591 2744 2837 
Q 2550 3084 2163 3084 
Q 1697 3084 1428 2787 
Q 1159 2491 1159 1978 
L 1159 0 
L 581 0 
L 581 3500 
L 1159 3500 
L 1159 2956 
Q 1366 3272 1645 3428 
Q 1925 3584 2291 3584 
Q 2894 3584 3203 3211 
Q 3513 2838 3513 2113 
z
" transform="scale(0.015625)"/>
      <path id="DejaVuSans-64" d="M 2906 2969 
L 2906 4863 
L 3481 4863 
L 3481 0 
L 2906 0 
L 2906 525 
Q 2725 213 2448 61 
Q 2172 -91 1784 -91 
Q 1150 -91 751 415 
Q 353 922 353 1747 
Q 353 2572 751 3078 
Q 1150 3584 1784 3584 
Q 2172 3584 2448 3432 
Q 2725 3281 2906 2969 
z
M 947 1747 
Q 947 1113 1208 752 
Q 1469 391 1925 391 
Q 2381 391 2643 752 
Q 2906 1113 2906 1747 
Q 2906 2381 2643 2742 
Q 2381 3103 1925 3103 
Q 1469 3103 1208 2742 
Q 947 2381 947 1747 
z
" transform="scale(0.015625)"/>
      <path id="DejaVuSans-61" d="M 2194 1759 
Q 1497 1759 1228 1600 
Q 959 1441 959 1056 
Q 959 750 1161 570 
Q 1363 391 1709 391 
Q 2188 391 2477 730 
Q 2766 1069 2766 1631 
L 2766 1759 
L 2194 1759 
z
M 3341 1997 
L 3341 0 
L 2766 0 
L 2766 531 
Q 2569 213 2275 61 
Q 1981 -91 1556 -91 
Q 1019 -91 701 211 
Q 384 513 384 1019 
Q 384 1609 779 1909 
Q 1175 2209 1959 2209 
L 2766 2209 
L 2766 2266 
Q 2766 2663 2505 2880 
Q 2244 3097 1772 3097 
Q 1472 3097 1187 3025 
Q 903 2953 641 2809 
L 641 3341 
Q 956 3463 1253 3523 
Q 1550 3584 1831 3584 
Q 2591 3584 2966 3190 
Q 3341 2797 3341 1997 
z
" transform="scale(0.015625)"/>
      <path id="DejaVuSans-6d" d="M 3328 2828 
Q 3544 3216 3844 3400 
Q 4144 3584 4550 3584 
Q 5097 3584 5394 3201 
Q 5691 2819 5691 2113 
L 5691 0 
L 5113 0 
L 5113 2094 
Q 5113 2597 4934 2840 
Q 4756 3084 4391 3084 
Q 3944 3084 3684 2787 
Q 3425 2491 3425 1978 
L 3425 0 
L 2847 0 
L 2847 2094 
Q 2847 2600 2669 2842 
Q 2491 3084 2119 3084 
Q 1678 3084 1418 2786 
Q 1159 2488 1159 1978 
L 1159 0 
L 581 0 
L 581 3500 
L 1159 3500 
L 1159 2956 
Q 1356 3278 1631 3431 
Q 1906 3584 2284 3584 
Q 2666 3584 2933 3390 
Q 3200 3197 3328 2828 
z
" transform="scale(0.015625)"/>
      <path id="DejaVuSans-65" d="M 3597 1894 
L 3597 1613 
L 953 1613 
Q 991 1019 1311 708 
Q 1631 397 2203 397 
Q 2534 397 2845 478 
Q 3156 559 3463 722 
L 3463 178 
Q 3153 47 2828 -22 
Q 2503 -91 2169 -91 
Q 1331 -91 842 396 
Q 353 884 353 1716 
Q 353 2575 817 3079 
Q 1281 3584 2069 3584 
Q 2775 3584 3186 3129 
Q 3597 2675 3597 1894 
z
M 3022 2063 
Q 3016 2534 2758 2815 
Q 2500 3097 2075 3097 
Q 1594 3097 1305 2825 
Q 1016 2553 972 2059 
L 3022 2063 
z
" transform="scale(0.015625)"/>
      <path id="DejaVuSans-74" d="M 1172 4494 
L 1172 3500 
L 2356 3500 
L 2356 3053 
L 1172 3053 
L 1172 1153 
Q 1172 725 1289 603 
Q 1406 481 1766 481 
L 2356 481 
L 2356 0 
L 1766 0 
Q 1100 0 847 248 
Q 594 497 594 1153 
L 594 3053 
L 172 3053 
L 172 3500 
L 594 3500 
L 594 4494 
L 1172 4494 
z
" transform="scale(0.015625)"/>
      <path id="DejaVuSans-6f" d="M 1959 3097 
Q 1497 3097 1228 2736 
Q 959 2375 959 1747 
Q 959 1119 1226 758 
Q 1494 397 1959 397 
Q 2419 397 2687 759 
Q 2956 1122 2956 1747 
Q 2956 2369 2687 2733 
Q 2419 3097 1959 3097 
z
M 1959 3584 
Q 2709 3584 3137 3096 
Q 3566 2609 3566 1747 
Q 3566 888 3137 398 
Q 2709 -91 1959 -91 
Q 1206 -91 779 398 
Q 353 888 353 1747 
Q 353 2609 779 3096 
Q 1206 3584 1959 3584 
z
" transform="scale(0.015625)"/>
      <path id="DejaVuSans-20" transform="scale(0.015625)"/>
      <path id="DejaVuSans-69" d="M 603 3500 
L 1178 3500 
L 1178 0 
L 603 0 
L 603 3500 
z
M 603 4863 
L 1178 4863 
L 1178 4134 
L 603 4134 
L 603 4863 
z
" transform="scale(0.015625)"/>
      <path id="DejaVuSans-66" d="M 2375 4863 
L 2375 4384 
L 1825 4384 
Q 1516 4384 1395 4259 
Q 1275 4134 1275 3809 
L 1275 3500 
L 2222 3500 
L 2222 3053 
L 1275 3053 
L 1275 0 
L 697 0 
L 697 3053 
L 147 3053 
L 147 3500 
L 697 3500 
L 697 3744 
Q 697 4328 969 4595 
Q 1241 4863 1831 4863 
L 2375 4863 
z
" transform="scale(0.015625)"/>
      <path id="DejaVuSans-75" d="M 544 1381 
L 544 3500 
L 1119 3500 
L 1119 1403 
Q 1119 906 1312 657 
Q 1506 409 1894 409 
Q 2359 409 2629 706 
Q 2900 1003 2900 1516 
L 2900 3500 
L 3475 3500 
L 3475 0 
L 2900 0 
L 2900 538 
Q 2691 219 2414 64 
Q 2138 -91 1772 -91 
Q 1169 -91 856 284 
Q 544 659 544 1381 
z
M 1991 3584 
L 1991 3584 
z
" transform="scale(0.015625)"/>
      <path id="DejaVuSans-7a" d="M 353 3500 
L 3084 3500 
L 3084 2975 
L 922 459 
L 3084 459 
L 3084 0 
L 275 0 
L 275 525 
L 2438 3041 
L 353 3041 
L 353 3500 
z
" transform="scale(0.015625)"/>
      <path id="DejaVuSans-6c" d="M 603 4863 
L 1178 4863 
L 1178 0 
L 603 0 
L 603 4863 
z
" transform="scale(0.015625)"/>
      <path id="DejaVuSans-72" d="M 2631 2963 
Q 2534 3019 2420 3045 
Q 2306 3072 2169 3072 
Q 1681 3072 1420 2755 
Q 1159 2438 1159 1844 
L 1159 0 
L 581 0 
L 581 3500 
L 1159 3500 
L 1159 2956 
Q 1341 3275 1631 3429 
Q 1922 3584 2338 3584 
Q 2397 3584 2469 3576 
Q 2541 3569 2628 3553 
L 2631 2963 
z
" transform="scale(0.015625)"/>
      <path id="DejaVuSans-62" d="M 3116 1747 
Q 3116 2381 2855 2742 
Q 2594 3103 2138 3103 
Q 1681 3103 1420 2742 
Q 1159 2381 1159 1747 
Q 1159 1113 1420 752 
Q 1681 391 2138 391 
Q 2594 391 2855 752 
Q 3116 1113 3116 1747 
z
M 1159 2969 
Q 1341 3281 1617 3432 
Q 1894 3584 2278 3584 
Q 2916 3584 3314 3078 
Q 3713 2572 3713 1747 
Q 3713 922 3314 415 
Q 2916 -91 2278 -91 
Q 1894 -91 1617 61 
Q 1341 213 1159 525 
L 1159 0 
L 581 0 
L 581 4863 
L 1159 4863 
L 1159 2969 
z
" transform="scale(0.015625)"/>
      <path id="DejaVuSans-63" d="M 3122 3366 
L 3122 2828 
Q 2878 2963 2633 3030 
Q 2388 3097 2138 3097 
Q 1578 3097 1268 2742 
Q 959 2388 959 1747 
Q 959 1106 1268 751 
Q 1578 397 2138 397 
Q 2388 397 2633 464 
Q 2878 531 3122 666 
L 3122 134 
Q 2881 22 2623 -34 
Q 2366 -91 2075 -91 
Q 1284 -91 818 406 
Q 353 903 353 1747 
Q 353 2603 823 3093 
Q 1294 3584 2113 3584 
Q 2378 3584 2631 3529 
Q 2884 3475 3122 3366 
z
" transform="scale(0.015625)"/>
      <path id="DejaVuSans-68" d="M 3513 2113 
L 3513 0 
L 2938 0 
L 2938 2094 
Q 2938 2591 2744 2837 
Q 2550 3084 2163 3084 
Q 1697 3084 1428 2787 
Q 1159 2491 1159 1978 
L 1159 0 
L 581 0 
L 581 4863 
L 1159 4863 
L 1159 2956 
Q 1366 3272 1645 3428 
Q 1925 3584 2291 3584 
Q 2894 3584 3203 3211 
Q 3513 2838 3513 2113 
z
" transform="scale(0.015625)"/>
      <path id="DejaVuSans-29" d="M 513 4856 
L 1013 4856 
Q 1481 4119 1714 3412 
Q 1947 2706 1947 2009 
Q 1947 1309 1714 600 
Q 1481 -109 1013 -844 
L 513 -844 
Q 928 -128 1133 580 
Q 1338 1288 1338 2009 
Q 1338 2731 1133 3434 
Q 928 4138 513 4856 
z
" transform="scale(0.015625)"/>
     </defs>
     <use xlink:href="#DejaVuSans-28" transform="translate(0 0.015625)"/>
     <use xlink:href="#DejaVuSans-41" transform="translate(39.013672 0.015625)"/>
     <use xlink:href="#DejaVuSans-6e" transform="translate(107.421875 0.015625)"/>
     <use xlink:href="#DejaVuSans-64" transform="translate(170.800781 0.015625)"/>
     <use xlink:href="#DejaVuSans-61" transform="translate(234.277344 0.015625)"/>
     <use xlink:href="#DejaVuSans-6d" transform="translate(295.556641 0.015625)"/>
     <use xlink:href="#DejaVuSans-65" transform="translate(392.96875 0.015625)"/>
     <use xlink:href="#DejaVuSans-6e" transform="translate(454.492188 0.015625)"/>
     <use xlink:href="#DejaVuSans-74" transform="translate(517.871094 0.015625)"/>
     <use xlink:href="#DejaVuSans-6f" transform="translate(557.080078 0.015625)"/>
     <use xlink:href="#DejaVuSans-20" transform="translate(618.261719 0.015625)"/>
     <use xlink:href="#DejaVuSans-64" transform="translate(650.048828 0.015625)"/>
     <use xlink:href="#DejaVuSans-69" transform="translate(713.525391 0.015625)"/>
     <use xlink:href="#DejaVuSans-20" transform="translate(741.308594 0.015625)"/>
     <use xlink:href="#DejaVuSans-Oblique-70" transform="translate(773.095703 0.015625)"/>
     <use xlink:href="#DejaVuSans-Oblique-6c" transform="translate(836.572266 -16.390625) scale(0.7)"/>
     <use xlink:href="#DejaVuSans-Oblique-6f" transform="translate(856.020508 -16.390625) scale(0.7)"/>
     <use xlink:href="#DejaVuSans-Oblique-73" transform="translate(898.847656 -16.390625) scale(0.7)"/>
     <use xlink:href="#DejaVuSans-Oblique-73" transform="translate(935.317383 -16.390625) scale(0.7)"/>
     <use xlink:href="#DejaVuSans-20" transform="translate(974.521484 0.015625)"/>
     <use xlink:href="#DejaVuSans-69" transform="translate(1006.308594 0.015625)"/>
     <use xlink:href="#DejaVuSans-6e" transform="translate(1034.091797 0.015625)"/>
     <use xlink:href="#DejaVuSans-20" transform="translate(1097.470703 0.015625)"/>
     <use xlink:href="#DejaVuSans-66" transform="translate(1129.257812 0.015625)"/>
     <use xlink:href="#DejaVuSans-75" transform="translate(1164.462891 0.015625)"/>
     <use xlink:href="#DejaVuSans-6e" transform="translate(1227.841797 0.015625)"/>
     <use xlink:href="#DejaVuSans-7a" transform="translate(1291.220703 0.015625)"/>
     <use xlink:href="#DejaVuSans-69" transform="translate(1343.710938 0.015625)"/>
     <use xlink:href="#DejaVuSans-6f" transform="translate(1371.494141 0.015625)"/>
     <use xlink:href="#DejaVuSans-6e" transform="translate(1432.675781 0.015625)"/>
     <use xlink:href="#DejaVuSans-65" transform="translate(1496.054688 0.015625)"/>
     <use xlink:href="#DejaVuSans-20" transform="translate(1557.578125 0.015625)"/>
     <use xlink:href="#DejaVuSans-64" transform="translate(1589.365234 0.015625)"/>
     <use xlink:href="#DejaVuSans-65" transform="translate(1652.841797 0.015625)"/>
     <use xlink:href="#DejaVuSans-6c" transform="translate(1714.365234 0.015625)"/>
     <use xlink:href="#DejaVuSans-20" transform="translate(1742.148438 0.015625)"/>
     <use xlink:href="#DejaVuSans-6e" transform="translate(1773.935547 0.015625)"/>
     <use xlink:href="#DejaVuSans-75" transform="translate(1837.314453 0.015625)"/>
     <use xlink:href="#DejaVuSans-6d" transform="translate(1900.693359 0.015625)"/>
     <use xlink:href="#DejaVuSans-65" transform="translate(1998.105469 0.015625)"/>
     <use xlink:href="#DejaVuSans-72" transform="translate(2059.628906 0.015625)"/>
     <use xlink:href="#DejaVuSans-6f" transform="translate(2100.742188 0.015625)"/>
     <use xlink:href="#DejaVuSans-20" transform="translate(2161.923828 0.015625)"/>
     <use xlink:href="#DejaVuSans-64" transform="translate(2193.710938 0.015625)"/>
     <use xlink:href="#DejaVuSans-69" transform="translate(2257.1875 0.015625)"/>
     <use xlink:href="#DejaVuSans-20" transform="translate(2284.970703 0.015625)"/>
     <use xlink:href="#DejaVuSans-62" transform="translate(2316.757812 0.015625)"/>
     <use xlink:href="#DejaVuSans-61" transform="translate(2380.234375 0.015625)"/>
     <use xlink:href="#DejaVuSans-74" transform="translate(2441.513672 0.015625)"/>
     <use xlink:href="#DejaVuSans-63" transform="translate(2480.722656 0.015625)"/>
     <use xlink:href="#DejaVuSans-68" transform="translate(2535.703125 0.015625)"/>
     <use xlink:href="#DejaVuSans-29" transform="translate(2599.082031 0.015625)"/>
    </g>
   </g>
   <g id="legend_1">
    <g id="patch_7">
     <path d="M 930.27 120.6 
L 1154.5 120.6 
Q 1157.9 120.6 1157.9 117.2 
L 1157.9 89.66 
Q 1157.9 86.26 1154.5 86.26 
L 930.27 86.26 
Q 926.87 86.26 926.87 89.66 
L 926.87 117.2 
Q 926.87 120.6 930.27 120.6 
z
" style="fill: #ffffff; opacity: 0.8; stroke: #cccccc; stroke-linejoin: miter"/>
    </g>
    <g id="line2d_40">
     <path d="M 933.67 102.92 
L 950.67 102.92 
L 967.67 102.92 
" style="fill: none; stroke-dasharray: 1.5,2.475; stroke-dashoffset: 0; stroke: #0000ff; stroke-width: 1.5"/>
    </g>
    <g id="text_35">
     <!-- $p_{loss}^{teorico} = 0.016866\ s$ -->
     <g transform="translate(981.27 108.87) scale(0.17 -0.17)">
      <defs>
       <path id="DejaVuSans-Oblique-65" d="M 3078 2063 
Q 3088 2113 3092 2166 
Q 3097 2219 3097 2272 
Q 3097 2653 2873 2875 
Q 2650 3097 2266 3097 
Q 1838 3097 1509 2826 
Q 1181 2556 1013 2059 
L 3078 2063 
z
M 3578 1613 
L 903 1613 
Q 884 1494 878 1425 
Q 872 1356 872 1306 
Q 872 872 1139 634 
Q 1406 397 1894 397 
Q 2269 397 2603 481 
Q 2938 566 3225 728 
L 3116 159 
Q 2806 34 2476 -28 
Q 2147 -91 1806 -91 
Q 1078 -91 686 257 
Q 294 606 294 1247 
Q 294 1794 489 2264 
Q 684 2734 1063 3103 
Q 1306 3334 1642 3459 
Q 1978 3584 2356 3584 
Q 2950 3584 3301 3228 
Q 3653 2872 3653 2272 
Q 3653 2128 3634 1964 
Q 3616 1800 3578 1613 
z
" transform="scale(0.015625)"/>
       <path id="DejaVuSans-Oblique-72" d="M 2853 2969 
Q 2766 3016 2653 3041 
Q 2541 3066 2413 3066 
Q 1953 3066 1609 2717 
Q 1266 2369 1153 1784 
L 800 0 
L 225 0 
L 909 3500 
L 1484 3500 
L 1375 2956 
Q 1603 3259 1920 3421 
Q 2238 3584 2597 3584 
Q 2691 3584 2781 3573 
Q 2872 3563 2963 3538 
L 2853 2969 
z
" transform="scale(0.015625)"/>
       <path id="DejaVuSans-3d" d="M 678 2906 
L 4684 2906 
L 4684 2381 
L 678 2381 
L 678 2906 
z
M 678 1631 
L 4684 1631 
L 4684 1100 
L 678 1100 
L 678 1631 
z
" transform="scale(0.015625)"/>
      </defs>
      <use xlink:href="#DejaVuSans-Oblique-70" transform="translate(0 0.470313)"/>
      <use xlink:href="#DejaVuSans-Oblique-74" transform="translate(68.126458 39.810938) scale(0.7)"/>
      <use xlink:href="#DejaVuSans-Oblique-65" transform="translate(95.572747 39.810938) scale(0.7)"/>
      <use xlink:href="#DejaVuSans-Oblique-6f" transform="translate(138.639154 39.810938) scale(0.7)"/>
      <use xlink:href="#DejaVuSans-Oblique-72" transform="translate(181.466302 39.810938) scale(0.7)"/>
      <use xlink:href="#DejaVuSans-Oblique-69" transform="translate(210.245599 39.810938) scale(0.7)"/>
      <use xlink:href="#DejaVuSans-Oblique-63" transform="translate(229.693841 39.810938) scale(0.7)"/>
      <use xlink:href="#DejaVuSans-Oblique-6f" transform="translate(268.180169 39.810938) scale(0.7)"/>
      <use xlink:href="#DejaVuSans-Oblique-6c" transform="translate(63.476562 -26.873437) scale(0.7)"/>
      <use xlink:href="#DejaVuSans-Oblique-6f" transform="translate(82.924805 -26.873437) scale(0.7)"/>
      <use xlink:href="#DejaVuSans-Oblique-73" transform="translate(125.751953 -26.873437) scale(0.7)"/>
      <use xlink:href="#DejaVuSans-Oblique-73" transform="translate(162.22168 -26.873437) scale(0.7)"/>
      <use xlink:href="#DejaVuSans-3d" transform="translate(333.224115 0.470313)"/>
      <use xlink:href="#DejaVuSans-30" transform="translate(436.495599 0.470313)"/>
      <use xlink:href="#DejaVuSans-2e" transform="translate(500.118646 0.470313)"/>
      <use xlink:href="#DejaVuSans-30" transform="translate(531.905755 0.470313)"/>
      <use xlink:href="#DejaVuSans-31" transform="translate(595.528802 0.470313)"/>
      <use xlink:href="#DejaVuSans-36" transform="translate(659.151849 0.470313)"/>
      <use xlink:href="#DejaVuSans-38" transform="translate(722.774896 0.470313)"/>
      <use xlink:href="#DejaVuSans-36" transform="translate(786.397943 0.470313)"/>
      <use xlink:href="#DejaVuSans-36" transform="translate(850.02099 0.470313)"/>
      <use xlink:href="#DejaVuSans-Oblique-73" transform="translate(946.114415 0.470313)"/>
     </g>
    </g>
   </g>
  </g>
  <g id="text_36">
   <!-- Probabilit di Perdita -->
   <g transform="translate(492.778125 35.755313) scale(0.3 -0.3)">
    <defs>
     <path id="DejaVuSans-50" d="M 1259 4147 
L 1259 2394 
L 2053 2394 
Q 2494 2394 2734 2622 
Q 2975 2850 2975 3272 
Q 2975 3691 2734 3919 
Q 2494 4147 2053 4147 
L 1259 4147 
z
M 628 4666 
L 2053 4666 
Q 2838 4666 3239 4311 
Q 3641 3956 3641 3272 
Q 3641 2581 3239 2228 
Q 2838 1875 2053 1875 
L 1259 1875 
L 1259 0 
L 628 0 
L 628 4666 
z
" transform="scale(0.015625)"/>
     <path id="DejaVuSans-e0" d="M 2194 1759 
Q 1497 1759 1228 1600 
Q 959 1441 959 1056 
Q 959 750 1161 570 
Q 1363 391 1709 391 
Q 2188 391 2477 730 
Q 2766 1069 2766 1631 
L 2766 1759 
L 2194 1759 
z
M 3341 1997 
L 3341 0 
L 2766 0 
L 2766 531 
Q 2569 213 2275 61 
Q 1981 -91 1556 -91 
Q 1019 -91 701 211 
Q 384 513 384 1019 
Q 384 1609 779 1909 
Q 1175 2209 1959 2209 
L 2766 2209 
L 2766 2266 
Q 2766 2663 2505 2880 
Q 2244 3097 1772 3097 
Q 1472 3097 1187 3025 
Q 903 2953 641 2809 
L 641 3341 
Q 956 3463 1253 3523 
Q 1550 3584 1831 3584 
Q 2591 3584 2966 3190 
Q 3341 2797 3341 1997 
z
M 1403 5119 
L 2284 3950 
L 1806 3950 
L 787 5119 
L 1403 5119 
z
" transform="scale(0.015625)"/>
    </defs>
    <use xlink:href="#DejaVuSans-50"/>
    <use xlink:href="#DejaVuSans-72" x="58.552734"/>
    <use xlink:href="#DejaVuSans-6f" x="97.416016"/>
    <use xlink:href="#DejaVuSans-62" x="158.597656"/>
    <use xlink:href="#DejaVuSans-61" x="222.074219"/>
    <use xlink:href="#DejaVuSans-62" x="283.353516"/>
    <use xlink:href="#DejaVuSans-69" x="346.830078"/>
    <use xlink:href="#DejaVuSans-6c" x="374.613281"/>
    <use xlink:href="#DejaVuSans-69" x="402.396484"/>
    <use xlink:href="#DejaVuSans-74" x="430.179688"/>
    <use xlink:href="#DejaVuSans-e0" x="469.388672"/>
    <use xlink:href="#DejaVuSans-20" x="530.667969"/>
    <use xlink:href="#DejaVuSans-64" x="562.455078"/>
    <use xlink:href="#DejaVuSans-69" x="625.931641"/>
    <use xlink:href="#DejaVuSans-20" x="653.714844"/>
    <use xlink:href="#DejaVuSans-50" x="685.501953"/>
    <use xlink:href="#DejaVuSans-65" x="742.179688"/>
    <use xlink:href="#DejaVuSans-72" x="803.703125"/>
    <use xlink:href="#DejaVuSans-64" x="843.066406"/>
    <use xlink:href="#DejaVuSans-69" x="906.542969"/>
    <use xlink:href="#DejaVuSans-74" x="934.326172"/>
    <use xlink:href="#DejaVuSans-61" x="973.535156"/>
   </g>
  </g>
 </g>
 <defs>
  <clipPath id="p65436dd47e">
   <rect x="162" y="77.76" width="1004.4" height="498.96"/>
  </clipPath>
 </defs>
</svg>
