<?xml version="1.0" encoding="utf-8" standalone="no"?>
<!DOCTYPE svg PUBLIC "-//W3C//DTD SVG 1.1//EN"
  "http://www.w3.org/Graphics/SVG/1.1/DTD/svg11.dtd">
<svg xmlns:xlink="http://www.w3.org/1999/xlink" width="1296pt" height="648pt" viewBox="0 0 1296 648" xmlns="http://www.w3.org/2000/svg" version="1.1">
 <metadata>
  <rdf:RDF xmlns:dc="http://purl.org/dc/elements/1.1/" xmlns:cc="http://creativecommons.org/ns#" xmlns:rdf="http://www.w3.org/1999/02/22-rdf-syntax-ns#">
   <cc:Work>
    <dc:type rdf:resource="http://purl.org/dc/dcmitype/StillImage"/>
    <dc:date>2023-01-30T17:10:11.578552</dc:date>
    <dc:format>image/svg+xml</dc:format>
    <dc:creator>
     <cc:Agent>
      <dc:title>Matplotlib v3.6.3, https://matplotlib.org/</dc:title>
     </cc:Agent>
    </dc:creator>
   </cc:Work>
  </rdf:RDF>
 </metadata>
 <defs>
  <style type="text/css">*{stroke-linejoin: round; stroke-linecap: butt}</style>
 </defs>
 <g id="figure_1">
  <g id="patch_1">
   <path d="M 0 648 
L 1296 648 
L 1296 0 
L 0 0 
L 0 648 
z
" style="fill: none"/>
  </g>
  <g id="axes_1">
   <g id="patch_2">
    <path d="M 162 576.72 
L 1166.4 576.72 
L 1166.4 77.76 
L 162 77.76 
L 162 576.72 
z
" style="fill: none"/>
   </g>
   <g id="matplotlib.axis_1">
    <g id="xtick_1">
     <g id="line2d_1">
      <defs>
       <path id="mb0577dd9b6" d="M 0 0 
L 0 3.5 
" style="stroke: #000000; stroke-width: 0.8"/>
      </defs>
      <g>
       <use xlink:href="#mb0577dd9b6" x="206.923488" y="576.72" style="stroke: #000000; stroke-width: 0.8"/>
      </g>
     </g>
     <g id="text_1">
      <!-- 0 -->
      <g transform="translate(203.742238 591.318438) scale(0.1 -0.1)">
       <defs>
        <path id="DejaVuSans-30" d="M 2034 4250 
Q 1547 4250 1301 3770 
Q 1056 3291 1056 2328 
Q 1056 1369 1301 889 
Q 1547 409 2034 409 
Q 2525 409 2770 889 
Q 3016 1369 3016 2328 
Q 3016 3291 2770 3770 
Q 2525 4250 2034 4250 
z
M 2034 4750 
Q 2819 4750 3233 4129 
Q 3647 3509 3647 2328 
Q 3647 1150 3233 529 
Q 2819 -91 2034 -91 
Q 1250 -91 836 529 
Q 422 1150 422 2328 
Q 422 3509 836 4129 
Q 1250 4750 2034 4750 
z
" transform="scale(0.015625)"/>
       </defs>
       <use xlink:href="#DejaVuSans-30"/>
      </g>
     </g>
    </g>
    <g id="xtick_2">
     <g id="line2d_2">
      <g>
       <use xlink:href="#mb0577dd9b6" x="243.476367" y="576.72" style="stroke: #000000; stroke-width: 0.8"/>
      </g>
     </g>
     <g id="text_2">
      <!-- 50 -->
      <g transform="translate(237.113867 591.318438) scale(0.1 -0.1)">
       <defs>
        <path id="DejaVuSans-35" d="M 691 4666 
L 3169 4666 
L 3169 4134 
L 1269 4134 
L 1269 2991 
Q 1406 3038 1543 3061 
Q 1681 3084 1819 3084 
Q 2600 3084 3056 2656 
Q 3513 2228 3513 1497 
Q 3513 744 3044 326 
Q 2575 -91 1722 -91 
Q 1428 -91 1123 -41 
Q 819 9 494 109 
L 494 744 
Q 775 591 1075 516 
Q 1375 441 1709 441 
Q 2250 441 2565 725 
Q 2881 1009 2881 1497 
Q 2881 1984 2565 2268 
Q 2250 2553 1709 2553 
Q 1456 2553 1204 2497 
Q 953 2441 691 2322 
L 691 4666 
z
" transform="scale(0.015625)"/>
       </defs>
       <use xlink:href="#DejaVuSans-35"/>
       <use xlink:href="#DejaVuSans-30" x="63.623047"/>
      </g>
     </g>
    </g>
    <g id="xtick_3">
     <g id="line2d_3">
      <g>
       <use xlink:href="#mb0577dd9b6" x="280.029245" y="576.72" style="stroke: #000000; stroke-width: 0.8"/>
      </g>
     </g>
     <g id="text_3">
      <!-- 100 -->
      <g transform="translate(270.485495 591.318438) scale(0.1 -0.1)">
       <defs>
        <path id="DejaVuSans-31" d="M 794 531 
L 1825 531 
L 1825 4091 
L 703 3866 
L 703 4441 
L 1819 4666 
L 2450 4666 
L 2450 531 
L 3481 531 
L 3481 0 
L 794 0 
L 794 531 
z
" transform="scale(0.015625)"/>
       </defs>
       <use xlink:href="#DejaVuSans-31"/>
       <use xlink:href="#DejaVuSans-30" x="63.623047"/>
       <use xlink:href="#DejaVuSans-30" x="127.246094"/>
      </g>
     </g>
    </g>
    <g id="xtick_4">
     <g id="line2d_4">
      <g>
       <use xlink:href="#mb0577dd9b6" x="316.582124" y="576.72" style="stroke: #000000; stroke-width: 0.8"/>
      </g>
     </g>
     <g id="text_4">
      <!-- 150 -->
      <g transform="translate(307.038374 591.318438) scale(0.1 -0.1)">
       <use xlink:href="#DejaVuSans-31"/>
       <use xlink:href="#DejaVuSans-35" x="63.623047"/>
       <use xlink:href="#DejaVuSans-30" x="127.246094"/>
      </g>
     </g>
    </g>
    <g id="xtick_5">
     <g id="line2d_5">
      <g>
       <use xlink:href="#mb0577dd9b6" x="353.135003" y="576.72" style="stroke: #000000; stroke-width: 0.8"/>
      </g>
     </g>
     <g id="text_5">
      <!-- 200 -->
      <g transform="translate(343.591253 591.318438) scale(0.1 -0.1)">
       <defs>
        <path id="DejaVuSans-32" d="M 1228 531 
L 3431 531 
L 3431 0 
L 469 0 
L 469 531 
Q 828 903 1448 1529 
Q 2069 2156 2228 2338 
Q 2531 2678 2651 2914 
Q 2772 3150 2772 3378 
Q 2772 3750 2511 3984 
Q 2250 4219 1831 4219 
Q 1534 4219 1204 4116 
Q 875 4013 500 3803 
L 500 4441 
Q 881 4594 1212 4672 
Q 1544 4750 1819 4750 
Q 2544 4750 2975 4387 
Q 3406 4025 3406 3419 
Q 3406 3131 3298 2873 
Q 3191 2616 2906 2266 
Q 2828 2175 2409 1742 
Q 1991 1309 1228 531 
z
" transform="scale(0.015625)"/>
       </defs>
       <use xlink:href="#DejaVuSans-32"/>
       <use xlink:href="#DejaVuSans-30" x="63.623047"/>
       <use xlink:href="#DejaVuSans-30" x="127.246094"/>
      </g>
     </g>
    </g>
    <g id="xtick_6">
     <g id="line2d_6">
      <g>
       <use xlink:href="#mb0577dd9b6" x="389.687881" y="576.72" style="stroke: #000000; stroke-width: 0.8"/>
      </g>
     </g>
     <g id="text_6">
      <!-- 250 -->
      <g transform="translate(380.144131 591.318438) scale(0.1 -0.1)">
       <use xlink:href="#DejaVuSans-32"/>
       <use xlink:href="#DejaVuSans-35" x="63.623047"/>
       <use xlink:href="#DejaVuSans-30" x="127.246094"/>
      </g>
     </g>
    </g>
    <g id="xtick_7">
     <g id="line2d_7">
      <g>
       <use xlink:href="#mb0577dd9b6" x="426.24076" y="576.72" style="stroke: #000000; stroke-width: 0.8"/>
      </g>
     </g>
     <g id="text_7">
      <!-- 300 -->
      <g transform="translate(416.69701 591.318438) scale(0.1 -0.1)">
       <defs>
        <path id="DejaVuSans-33" d="M 2597 2516 
Q 3050 2419 3304 2112 
Q 3559 1806 3559 1356 
Q 3559 666 3084 287 
Q 2609 -91 1734 -91 
Q 1441 -91 1130 -33 
Q 819 25 488 141 
L 488 750 
Q 750 597 1062 519 
Q 1375 441 1716 441 
Q 2309 441 2620 675 
Q 2931 909 2931 1356 
Q 2931 1769 2642 2001 
Q 2353 2234 1838 2234 
L 1294 2234 
L 1294 2753 
L 1863 2753 
Q 2328 2753 2575 2939 
Q 2822 3125 2822 3475 
Q 2822 3834 2567 4026 
Q 2313 4219 1838 4219 
Q 1578 4219 1281 4162 
Q 984 4106 628 3988 
L 628 4550 
Q 988 4650 1302 4700 
Q 1616 4750 1894 4750 
Q 2613 4750 3031 4423 
Q 3450 4097 3450 3541 
Q 3450 3153 3228 2886 
Q 3006 2619 2597 2516 
z
" transform="scale(0.015625)"/>
       </defs>
       <use xlink:href="#DejaVuSans-33"/>
       <use xlink:href="#DejaVuSans-30" x="63.623047"/>
       <use xlink:href="#DejaVuSans-30" x="127.246094"/>
      </g>
     </g>
    </g>
    <g id="xtick_8">
     <g id="line2d_8">
      <g>
       <use xlink:href="#mb0577dd9b6" x="462.793639" y="576.72" style="stroke: #000000; stroke-width: 0.8"/>
      </g>
     </g>
     <g id="text_8">
      <!-- 350 -->
      <g transform="translate(453.249889 591.318438) scale(0.1 -0.1)">
       <use xlink:href="#DejaVuSans-33"/>
       <use xlink:href="#DejaVuSans-35" x="63.623047"/>
       <use xlink:href="#DejaVuSans-30" x="127.246094"/>
      </g>
     </g>
    </g>
    <g id="xtick_9">
     <g id="line2d_9">
      <g>
       <use xlink:href="#mb0577dd9b6" x="499.346517" y="576.72" style="stroke: #000000; stroke-width: 0.8"/>
      </g>
     </g>
     <g id="text_9">
      <!-- 400 -->
      <g transform="translate(489.802767 591.318438) scale(0.1 -0.1)">
       <defs>
        <path id="DejaVuSans-34" d="M 2419 4116 
L 825 1625 
L 2419 1625 
L 2419 4116 
z
M 2253 4666 
L 3047 4666 
L 3047 1625 
L 3713 1625 
L 3713 1100 
L 3047 1100 
L 3047 0 
L 2419 0 
L 2419 1100 
L 313 1100 
L 313 1709 
L 2253 4666 
z
" transform="scale(0.015625)"/>
       </defs>
       <use xlink:href="#DejaVuSans-34"/>
       <use xlink:href="#DejaVuSans-30" x="63.623047"/>
       <use xlink:href="#DejaVuSans-30" x="127.246094"/>
      </g>
     </g>
    </g>
    <g id="xtick_10">
     <g id="line2d_10">
      <g>
       <use xlink:href="#mb0577dd9b6" x="535.899396" y="576.72" style="stroke: #000000; stroke-width: 0.8"/>
      </g>
     </g>
     <g id="text_10">
      <!-- 450 -->
      <g transform="translate(526.355646 591.318438) scale(0.1 -0.1)">
       <use xlink:href="#DejaVuSans-34"/>
       <use xlink:href="#DejaVuSans-35" x="63.623047"/>
       <use xlink:href="#DejaVuSans-30" x="127.246094"/>
      </g>
     </g>
    </g>
    <g id="xtick_11">
     <g id="line2d_11">
      <g>
       <use xlink:href="#mb0577dd9b6" x="572.452275" y="576.72" style="stroke: #000000; stroke-width: 0.8"/>
      </g>
     </g>
     <g id="text_11">
      <!-- 500 -->
      <g transform="translate(562.908525 591.318438) scale(0.1 -0.1)">
       <use xlink:href="#DejaVuSans-35"/>
       <use xlink:href="#DejaVuSans-30" x="63.623047"/>
       <use xlink:href="#DejaVuSans-30" x="127.246094"/>
      </g>
     </g>
    </g>
    <g id="xtick_12">
     <g id="line2d_12">
      <g>
       <use xlink:href="#mb0577dd9b6" x="609.005153" y="576.72" style="stroke: #000000; stroke-width: 0.8"/>
      </g>
     </g>
     <g id="text_12">
      <!-- 550 -->
      <g transform="translate(599.461403 591.318438) scale(0.1 -0.1)">
       <use xlink:href="#DejaVuSans-35"/>
       <use xlink:href="#DejaVuSans-35" x="63.623047"/>
       <use xlink:href="#DejaVuSans-30" x="127.246094"/>
      </g>
     </g>
    </g>
    <g id="xtick_13">
     <g id="line2d_13">
      <g>
       <use xlink:href="#mb0577dd9b6" x="645.558032" y="576.72" style="stroke: #000000; stroke-width: 0.8"/>
      </g>
     </g>
     <g id="text_13">
      <!-- 600 -->
      <g transform="translate(636.014282 591.318438) scale(0.1 -0.1)">
       <defs>
        <path id="DejaVuSans-36" d="M 2113 2584 
Q 1688 2584 1439 2293 
Q 1191 2003 1191 1497 
Q 1191 994 1439 701 
Q 1688 409 2113 409 
Q 2538 409 2786 701 
Q 3034 994 3034 1497 
Q 3034 2003 2786 2293 
Q 2538 2584 2113 2584 
z
M 3366 4563 
L 3366 3988 
Q 3128 4100 2886 4159 
Q 2644 4219 2406 4219 
Q 1781 4219 1451 3797 
Q 1122 3375 1075 2522 
Q 1259 2794 1537 2939 
Q 1816 3084 2150 3084 
Q 2853 3084 3261 2657 
Q 3669 2231 3669 1497 
Q 3669 778 3244 343 
Q 2819 -91 2113 -91 
Q 1303 -91 875 529 
Q 447 1150 447 2328 
Q 447 3434 972 4092 
Q 1497 4750 2381 4750 
Q 2619 4750 2861 4703 
Q 3103 4656 3366 4563 
z
" transform="scale(0.015625)"/>
       </defs>
       <use xlink:href="#DejaVuSans-36"/>
       <use xlink:href="#DejaVuSans-30" x="63.623047"/>
       <use xlink:href="#DejaVuSans-30" x="127.246094"/>
      </g>
     </g>
    </g>
    <g id="xtick_14">
     <g id="line2d_14">
      <g>
       <use xlink:href="#mb0577dd9b6" x="682.110911" y="576.72" style="stroke: #000000; stroke-width: 0.8"/>
      </g>
     </g>
     <g id="text_14">
      <!-- 650 -->
      <g transform="translate(672.567161 591.318438) scale(0.1 -0.1)">
       <use xlink:href="#DejaVuSans-36"/>
       <use xlink:href="#DejaVuSans-35" x="63.623047"/>
       <use xlink:href="#DejaVuSans-30" x="127.246094"/>
      </g>
     </g>
    </g>
    <g id="xtick_15">
     <g id="line2d_15">
      <g>
       <use xlink:href="#mb0577dd9b6" x="718.663789" y="576.72" style="stroke: #000000; stroke-width: 0.8"/>
      </g>
     </g>
     <g id="text_15">
      <!-- 700 -->
      <g transform="translate(709.120039 591.318438) scale(0.1 -0.1)">
       <defs>
        <path id="DejaVuSans-37" d="M 525 4666 
L 3525 4666 
L 3525 4397 
L 1831 0 
L 1172 0 
L 2766 4134 
L 525 4134 
L 525 4666 
z
" transform="scale(0.015625)"/>
       </defs>
       <use xlink:href="#DejaVuSans-37"/>
       <use xlink:href="#DejaVuSans-30" x="63.623047"/>
       <use xlink:href="#DejaVuSans-30" x="127.246094"/>
      </g>
     </g>
    </g>
    <g id="xtick_16">
     <g id="line2d_16">
      <g>
       <use xlink:href="#mb0577dd9b6" x="755.216668" y="576.72" style="stroke: #000000; stroke-width: 0.8"/>
      </g>
     </g>
     <g id="text_16">
      <!-- 750 -->
      <g transform="translate(745.672918 591.318438) scale(0.1 -0.1)">
       <use xlink:href="#DejaVuSans-37"/>
       <use xlink:href="#DejaVuSans-35" x="63.623047"/>
       <use xlink:href="#DejaVuSans-30" x="127.246094"/>
      </g>
     </g>
    </g>
    <g id="xtick_17">
     <g id="line2d_17">
      <g>
       <use xlink:href="#mb0577dd9b6" x="791.769547" y="576.72" style="stroke: #000000; stroke-width: 0.8"/>
      </g>
     </g>
     <g id="text_17">
      <!-- 800 -->
      <g transform="translate(782.225797 591.318438) scale(0.1 -0.1)">
       <defs>
        <path id="DejaVuSans-38" d="M 2034 2216 
Q 1584 2216 1326 1975 
Q 1069 1734 1069 1313 
Q 1069 891 1326 650 
Q 1584 409 2034 409 
Q 2484 409 2743 651 
Q 3003 894 3003 1313 
Q 3003 1734 2745 1975 
Q 2488 2216 2034 2216 
z
M 1403 2484 
Q 997 2584 770 2862 
Q 544 3141 544 3541 
Q 544 4100 942 4425 
Q 1341 4750 2034 4750 
Q 2731 4750 3128 4425 
Q 3525 4100 3525 3541 
Q 3525 3141 3298 2862 
Q 3072 2584 2669 2484 
Q 3125 2378 3379 2068 
Q 3634 1759 3634 1313 
Q 3634 634 3220 271 
Q 2806 -91 2034 -91 
Q 1263 -91 848 271 
Q 434 634 434 1313 
Q 434 1759 690 2068 
Q 947 2378 1403 2484 
z
M 1172 3481 
Q 1172 3119 1398 2916 
Q 1625 2713 2034 2713 
Q 2441 2713 2670 2916 
Q 2900 3119 2900 3481 
Q 2900 3844 2670 4047 
Q 2441 4250 2034 4250 
Q 1625 4250 1398 4047 
Q 1172 3844 1172 3481 
z
" transform="scale(0.015625)"/>
       </defs>
       <use xlink:href="#DejaVuSans-38"/>
       <use xlink:href="#DejaVuSans-30" x="63.623047"/>
       <use xlink:href="#DejaVuSans-30" x="127.246094"/>
      </g>
     </g>
    </g>
    <g id="xtick_18">
     <g id="line2d_18">
      <g>
       <use xlink:href="#mb0577dd9b6" x="828.322425" y="576.72" style="stroke: #000000; stroke-width: 0.8"/>
      </g>
     </g>
     <g id="text_18">
      <!-- 850 -->
      <g transform="translate(818.778675 591.318438) scale(0.1 -0.1)">
       <use xlink:href="#DejaVuSans-38"/>
       <use xlink:href="#DejaVuSans-35" x="63.623047"/>
       <use xlink:href="#DejaVuSans-30" x="127.246094"/>
      </g>
     </g>
    </g>
    <g id="xtick_19">
     <g id="line2d_19">
      <g>
       <use xlink:href="#mb0577dd9b6" x="864.875304" y="576.72" style="stroke: #000000; stroke-width: 0.8"/>
      </g>
     </g>
     <g id="text_19">
      <!-- 900 -->
      <g transform="translate(855.331554 591.318438) scale(0.1 -0.1)">
       <defs>
        <path id="DejaVuSans-39" d="M 703 97 
L 703 672 
Q 941 559 1184 500 
Q 1428 441 1663 441 
Q 2288 441 2617 861 
Q 2947 1281 2994 2138 
Q 2813 1869 2534 1725 
Q 2256 1581 1919 1581 
Q 1219 1581 811 2004 
Q 403 2428 403 3163 
Q 403 3881 828 4315 
Q 1253 4750 1959 4750 
Q 2769 4750 3195 4129 
Q 3622 3509 3622 2328 
Q 3622 1225 3098 567 
Q 2575 -91 1691 -91 
Q 1453 -91 1209 -44 
Q 966 3 703 97 
z
M 1959 2075 
Q 2384 2075 2632 2365 
Q 2881 2656 2881 3163 
Q 2881 3666 2632 3958 
Q 2384 4250 1959 4250 
Q 1534 4250 1286 3958 
Q 1038 3666 1038 3163 
Q 1038 2656 1286 2365 
Q 1534 2075 1959 2075 
z
" transform="scale(0.015625)"/>
       </defs>
       <use xlink:href="#DejaVuSans-39"/>
       <use xlink:href="#DejaVuSans-30" x="63.623047"/>
       <use xlink:href="#DejaVuSans-30" x="127.246094"/>
      </g>
     </g>
    </g>
    <g id="xtick_20">
     <g id="line2d_20">
      <g>
       <use xlink:href="#mb0577dd9b6" x="901.428183" y="576.72" style="stroke: #000000; stroke-width: 0.8"/>
      </g>
     </g>
     <g id="text_20">
      <!-- 950 -->
      <g transform="translate(891.884433 591.318438) scale(0.1 -0.1)">
       <use xlink:href="#DejaVuSans-39"/>
       <use xlink:href="#DejaVuSans-35" x="63.623047"/>
       <use xlink:href="#DejaVuSans-30" x="127.246094"/>
      </g>
     </g>
    </g>
    <g id="xtick_21">
     <g id="line2d_21">
      <g>
       <use xlink:href="#mb0577dd9b6" x="937.981061" y="576.72" style="stroke: #000000; stroke-width: 0.8"/>
      </g>
     </g>
     <g id="text_21">
      <!-- 1000 -->
      <g transform="translate(925.256061 591.318438) scale(0.1 -0.1)">
       <use xlink:href="#DejaVuSans-31"/>
       <use xlink:href="#DejaVuSans-30" x="63.623047"/>
       <use xlink:href="#DejaVuSans-30" x="127.246094"/>
       <use xlink:href="#DejaVuSans-30" x="190.869141"/>
      </g>
     </g>
    </g>
    <g id="xtick_22">
     <g id="line2d_22">
      <g>
       <use xlink:href="#mb0577dd9b6" x="974.53394" y="576.72" style="stroke: #000000; stroke-width: 0.8"/>
      </g>
     </g>
     <g id="text_22">
      <!-- 1050 -->
      <g transform="translate(961.80894 591.318438) scale(0.1 -0.1)">
       <use xlink:href="#DejaVuSans-31"/>
       <use xlink:href="#DejaVuSans-30" x="63.623047"/>
       <use xlink:href="#DejaVuSans-35" x="127.246094"/>
       <use xlink:href="#DejaVuSans-30" x="190.869141"/>
      </g>
     </g>
    </g>
    <g id="xtick_23">
     <g id="line2d_23">
      <g>
       <use xlink:href="#mb0577dd9b6" x="1011.086819" y="576.72" style="stroke: #000000; stroke-width: 0.8"/>
      </g>
     </g>
     <g id="text_23">
      <!-- 1100 -->
      <g transform="translate(998.361819 591.318438) scale(0.1 -0.1)">
       <use xlink:href="#DejaVuSans-31"/>
       <use xlink:href="#DejaVuSans-31" x="63.623047"/>
       <use xlink:href="#DejaVuSans-30" x="127.246094"/>
       <use xlink:href="#DejaVuSans-30" x="190.869141"/>
      </g>
     </g>
    </g>
    <g id="xtick_24">
     <g id="line2d_24">
      <g>
       <use xlink:href="#mb0577dd9b6" x="1047.639697" y="576.72" style="stroke: #000000; stroke-width: 0.8"/>
      </g>
     </g>
     <g id="text_24">
      <!-- 1150 -->
      <g transform="translate(1034.914697 591.318438) scale(0.1 -0.1)">
       <use xlink:href="#DejaVuSans-31"/>
       <use xlink:href="#DejaVuSans-31" x="63.623047"/>
       <use xlink:href="#DejaVuSans-35" x="127.246094"/>
       <use xlink:href="#DejaVuSans-30" x="190.869141"/>
      </g>
     </g>
    </g>
    <g id="xtick_25">
     <g id="line2d_25">
      <g>
       <use xlink:href="#mb0577dd9b6" x="1084.192576" y="576.72" style="stroke: #000000; stroke-width: 0.8"/>
      </g>
     </g>
     <g id="text_25">
      <!-- 1200 -->
      <g transform="translate(1071.467576 591.318438) scale(0.1 -0.1)">
       <use xlink:href="#DejaVuSans-31"/>
       <use xlink:href="#DejaVuSans-32" x="63.623047"/>
       <use xlink:href="#DejaVuSans-30" x="127.246094"/>
       <use xlink:href="#DejaVuSans-30" x="190.869141"/>
      </g>
     </g>
    </g>
    <g id="text_26">
     <!-- $\#\ batch$ -->
     <g transform="translate(634.275 609.795781) scale(0.15 -0.15)">
      <defs>
       <path id="DejaVuSans-23" d="M 3272 2816 
L 2363 2816 
L 2100 1772 
L 3016 1772 
L 3272 2816 
z
M 2803 4594 
L 2478 3297 
L 3391 3297 
L 3719 4594 
L 4219 4594 
L 3897 3297 
L 4872 3297 
L 4872 2816 
L 3775 2816 
L 3519 1772 
L 4513 1772 
L 4513 1294 
L 3397 1294 
L 3072 0 
L 2572 0 
L 2894 1294 
L 1978 1294 
L 1656 0 
L 1153 0 
L 1478 1294 
L 494 1294 
L 494 1772 
L 1594 1772 
L 1856 2816 
L 850 2816 
L 850 3297 
L 1978 3297 
L 2297 4594 
L 2803 4594 
z
" transform="scale(0.015625)"/>
       <path id="DejaVuSans-Oblique-62" d="M 3169 2138 
Q 3169 2591 2961 2847 
Q 2753 3103 2388 3103 
Q 2122 3103 1889 2973 
Q 1656 2844 1484 2597 
Q 1303 2338 1198 1995 
Q 1094 1653 1094 1313 
Q 1094 881 1298 636 
Q 1503 391 1863 391 
Q 2134 391 2365 517 
Q 2597 644 2772 891 
Q 2950 1147 3059 1487 
Q 3169 1828 3169 2138 
z
M 1381 2969 
Q 1594 3256 1914 3420 
Q 2234 3584 2584 3584 
Q 3122 3584 3439 3221 
Q 3756 2859 3756 2241 
Q 3756 1734 3570 1259 
Q 3384 784 3041 416 
Q 2816 172 2522 40 
Q 2228 -91 1906 -91 
Q 1566 -91 1316 65 
Q 1066 222 909 531 
L 806 0 
L 231 0 
L 1178 4863 
L 1753 4863 
L 1381 2969 
z
" transform="scale(0.015625)"/>
       <path id="DejaVuSans-Oblique-61" d="M 3438 1997 
L 3047 0 
L 2472 0 
L 2578 531 
Q 2325 219 2001 64 
Q 1678 -91 1281 -91 
Q 834 -91 548 182 
Q 263 456 263 884 
Q 263 1497 752 1853 
Q 1241 2209 2100 2209 
L 2900 2209 
L 2931 2363 
Q 2938 2388 2941 2417 
Q 2944 2447 2944 2509 
Q 2944 2788 2717 2942 
Q 2491 3097 2081 3097 
Q 1800 3097 1504 3025 
Q 1209 2953 897 2809 
L 997 3341 
Q 1322 3463 1633 3523 
Q 1944 3584 2234 3584 
Q 2853 3584 3176 3315 
Q 3500 3047 3500 2534 
Q 3500 2431 3484 2292 
Q 3469 2153 3438 1997 
z
M 2816 1759 
L 2241 1759 
Q 1534 1759 1195 1570 
Q 856 1381 856 984 
Q 856 709 1029 553 
Q 1203 397 1509 397 
Q 1978 397 2328 733 
Q 2678 1069 2791 1631 
L 2816 1759 
z
" transform="scale(0.015625)"/>
       <path id="DejaVuSans-Oblique-74" d="M 2706 3500 
L 2619 3053 
L 1472 3053 
L 1100 1153 
Q 1081 1047 1072 975 
Q 1063 903 1063 863 
Q 1063 663 1183 572 
Q 1303 481 1569 481 
L 2150 481 
L 2053 0 
L 1503 0 
Q 991 0 739 200 
Q 488 400 488 806 
Q 488 878 497 964 
Q 506 1050 525 1153 
L 897 3053 
L 409 3053 
L 500 3500 
L 978 3500 
L 1172 4494 
L 1747 4494 
L 1556 3500 
L 2706 3500 
z
" transform="scale(0.015625)"/>
       <path id="DejaVuSans-Oblique-63" d="M 3431 3366 
L 3316 2797 
Q 3109 2947 2876 3022 
Q 2644 3097 2394 3097 
Q 2119 3097 1870 3000 
Q 1622 2903 1453 2725 
Q 1184 2453 1037 2087 
Q 891 1722 891 1331 
Q 891 859 1127 628 
Q 1363 397 1844 397 
Q 2081 397 2348 469 
Q 2616 541 2906 684 
L 2797 116 
Q 2547 13 2283 -39 
Q 2019 -91 1741 -91 
Q 1044 -91 669 257 
Q 294 606 294 1253 
Q 294 1797 489 2255 
Q 684 2713 1069 3078 
Q 1331 3328 1684 3456 
Q 2038 3584 2456 3584 
Q 2700 3584 2940 3529 
Q 3181 3475 3431 3366 
z
" transform="scale(0.015625)"/>
       <path id="DejaVuSans-Oblique-68" d="M 3566 2113 
L 3156 0 
L 2578 0 
L 2988 2091 
Q 3016 2238 3031 2350 
Q 3047 2463 3047 2528 
Q 3047 2791 2881 2937 
Q 2716 3084 2419 3084 
Q 1956 3084 1617 2771 
Q 1278 2459 1178 1941 
L 800 0 
L 225 0 
L 1172 4863 
L 1747 4863 
L 1375 2950 
Q 1594 3244 1934 3414 
Q 2275 3584 2650 3584 
Q 3113 3584 3367 3334 
Q 3622 3084 3622 2631 
Q 3622 2519 3608 2391 
Q 3594 2263 3566 2113 
z
" transform="scale(0.015625)"/>
      </defs>
      <use xlink:href="#DejaVuSans-23" transform="translate(0 0.015625)"/>
      <use xlink:href="#DejaVuSans-Oblique-62" transform="translate(116.259441 0.015625)"/>
      <use xlink:href="#DejaVuSans-Oblique-61" transform="translate(179.736003 0.015625)"/>
      <use xlink:href="#DejaVuSans-Oblique-74" transform="translate(241.0153 0.015625)"/>
      <use xlink:href="#DejaVuSans-Oblique-63" transform="translate(280.224285 0.015625)"/>
      <use xlink:href="#DejaVuSans-Oblique-68" transform="translate(335.204753 0.015625)"/>
     </g>
    </g>
   </g>
   <g id="matplotlib.axis_2">
    <g id="ytick_1">
     <g id="line2d_26">
      <path d="M 162 517.503187 
L 1166.4 517.503187 
" clip-path="url(#pc51be74237)" style="fill: none; stroke: #808080; stroke-width: 0.8; stroke-linecap: square"/>
     </g>
     <g id="line2d_27">
      <defs>
       <path id="mfa122b2672" d="M 0 0 
L -3.5 0 
" style="stroke: #000000; stroke-width: 0.8"/>
      </defs>
      <g>
       <use xlink:href="#mfa122b2672" x="162" y="517.503187" style="stroke: #000000; stroke-width: 0.8"/>
      </g>
     </g>
     <g id="text_27">
      <!-- 0.022 -->
      <g transform="translate(126.371875 521.302406) scale(0.1 -0.1)">
       <defs>
        <path id="DejaVuSans-2e" d="M 684 794 
L 1344 794 
L 1344 0 
L 684 0 
L 684 794 
z
" transform="scale(0.015625)"/>
       </defs>
       <use xlink:href="#DejaVuSans-30"/>
       <use xlink:href="#DejaVuSans-2e" x="63.623047"/>
       <use xlink:href="#DejaVuSans-30" x="95.410156"/>
       <use xlink:href="#DejaVuSans-32" x="159.033203"/>
       <use xlink:href="#DejaVuSans-32" x="222.65625"/>
      </g>
     </g>
    </g>
    <g id="ytick_2">
     <g id="line2d_28">
      <path d="M 162 457.917057 
L 1166.4 457.917057 
" clip-path="url(#pc51be74237)" style="fill: none; stroke: #808080; stroke-width: 0.8; stroke-linecap: square"/>
     </g>
     <g id="line2d_29">
      <g>
       <use xlink:href="#mfa122b2672" x="162" y="457.917057" style="stroke: #000000; stroke-width: 0.8"/>
      </g>
     </g>
     <g id="text_28">
      <!-- 0.023 -->
      <g transform="translate(126.371875 461.716276) scale(0.1 -0.1)">
       <use xlink:href="#DejaVuSans-30"/>
       <use xlink:href="#DejaVuSans-2e" x="63.623047"/>
       <use xlink:href="#DejaVuSans-30" x="95.410156"/>
       <use xlink:href="#DejaVuSans-32" x="159.033203"/>
       <use xlink:href="#DejaVuSans-33" x="222.65625"/>
      </g>
     </g>
    </g>
    <g id="ytick_3">
     <g id="line2d_30">
      <path d="M 162 398.330927 
L 1166.4 398.330927 
" clip-path="url(#pc51be74237)" style="fill: none; stroke: #808080; stroke-width: 0.8; stroke-linecap: square"/>
     </g>
     <g id="line2d_31">
      <g>
       <use xlink:href="#mfa122b2672" x="162" y="398.330927" style="stroke: #000000; stroke-width: 0.8"/>
      </g>
     </g>
     <g id="text_29">
      <!-- 0.024 -->
      <g transform="translate(126.371875 402.130145) scale(0.1 -0.1)">
       <use xlink:href="#DejaVuSans-30"/>
       <use xlink:href="#DejaVuSans-2e" x="63.623047"/>
       <use xlink:href="#DejaVuSans-30" x="95.410156"/>
       <use xlink:href="#DejaVuSans-32" x="159.033203"/>
       <use xlink:href="#DejaVuSans-34" x="222.65625"/>
      </g>
     </g>
    </g>
    <g id="ytick_4">
     <g id="line2d_32">
      <path d="M 162 338.744797 
L 1166.4 338.744797 
" clip-path="url(#pc51be74237)" style="fill: none; stroke: #808080; stroke-width: 0.8; stroke-linecap: square"/>
     </g>
     <g id="line2d_33">
      <g>
       <use xlink:href="#mfa122b2672" x="162" y="338.744797" style="stroke: #000000; stroke-width: 0.8"/>
      </g>
     </g>
     <g id="text_30">
      <!-- 0.025 -->
      <g transform="translate(126.371875 342.544015) scale(0.1 -0.1)">
       <use xlink:href="#DejaVuSans-30"/>
       <use xlink:href="#DejaVuSans-2e" x="63.623047"/>
       <use xlink:href="#DejaVuSans-30" x="95.410156"/>
       <use xlink:href="#DejaVuSans-32" x="159.033203"/>
       <use xlink:href="#DejaVuSans-35" x="222.65625"/>
      </g>
     </g>
    </g>
    <g id="ytick_5">
     <g id="line2d_34">
      <path d="M 162 279.158666 
L 1166.4 279.158666 
" clip-path="url(#pc51be74237)" style="fill: none; stroke: #808080; stroke-width: 0.8; stroke-linecap: square"/>
     </g>
     <g id="line2d_35">
      <g>
       <use xlink:href="#mfa122b2672" x="162" y="279.158666" style="stroke: #000000; stroke-width: 0.8"/>
      </g>
     </g>
     <g id="text_31">
      <!-- 0.026 -->
      <g transform="translate(126.371875 282.957885) scale(0.1 -0.1)">
       <use xlink:href="#DejaVuSans-30"/>
       <use xlink:href="#DejaVuSans-2e" x="63.623047"/>
       <use xlink:href="#DejaVuSans-30" x="95.410156"/>
       <use xlink:href="#DejaVuSans-32" x="159.033203"/>
       <use xlink:href="#DejaVuSans-36" x="222.65625"/>
      </g>
     </g>
    </g>
    <g id="ytick_6">
     <g id="line2d_36">
      <path d="M 162 219.572536 
L 1166.4 219.572536 
" clip-path="url(#pc51be74237)" style="fill: none; stroke: #808080; stroke-width: 0.8; stroke-linecap: square"/>
     </g>
     <g id="line2d_37">
      <g>
       <use xlink:href="#mfa122b2672" x="162" y="219.572536" style="stroke: #000000; stroke-width: 0.8"/>
      </g>
     </g>
     <g id="text_32">
      <!-- 0.027 -->
      <g transform="translate(126.371875 223.371755) scale(0.1 -0.1)">
       <use xlink:href="#DejaVuSans-30"/>
       <use xlink:href="#DejaVuSans-2e" x="63.623047"/>
       <use xlink:href="#DejaVuSans-30" x="95.410156"/>
       <use xlink:href="#DejaVuSans-32" x="159.033203"/>
       <use xlink:href="#DejaVuSans-37" x="222.65625"/>
      </g>
     </g>
    </g>
    <g id="ytick_7">
     <g id="line2d_38">
      <path d="M 162 159.986406 
L 1166.4 159.986406 
" clip-path="url(#pc51be74237)" style="fill: none; stroke: #808080; stroke-width: 0.8; stroke-linecap: square"/>
     </g>
     <g id="line2d_39">
      <g>
       <use xlink:href="#mfa122b2672" x="162" y="159.986406" style="stroke: #000000; stroke-width: 0.8"/>
      </g>
     </g>
     <g id="text_33">
      <!-- 0.028 -->
      <g transform="translate(126.371875 163.785625) scale(0.1 -0.1)">
       <use xlink:href="#DejaVuSans-30"/>
       <use xlink:href="#DejaVuSans-2e" x="63.623047"/>
       <use xlink:href="#DejaVuSans-30" x="95.410156"/>
       <use xlink:href="#DejaVuSans-32" x="159.033203"/>
       <use xlink:href="#DejaVuSans-38" x="222.65625"/>
      </g>
     </g>
    </g>
    <g id="ytick_8">
     <g id="line2d_40">
      <path d="M 162 100.400276 
L 1166.4 100.400276 
" clip-path="url(#pc51be74237)" style="fill: none; stroke: #808080; stroke-width: 0.8; stroke-linecap: square"/>
     </g>
     <g id="line2d_41">
      <g>
       <use xlink:href="#mfa122b2672" x="162" y="100.400276" style="stroke: #000000; stroke-width: 0.8"/>
      </g>
     </g>
     <g id="text_34">
      <!-- 0.029 -->
      <g transform="translate(126.371875 104.199495) scale(0.1 -0.1)">
       <use xlink:href="#DejaVuSans-30"/>
       <use xlink:href="#DejaVuSans-2e" x="63.623047"/>
       <use xlink:href="#DejaVuSans-30" x="95.410156"/>
       <use xlink:href="#DejaVuSans-32" x="159.033203"/>
       <use xlink:href="#DejaVuSans-39" x="222.65625"/>
      </g>
     </g>
    </g>
    <g id="text_35">
     <!-- $p_{loss}^{simulato}$ -->
     <g transform="translate(48.471875 322.89) scale(0.15 -0.15)">
      <defs>
       <path id="DejaVuSans-Oblique-70" d="M 3175 2156 
Q 3175 2616 2975 2859 
Q 2775 3103 2400 3103 
Q 2144 3103 1911 2972 
Q 1678 2841 1497 2591 
Q 1319 2344 1212 1994 
Q 1106 1644 1106 1300 
Q 1106 863 1306 627 
Q 1506 391 1875 391 
Q 2147 391 2380 519 
Q 2613 647 2778 891 
Q 2956 1147 3065 1494 
Q 3175 1841 3175 2156 
z
M 1394 2969 
Q 1625 3272 1939 3428 
Q 2253 3584 2638 3584 
Q 3175 3584 3472 3232 
Q 3769 2881 3769 2247 
Q 3769 1728 3584 1258 
Q 3400 788 3053 416 
Q 2822 169 2531 39 
Q 2241 -91 1919 -91 
Q 1547 -91 1294 64 
Q 1041 219 916 525 
L 556 -1331 
L -19 -1331 
L 922 3500 
L 1497 3500 
L 1394 2969 
z
" transform="scale(0.015625)"/>
       <path id="DejaVuSans-Oblique-73" d="M 3200 3397 
L 3091 2853 
Q 2863 2978 2609 3040 
Q 2356 3103 2088 3103 
Q 1634 3103 1373 2948 
Q 1113 2794 1113 2528 
Q 1113 2219 1719 2053 
Q 1766 2041 1788 2034 
L 1972 1978 
Q 2547 1819 2739 1644 
Q 2931 1469 2931 1166 
Q 2931 609 2489 259 
Q 2047 -91 1331 -91 
Q 1053 -91 747 -37 
Q 441 16 72 128 
L 184 722 
Q 500 559 806 475 
Q 1113 391 1394 391 
Q 1816 391 2080 572 
Q 2344 753 2344 1031 
Q 2344 1331 1650 1516 
L 1591 1531 
L 1394 1581 
Q 956 1697 753 1886 
Q 550 2075 550 2369 
Q 550 2928 970 3256 
Q 1391 3584 2113 3584 
Q 2397 3584 2667 3537 
Q 2938 3491 3200 3397 
z
" transform="scale(0.015625)"/>
       <path id="DejaVuSans-Oblique-69" d="M 1172 4863 
L 1747 4863 
L 1606 4134 
L 1031 4134 
L 1172 4863 
z
M 909 3500 
L 1484 3500 
L 800 0 
L 225 0 
L 909 3500 
z
" transform="scale(0.015625)"/>
       <path id="DejaVuSans-Oblique-6d" d="M 5747 2113 
L 5338 0 
L 4763 0 
L 5166 2094 
Q 5191 2228 5203 2325 
Q 5216 2422 5216 2491 
Q 5216 2772 5059 2928 
Q 4903 3084 4622 3084 
Q 4203 3084 3875 2770 
Q 3547 2456 3450 1953 
L 3066 0 
L 2491 0 
L 2900 2094 
Q 2925 2209 2937 2307 
Q 2950 2406 2950 2484 
Q 2950 2769 2794 2926 
Q 2638 3084 2363 3084 
Q 1938 3084 1609 2770 
Q 1281 2456 1184 1953 
L 800 0 
L 225 0 
L 909 3500 
L 1484 3500 
L 1375 2956 
Q 1609 3263 1923 3423 
Q 2238 3584 2597 3584 
Q 2978 3584 3223 3384 
Q 3469 3184 3519 2828 
Q 3781 3197 4126 3390 
Q 4472 3584 4856 3584 
Q 5306 3584 5551 3325 
Q 5797 3066 5797 2591 
Q 5797 2488 5784 2364 
Q 5772 2241 5747 2113 
z
" transform="scale(0.015625)"/>
       <path id="DejaVuSans-Oblique-75" d="M 428 1388 
L 838 3500 
L 1416 3500 
L 1006 1409 
Q 975 1256 961 1147 
Q 947 1038 947 966 
Q 947 700 1109 554 
Q 1272 409 1569 409 
Q 2031 409 2368 721 
Q 2706 1034 2809 1563 
L 3194 3500 
L 3769 3500 
L 3091 0 
L 2516 0 
L 2631 550 
Q 2388 244 2052 76 
Q 1716 -91 1338 -91 
Q 878 -91 622 161 
Q 366 413 366 863 
Q 366 956 381 1097 
Q 397 1238 428 1388 
z
" transform="scale(0.015625)"/>
       <path id="DejaVuSans-Oblique-6c" d="M 1172 4863 
L 1747 4863 
L 800 0 
L 225 0 
L 1172 4863 
z
" transform="scale(0.015625)"/>
       <path id="DejaVuSans-Oblique-6f" d="M 1625 -91 
Q 1009 -91 651 289 
Q 294 669 294 1325 
Q 294 1706 417 2101 
Q 541 2497 738 2766 
Q 1047 3184 1428 3384 
Q 1809 3584 2291 3584 
Q 2888 3584 3255 3212 
Q 3622 2841 3622 2241 
Q 3622 1825 3500 1412 
Q 3378 1000 3181 728 
Q 2875 309 2494 109 
Q 2113 -91 1625 -91 
z
M 891 1344 
Q 891 869 1089 633 
Q 1288 397 1691 397 
Q 2269 397 2648 901 
Q 3028 1406 3028 2181 
Q 3028 2634 2825 2865 
Q 2622 3097 2228 3097 
Q 1903 3097 1650 2945 
Q 1397 2794 1197 2484 
Q 1050 2253 970 1956 
Q 891 1659 891 1344 
z
" transform="scale(0.015625)"/>
      </defs>
      <use xlink:href="#DejaVuSans-Oblique-70" transform="translate(0 0.470313)"/>
      <use xlink:href="#DejaVuSans-Oblique-73" transform="translate(68.126458 39.810938) scale(0.7)"/>
      <use xlink:href="#DejaVuSans-Oblique-69" transform="translate(104.596185 39.810938) scale(0.7)"/>
      <use xlink:href="#DejaVuSans-Oblique-6d" transform="translate(124.044427 39.810938) scale(0.7)"/>
      <use xlink:href="#DejaVuSans-Oblique-75" transform="translate(192.232904 39.810938) scale(0.7)"/>
      <use xlink:href="#DejaVuSans-Oblique-6c" transform="translate(236.598138 39.810938) scale(0.7)"/>
      <use xlink:href="#DejaVuSans-Oblique-61" transform="translate(256.04638 39.810938) scale(0.7)"/>
      <use xlink:href="#DejaVuSans-Oblique-74" transform="translate(298.941888 39.810938) scale(0.7)"/>
      <use xlink:href="#DejaVuSans-Oblique-6f" transform="translate(326.388177 39.810938) scale(0.7)"/>
      <use xlink:href="#DejaVuSans-Oblique-6c" transform="translate(63.476562 -26.873437) scale(0.7)"/>
      <use xlink:href="#DejaVuSans-Oblique-6f" transform="translate(82.924805 -26.873437) scale(0.7)"/>
      <use xlink:href="#DejaVuSans-Oblique-73" transform="translate(125.751953 -26.873437) scale(0.7)"/>
      <use xlink:href="#DejaVuSans-Oblique-73" transform="translate(162.22168 -26.873437) scale(0.7)"/>
     </g>
    </g>
   </g>
   <g id="line2d_42">
    <path d="M 207.654545 131.504236 
L 208.385603 175.538386 
L 209.116661 100.44 
L 209.847718 131.027547 
L 210.578776 271.102622 
L 211.309833 359.431115 
L 212.040891 377.943958 
L 212.771948 154.653447 
L 213.503006 260.170553 
L 214.965121 350.970787 
L 215.696179 334.916388 
L 216.427236 364.577676 
L 217.158294 447.876794 
L 217.889351 453.038939 
L 218.620409 518.184703 
L 219.351467 554.04 
L 220.082524 512.507883 
L 220.813582 519.695329 
L 221.544639 513.519854 
L 222.275697 516.095819 
L 223.006754 524.994789 
L 223.737812 517.539457 
L 224.46887 501.402518 
L 225.199927 479.101118 
L 225.930985 435.741849 
L 226.662042 431.271022 
L 228.855215 393.238299 
L 229.586273 415.349494 
L 230.31733 422.487516 
L 231.779445 357.935036 
L 232.510503 341.356372 
L 233.241561 342.558309 
L 233.972618 341.094423 
L 234.703676 348.714497 
L 235.434733 358.530447 
L 236.165791 346.496952 
L 236.896848 378.343413 
L 237.627906 396.38019 
L 238.358964 398.426542 
L 239.090021 376.675431 
L 239.821079 364.75348 
L 240.552136 359.910826 
L 241.283194 374.414068 
L 242.014251 381.967086 
L 242.745309 399.20283 
L 243.476367 390.637166 
L 244.207424 400.682826 
L 244.938482 393.345172 
L 245.669539 359.098519 
L 246.400597 359.489597 
L 247.131654 356.566466 
L 247.862712 332.330775 
L 248.59377 319.860175 
L 250.055885 336.467394 
L 250.786942 327.967652 
L 251.518 327.218299 
L 252.249057 319.810823 
L 252.980115 316.827505 
L 254.44223 341.890944 
L 255.173288 326.701176 
L 255.904345 336.544556 
L 256.635403 332.481243 
L 257.36646 340.176591 
L 258.097518 340.230194 
L 258.828576 342.260378 
L 259.559633 346.062304 
L 260.290691 360.954098 
L 261.021748 353.156588 
L 261.752806 351.427903 
L 262.483863 330.349424 
L 263.214921 337.515155 
L 263.945979 307.654587 
L 265.408094 321.198916 
L 266.139151 328.500396 
L 266.870209 341.250321 
L 267.601266 346.200242 
L 268.332324 348.707739 
L 269.063382 362.283421 
L 269.794439 366.087209 
L 270.525497 355.472062 
L 271.256554 367.817411 
L 271.987612 368.463546 
L 272.718669 369.773281 
L 273.449727 374.731545 
L 274.180785 367.471788 
L 274.911842 365.627111 
L 275.6429 377.996843 
L 276.373957 384.792331 
L 277.105015 376.978609 
L 277.836072 377.08755 
L 278.56713 378.216352 
L 279.298188 362.214509 
L 280.029245 372.156527 
L 280.760303 361.065997 
L 281.49136 352.836332 
L 282.222418 362.283632 
L 282.953476 361.934687 
L 283.684533 365.428601 
L 284.415591 371.833649 
L 285.146648 360.635181 
L 285.877706 346.762993 
L 286.608763 348.050073 
L 287.339821 350.586727 
L 288.070879 348.36393 
L 288.801936 357.08562 
L 289.532994 367.19111 
L 290.264051 366.17846 
L 290.995109 352.375512 
L 291.726166 345.126677 
L 292.457224 329.751365 
L 293.188282 329.036802 
L 293.919339 320.482399 
L 294.650397 322.259301 
L 295.381454 331.948531 
L 296.112512 330.874055 
L 296.843569 333.756033 
L 297.574627 326.068328 
L 298.305685 327.452033 
L 299.036742 334.125453 
L 300.498857 325.286245 
L 301.229915 323.819626 
L 301.960972 333.796856 
L 302.69203 332.521003 
L 303.423088 338.615242 
L 304.154145 346.882559 
L 304.885203 346.160602 
L 305.61626 341.814586 
L 306.347318 342.808045 
L 307.078375 337.357788 
L 307.809433 339.131243 
L 308.540491 341.45275 
L 309.271548 342.091835 
L 310.002606 352.210417 
L 311.464721 359.822869 
L 312.195778 351.032367 
L 312.926836 351.412397 
L 313.657894 352.132494 
L 314.388951 358.291479 
L 315.120009 361.414501 
L 315.851066 365.853287 
L 316.582124 367.822431 
L 317.313181 366.705687 
L 318.044239 359.471754 
L 318.775297 365.4203 
L 319.506354 367.119402 
L 320.237412 374.43266 
L 320.968469 379.570081 
L 321.699527 383.306113 
L 322.430584 382.192891 
L 323.8927 388.001299 
L 324.623757 392.704294 
L 325.354815 395.064724 
L 326.085872 388.506161 
L 326.81693 394.925434 
L 327.547987 398.296981 
L 328.279045 391.925777 
L 329.010103 394.159184 
L 329.74116 396.972859 
L 330.472218 401.777403 
L 331.203275 397.082773 
L 331.934333 399.336573 
L 332.66539 404.163439 
L 333.396448 394.934862 
L 334.127506 397.696711 
L 334.858563 398.584253 
L 335.589621 402.71694 
L 336.320678 398.515071 
L 337.051736 392.339173 
L 337.782794 393.66723 
L 338.513851 395.55322 
L 339.244909 393.398446 
L 339.975966 389.795377 
L 340.707024 389.545391 
L 341.438081 393.735346 
L 342.169139 393.559527 
L 342.900197 396.78425 
L 343.631254 403.48433 
L 344.362312 404.354197 
L 345.093369 401.972617 
L 345.824427 404.027361 
L 346.555484 402.267979 
L 347.286542 402.435232 
L 348.0176 403.300966 
L 348.748657 392.588544 
L 349.479715 391.803037 
L 350.210772 389.766637 
L 350.94183 383.63977 
L 351.672887 379.251027 
L 352.403945 379.71101 
L 353.135003 376.303424 
L 353.86606 377.147613 
L 354.597118 371.132808 
L 355.328175 372.4817 
L 356.059233 368.468929 
L 356.79029 369.011063 
L 357.521348 368.671497 
L 358.252406 370.314219 
L 358.983463 367.499115 
L 359.714521 368.364235 
L 360.445578 366.756804 
L 361.176636 368.626252 
L 361.907693 368.978855 
L 363.369809 372.977307 
L 364.100866 366.482833 
L 364.831924 370.630273 
L 365.562981 370.64754 
L 366.294039 374.192804 
L 367.025096 375.658268 
L 367.756154 376.426794 
L 368.487212 379.248266 
L 369.218269 380.423953 
L 369.949327 380.480205 
L 370.680384 372.568704 
L 371.411442 375.580677 
L 372.142499 375.810006 
L 372.873557 374.527711 
L 373.604615 375.265606 
L 374.335672 373.459572 
L 375.06673 378.369055 
L 375.797787 377.759009 
L 376.528845 381.218663 
L 377.259902 382.744423 
L 377.99096 378.767323 
L 378.722018 381.933838 
L 379.453075 383.854779 
L 380.184133 386.691266 
L 380.91519 386.232939 
L 381.646248 388.414199 
L 382.377305 387.703989 
L 383.108363 393.681972 
L 383.839421 393.384785 
L 384.570478 395.176295 
L 385.301536 397.295007 
L 386.032593 398.997562 
L 386.763651 402.754349 
L 387.494708 400.448767 
L 388.225766 396.498893 
L 388.956824 398.702562 
L 389.687881 393.263722 
L 390.418939 395.18307 
L 391.149996 396.460821 
L 391.881054 396.82149 
L 392.612112 392.815222 
L 393.343169 395.537155 
L 394.074227 394.024432 
L 394.805284 393.753692 
L 395.536342 391.649659 
L 396.267399 390.950989 
L 396.998457 388.196013 
L 397.729515 389.78591 
L 398.460572 386.711631 
L 399.19163 387.292766 
L 399.922687 386.560183 
L 400.653745 390.283876 
L 401.384802 392.423388 
L 402.11586 389.686251 
L 402.846918 388.657963 
L 403.577975 390.898166 
L 404.309033 392.193335 
L 405.04009 388.793628 
L 405.771148 390.343537 
L 407.233263 374.156138 
L 407.964321 377.061928 
L 408.695378 377.945778 
L 409.426436 371.462314 
L 410.157493 375.005314 
L 410.888551 371.167767 
L 411.619608 365.978212 
L 412.350666 368.030213 
L 413.081724 367.823462 
L 413.812781 369.27753 
L 414.543839 372.746027 
L 415.274896 369.549571 
L 416.737011 367.13956 
L 417.468069 371.066341 
L 418.199127 373.408461 
L 418.930184 371.797634 
L 419.661242 367.333648 
L 420.392299 368.563982 
L 421.123357 369.396065 
L 422.585472 372.092225 
L 423.31653 370.619954 
L 424.047587 372.34997 
L 424.778645 369.852756 
L 425.509702 369.258674 
L 426.24076 370.777704 
L 426.971817 368.26626 
L 428.433933 374.474646 
L 429.16499 376.275434 
L 429.896048 375.915601 
L 430.627105 378.998733 
L 431.358163 376.686799 
L 432.08922 378.108013 
L 432.820278 379.007473 
L 433.551336 383.201432 
L 434.282393 384.743948 
L 435.013451 384.145226 
L 435.744508 386.067416 
L 436.475566 383.799502 
L 437.206623 385.457863 
L 437.937681 387.936353 
L 438.668739 389.883794 
L 439.399796 390.118534 
L 440.130854 382.853476 
L 441.592969 386.107046 
L 442.324026 383.405156 
L 443.055084 385.867648 
L 443.786142 387.452044 
L 444.517199 386.374465 
L 445.248257 387.917245 
L 445.979314 390.369709 
L 446.710372 391.733761 
L 447.44143 389.648376 
L 448.172487 387.122776 
L 448.903545 386.720812 
L 449.634602 387.327773 
L 450.36566 388.664017 
L 451.096717 383.895919 
L 451.827775 385.986637 
L 452.558833 384.824383 
L 454.020948 388.114021 
L 454.752005 389.516222 
L 455.483063 390.323953 
L 456.21412 390.611465 
L 456.945178 393.257568 
L 457.676236 397.441651 
L 458.407293 399.518665 
L 459.138351 397.467014 
L 459.869408 399.038727 
L 460.600466 393.550642 
L 461.331523 394.261262 
L 462.062581 395.286571 
L 462.793639 393.237845 
L 463.524696 394.808385 
L 464.255754 389.370155 
L 464.986811 388.778747 
L 465.717869 387.2405 
L 466.448926 389.877585 
L 467.179984 391.607402 
L 467.911042 391.250859 
L 468.642099 394.18503 
L 469.373157 393.682877 
L 470.104214 392.194548 
L 470.835272 388.755551 
L 471.566329 387.846401 
L 472.297387 388.383162 
L 473.028445 390.112624 
L 473.759502 390.144445 
L 475.221617 384.79075 
L 475.952675 378.421387 
L 476.683732 375.365237 
L 477.41479 376.425294 
L 478.145848 370.590772 
L 478.876905 371.616318 
L 479.607963 370.537112 
L 480.33902 370.748603 
L 481.070078 373.612058 
L 482.532193 377.119213 
L 483.263251 373.303333 
L 484.725366 371.701572 
L 485.456423 373.400934 
L 486.187481 371.847076 
L 486.918538 369.344997 
L 487.649596 371.378599 
L 488.380654 371.668532 
L 489.111711 365.238859 
L 491.304884 368.339956 
L 492.035941 368.115258 
L 492.766999 365.020604 
L 493.498057 365.398949 
L 494.229114 366.35516 
L 494.960172 365.424108 
L 495.691229 366.063302 
L 496.422287 363.038634 
L 497.153344 362.654894 
L 497.884402 364.691562 
L 498.61546 365.525402 
L 499.346517 364.862589 
L 500.808632 367.545501 
L 501.53969 368.03722 
L 502.270748 367.500414 
L 503.001805 369.048831 
L 504.46392 373.425681 
L 505.926035 376.559262 
L 506.657093 373.252578 
L 507.388151 371.23359 
L 508.119208 373.755408 
L 508.850266 373.04491 
L 510.312381 368.7014 
L 511.043438 369.211357 
L 511.774496 366.140842 
L 512.505554 366.697677 
L 513.236611 364.776825 
L 513.967669 365.225015 
L 514.698726 364.424296 
L 515.429784 366.115163 
L 516.160841 362.641934 
L 516.891899 364.488394 
L 517.622957 364.219339 
L 518.354014 364.994725 
L 519.085072 362.412352 
L 519.816129 363.748139 
L 520.547187 365.35299 
L 521.278244 366.342459 
L 522.74036 365.665314 
L 523.471417 366.78413 
L 524.202475 367.514326 
L 524.933532 367.983094 
L 525.66459 370.107601 
L 526.395647 370.534883 
L 527.126705 369.207729 
L 527.857763 369.823782 
L 528.58882 371.051178 
L 529.319878 365.325615 
L 530.050935 365.763062 
L 530.781993 361.286647 
L 531.51305 359.788497 
L 532.244108 361.710496 
L 532.975166 357.366531 
L 533.706223 357.799961 
L 534.437281 358.895682 
L 535.168338 358.118915 
L 535.899396 356.528211 
L 536.630453 357.652229 
L 537.361511 360.710063 
L 539.554684 359.535903 
L 540.285741 359.655085 
L 541.016799 359.989012 
L 541.747856 361.572139 
L 542.478914 362.159809 
L 543.209972 361.992843 
L 543.941029 362.139268 
L 544.672087 362.663727 
L 545.403144 364.014978 
L 546.134202 362.031673 
L 546.865259 360.644686 
L 547.596317 361.741335 
L 548.327375 361.367877 
L 549.058432 360.834063 
L 549.78949 361.504157 
L 550.520547 362.887575 
L 551.251605 361.561224 
L 551.982662 359.390507 
L 552.71372 359.54867 
L 553.444778 360.888461 
L 554.175835 360.424112 
L 554.906893 359.419306 
L 555.63795 357.832595 
L 556.369008 357.146564 
L 557.100066 359.839531 
L 557.831123 357.025201 
L 558.562181 354.706323 
L 559.293238 355.009832 
L 560.024296 357.009117 
L 560.755353 358.499445 
L 561.486411 357.959419 
L 562.217469 357.280987 
L 562.948526 352.554708 
L 563.679584 350.707201 
L 564.410641 350.481193 
L 565.872756 355.35355 
L 566.603814 353.579926 
L 567.334872 352.358716 
L 568.065929 351.514563 
L 568.796987 352.484756 
L 569.528044 351.035037 
L 570.259102 351.105502 
L 570.990159 350.153865 
L 571.721217 348.051457 
L 572.452275 348.264277 
L 573.183332 349.923321 
L 573.91439 346.036501 
L 574.645447 343.709399 
L 576.107562 347.057003 
L 576.83862 347.049407 
L 577.569678 347.624188 
L 578.300735 343.555086 
L 579.031793 344.105558 
L 580.493908 347.194833 
L 581.224965 346.221808 
L 581.956023 345.782348 
L 582.687081 346.280819 
L 583.418138 345.387088 
L 584.149196 345.072474 
L 584.880253 346.087375 
L 585.611311 346.14613 
L 586.342368 347.325659 
L 587.073426 348.172583 
L 587.804484 347.209115 
L 588.535541 345.203613 
L 589.266599 343.699332 
L 589.997656 345.059562 
L 590.728714 344.702275 
L 591.459771 346.7256 
L 592.190829 347.033374 
L 592.921887 345.242957 
L 593.652944 346.513747 
L 594.384002 345.156152 
L 595.115059 345.311053 
L 595.846117 346.464897 
L 597.308232 344.221588 
L 598.03929 344.446799 
L 598.770347 344.286974 
L 599.501405 344.512556 
L 600.232462 345.124943 
L 600.96352 347.043962 
L 601.694577 345.298057 
L 603.156693 347.047167 
L 603.88775 347.242459 
L 604.618808 348.202014 
L 605.349865 347.967418 
L 606.080923 347.314286 
L 606.81198 346.248618 
L 607.543038 346.677798 
L 608.274096 346.23702 
L 609.736211 348.267655 
L 610.467268 347.759897 
L 611.198326 347.616126 
L 611.929384 347.185376 
L 612.660441 346.510963 
L 613.391499 346.764918 
L 614.853614 347.789181 
L 616.315729 342.096516 
L 617.046787 340.412783 
L 617.777844 340.029609 
L 618.508902 340.574398 
L 619.239959 340.943144 
L 620.702074 344.50528 
L 621.433132 343.669953 
L 622.16419 340.93102 
L 622.895247 340.714909 
L 623.626305 341.569702 
L 624.357362 339.565123 
L 625.08842 339.063041 
L 625.819477 339.466381 
L 626.550535 338.063708 
L 627.281593 339.140138 
L 628.01265 341.161449 
L 628.743708 340.521537 
L 629.474765 340.434032 
L 630.205823 342.485962 
L 630.93688 342.108228 
L 631.667938 342.549079 
L 632.398996 342.740241 
L 633.130053 342.203858 
L 633.861111 342.192834 
L 634.592168 340.078202 
L 635.323226 340.38433 
L 636.054283 341.610108 
L 636.785341 341.985856 
L 637.516399 343.602634 
L 638.247456 341.082189 
L 638.978514 339.467089 
L 639.709571 340.927441 
L 640.440629 340.069658 
L 641.171686 341.670134 
L 641.902744 342.286816 
L 643.364859 344.611685 
L 644.095917 344.999347 
L 644.826974 346.126812 
L 645.558032 347.855814 
L 646.289089 348.838052 
L 647.020147 347.928781 
L 647.751205 349.987504 
L 648.482262 351.139106 
L 649.21332 349.519939 
L 649.944377 349.44798 
L 650.675435 349.823988 
L 651.406492 348.964504 
L 652.13755 348.518977 
L 652.868608 348.248003 
L 653.599665 349.607319 
L 654.330723 350.256993 
L 655.06178 351.403398 
L 655.792838 351.156083 
L 656.523895 349.74895 
L 657.986011 351.210852 
L 658.717068 351.243614 
L 660.179183 351.068073 
L 660.910241 349.548789 
L 661.641298 349.061052 
L 663.103414 349.963604 
L 663.834471 348.867479 
L 664.565529 346.855173 
L 665.296586 346.07256 
L 666.027644 346.483972 
L 666.758702 345.341711 
L 667.489759 345.285462 
L 668.220817 344.823998 
L 668.951874 345.245342 
L 669.682932 344.974889 
L 670.413989 345.588931 
L 671.876105 347.872905 
L 672.607162 348.228813 
L 673.33822 349.409313 
L 674.069277 349.093108 
L 674.800335 348.263122 
L 675.531392 345.106848 
L 676.26245 346.758667 
L 676.993508 347.509332 
L 677.724565 345.605251 
L 678.455623 346.236297 
L 679.18668 346.263994 
L 681.379853 350.685343 
L 682.110911 351.596608 
L 682.841968 352.985058 
L 683.573026 352.891567 
L 684.304083 353.353983 
L 685.035141 352.239962 
L 685.766198 352.694501 
L 686.497256 352.392291 
L 687.228314 352.949241 
L 687.959371 354.878239 
L 688.690429 351.058962 
L 689.421486 351.634631 
L 690.152544 351.831299 
L 690.883601 353.027196 
L 691.614659 352.67438 
L 692.345717 352.751755 
L 693.076774 353.261501 
L 693.807832 352.309767 
L 694.538889 352.877519 
L 695.269947 354.46162 
L 696.001004 352.968692 
L 697.46312 355.334605 
L 698.194177 354.304757 
L 698.925235 352.19019 
L 699.656292 352.273412 
L 700.38735 352.796354 
L 701.118407 352.504168 
L 701.849465 354.684218 
L 702.580523 353.836522 
L 703.31158 353.705654 
L 704.773695 355.408001 
L 706.23581 354.834448 
L 706.966868 352.877163 
L 707.697926 353.416294 
L 708.428983 352.378468 
L 709.160041 354.052274 
L 709.891098 354.46826 
L 710.622156 355.737481 
L 711.353213 355.554044 
L 712.084271 354.285653 
L 712.815329 352.169414 
L 713.546386 352.879435 
L 714.277444 350.701947 
L 715.008501 352.828128 
L 715.739559 352.270163 
L 716.470616 352.973144 
L 717.201674 353.227385 
L 717.932732 352.738075 
L 718.663789 353.342973 
L 719.394847 354.858382 
L 720.125904 355.893804 
L 720.856962 357.269048 
L 721.58802 357.825223 
L 722.319077 358.549282 
L 723.050135 358.818402 
L 723.781192 358.260645 
L 724.51225 358.62039 
L 725.243307 360.310605 
L 725.974365 360.333439 
L 726.705423 360.977798 
L 727.43648 360.090523 
L 728.898595 355.563608 
L 729.629653 355.573586 
L 730.36071 354.255083 
L 731.091768 353.476532 
L 731.822826 352.418154 
L 732.553883 350.595309 
L 733.284941 351.58627 
L 734.015998 350.982019 
L 734.747056 351.586928 
L 736.209171 354.674539 
L 736.940229 355.716077 
L 737.671286 354.376143 
L 738.402344 354.369886 
L 739.133401 355.048151 
L 739.864459 355.156076 
L 740.595516 356.072851 
L 741.326574 357.715684 
L 742.057632 357.560094 
L 742.788689 354.486021 
L 743.519747 352.75046 
L 745.712919 353.820815 
L 747.175035 351.472039 
L 747.906092 351.709611 
L 749.368207 350.728354 
L 750.099265 351.517801 
L 750.830322 351.43472 
L 751.56138 348.52524 
L 752.292438 347.702125 
L 753.023495 347.226288 
L 753.754553 347.436246 
L 754.48561 347.076035 
L 755.216668 347.033307 
L 755.947725 348.161309 
L 756.678783 348.082862 
L 757.409841 346.395323 
L 758.140898 346.958041 
L 758.871956 346.979836 
L 759.603013 347.614696 
L 761.065128 347.707085 
L 761.796186 348.473822 
L 762.527244 348.864717 
L 763.258301 350.614808 
L 763.989359 351.951726 
L 764.720416 351.609153 
L 766.913589 352.018891 
L 767.644647 351.621305 
L 768.375704 350.725022 
L 769.106762 351.440749 
L 769.837819 350.761307 
L 770.568877 349.120512 
L 771.299934 349.938344 
L 772.030992 351.150891 
L 772.76205 351.998168 
L 773.493107 351.609865 
L 774.224165 351.089338 
L 774.955222 351.448375 
L 775.68628 350.728042 
L 776.417338 349.813666 
L 777.148395 350.095114 
L 777.879453 347.302845 
L 778.61051 347.928147 
L 779.341568 348.163743 
L 780.072625 348.956902 
L 780.803683 349.577707 
L 781.534741 350.028105 
L 782.265798 350.999854 
L 782.996856 349.686035 
L 783.727913 348.698097 
L 784.458971 348.85694 
L 785.190028 348.802649 
L 785.921086 348.570564 
L 786.652144 347.551071 
L 787.383201 348.399476 
L 788.114259 347.020148 
L 788.845316 344.736945 
L 789.576374 343.689997 
L 791.038489 343.857943 
L 791.769547 342.143813 
L 792.500604 342.825517 
L 793.231662 342.382374 
L 793.962719 343.285364 
L 794.693777 343.739137 
L 795.424834 343.704361 
L 796.155892 344.852079 
L 796.88695 346.321982 
L 797.618007 345.311218 
L 798.349065 344.86427 
L 799.080122 346.027693 
L 799.81118 347.487206 
L 800.542237 347.723737 
L 801.273295 347.754762 
L 802.004353 348.985778 
L 802.73541 349.836078 
L 803.466468 349.317172 
L 804.197525 350.43914 
L 804.928583 348.114533 
L 805.65964 348.378688 
L 807.121756 347.081121 
L 807.852813 346.454821 
L 808.583871 345.023929 
L 809.314928 346.072734 
L 810.045986 346.19913 
L 810.777043 347.632508 
L 811.508101 348.239526 
L 812.239159 348.049156 
L 812.970216 348.867395 
L 813.701274 350.324966 
L 814.432331 350.79152 
L 815.163389 351.956302 
L 815.894446 353.621729 
L 816.625504 354.502327 
L 817.356562 353.93612 
L 818.087619 352.98189 
L 818.818677 352.262875 
L 819.549734 352.859883 
L 820.280792 353.79729 
L 821.011849 354.248256 
L 821.742907 354.555881 
L 822.473965 353.381684 
L 823.205022 351.481385 
L 823.93608 350.776253 
L 824.667137 348.949045 
L 825.398195 348.579255 
L 826.129252 349.86862 
L 826.86031 349.068585 
L 827.591368 347.513994 
L 828.322425 348.17665 
L 829.053483 347.137759 
L 829.78454 348.423346 
L 830.515598 349.14296 
L 831.246656 348.439125 
L 831.977713 349.137593 
L 832.708771 350.404257 
L 833.439828 350.087993 
L 834.170886 350.397913 
L 834.901943 349.272188 
L 835.633001 350.507099 
L 836.364059 348.689521 
L 837.095116 348.354615 
L 837.826174 346.716565 
L 838.557231 347.807957 
L 839.288289 348.28705 
L 840.019346 348.411236 
L 840.750404 348.113152 
L 841.481462 347.946323 
L 842.212519 348.264384 
L 842.943577 349.140111 
L 843.674634 348.853505 
L 844.405692 348.951586 
L 845.136749 348.317482 
L 845.867807 348.622323 
L 846.598865 349.560258 
L 847.329922 349.22665 
L 848.06098 346.587201 
L 848.792037 347.328593 
L 849.523095 348.430898 
L 850.254152 348.511844 
L 850.98521 347.360843 
L 852.447325 347.783263 
L 853.178383 347.580193 
L 853.90944 347.788288 
L 854.640498 348.451081 
L 855.371555 348.32016 
L 856.833671 346.5544 
L 857.564728 347.914767 
L 859.026843 347.626537 
L 859.757901 347.929868 
L 861.220016 347.815803 
L 862.682131 346.411479 
L 863.413189 346.237056 
L 864.144246 346.583521 
L 864.875304 346.377383 
L 865.606361 346.622268 
L 866.337419 345.660025 
L 867.068477 345.63521 
L 867.799534 344.587731 
L 868.530592 345.233693 
L 869.261649 345.551427 
L 869.992707 346.763106 
L 872.18588 346.63125 
L 872.916937 346.04001 
L 873.647995 346.115967 
L 874.379052 346.022919 
L 875.11011 346.512963 
L 875.841167 346.471066 
L 876.572225 345.922714 
L 877.303283 346.921157 
L 878.03434 346.536754 
L 878.765398 346.401971 
L 879.496455 346.948447 
L 880.227513 347.282629 
L 880.95857 346.444203 
L 881.689628 347.246052 
L 882.420686 348.431541 
L 883.151743 349.128759 
L 883.882801 348.433977 
L 884.613858 348.945338 
L 885.344916 349.239532 
L 886.807031 351.870852 
L 887.538089 351.464675 
L 888.269146 352.191826 
L 889.000204 352.4832 
L 889.731261 352.053812 
L 890.462319 352.932477 
L 891.193377 352.111315 
L 891.924434 352.037209 
L 892.655492 352.35324 
L 893.386549 353.603382 
L 894.117607 353.02195 
L 894.848664 352.860567 
L 895.579722 353.174065 
L 896.31078 352.169621 
L 897.041837 353.079806 
L 898.503952 352.804856 
L 899.23501 353.290167 
L 901.428183 351.082575 
L 902.15924 351.822292 
L 902.890298 351.751285 
L 903.621355 351.328537 
L 904.352413 352.189089 
L 905.08347 352.609522 
L 905.814528 351.163207 
L 906.545586 351.892099 
L 907.276643 350.969096 
L 908.007701 351.146168 
L 908.738758 350.898133 
L 909.469816 349.369109 
L 910.200873 350.412281 
L 910.931931 350.072968 
L 911.662989 348.916409 
L 912.394046 350.231582 
L 913.856161 351.931447 
L 914.587219 350.908492 
L 915.318276 351.42914 
L 916.049334 351.405252 
L 916.780392 351.658234 
L 917.511449 350.06046 
L 918.242507 351.274357 
L 918.973564 352.017699 
L 919.704622 351.432975 
L 920.435679 351.526449 
L 921.166737 351.274717 
L 921.897795 351.446695 
L 922.628852 351.97663 
L 924.090967 348.695984 
L 924.822025 348.252304 
L 925.553082 347.409032 
L 926.28414 347.963267 
L 927.015198 347.232523 
L 927.746255 346.822524 
L 928.477313 346.941964 
L 929.939428 346.416104 
L 930.670485 346.702615 
L 931.401543 346.866188 
L 932.132601 347.607332 
L 932.863658 346.74476 
L 933.594716 346.575157 
L 934.325773 347.317354 
L 935.056831 347.881217 
L 935.787888 347.904804 
L 936.518946 346.122431 
L 937.250004 347.007049 
L 937.981061 347.222532 
L 938.712119 347.80665 
L 940.174234 348.054669 
L 941.636349 348.745187 
L 942.367407 349.068479 
L 943.098464 348.347039 
L 943.829522 346.986244 
L 944.560579 346.920557 
L 945.291637 346.406039 
L 946.022695 346.905739 
L 946.753752 346.644905 
L 947.48481 347.236614 
L 948.215867 346.342087 
L 948.946925 347.684536 
L 949.677982 347.469649 
L 950.40904 346.46996 
L 951.871155 345.495572 
L 952.602213 343.630567 
L 953.33327 344.354939 
L 954.064328 344.862345 
L 954.795385 344.334127 
L 955.526443 344.862034 
L 956.257501 344.75073 
L 956.988558 345.301536 
L 957.719616 345.058025 
L 958.450673 345.332947 
L 959.181731 346.252533 
L 959.912788 346.709495 
L 960.643846 346.402221 
L 961.374904 346.45866 
L 962.105961 346.109538 
L 962.837019 347.166265 
L 963.568076 347.793828 
L 964.299134 348.114716 
L 965.030191 348.879725 
L 965.761249 348.553144 
L 966.492307 347.417704 
L 967.223364 346.030977 
L 967.954422 346.185507 
L 968.685479 345.886612 
L 969.416537 344.90999 
L 970.147594 345.419585 
L 970.878652 346.782082 
L 971.60971 346.70171 
L 972.340767 347.211718 
L 973.071825 346.937662 
L 973.802882 347.128662 
L 974.53394 346.787222 
L 975.264997 345.722043 
L 976.727113 347.228775 
L 977.45817 347.379641 
L 978.189228 347.375692 
L 978.920285 346.559777 
L 979.651343 347.433041 
L 980.3824 347.706427 
L 981.113458 348.628723 
L 981.844516 349.109748 
L 982.575573 350.503987 
L 983.306631 349.900925 
L 984.037688 350.027203 
L 984.768746 350.309658 
L 985.499803 350.025766 
L 986.230861 350.175943 
L 986.961919 350.994689 
L 987.692976 351.331083 
L 988.424034 352.066003 
L 989.155091 351.25638 
L 989.886149 351.91016 
L 990.617206 348.678338 
L 992.079322 348.562804 
L 992.810379 349.42956 
L 993.541437 347.950964 
L 995.003552 347.378539 
L 995.73461 346.255907 
L 996.465667 346.33298 
L 997.927782 344.532912 
L 998.65884 344.482506 
L 1000.120955 343.556006 
L 1000.852013 343.072911 
L 1001.58307 343.35798 
L 1002.314128 343.439943 
L 1003.045185 342.842396 
L 1003.776243 343.203479 
L 1004.5073 343.182134 
L 1005.238358 343.28813 
L 1005.969416 343.513431 
L 1006.700473 344.167243 
L 1008.162588 344.139135 
L 1008.893646 344.447032 
L 1010.355761 346.176147 
L 1011.086819 346.733834 
L 1011.817876 345.814439 
L 1012.548934 346.247891 
L 1013.279991 345.779201 
L 1014.011049 345.609939 
L 1014.742106 344.716082 
L 1016.204222 345.046985 
L 1016.935279 345.473781 
L 1017.666337 346.068034 
L 1018.397394 344.275892 
L 1019.128452 343.823991 
L 1019.859509 344.651004 
L 1020.590567 344.722843 
L 1021.321625 344.660244 
L 1022.052682 345.067713 
L 1022.78374 345.996792 
L 1023.514797 346.465228 
L 1024.245855 346.70141 
L 1024.976912 347.657582 
L 1025.70797 347.782629 
L 1026.439028 347.718648 
L 1027.170085 348.487023 
L 1027.901143 348.882981 
L 1028.6322 349.065761 
L 1029.363258 349.117762 
L 1030.094315 348.924076 
L 1030.825373 349.491026 
L 1031.556431 350.802113 
L 1032.287488 351.476912 
L 1033.018546 351.251662 
L 1033.749603 351.618298 
L 1034.480661 351.52918 
L 1035.211718 351.260093 
L 1035.942776 352.032714 
L 1037.404891 348.958258 
L 1038.135949 349.032811 
L 1038.867006 348.426391 
L 1039.598064 348.885791 
L 1040.329121 347.704669 
L 1041.060179 347.448132 
L 1041.791237 348.35319 
L 1042.522294 349.492456 
L 1043.253352 349.090699 
L 1043.984409 350.071678 
L 1044.715467 350.62859 
L 1046.90864 351.633448 
L 1047.639697 350.03471 
L 1048.370755 348.795077 
L 1049.101812 349.038869 
L 1049.83287 348.094393 
L 1050.563928 348.768123 
L 1051.294985 349.248206 
L 1052.026043 349.511948 
L 1052.7571 349.351025 
L 1053.488158 349.754801 
L 1054.219215 349.560939 
L 1054.950273 348.95714 
L 1055.681331 349.228619 
L 1056.412388 350.298968 
L 1057.143446 350.331609 
L 1057.874503 349.492056 
L 1058.605561 349.629367 
L 1059.336618 350.377992 
L 1060.067676 349.914975 
L 1060.798734 350.198291 
L 1061.529791 349.794532 
L 1062.260849 350.730521 
L 1062.991906 350.494255 
L 1063.722964 350.971545 
L 1064.454021 350.951521 
L 1065.916137 350.770647 
L 1066.647194 351.01427 
L 1067.378252 351.514251 
L 1068.109309 352.259619 
L 1069.571424 352.545904 
L 1070.302482 352.002433 
L 1071.03354 352.971313 
L 1072.495655 353.82361 
L 1073.95777 354.205237 
L 1074.688827 354.425788 
L 1075.419885 352.520779 
L 1076.150943 352.552642 
L 1077.613058 353.284263 
L 1078.344115 352.920547 
L 1079.075173 353.508022 
L 1079.80623 353.940408 
L 1080.537288 352.466211 
L 1081.268346 352.254706 
L 1081.999403 352.164121 
L 1082.730461 352.523318 
L 1083.461518 352.579314 
L 1084.192576 352.773656 
L 1084.923633 352.513162 
L 1085.654691 351.277168 
L 1086.385749 352.082332 
L 1087.116806 351.760407 
L 1087.847864 351.042731 
L 1088.578921 351.553097 
L 1089.309979 350.449448 
L 1090.041036 350.088062 
L 1090.772094 348.826681 
L 1091.503152 349.32232 
L 1092.234209 348.846983 
L 1092.965267 347.73011 
L 1093.696324 348.356535 
L 1095.158439 347.440742 
L 1096.620555 347.802672 
L 1097.351612 347.71926 
L 1098.08267 346.551264 
L 1098.813727 346.695491 
L 1099.544785 346.160903 
L 1100.275842 346.526882 
L 1101.0069 346.29187 
L 1101.737958 347.182611 
L 1102.469015 346.790286 
L 1103.200073 345.95953 
L 1103.93113 346.19452 
L 1104.662188 346.649809 
L 1105.393246 345.339367 
L 1106.124303 345.138824 
L 1106.855361 346.343747 
L 1107.586418 345.832112 
L 1108.317476 346.288459 
L 1109.779591 345.809396 
L 1110.510649 344.941802 
L 1111.241706 342.345109 
L 1111.972764 341.03222 
L 1112.703821 342.035596 
L 1113.434879 342.672243 
L 1114.165936 342.723911 
L 1115.628052 342.235978 
L 1116.359109 341.788958 
L 1117.090167 342.935496 
L 1117.821224 343.194197 
L 1118.552282 343.02611 
L 1119.283339 341.65091 
L 1120.014397 341.816082 
L 1120.745455 341.78183 
L 1120.745455 341.78183 
" clip-path="url(#pc51be74237)" style="fill: none; stroke: #008000; stroke-width: 1.5; stroke-linecap: square"/>
   </g>
   <g id="line2d_43">
    <path d="M 162 327.423432 
L 1166.4 327.423432 
" clip-path="url(#pc51be74237)" style="fill: none; stroke-dasharray: 1.5,2.475; stroke-dashoffset: 0; stroke: #0000ff; stroke-width: 1.5"/>
   </g>
   <g id="patch_3">
    <path d="M 162 576.72 
L 162 77.76 
" style="fill: none; stroke: #808080; stroke-width: 0.8; stroke-linejoin: miter; stroke-linecap: square"/>
   </g>
   <g id="patch_4">
    <path d="M 1166.4 576.72 
L 1166.4 77.76 
" style="fill: none; stroke: #808080; stroke-width: 0.8; stroke-linejoin: miter; stroke-linecap: square"/>
   </g>
   <g id="patch_5">
    <path d="M 162 576.72 
L 1166.4 576.72 
" style="fill: none; stroke: #808080; stroke-width: 0.8; stroke-linejoin: miter; stroke-linecap: square"/>
   </g>
   <g id="patch_6">
    <path d="M 162 77.76 
L 1166.4 77.76 
" style="fill: none; stroke: #808080; stroke-width: 0.8; stroke-linejoin: miter; stroke-linecap: square"/>
   </g>
   <g id="text_36">
    <!-- (Andamento di $p_{loss}$ in funzione del numero di batch) -->
    <g transform="translate(400.3 71.76) scale(0.2 -0.2)">
     <defs>
      <path id="DejaVuSans-28" d="M 1984 4856 
Q 1566 4138 1362 3434 
Q 1159 2731 1159 2009 
Q 1159 1288 1364 580 
Q 1569 -128 1984 -844 
L 1484 -844 
Q 1016 -109 783 600 
Q 550 1309 550 2009 
Q 550 2706 781 3412 
Q 1013 4119 1484 4856 
L 1984 4856 
z
" transform="scale(0.015625)"/>
      <path id="DejaVuSans-41" d="M 2188 4044 
L 1331 1722 
L 3047 1722 
L 2188 4044 
z
M 1831 4666 
L 2547 4666 
L 4325 0 
L 3669 0 
L 3244 1197 
L 1141 1197 
L 716 0 
L 50 0 
L 1831 4666 
z
" transform="scale(0.015625)"/>
      <path id="DejaVuSans-6e" d="M 3513 2113 
L 3513 0 
L 2938 0 
L 2938 2094 
Q 2938 2591 2744 2837 
Q 2550 3084 2163 3084 
Q 1697 3084 1428 2787 
Q 1159 2491 1159 1978 
L 1159 0 
L 581 0 
L 581 3500 
L 1159 3500 
L 1159 2956 
Q 1366 3272 1645 3428 
Q 1925 3584 2291 3584 
Q 2894 3584 3203 3211 
Q 3513 2838 3513 2113 
z
" transform="scale(0.015625)"/>
      <path id="DejaVuSans-64" d="M 2906 2969 
L 2906 4863 
L 3481 4863 
L 3481 0 
L 2906 0 
L 2906 525 
Q 2725 213 2448 61 
Q 2172 -91 1784 -91 
Q 1150 -91 751 415 
Q 353 922 353 1747 
Q 353 2572 751 3078 
Q 1150 3584 1784 3584 
Q 2172 3584 2448 3432 
Q 2725 3281 2906 2969 
z
M 947 1747 
Q 947 1113 1208 752 
Q 1469 391 1925 391 
Q 2381 391 2643 752 
Q 2906 1113 2906 1747 
Q 2906 2381 2643 2742 
Q 2381 3103 1925 3103 
Q 1469 3103 1208 2742 
Q 947 2381 947 1747 
z
" transform="scale(0.015625)"/>
      <path id="DejaVuSans-61" d="M 2194 1759 
Q 1497 1759 1228 1600 
Q 959 1441 959 1056 
Q 959 750 1161 570 
Q 1363 391 1709 391 
Q 2188 391 2477 730 
Q 2766 1069 2766 1631 
L 2766 1759 
L 2194 1759 
z
M 3341 1997 
L 3341 0 
L 2766 0 
L 2766 531 
Q 2569 213 2275 61 
Q 1981 -91 1556 -91 
Q 1019 -91 701 211 
Q 384 513 384 1019 
Q 384 1609 779 1909 
Q 1175 2209 1959 2209 
L 2766 2209 
L 2766 2266 
Q 2766 2663 2505 2880 
Q 2244 3097 1772 3097 
Q 1472 3097 1187 3025 
Q 903 2953 641 2809 
L 641 3341 
Q 956 3463 1253 3523 
Q 1550 3584 1831 3584 
Q 2591 3584 2966 3190 
Q 3341 2797 3341 1997 
z
" transform="scale(0.015625)"/>
      <path id="DejaVuSans-6d" d="M 3328 2828 
Q 3544 3216 3844 3400 
Q 4144 3584 4550 3584 
Q 5097 3584 5394 3201 
Q 5691 2819 5691 2113 
L 5691 0 
L 5113 0 
L 5113 2094 
Q 5113 2597 4934 2840 
Q 4756 3084 4391 3084 
Q 3944 3084 3684 2787 
Q 3425 2491 3425 1978 
L 3425 0 
L 2847 0 
L 2847 2094 
Q 2847 2600 2669 2842 
Q 2491 3084 2119 3084 
Q 1678 3084 1418 2786 
Q 1159 2488 1159 1978 
L 1159 0 
L 581 0 
L 581 3500 
L 1159 3500 
L 1159 2956 
Q 1356 3278 1631 3431 
Q 1906 3584 2284 3584 
Q 2666 3584 2933 3390 
Q 3200 3197 3328 2828 
z
" transform="scale(0.015625)"/>
      <path id="DejaVuSans-65" d="M 3597 1894 
L 3597 1613 
L 953 1613 
Q 991 1019 1311 708 
Q 1631 397 2203 397 
Q 2534 397 2845 478 
Q 3156 559 3463 722 
L 3463 178 
Q 3153 47 2828 -22 
Q 2503 -91 2169 -91 
Q 1331 -91 842 396 
Q 353 884 353 1716 
Q 353 2575 817 3079 
Q 1281 3584 2069 3584 
Q 2775 3584 3186 3129 
Q 3597 2675 3597 1894 
z
M 3022 2063 
Q 3016 2534 2758 2815 
Q 2500 3097 2075 3097 
Q 1594 3097 1305 2825 
Q 1016 2553 972 2059 
L 3022 2063 
z
" transform="scale(0.015625)"/>
      <path id="DejaVuSans-74" d="M 1172 4494 
L 1172 3500 
L 2356 3500 
L 2356 3053 
L 1172 3053 
L 1172 1153 
Q 1172 725 1289 603 
Q 1406 481 1766 481 
L 2356 481 
L 2356 0 
L 1766 0 
Q 1100 0 847 248 
Q 594 497 594 1153 
L 594 3053 
L 172 3053 
L 172 3500 
L 594 3500 
L 594 4494 
L 1172 4494 
z
" transform="scale(0.015625)"/>
      <path id="DejaVuSans-6f" d="M 1959 3097 
Q 1497 3097 1228 2736 
Q 959 2375 959 1747 
Q 959 1119 1226 758 
Q 1494 397 1959 397 
Q 2419 397 2687 759 
Q 2956 1122 2956 1747 
Q 2956 2369 2687 2733 
Q 2419 3097 1959 3097 
z
M 1959 3584 
Q 2709 3584 3137 3096 
Q 3566 2609 3566 1747 
Q 3566 888 3137 398 
Q 2709 -91 1959 -91 
Q 1206 -91 779 398 
Q 353 888 353 1747 
Q 353 2609 779 3096 
Q 1206 3584 1959 3584 
z
" transform="scale(0.015625)"/>
      <path id="DejaVuSans-20" transform="scale(0.015625)"/>
      <path id="DejaVuSans-69" d="M 603 3500 
L 1178 3500 
L 1178 0 
L 603 0 
L 603 3500 
z
M 603 4863 
L 1178 4863 
L 1178 4134 
L 603 4134 
L 603 4863 
z
" transform="scale(0.015625)"/>
      <path id="DejaVuSans-66" d="M 2375 4863 
L 2375 4384 
L 1825 4384 
Q 1516 4384 1395 4259 
Q 1275 4134 1275 3809 
L 1275 3500 
L 2222 3500 
L 2222 3053 
L 1275 3053 
L 1275 0 
L 697 0 
L 697 3053 
L 147 3053 
L 147 3500 
L 697 3500 
L 697 3744 
Q 697 4328 969 4595 
Q 1241 4863 1831 4863 
L 2375 4863 
z
" transform="scale(0.015625)"/>
      <path id="DejaVuSans-75" d="M 544 1381 
L 544 3500 
L 1119 3500 
L 1119 1403 
Q 1119 906 1312 657 
Q 1506 409 1894 409 
Q 2359 409 2629 706 
Q 2900 1003 2900 1516 
L 2900 3500 
L 3475 3500 
L 3475 0 
L 2900 0 
L 2900 538 
Q 2691 219 2414 64 
Q 2138 -91 1772 -91 
Q 1169 -91 856 284 
Q 544 659 544 1381 
z
M 1991 3584 
L 1991 3584 
z
" transform="scale(0.015625)"/>
      <path id="DejaVuSans-7a" d="M 353 3500 
L 3084 3500 
L 3084 2975 
L 922 459 
L 3084 459 
L 3084 0 
L 275 0 
L 275 525 
L 2438 3041 
L 353 3041 
L 353 3500 
z
" transform="scale(0.015625)"/>
      <path id="DejaVuSans-6c" d="M 603 4863 
L 1178 4863 
L 1178 0 
L 603 0 
L 603 4863 
z
" transform="scale(0.015625)"/>
      <path id="DejaVuSans-72" d="M 2631 2963 
Q 2534 3019 2420 3045 
Q 2306 3072 2169 3072 
Q 1681 3072 1420 2755 
Q 1159 2438 1159 1844 
L 1159 0 
L 581 0 
L 581 3500 
L 1159 3500 
L 1159 2956 
Q 1341 3275 1631 3429 
Q 1922 3584 2338 3584 
Q 2397 3584 2469 3576 
Q 2541 3569 2628 3553 
L 2631 2963 
z
" transform="scale(0.015625)"/>
      <path id="DejaVuSans-62" d="M 3116 1747 
Q 3116 2381 2855 2742 
Q 2594 3103 2138 3103 
Q 1681 3103 1420 2742 
Q 1159 2381 1159 1747 
Q 1159 1113 1420 752 
Q 1681 391 2138 391 
Q 2594 391 2855 752 
Q 3116 1113 3116 1747 
z
M 1159 2969 
Q 1341 3281 1617 3432 
Q 1894 3584 2278 3584 
Q 2916 3584 3314 3078 
Q 3713 2572 3713 1747 
Q 3713 922 3314 415 
Q 2916 -91 2278 -91 
Q 1894 -91 1617 61 
Q 1341 213 1159 525 
L 1159 0 
L 581 0 
L 581 4863 
L 1159 4863 
L 1159 2969 
z
" transform="scale(0.015625)"/>
      <path id="DejaVuSans-63" d="M 3122 3366 
L 3122 2828 
Q 2878 2963 2633 3030 
Q 2388 3097 2138 3097 
Q 1578 3097 1268 2742 
Q 959 2388 959 1747 
Q 959 1106 1268 751 
Q 1578 397 2138 397 
Q 2388 397 2633 464 
Q 2878 531 3122 666 
L 3122 134 
Q 2881 22 2623 -34 
Q 2366 -91 2075 -91 
Q 1284 -91 818 406 
Q 353 903 353 1747 
Q 353 2603 823 3093 
Q 1294 3584 2113 3584 
Q 2378 3584 2631 3529 
Q 2884 3475 3122 3366 
z
" transform="scale(0.015625)"/>
      <path id="DejaVuSans-68" d="M 3513 2113 
L 3513 0 
L 2938 0 
L 2938 2094 
Q 2938 2591 2744 2837 
Q 2550 3084 2163 3084 
Q 1697 3084 1428 2787 
Q 1159 2491 1159 1978 
L 1159 0 
L 581 0 
L 581 4863 
L 1159 4863 
L 1159 2956 
Q 1366 3272 1645 3428 
Q 1925 3584 2291 3584 
Q 2894 3584 3203 3211 
Q 3513 2838 3513 2113 
z
" transform="scale(0.015625)"/>
      <path id="DejaVuSans-29" d="M 513 4856 
L 1013 4856 
Q 1481 4119 1714 3412 
Q 1947 2706 1947 2009 
Q 1947 1309 1714 600 
Q 1481 -109 1013 -844 
L 513 -844 
Q 928 -128 1133 580 
Q 1338 1288 1338 2009 
Q 1338 2731 1133 3434 
Q 928 4138 513 4856 
z
" transform="scale(0.015625)"/>
     </defs>
     <use xlink:href="#DejaVuSans-28" transform="translate(0 0.015625)"/>
     <use xlink:href="#DejaVuSans-41" transform="translate(39.013672 0.015625)"/>
     <use xlink:href="#DejaVuSans-6e" transform="translate(107.421875 0.015625)"/>
     <use xlink:href="#DejaVuSans-64" transform="translate(170.800781 0.015625)"/>
     <use xlink:href="#DejaVuSans-61" transform="translate(234.277344 0.015625)"/>
     <use xlink:href="#DejaVuSans-6d" transform="translate(295.556641 0.015625)"/>
     <use xlink:href="#DejaVuSans-65" transform="translate(392.96875 0.015625)"/>
     <use xlink:href="#DejaVuSans-6e" transform="translate(454.492188 0.015625)"/>
     <use xlink:href="#DejaVuSans-74" transform="translate(517.871094 0.015625)"/>
     <use xlink:href="#DejaVuSans-6f" transform="translate(557.080078 0.015625)"/>
     <use xlink:href="#DejaVuSans-20" transform="translate(618.261719 0.015625)"/>
     <use xlink:href="#DejaVuSans-64" transform="translate(650.048828 0.015625)"/>
     <use xlink:href="#DejaVuSans-69" transform="translate(713.525391 0.015625)"/>
     <use xlink:href="#DejaVuSans-20" transform="translate(741.308594 0.015625)"/>
     <use xlink:href="#DejaVuSans-Oblique-70" transform="translate(773.095703 0.015625)"/>
     <use xlink:href="#DejaVuSans-Oblique-6c" transform="translate(836.572266 -16.390625) scale(0.7)"/>
     <use xlink:href="#DejaVuSans-Oblique-6f" transform="translate(856.020508 -16.390625) scale(0.7)"/>
     <use xlink:href="#DejaVuSans-Oblique-73" transform="translate(898.847656 -16.390625) scale(0.7)"/>
     <use xlink:href="#DejaVuSans-Oblique-73" transform="translate(935.317383 -16.390625) scale(0.7)"/>
     <use xlink:href="#DejaVuSans-20" transform="translate(974.521484 0.015625)"/>
     <use xlink:href="#DejaVuSans-69" transform="translate(1006.308594 0.015625)"/>
     <use xlink:href="#DejaVuSans-6e" transform="translate(1034.091797 0.015625)"/>
     <use xlink:href="#DejaVuSans-20" transform="translate(1097.470703 0.015625)"/>
     <use xlink:href="#DejaVuSans-66" transform="translate(1129.257812 0.015625)"/>
     <use xlink:href="#DejaVuSans-75" transform="translate(1164.462891 0.015625)"/>
     <use xlink:href="#DejaVuSans-6e" transform="translate(1227.841797 0.015625)"/>
     <use xlink:href="#DejaVuSans-7a" transform="translate(1291.220703 0.015625)"/>
     <use xlink:href="#DejaVuSans-69" transform="translate(1343.710938 0.015625)"/>
     <use xlink:href="#DejaVuSans-6f" transform="translate(1371.494141 0.015625)"/>
     <use xlink:href="#DejaVuSans-6e" transform="translate(1432.675781 0.015625)"/>
     <use xlink:href="#DejaVuSans-65" transform="translate(1496.054688 0.015625)"/>
     <use xlink:href="#DejaVuSans-20" transform="translate(1557.578125 0.015625)"/>
     <use xlink:href="#DejaVuSans-64" transform="translate(1589.365234 0.015625)"/>
     <use xlink:href="#DejaVuSans-65" transform="translate(1652.841797 0.015625)"/>
     <use xlink:href="#DejaVuSans-6c" transform="translate(1714.365234 0.015625)"/>
     <use xlink:href="#DejaVuSans-20" transform="translate(1742.148438 0.015625)"/>
     <use xlink:href="#DejaVuSans-6e" transform="translate(1773.935547 0.015625)"/>
     <use xlink:href="#DejaVuSans-75" transform="translate(1837.314453 0.015625)"/>
     <use xlink:href="#DejaVuSans-6d" transform="translate(1900.693359 0.015625)"/>
     <use xlink:href="#DejaVuSans-65" transform="translate(1998.105469 0.015625)"/>
     <use xlink:href="#DejaVuSans-72" transform="translate(2059.628906 0.015625)"/>
     <use xlink:href="#DejaVuSans-6f" transform="translate(2100.742188 0.015625)"/>
     <use xlink:href="#DejaVuSans-20" transform="translate(2161.923828 0.015625)"/>
     <use xlink:href="#DejaVuSans-64" transform="translate(2193.710938 0.015625)"/>
     <use xlink:href="#DejaVuSans-69" transform="translate(2257.1875 0.015625)"/>
     <use xlink:href="#DejaVuSans-20" transform="translate(2284.970703 0.015625)"/>
     <use xlink:href="#DejaVuSans-62" transform="translate(2316.757812 0.015625)"/>
     <use xlink:href="#DejaVuSans-61" transform="translate(2380.234375 0.015625)"/>
     <use xlink:href="#DejaVuSans-74" transform="translate(2441.513672 0.015625)"/>
     <use xlink:href="#DejaVuSans-63" transform="translate(2480.722656 0.015625)"/>
     <use xlink:href="#DejaVuSans-68" transform="translate(2535.703125 0.015625)"/>
     <use xlink:href="#DejaVuSans-29" transform="translate(2599.082031 0.015625)"/>
    </g>
   </g>
   <g id="legend_1">
    <g id="patch_7">
     <path d="M 930.27 120.6 
L 1154.5 120.6 
Q 1157.9 120.6 1157.9 117.2 
L 1157.9 89.66 
Q 1157.9 86.26 1154.5 86.26 
L 930.27 86.26 
Q 926.87 86.26 926.87 89.66 
L 926.87 117.2 
Q 926.87 120.6 930.27 120.6 
z
" style="fill: #ffffff; opacity: 0.8; stroke: #cccccc; stroke-linejoin: miter"/>
    </g>
    <g id="line2d_44">
     <path d="M 933.67 102.92 
L 950.67 102.92 
L 967.67 102.92 
" style="fill: none; stroke-dasharray: 1.5,2.475; stroke-dashoffset: 0; stroke: #0000ff; stroke-width: 1.5"/>
    </g>
    <g id="text_37">
     <!-- $p_{loss}^{teorico} = 0.025197\ s$ -->
     <g transform="translate(981.27 108.87) scale(0.17 -0.17)">
      <defs>
       <path id="DejaVuSans-Oblique-65" d="M 3078 2063 
Q 3088 2113 3092 2166 
Q 3097 2219 3097 2272 
Q 3097 2653 2873 2875 
Q 2650 3097 2266 3097 
Q 1838 3097 1509 2826 
Q 1181 2556 1013 2059 
L 3078 2063 
z
M 3578 1613 
L 903 1613 
Q 884 1494 878 1425 
Q 872 1356 872 1306 
Q 872 872 1139 634 
Q 1406 397 1894 397 
Q 2269 397 2603 481 
Q 2938 566 3225 728 
L 3116 159 
Q 2806 34 2476 -28 
Q 2147 -91 1806 -91 
Q 1078 -91 686 257 
Q 294 606 294 1247 
Q 294 1794 489 2264 
Q 684 2734 1063 3103 
Q 1306 3334 1642 3459 
Q 1978 3584 2356 3584 
Q 2950 3584 3301 3228 
Q 3653 2872 3653 2272 
Q 3653 2128 3634 1964 
Q 3616 1800 3578 1613 
z
" transform="scale(0.015625)"/>
       <path id="DejaVuSans-Oblique-72" d="M 2853 2969 
Q 2766 3016 2653 3041 
Q 2541 3066 2413 3066 
Q 1953 3066 1609 2717 
Q 1266 2369 1153 1784 
L 800 0 
L 225 0 
L 909 3500 
L 1484 3500 
L 1375 2956 
Q 1603 3259 1920 3421 
Q 2238 3584 2597 3584 
Q 2691 3584 2781 3573 
Q 2872 3563 2963 3538 
L 2853 2969 
z
" transform="scale(0.015625)"/>
       <path id="DejaVuSans-3d" d="M 678 2906 
L 4684 2906 
L 4684 2381 
L 678 2381 
L 678 2906 
z
M 678 1631 
L 4684 1631 
L 4684 1100 
L 678 1100 
L 678 1631 
z
" transform="scale(0.015625)"/>
      </defs>
      <use xlink:href="#DejaVuSans-Oblique-70" transform="translate(0 0.470313)"/>
      <use xlink:href="#DejaVuSans-Oblique-74" transform="translate(68.126458 39.810938) scale(0.7)"/>
      <use xlink:href="#DejaVuSans-Oblique-65" transform="translate(95.572747 39.810938) scale(0.7)"/>
      <use xlink:href="#DejaVuSans-Oblique-6f" transform="translate(138.639154 39.810938) scale(0.7)"/>
      <use xlink:href="#DejaVuSans-Oblique-72" transform="translate(181.466302 39.810938) scale(0.7)"/>
      <use xlink:href="#DejaVuSans-Oblique-69" transform="translate(210.245599 39.810938) scale(0.7)"/>
      <use xlink:href="#DejaVuSans-Oblique-63" transform="translate(229.693841 39.810938) scale(0.7)"/>
      <use xlink:href="#DejaVuSans-Oblique-6f" transform="translate(268.180169 39.810938) scale(0.7)"/>
      <use xlink:href="#DejaVuSans-Oblique-6c" transform="translate(63.476562 -26.873437) scale(0.7)"/>
      <use xlink:href="#DejaVuSans-Oblique-6f" transform="translate(82.924805 -26.873437) scale(0.7)"/>
      <use xlink:href="#DejaVuSans-Oblique-73" transform="translate(125.751953 -26.873437) scale(0.7)"/>
      <use xlink:href="#DejaVuSans-Oblique-73" transform="translate(162.22168 -26.873437) scale(0.7)"/>
      <use xlink:href="#DejaVuSans-3d" transform="translate(333.224115 0.470313)"/>
      <use xlink:href="#DejaVuSans-30" transform="translate(436.495599 0.470313)"/>
      <use xlink:href="#DejaVuSans-2e" transform="translate(500.118646 0.470313)"/>
      <use xlink:href="#DejaVuSans-30" transform="translate(531.905755 0.470313)"/>
      <use xlink:href="#DejaVuSans-32" transform="translate(595.528802 0.470313)"/>
      <use xlink:href="#DejaVuSans-35" transform="translate(659.151849 0.470313)"/>
      <use xlink:href="#DejaVuSans-31" transform="translate(722.774896 0.470313)"/>
      <use xlink:href="#DejaVuSans-39" transform="translate(786.397943 0.470313)"/>
      <use xlink:href="#DejaVuSans-37" transform="translate(850.02099 0.470313)"/>
      <use xlink:href="#DejaVuSans-Oblique-73" transform="translate(946.114415 0.470313)"/>
     </g>
    </g>
   </g>
  </g>
  <g id="text_38">
   <!-- Probabilit di Perdita -->
   <g transform="translate(492.778125 35.755313) scale(0.3 -0.3)">
    <defs>
     <path id="DejaVuSans-50" d="M 1259 4147 
L 1259 2394 
L 2053 2394 
Q 2494 2394 2734 2622 
Q 2975 2850 2975 3272 
Q 2975 3691 2734 3919 
Q 2494 4147 2053 4147 
L 1259 4147 
z
M 628 4666 
L 2053 4666 
Q 2838 4666 3239 4311 
Q 3641 3956 3641 3272 
Q 3641 2581 3239 2228 
Q 2838 1875 2053 1875 
L 1259 1875 
L 1259 0 
L 628 0 
L 628 4666 
z
" transform="scale(0.015625)"/>
     <path id="DejaVuSans-e0" d="M 2194 1759 
Q 1497 1759 1228 1600 
Q 959 1441 959 1056 
Q 959 750 1161 570 
Q 1363 391 1709 391 
Q 2188 391 2477 730 
Q 2766 1069 2766 1631 
L 2766 1759 
L 2194 1759 
z
M 3341 1997 
L 3341 0 
L 2766 0 
L 2766 531 
Q 2569 213 2275 61 
Q 1981 -91 1556 -91 
Q 1019 -91 701 211 
Q 384 513 384 1019 
Q 384 1609 779 1909 
Q 1175 2209 1959 2209 
L 2766 2209 
L 2766 2266 
Q 2766 2663 2505 2880 
Q 2244 3097 1772 3097 
Q 1472 3097 1187 3025 
Q 903 2953 641 2809 
L 641 3341 
Q 956 3463 1253 3523 
Q 1550 3584 1831 3584 
Q 2591 3584 2966 3190 
Q 3341 2797 3341 1997 
z
M 1403 5119 
L 2284 3950 
L 1806 3950 
L 787 5119 
L 1403 5119 
z
" transform="scale(0.015625)"/>
    </defs>
    <use xlink:href="#DejaVuSans-50"/>
    <use xlink:href="#DejaVuSans-72" x="58.552734"/>
    <use xlink:href="#DejaVuSans-6f" x="97.416016"/>
    <use xlink:href="#DejaVuSans-62" x="158.597656"/>
    <use xlink:href="#DejaVuSans-61" x="222.074219"/>
    <use xlink:href="#DejaVuSans-62" x="283.353516"/>
    <use xlink:href="#DejaVuSans-69" x="346.830078"/>
    <use xlink:href="#DejaVuSans-6c" x="374.613281"/>
    <use xlink:href="#DejaVuSans-69" x="402.396484"/>
    <use xlink:href="#DejaVuSans-74" x="430.179688"/>
    <use xlink:href="#DejaVuSans-e0" x="469.388672"/>
    <use xlink:href="#DejaVuSans-20" x="530.667969"/>
    <use xlink:href="#DejaVuSans-64" x="562.455078"/>
    <use xlink:href="#DejaVuSans-69" x="625.931641"/>
    <use xlink:href="#DejaVuSans-20" x="653.714844"/>
    <use xlink:href="#DejaVuSans-50" x="685.501953"/>
    <use xlink:href="#DejaVuSans-65" x="742.179688"/>
    <use xlink:href="#DejaVuSans-72" x="803.703125"/>
    <use xlink:href="#DejaVuSans-64" x="843.066406"/>
    <use xlink:href="#DejaVuSans-69" x="906.542969"/>
    <use xlink:href="#DejaVuSans-74" x="934.326172"/>
    <use xlink:href="#DejaVuSans-61" x="973.535156"/>
   </g>
  </g>
 </g>
 <defs>
  <clipPath id="pc51be74237">
   <rect x="162" y="77.76" width="1004.4" height="498.96"/>
  </clipPath>
 </defs>
</svg>
